<?xml version="1.0" encoding="UTF-8"?>
<svg version="1.1" xmlns="http://www.w3.org/2000/svg" width="84" height="128">
<path d="M0 0 C3.23048748 1.4199255 5.38242488 3.13619387 7.86328125 5.6328125 C8.58580078 6.35726563 9.30832031 7.08171875 10.05273438 7.828125 C10.79845703 8.58609375 11.54417969 9.3440625 12.3125 10.125 C13.04662109 10.85976562 13.78074219 11.59453125 14.53710938 12.3515625 C18.63428687 16.48145925 22.54293138 20.71553455 26.34106445 25.12060547 C28.91699069 28.03885127 31.66359937 30.77134492 34.4375 33.5 C34.97826172 34.03625 35.51902344 34.5725 36.07617188 35.125 C37.38176617 36.41904036 38.69052996 37.70988174 40 39 C38.59112323 42.20711262 36.91307764 44.31285386 34.41015625 46.75 C33.70826172 47.4409375 33.00636719 48.131875 32.28320312 48.84375 C31.55037109 49.5553125 30.81753906 50.266875 30.0625 51 C28.61359086 52.4143198 27.16689582 53.83091217 25.72265625 55.25 C25.08078369 55.87390625 24.43891113 56.4978125 23.77758789 57.140625 C22.00636975 58.99333718 20.49334883 60.91949552 19 63 C22.85394282 71.3259708 30.47268242 77.56673197 36.93652344 83.89990234 C40.52488249 87.43546211 44.0305055 90.92127799 47 95 C45.61456084 99.15631748 42.69922792 100.50368209 39.1875 102.8125 C37.73366248 103.78930492 36.28057365 104.76722485 34.828125 105.74609375 C34.05017578 106.26800293 33.27222656 106.78991211 32.47070312 107.32763672 C28.0907202 110.29234848 23.76626576 113.3362185 19.4375 116.375 C18.60565186 116.95741455 17.77380371 117.5398291 16.91674805 118.13989258 C15.71852417 118.97943481 15.71852417 118.97943481 14.49609375 119.8359375 C13.73151855 120.36799805 12.96694336 120.90005859 12.17919922 121.44824219 C10.76374331 122.4561559 9.36774492 123.492182 7.99658203 124.55957031 C3.4648684 128.05625549 3.4648684 128.05625549 0.94824219 127.75170898 C-1.97608208 126.62338888 -3.64282444 124.6755118 -5.8125 122.4375 C-6.70066406 121.52355469 -7.58882812 120.60960938 -8.50390625 119.66796875 C-10.47262918 117.5636843 -12.38137789 115.44194604 -14.25 113.25 C-18.21254461 108.60491182 -22.57992405 104.36799577 -26.93847656 100.09863281 C-28.64479659 98.41697333 -30.32436684 96.71217028 -32 95 C-32.50885742 94.51047852 -33.01771484 94.02095703 -33.54199219 93.51660156 C-36.15389113 90.79441836 -36.98416199 89.29867161 -37.18554688 85.50097656 C-35.79068663 34.71403548 -35.79068663 34.71403548 -23.41162109 21.45458984 C-20.45440118 18.90451906 -17.42855451 16.63559922 -14.14086914 14.53027344 C-11.09909939 12.35604459 -8.86498033 9.69410769 -6.50170898 6.81884766 C-4.48434432 4.37544548 -2.27314527 2.20426208 0 0 Z " fill="#00D0B2" transform="translate(37,0)"/>
</svg>
