<?xml version="1.0" encoding="UTF-8"?>
<svg version="1.1" xmlns="http://www.w3.org/2000/svg" width="1368" height="1368">
<path d="M0 0 C0.90443848 0.29600098 1.80887695 0.59200195 2.74072266 0.89697266 C30.37300341 10.09117572 57.26332766 23.05366925 81 40 C82.04704102 40.74588379 82.04704102 40.74588379 83.11523438 41.50683594 C93.85176339 49.18923953 104.19661748 57.15543134 114 66 C114.895979 66.8034082 114.895979 66.8034082 115.81005859 67.62304688 C130.19882132 80.58616872 143.43146589 94.45528791 155 110 C155.50208984 110.66692871 156.00417969 111.33385742 156.52148438 112.02099609 C183.24212601 147.62386823 203.6068851 188.25293707 213.24169922 231.91577148 C214.71399053 238.17921097 217.19430098 243.87542727 222.4296875 247.83984375 C223.23664063 248.20207031 224.04359375 248.56429688 224.875 248.9375 C225.67679688 249.31777344 226.47859375 249.69804688 227.3046875 250.08984375 C233.48539743 252.17695304 239.84091185 252.14507355 246.2890625 252.17578125 C248.12175862 252.19553358 249.95444113 252.21658079 251.78710938 252.23876953 C253.21639771 252.25547699 253.21639771 252.25547699 254.67456055 252.27252197 C315.14357402 253.09186835 372.767798 269.57717867 421 307 C421.92167969 307.70898438 422.84335938 308.41796875 423.79296875 309.1484375 C428.88423408 313.14251541 433.73283228 317.36456004 438.5078125 321.73046875 C440.13205496 323.20959863 441.77213216 324.67158119 443.4296875 326.11328125 C454.98873636 336.2136003 464.81269789 347.74120339 474 360 C474.43054687 360.57363281 474.86109375 361.14726563 475.3046875 361.73828125 C481.81165509 370.47339229 487.66114343 379.50701487 493 389 C493.4345752 389.7719873 493.86915039 390.54397461 494.31689453 391.33935547 C501.80095758 404.78408259 507.7533157 418.54519003 513 433 C513.26006836 433.70318359 513.52013672 434.40636719 513.78808594 435.13085938 C532.45220686 485.92004834 532.07957873 543.70311013 518.1875 595.53125 C516.59518635 598.84158627 515.1307021 600.0425147 512 602 C508.92533465 602.58057632 505.90136328 602.53564612 502.77981758 602.50139666 C501.84212684 602.50700592 500.90443609 602.51261519 499.93833048 602.51839444 C496.77203193 602.53239864 493.60650406 602.51772516 490.44021606 602.50336456 C488.14721362 602.50753436 485.85421382 602.5134573 483.56121993 602.52098203 C477.2178182 602.53664874 470.87465794 602.52719137 464.53125986 602.51387022 C458.35556502 602.50285046 452.17989098 602.51455479 446.0042 602.52377842 C433.21393441 602.54220094 420.42373235 602.54156749 407.633461 602.53065491 C394.667358 602.5196596 381.70129685 602.51732069 368.73519135 602.52560425 C367.91700968 602.52612094 367.09882801 602.52663763 366.25585296 602.52716998 C362.92366566 602.529303 359.5914784 602.53149782 356.25929119 602.53377108 C325.20326866 602.55494302 294.14727418 602.5563568 263.09124756 602.54518127 C262.17048177 602.54485009 261.24971598 602.54451891 260.3010482 602.54417769 C258.91770025 602.54368012 258.91770025 602.54368012 257.50640589 602.54317249 C229.43495161 602.5330886 201.36350893 602.53047007 173.29205322 602.53526306 C171.41386327 602.53557298 169.53567331 602.5358816 167.65748335 602.53618894 C160.11023284 602.53743076 152.56298232 602.53870542 145.01573182 602.540028 C123.91670747 602.54369643 102.81768308 602.54597854 81.71865845 602.54717255 C80.75777738 602.54722713 79.79689632 602.54728171 78.80689765 602.54733795 C48.17899241 602.54897559 17.55109122 602.54446475 -13.07681274 602.53577423 C-14.07052183 602.53549323 -15.06423092 602.53521224 -16.08805241 602.53492273 C-32.22628169 602.53034268 -48.36451089 602.52546495 -64.50274008 602.52056203 C-128.51290563 602.50113598 -192.52303772 602.50203762 -256.53320312 602.52148438 C-272.6631978 602.52636895 -288.79319248 602.53121307 -304.92318726 602.53577423 C-305.91630606 602.53605602 -306.90942487 602.53633782 -307.93263818 602.53662815 C-338.5279788 602.54525003 -369.12331664 602.54891052 -399.71865845 602.54717255 C-400.67883814 602.54711821 -401.63901782 602.54706387 -402.62829387 602.54700789 C-423.70369117 602.54575809 -444.77908817 602.54322378 -465.85448518 602.53953053 C-473.39507748 602.53821391 -480.93566979 602.5369616 -488.4762621 602.53572769 C-490.35224649 602.53541814 -492.22823087 602.53510322 -494.10421526 602.53478291 C-522.16983113 602.53000418 -550.23543395 602.53408275 -578.3010482 602.54417769 C-579.22181399 602.54450888 -580.14257978 602.54484006 -581.09124756 602.54518127 C-582.46985982 602.54567737 -582.46985982 602.54567737 -583.87632283 602.54618348 C-614.8408677 602.55720423 -645.80537887 602.55318268 -676.76991892 602.5320583 C-680.09167636 602.52984878 -683.41343383 602.52770197 -686.73519135 602.52560425 C-687.95805415 602.52482301 -687.95805415 602.52482301 -689.20562125 602.52402598 C-702.13953698 602.51612156 -715.07341097 602.52164514 -728.00732295 602.53268027 C-740.71034137 602.5432346 -753.41328901 602.53959634 -766.11629841 602.52062392 C-772.91779038 602.51085434 -779.7191137 602.5079647 -786.52060294 602.52224785 C-792.69798744 602.53508889 -798.87507035 602.52979694 -805.05243251 602.50952521 C-807.28296756 602.50546901 -809.51352711 602.50823253 -811.7440429 602.51834896 C-814.75634005 602.53105048 -817.76757104 602.51941592 -820.77981758 602.50139666 C-821.65140042 602.51095962 -822.52298326 602.52052259 -823.4209777 602.53037535 C-827.48480405 602.48049098 -829.50375585 602.31310576 -833.02059734 600.09415099 C-842.45077571 590.11729395 -838.42290737 564.67751276 -838.13623047 551.87841797 C-836.41940741 503.0012654 -815.12406932 455.696298 -781.49365234 420.56542969 C-780.47927186 419.50230323 -779.4719937 418.43236372 -778.47119141 417.35644531 C-763.64822874 401.44551667 -746.18212655 389.13102018 -727 379 C-726.32501465 378.6385791 -725.6500293 378.2771582 -724.95458984 377.90478516 C-699.01479251 364.21950499 -667.51632137 355.43778435 -638 356 C-638.20496094 355.02804687 -638.40992188 354.05609375 -638.62109375 353.0546875 C-646.55042065 313.39826973 -639.86062217 273.21270755 -617.5859375 239.234375 C-612.08928059 231.16917658 -605.76031177 224.01716252 -599 217 C-598.35804688 216.29488281 -597.71609375 215.58976563 -597.0546875 214.86328125 C-579.70485618 196.34928376 -554.30548634 184.24344982 -530 178 C-529.36030273 177.83483887 -528.72060547 177.66967773 -528.06152344 177.49951172 C-491.52460831 168.62678522 -451.2182653 176.43644433 -419.4453125 195.734375 C-415.59937293 198.10944061 -411.7917144 200.53941938 -408 203 C-407.75507813 201.72253906 -407.51015625 200.44507813 -407.2578125 199.12890625 C-406.06380791 193.77679636 -404.08484985 188.94151481 -401.875 183.9375 C-401.47611572 183.02210449 -401.07723145 182.10670898 -400.66625977 181.16357422 C-397.33458319 173.59488135 -393.77032539 166.16937433 -389.94873047 158.83691406 C-389.03956201 157.07659922 -388.16159598 155.30027431 -387.28515625 153.5234375 C-378.54515735 136.27293639 -367.24868639 119.94789608 -355 105 C-354.58508301 104.49033691 -354.17016602 103.98067383 -353.74267578 103.45556641 C-338.91526611 85.31215818 -322.53112997 68.38829368 -304 54 C-303.4220166 53.54947266 -302.8440332 53.09894531 -302.24853516 52.63476562 C-282.5961868 37.38523554 -261.49477631 24.60392284 -239 14 C-237.76564209 13.41798828 -237.76564209 13.41798828 -236.50634766 12.82421875 C-163.01444312 -21.38963668 -76.81607716 -25.29096243 0 0 Z " fill="#F38020" transform="translate(838,335)"/>
<path d="M0 0 C0.8353125 1.0828125 0.8353125 1.0828125 1.6875 2.1875 C7.89415569 9.73613529 13.2192064 12.90147301 23 14 C26.09647562 14.13997913 29.18975297 14.16102156 32.2890625 14.17578125 C34.12175862 14.19553358 35.95444113 14.21658079 37.78710938 14.23876953 C38.73996826 14.24990784 39.69282715 14.26104614 40.67456055 14.27252197 C101.14357402 15.09186835 158.767798 31.57717867 207 69 C207.92167969 69.70898438 208.84335938 70.41796875 209.79296875 71.1484375 C214.88423408 75.14251541 219.73283228 79.36456004 224.5078125 83.73046875 C226.13205496 85.20959863 227.77213216 86.67158119 229.4296875 88.11328125 C240.98873636 98.2136003 250.81269789 109.74120339 260 122 C260.43054687 122.57363281 260.86109375 123.14726563 261.3046875 123.73828125 C267.81165509 132.47339229 273.66114343 141.50701487 279 151 C279.4345752 151.7719873 279.86915039 152.54397461 280.31689453 153.33935547 C287.80095758 166.78408259 293.7533157 180.54519003 299 195 C299.26006836 195.70318359 299.52013672 196.40636719 299.78808594 197.13085938 C318.45220686 247.92004834 318.07957873 305.70311013 304.1875 357.53125 C302.62636812 360.77676102 301.01886025 362.0337584 298 364 C294.64107102 364.49679399 294.64107102 364.49679399 290.71614361 364.49219131 C289.98943882 364.49680669 289.26273404 364.50142207 288.5140079 364.50617731 C286.07168988 364.51679012 283.63042045 364.49880128 281.18815613 364.48101807 C279.42254858 364.48276196 277.65694204 364.48626353 275.89134103 364.49137473 C271.03403362 364.5003342 266.17707787 364.48429771 261.31981528 364.46426249 C256.08399876 364.44701588 250.84820265 364.45283221 245.61236572 364.45587158 C236.53909276 364.45797071 227.46593471 364.44540267 218.39269066 364.42292023 C205.27426268 364.39043542 192.15589035 364.37999681 179.03742651 364.37496826 C157.75449306 364.36621009 136.47162088 364.33958032 115.1887207 364.30175781 C94.51229153 364.26505126 73.83587899 364.23673285 53.15942383 364.21972656 C51.88529033 364.21867567 50.61115684 364.21762477 49.29841324 364.21654204 C42.90656809 364.21132195 36.51472282 364.2062671 30.12287748 364.20129442 C-22.91812403 364.15981612 -75.95905903 364.08935345 -129 364 C-128.01 363.34 -127.02 362.68 -126 362 C-120.60804043 357.68643234 -119.63186435 353.40977487 -118 347 C-117.60822651 345.61212881 -117.2120568 344.22549424 -116.8125 342.83984375 C-114.16586845 333.62041219 -111.86489203 324.41266448 -110 315 C-109.71962891 313.81857422 -109.71962891 313.81857422 -109.43359375 312.61328125 C-106.40871947 294.38228221 -110.32430761 273.87339301 -120.27734375 258.37109375 C-132.86454122 241.04585823 -149.38775408 232.36613874 -170 228 C-178.07645127 226.88296156 -186.16464462 226.6769021 -194.3046875 226.46875 C-195.45236414 226.4379409 -195.45236414 226.4379409 -196.62322617 226.4065094 C-217.75155231 225.84704082 -238.88631021 225.71544212 -260.02062988 225.55471802 C-271.06317764 225.47065317 -282.10561789 225.3737295 -293.14807129 225.27820015 C-296.8573385 225.24617877 -300.5666085 225.21449489 -304.27587891 225.18284607 C-324.26770809 225.01137222 -344.25895494 224.80881967 -364.25 224.5625 C-365.02182869 224.55304352 -365.79365738 224.54358704 -366.58887482 224.53384399 C-390.9191377 224.23498182 -415.24864791 223.88363434 -439.578125 223.52734375 C-440.6627205 223.51146619 -440.6627205 223.51146619 -441.76922703 223.49526787 C-456.03142721 223.28645998 -470.29361983 223.07713788 -484.55578613 222.86602783 C-528.48023987 222.21604942 -528.48023987 222.21604942 -572.40625 221.68359375 C-573.9617733 221.66677488 -573.9617733 221.66677488 -575.54872131 221.64961624 C-584.96975255 221.54836317 -594.39081272 221.45169686 -603.81198883 221.36493492 C-611.76384704 221.29164003 -619.71525567 221.20406273 -627.66666412 221.09168053 C-632.97063913 221.01896994 -638.2742527 220.97783163 -643.57862854 220.94731426 C-647.46386179 220.91962237 -651.34865448 220.87081942 -655.23361206 220.81749153 C-657.10017111 220.79615604 -658.96684942 220.78333301 -660.83352661 220.77956963 C-663.42240554 220.77307102 -666.00918411 220.7358477 -668.59765625 220.69165039 C-669.36142578 220.69697092 -670.12519531 220.70229145 -670.91210938 220.70777321 C-676.70263356 220.56024053 -679.11331524 219.01584192 -683 215 C-684.16935477 211.53585513 -683.960032 208.51450311 -683 205 C-680.5334325 201.8259674 -677.57019634 199.78509817 -674 198 C-671.18597381 197.85047355 -668.39449931 197.76376896 -665.578125 197.71875 C-664.66425018 197.70074844 -663.75037537 197.68274689 -662.80880737 197.66419983 C-659.62261484 197.60383738 -656.43634453 197.55168837 -653.25 197.5 C-652.10094177 197.47976776 -650.95188354 197.45953552 -649.76800537 197.43869019 C-632.48940224 197.13549332 -615.21017937 196.94200222 -597.9296875 196.78515625 C-596.95033108 196.7762524 -595.97097466 196.76734856 -594.96194077 196.7581749 C-586.59918602 196.68240415 -578.2364228 196.60754988 -569.8736496 196.53384399 C-532.87011109 196.20713689 -495.87401297 195.65890174 -458.875 195 C-420.26339528 194.31241775 -381.65614547 193.8077286 -343.03943634 193.52646637 C-304.6464685 193.24436186 -266.25604072 192.86914595 -227.86697388 192.24291992 C-223.01261042 192.16391751 -218.15822027 192.09095648 -213.30368042 192.02368164 C-207.6401687 191.94471633 -201.97703128 191.85226889 -196.3139019 191.74955368 C-194.25662852 191.71421447 -192.19927491 191.68319838 -190.14186287 191.65715408 C-173.5569585 191.44162118 -156.45260763 190.6426978 -140.6875 185 C-139.83760498 184.70440186 -138.98770996 184.40880371 -138.11206055 184.10424805 C-115.96086806 176.11433489 -95.67958225 164.5870065 -78 149 C-77.01644531 148.13761719 -76.03289063 147.27523437 -75.01953125 146.38671875 C-56.31098125 129.74864499 -41.74903559 109.76759265 -31.8984375 86.7265625 C-31.51205612 85.82324188 -31.12567474 84.91992126 -30.72758484 83.98922729 C-25.73357072 72.17212881 -21.29100725 60.14434284 -16.8125 48.125 C-15.09219644 43.52255446 -13.36861699 38.92134225 -11.64453125 34.3203125 C-11.03449753 32.68657684 -11.03449753 32.68657684 -10.41213989 31.01983643 C-7.76981943 23.96665199 -5.00983502 16.97870139 -2.06518555 10.04638672 C-0.89476243 6.69902489 -0.39285101 3.51713625 0 0 Z " fill="#FAAE40" transform="translate(1052,573)"/>
<path d="M0 0 C0.8353125 1.0828125 0.8353125 1.0828125 1.6875 2.1875 C9.73420026 11.97402735 16.80134967 13.44077402 29 15 C28.23413574 15.64880127 27.46827148 16.29760254 26.67919922 16.96606445 C23.32915783 20.33460337 22.35632803 24.04465187 21.1328125 28.54296875 C20.77206131 29.79254616 20.77206131 29.79254616 20.40402222 31.06736755 C19.62831691 33.76980404 18.87632829 36.47819538 18.125 39.1875 C17.59499399 41.05357642 17.06373739 42.91929809 16.53125 44.78466797 C14.99654197 50.18312956 13.49283837 55.58982884 12 61 C11.79918823 61.72628601 11.59837646 62.45257202 11.39147949 63.2008667 C9.68531662 69.37832092 8.01220878 75.56238677 6.40234375 81.765625 C5.59471918 84.86014846 4.73304162 87.89833876 3.69140625 90.921875 C-2.8970067 111.07466754 -0.18130873 134.74346216 8 154 C16.67792165 170.93522975 32.08990112 182.18732523 50 188 C60.82700684 191.21748789 71.67442933 191.84848075 82.875 192.5 C84.82149936 192.62155569 86.76795021 192.74389014 88.71435547 192.86694336 C99.9779811 193.56835187 111.24635623 194.18233651 122.515625 194.78515625 C123.73279205 194.85048553 124.94995911 194.91581482 126.20401001 194.98312378 C132.15364716 195.3013171 138.10349615 195.61254161 144.05419922 195.91015625 C150.37233975 196.23115878 156.68663934 196.59598779 163 197 C164.42644836 197.08758575 164.42644836 197.08758575 165.88171387 197.17694092 C168.52561677 197.3501373 171.16435108 197.55693668 173.8046875 197.77734375 C174.56975616 197.82524551 175.33482483 197.87314728 176.12307739 197.92250061 C179.95327489 198.28415145 181.91686777 198.93464666 184.96923828 201.33422852 C187.19277952 204.25306078 187.78620411 206.24946668 187.5625 209.93359375 C186.52311023 213.75190754 183.9875801 216.49217729 181 219 C177.18838559 220.27053814 173.4601228 220.40206393 169.48046875 220.6484375 C168.61057816 220.70549866 167.74068756 220.76255981 166.84443665 220.8213501 C163.95902396 221.00970618 161.07328183 221.19239372 158.1875 221.375 C156.1705501 221.50534403 154.1536233 221.63604597 152.13671875 221.76708984 C147.90946122 222.04126942 143.68207135 222.3132814 139.45458984 222.58398438 C133.14226761 222.9892722 126.83084625 223.40748527 120.51953125 223.828125 C117.48793912 224.02928358 114.45633052 224.23019168 111.42471313 224.43096924 C109.50929556 224.55804151 107.5939093 224.68558703 105.67855835 224.81365967 C94.84406099 225.53662335 84.01187977 226.18238497 73.16320801 226.65408325 C37.79236673 228.22089451 6.10422943 240.52083706 -22 262 C-22.89460938 262.6703125 -23.78921875 263.340625 -24.7109375 264.03125 C-44.50014989 279.4822867 -60.56665909 298.69534656 -72 321 C-72.58914185 322.13103149 -72.58914185 322.13103149 -73.19018555 323.28491211 C-76.43365377 329.6152413 -79.20242706 336.07328854 -81.8125 342.6875 C-82.21919922 343.68072266 -82.62589844 344.67394531 -83.04492188 345.69726562 C-85.13986693 350.99624428 -86.74127235 355.28696161 -86 361 C-85.34 361.99 -84.68 362.98 -84 364 C-98.85 364 -113.7 364 -129 364 C-128.01 363.34 -127.02 362.68 -126 362 C-120.60804043 357.68643234 -119.63186435 353.40977487 -118 347 C-117.60822651 345.61212881 -117.2120568 344.22549424 -116.8125 342.83984375 C-114.16586845 333.62041219 -111.86489203 324.41266448 -110 315 C-109.71962891 313.81857422 -109.71962891 313.81857422 -109.43359375 312.61328125 C-106.40871947 294.38228221 -110.32430761 273.87339301 -120.27734375 258.37109375 C-132.86454122 241.04585823 -149.38775408 232.36613874 -170 228 C-178.07645127 226.88296156 -186.16464462 226.6769021 -194.3046875 226.46875 C-195.45236414 226.4379409 -195.45236414 226.4379409 -196.62322617 226.4065094 C-217.75155231 225.84704082 -238.88631021 225.71544212 -260.02062988 225.55471802 C-271.06317764 225.47065317 -282.10561789 225.3737295 -293.14807129 225.27820015 C-296.8573385 225.24617877 -300.5666085 225.21449489 -304.27587891 225.18284607 C-324.26770809 225.01137222 -344.25895494 224.80881967 -364.25 224.5625 C-365.02182869 224.55304352 -365.79365738 224.54358704 -366.58887482 224.53384399 C-390.9191377 224.23498182 -415.24864791 223.88363434 -439.578125 223.52734375 C-440.6627205 223.51146619 -440.6627205 223.51146619 -441.76922703 223.49526787 C-456.03142721 223.28645998 -470.29361983 223.07713788 -484.55578613 222.86602783 C-528.48023987 222.21604942 -528.48023987 222.21604942 -572.40625 221.68359375 C-573.9617733 221.66677488 -573.9617733 221.66677488 -575.54872131 221.64961624 C-584.96975255 221.54836317 -594.39081272 221.45169686 -603.81198883 221.36493492 C-611.76384704 221.29164003 -619.71525567 221.20406273 -627.66666412 221.09168053 C-632.97063913 221.01896994 -638.2742527 220.97783163 -643.57862854 220.94731426 C-647.46386179 220.91962237 -651.34865448 220.87081942 -655.23361206 220.81749153 C-657.10017111 220.79615604 -658.96684942 220.78333301 -660.83352661 220.77956963 C-663.42240554 220.77307102 -666.00918411 220.7358477 -668.59765625 220.69165039 C-669.36142578 220.69697092 -670.12519531 220.70229145 -670.91210938 220.70777321 C-676.70263356 220.56024053 -679.11331524 219.01584192 -683 215 C-684.16935477 211.53585513 -683.960032 208.51450311 -683 205 C-680.5334325 201.8259674 -677.57019634 199.78509817 -674 198 C-671.18597381 197.85047355 -668.39449931 197.76376896 -665.578125 197.71875 C-664.66425018 197.70074844 -663.75037537 197.68274689 -662.80880737 197.66419983 C-659.62261484 197.60383738 -656.43634453 197.55168837 -653.25 197.5 C-652.10094177 197.47976776 -650.95188354 197.45953552 -649.76800537 197.43869019 C-632.48940224 197.13549332 -615.21017937 196.94200222 -597.9296875 196.78515625 C-596.95033108 196.7762524 -595.97097466 196.76734856 -594.96194077 196.7581749 C-586.59918602 196.68240415 -578.2364228 196.60754988 -569.8736496 196.53384399 C-532.87011109 196.20713689 -495.87401297 195.65890174 -458.875 195 C-420.26339528 194.31241775 -381.65614547 193.8077286 -343.03943634 193.52646637 C-304.6464685 193.24436186 -266.25604072 192.86914595 -227.86697388 192.24291992 C-223.01261042 192.16391751 -218.15822027 192.09095648 -213.30368042 192.02368164 C-207.6401687 191.94471633 -201.97703128 191.85226889 -196.3139019 191.74955368 C-194.25662852 191.71421447 -192.19927491 191.68319838 -190.14186287 191.65715408 C-173.5569585 191.44162118 -156.45260763 190.6426978 -140.6875 185 C-139.83760498 184.70440186 -138.98770996 184.40880371 -138.11206055 184.10424805 C-115.96086806 176.11433489 -95.67958225 164.5870065 -78 149 C-77.01644531 148.13761719 -76.03289063 147.27523437 -75.01953125 146.38671875 C-56.31098125 129.74864499 -41.74903559 109.76759265 -31.8984375 86.7265625 C-31.51205612 85.82324188 -31.12567474 84.91992126 -30.72758484 83.98922729 C-25.73357072 72.17212881 -21.29100725 60.14434284 -16.8125 48.125 C-15.09219644 43.52255446 -13.36861699 38.92134225 -11.64453125 34.3203125 C-11.03449753 32.68657684 -11.03449753 32.68657684 -10.41213989 31.01983643 C-7.76981943 23.96665199 -5.00983502 16.97870139 -2.06518555 10.04638672 C-0.89476243 6.69902489 -0.39285101 3.51713625 0 0 Z " fill="#FEFEFD" transform="translate(1052,573)"/>
</svg>
