<?xml version="1.0" encoding="UTF-8"?>
<svg version="1.1" xmlns="http://www.w3.org/2000/svg" width="1000" height="1000">
<path d="M0 0 C0.71671875 -0.01546875 1.4334375 -0.0309375 2.171875 -0.046875 C12.30245473 0.02497308 20.96381359 4.63854828 29.15234375 10.21484375 C29.99314484 10.77357681 30.83394592 11.33230988 31.70022583 11.90797424 C34.45314932 13.74066365 37.19516472 15.58901318 39.9375 17.4375 C41.89105282 18.74207351 43.84541437 20.0454367 45.80053711 21.34765625 C49.85801346 24.0513202 53.91197447 26.76014432 57.96386719 29.47216797 C63.67890817 33.2921542 69.41647639 37.07686144 75.1640625 40.84765625 C76.51862045 41.73654289 76.51862045 41.73654289 77.90054321 42.64338684 C79.7157203 43.83446037 81.53091595 45.0255056 83.34613037 46.21652222 C100.18135637 57.26997062 116.91114285 68.47339302 133.59356689 79.75585938 C144.88171962 87.38938248 156.19864047 94.95974972 167.63671875 102.3671875 C176.70308512 108.24271735 185.72624848 114.18431046 194.75 120.125 C195.68926331 120.74328674 196.62852661 121.36157349 197.59625244 121.99859619 C212.06592956 131.52971161 226.46034436 141.1679699 240.8125 150.875 C253.02722782 159.13616987 265.25922728 167.35137438 277.63671875 175.3671875 C286.70308512 181.24271735 295.72624848 187.18431046 304.75 193.125 C305.68926331 193.74328674 306.62852661 194.36157349 307.59625244 194.99859619 C322.06592956 204.52971161 336.46034436 214.1679699 350.8125 223.875 C363.02722782 232.13616987 375.25922728 240.35137438 387.63671875 248.3671875 C411.52298542 263.84686999 435.2477244 279.58314701 458.86218262 295.47381592 C460.72666032 296.72844145 462.59179992 297.982084 464.4576416 299.23468018 C467.06139335 300.98366136 469.66203337 302.73716944 472.26171875 304.4921875 C473.01613754 304.99832581 473.77055634 305.50446411 474.5478363 306.02593994 C490.03728986 316.5170026 490.03728986 316.5170026 493.875 322.875 C494.40867187 323.72835938 494.94234375 324.58171875 495.4921875 325.4609375 C499.71699319 333.97621943 500.4337466 341.42037666 500.38768005 350.88449097 C500.39185868 352.22910828 500.39733909 353.57372205 500.40399987 354.91832936 C500.41840401 358.59374253 500.41422563 362.26893049 500.40683305 365.94435573 C500.40209114 369.91583637 500.41462028 373.88726901 500.42485046 377.85873413 C500.44202397 385.63170893 500.44288146 393.40460283 500.43763756 401.17759167 C500.43359182 407.49737133 500.43504422 413.81712714 500.44038582 420.13690567 C500.44113424 421.03727807 500.44188266 421.93765048 500.44265376 422.86530689 C500.44418528 424.69457205 500.44572363 426.5238372 500.44726873 428.35310234 C500.46098861 445.49779448 500.45555975 462.64244095 500.44408352 479.78713204 C500.43415235 495.46050073 500.44709072 511.13375135 500.47101771 526.80710183 C500.49541994 542.9135189 500.50501378 559.01988101 500.49836498 575.12631619 C500.49487518 584.16364102 500.49708905 593.20087506 500.51461601 602.23818588 C500.52935207 609.93166168 500.52995515 617.62498276 500.5125451 625.31845556 C500.50404413 629.24089387 500.50186322 633.16305597 500.51719666 637.08547974 C500.53108107 640.68186518 500.52623317 644.27773875 500.50695742 647.87409486 C500.50144352 649.77928085 500.51543767 651.68449315 500.53031152 653.58962905 C500.42264537 666.22678856 496.49381612 676.12512932 488 685.5 C486.05247057 687.06378567 484.04582511 688.55548813 482 689.98828125 C481.09926254 690.6200679 481.09926254 690.6200679 480.18032837 691.26461792 C472.29166789 696.7545263 464.24089431 702.0079742 456.20166016 707.2734375 C451.30495849 710.48095049 446.41445722 713.69789469 441.5234375 716.9140625 C440.53937927 717.56086975 439.55532104 718.207677 438.54144287 718.87408447 C429.66789466 724.71005738 420.82894461 730.59684998 412 736.5 C402.5193569 742.83763644 393.02498942 749.15304729 383.49609375 755.41796875 C382.59450027 756.01073608 381.6929068 756.60350342 380.76399231 757.2142334 C378.91807807 758.42767515 377.07213565 759.64107405 375.22616577 760.85443115 C359.14332936 771.42613419 343.12926526 782.09164612 327.1875 792.875 C314.97289161 801.13633988 302.74076795 809.35137747 290.36328125 817.3671875 C281.29691488 823.24271735 272.27375152 829.18431046 263.25 835.125 C262.31073669 835.74328674 261.37147339 836.36157349 260.40374756 836.99859619 C245.93407044 846.52971161 231.53965564 856.1679699 217.1875 865.875 C204.97277218 874.13616987 192.74077272 882.35137438 180.36328125 890.3671875 C171.29691488 896.24271735 162.27375152 902.18431046 153.25 908.125 C152.31073669 908.74328674 151.37147339 909.36157349 150.40374756 909.99859619 C135.93407044 919.52971161 121.53965564 929.1679699 107.1875 938.875 C83.68265112 954.77200174 83.68265112 954.77200174 73.10717773 961.58081055 C67.4186261 965.24891082 61.77576554 968.97839873 56.151474 972.74423218 C52.18976316 975.39574795 48.22220952 978.03846167 44.25460815 980.68115234 C42.27200753 982.00504748 40.2920634 983.33293064 38.31497192 984.66503906 C35.51380471 986.55165046 32.70326306 988.42351625 29.890625 990.29296875 C29.05802658 990.85900314 28.22542816 991.42503754 27.36759949 992.00822449 C18.87582015 997.61303523 10.26631925 1001.22157524 0 1001 C-0.71671875 1001.01546875 -1.4334375 1001.0309375 -2.171875 1001.046875 C-12.30245473 1000.97502692 -20.96381359 996.36145172 -29.15234375 990.78515625 C-29.99314484 990.22642319 -30.83394592 989.66769012 -31.70022583 989.09202576 C-34.45314932 987.25933635 -37.19516472 985.41098682 -39.9375 983.5625 C-41.89105282 982.25792649 -43.84541437 980.9545633 -45.80053711 979.65234375 C-49.85801346 976.9486798 -53.91197447 974.23985568 -57.96386719 971.52783203 C-63.67890817 967.7078458 -69.41647639 963.92313856 -75.1640625 960.15234375 C-76.06710114 959.55975266 -76.97013977 958.96716156 -77.90054321 958.35661316 C-79.7157203 957.16553963 -81.53091595 955.9744944 -83.34613037 954.78347778 C-100.18135637 943.73002938 -116.91114285 932.52660698 -133.59356689 921.24414062 C-144.88171962 913.61061752 -156.19864047 906.04025028 -167.63671875 898.6328125 C-176.70308512 892.75728265 -185.72624848 886.81568954 -194.75 880.875 C-196.15889496 879.94756989 -196.15889496 879.94756989 -197.59625244 879.00140381 C-212.06592956 869.47028839 -226.46034436 859.8320301 -240.8125 850.125 C-253.02722782 841.86383013 -265.25922728 833.64862562 -277.63671875 825.6328125 C-286.70308512 819.75728265 -295.72624848 813.81568954 -304.75 807.875 C-305.68926331 807.25671326 -306.62852661 806.63842651 -307.59625244 806.00140381 C-322.06592956 796.47028839 -336.46034436 786.8320301 -350.8125 777.125 C-363.02722782 768.86383013 -375.25922728 760.64862562 -387.63671875 752.6328125 C-411.52298542 737.15313001 -435.2477244 721.41685299 -458.86218262 705.52618408 C-460.72666032 704.27155855 -462.59179992 703.017916 -464.4576416 701.76531982 C-467.06139335 700.01633864 -469.66203337 698.26283056 -472.26171875 696.5078125 C-473.39334694 695.74860504 -473.39334694 695.74860504 -474.5478363 694.97406006 C-490.03728986 684.4829974 -490.03728986 684.4829974 -493.875 678.125 C-494.40867187 677.27164063 -494.94234375 676.41828125 -495.4921875 675.5390625 C-499.71699319 667.02378057 -500.4337466 659.57962334 -500.38768005 650.11550903 C-500.39185868 648.77089172 -500.39733909 647.42627795 -500.40399987 646.08167064 C-500.41840401 642.40625747 -500.41422563 638.73106951 -500.40683305 635.05564427 C-500.40209114 631.08416363 -500.41462028 627.11273099 -500.42485046 623.14126587 C-500.44202397 615.36829107 -500.44288146 607.59539717 -500.43763756 599.82240833 C-500.43359182 593.50262867 -500.43504422 587.18287286 -500.44038582 580.86309433 C-500.44113424 579.96272193 -500.44188266 579.06234952 -500.44265376 578.13469311 C-500.44418528 576.30542795 -500.44572363 574.4761628 -500.44726873 572.64689766 C-500.46098861 555.50220552 -500.45555975 538.35755905 -500.44408352 521.21286796 C-500.43415235 505.53949927 -500.44709072 489.86624865 -500.47101771 474.19289817 C-500.49541994 458.0864811 -500.50501378 441.98011899 -500.49836498 425.87368381 C-500.49487518 416.83635898 -500.49708905 407.79912494 -500.51461601 398.76181412 C-500.52935207 391.06833832 -500.52995515 383.37501724 -500.5125451 375.68154444 C-500.50404413 371.75910613 -500.50186322 367.83694403 -500.51719666 363.91452026 C-500.53108107 360.31813482 -500.52623317 356.72226125 -500.50695742 353.12590514 C-500.50144352 351.22071915 -500.51543767 349.31550685 -500.53031152 347.41037095 C-500.42264537 334.77321144 -496.49381612 324.87487068 -488 315.5 C-486.05247057 313.93621433 -484.04582511 312.44451187 -482 311.01171875 C-481.39950836 310.59052765 -480.79901672 310.16933655 -480.18032837 309.73538208 C-472.29166789 304.2454737 -464.24089431 298.9920258 -456.20166016 293.7265625 C-451.30495849 290.51904951 -446.41445722 287.30210531 -441.5234375 284.0859375 C-440.53937927 283.43913025 -439.55532104 282.792323 -438.54144287 282.12591553 C-429.66789466 276.28994262 -420.82894461 270.40315002 -412 264.5 C-402.5193569 258.16236356 -393.02498942 251.84695271 -383.49609375 245.58203125 C-382.14370354 244.69288025 -382.14370354 244.69288025 -380.76399231 243.7857666 C-378.91807807 242.57232485 -377.07213565 241.35892595 -375.22616577 240.14556885 C-359.14332936 229.57386581 -343.12926526 218.90835388 -327.1875 208.125 C-314.97289161 199.86366012 -302.74076795 191.64862253 -290.36328125 183.6328125 C-281.29691488 177.75728265 -272.27375152 171.81568954 -263.25 165.875 C-262.31073669 165.25671326 -261.37147339 164.63842651 -260.40374756 164.00140381 C-245.93407044 154.47028839 -231.53965564 144.8320301 -217.1875 135.125 C-204.97277218 126.86383013 -192.74077272 118.64862562 -180.36328125 110.6328125 C-171.29691488 104.75728265 -162.27375152 98.81568954 -153.25 92.875 C-152.31073669 92.25671326 -151.37147339 91.63842651 -150.40374756 91.00140381 C-135.93407044 81.47028839 -121.53965564 71.8320301 -107.1875 62.125 C-83.68265112 46.22799826 -83.68265112 46.22799826 -73.10717773 39.41918945 C-67.4186261 35.75108918 -61.77576554 32.02160127 -56.151474 28.25576782 C-52.18976316 25.60425205 -48.22220952 22.96153833 -44.25460815 20.31884766 C-42.27200753 18.99495252 -40.2920634 17.66706936 -38.31497192 16.33496094 C-35.51380471 14.44834954 -32.70326306 12.57648375 -29.890625 10.70703125 C-29.05802658 10.14099686 -28.22542816 9.57496246 -27.36759949 8.99177551 C-18.87582015 3.38696477 -10.26631925 -0.22157524 0 0 Z M-51.8359375 126.60546875 C-52.64571548 127.14811874 -53.45549347 127.69076874 -54.28981018 128.24986267 C-56.05640476 129.43425595 -57.82162829 130.62069612 -59.58566284 131.80889893 C-64.35158781 135.01871948 -69.12759113 138.21348876 -73.90234375 141.41015625 C-74.89534988 142.07553406 -75.88835602 142.74091187 -76.91145325 143.42645264 C-87.54947028 150.54939421 -98.2410615 157.59023046 -108.9375 164.625 C-121.51167901 172.89889813 -134.07120612 181.19197779 -146.58178711 189.56176758 C-153.3384031 194.07563045 -160.11590183 198.55655792 -166.90625 203.01953125 C-185.94581457 215.53528253 -204.93983877 228.10852338 -223.8125 240.875 C-236.02705885 249.13641167 -248.25923371 257.35137854 -260.63671875 265.3671875 C-269.70308512 271.24271735 -278.72624848 277.18431046 -287.75 283.125 C-288.68926331 283.74328674 -289.62852661 284.36157349 -290.59625244 284.99859619 C-305.98556641 295.13547253 -321.28509717 305.40062154 -336.54852295 315.72583008 C-371.60978045 339.44142759 -371.60978045 339.44142759 -380.0703125 344.2421875 C-380.70710938 344.65726563 -381.34390625 345.07234375 -382 345.5 C-382 346.16 -382 346.82 -382 347.5 C-380.11781912 349.03132489 -380.11781912 349.03132489 -377.60546875 350.61328125 C-376.60781494 351.27021973 -375.61016113 351.9271582 -374.58227539 352.60400391 C-374.03266144 352.96149719 -373.48304749 353.31899048 -372.91677856 353.68731689 C-369.87512268 355.66641956 -366.84902758 357.66914286 -363.8203125 359.66796875 C-363.14603714 360.11205078 -362.47176178 360.55613281 -361.77705383 361.01367188 C-351.98578278 367.47143133 -342.28074318 374.05813783 -332.5625 380.625 C-328.91830505 383.08643581 -325.2737583 385.54734982 -321.62890625 388.0078125 C-320.76555161 388.59066513 -319.90219696 389.17351776 -319.01268005 389.77403259 C-314.70279643 392.68205329 -310.38792141 395.58189999 -306.05859375 398.4609375 C-295.87444893 405.23358708 -285.75449303 412.10263346 -275.61767578 418.94580078 C-272.7973849 420.84955724 -269.97688036 422.75299655 -267.15625 424.65625 C-266.25548233 425.26417389 -265.35471466 425.87209778 -264.426651 426.4984436 C-259.67931053 429.70036193 -254.92327745 432.8880425 -250.15234375 436.0546875 C-246.970941 438.16729785 -243.82676941 440.31453452 -240.72265625 442.5390625 C-240.10712891 442.97347656 -239.49160156 443.40789062 -238.85742188 443.85546875 C-237.62409539 444.7277889 -236.40055235 445.61405602 -235.18554688 446.51171875 C-233.16529217 447.97689784 -233.16529217 447.97689784 -230 449.5 C-226.17712089 448.40479257 -223.15379254 446.40839072 -219.8984375 444.16796875 C-218.35833008 443.1147644 -218.35833008 443.1147644 -216.78710938 442.0402832 C-216.23434326 441.65909332 -215.68157715 441.27790344 -215.11206055 440.88516235 C-212.6980007 439.22072492 -210.2765339 437.56720551 -207.85540771 435.91307068 C-206.50533875 434.99068242 -205.15561921 434.06778256 -203.80621338 433.14442444 C-195.01945169 427.13586482 -186.18980302 421.19077475 -177.36260986 415.24185181 C-174.55034406 413.34643107 -171.7387266 411.45005212 -168.92724609 409.5534668 C-154.58311533 399.87961821 -154.58311533 399.87961821 -148.0625 395.54296875 C-138.84294015 389.4098794 -129.67759287 383.19561369 -120.5 377 C-99.41851796 362.76830325 -99.41851796 362.76830325 -93.0390625 358.52734375 C-87.50561454 354.84792682 -81.99863636 351.1297922 -76.4921875 347.41015625 C-75.55179626 346.7750412 -74.61140503 346.13992615 -73.64251709 345.48556519 C-69.71560511 342.83315687 -65.78890492 340.18043782 -61.86328125 337.52612305 C-58.9694726 335.56972872 -56.07466393 333.61482198 -53.1796875 331.66015625 C-52.28708221 331.05607437 -51.39447693 330.45199249 -50.474823 329.8296051 C-49.65281403 329.27490036 -48.83080505 328.72019562 -47.98388672 328.14868164 C-47.26063202 327.65985001 -46.53737732 327.17101837 -45.79220581 326.66737366 C-44 325.5 -44 325.5 -42 324.5 C-42 257.51 -42 190.52 -42 121.5 C-45.72140821 121.5 -48.82174003 124.56486443 -51.8359375 126.60546875 Z M42 121.5 C40.96710179 147.46260782 40.19392136 173.42209853 39.72026443 199.40118694 C39.49435299 211.46828183 39.18607116 223.52242141 38.68066406 235.58129883 C33.14106733 287.64752902 33.14106733 287.64752902 48.8489418 334.58423519 C58.1246197 343.2139285 69.08323384 348.06422812 81.05187988 351.81253052 C87.45192288 353.84826211 91.84861293 357.22633093 97 361.5 C98.68870799 362.67079065 100.39351477 363.81868666 102.11328125 364.94335938 C103.38014771 365.77462341 103.38014771 365.77462341 104.67260742 366.62268066 C105.54377197 367.19063354 106.41493652 367.75858643 107.3125 368.34375 C108.24747314 368.95714233 109.18244629 369.57053467 110.14575195 370.20251465 C113.09547847 372.13760321 116.04743157 374.06925087 119 376 C140.76011311 390.2294143 140.76011311 390.2294143 148.94921875 396.32226562 C157.11119424 402.14851574 165.60836427 407.5125257 174 413 C196.69687176 427.84198128 196.69687176 427.84198128 207 435.5 C210.59597626 438.08521536 214.22555442 440.61600616 217.875 443.125 C218.78507813 443.77339844 219.69515625 444.42179687 220.6328125 445.08984375 C221.51453125 445.69183594 222.39625 446.29382813 223.3046875 446.9140625 C224.08827637 447.4601416 224.87186523 448.0062207 225.67919922 448.56884766 C227.99281484 449.76268761 227.99281484 449.76268761 230.48291016 448.86279297 C233.08864867 447.45200418 235.52097827 445.95276502 237.96875 444.28125 C239.02191406 443.56710937 240.07507813 442.85296875 241.16015625 442.1171875 C242.06048584 441.50278809 242.06048584 441.50278809 242.97900391 440.87597656 C246.12248158 438.73576876 249.27874967 436.61460704 252.43310547 434.49047852 C257.12445772 431.33052429 261.81193172 428.16482333 266.5 425 C287.57810104 410.7705857 287.57810104 410.7705857 296.74023438 404.67773438 C305.01455445 399.14995314 313.25252155 393.56771161 321.5 388 C349.09032483 369.37431061 349.09032483 369.37431061 360.24926758 362.0524292 C362.64868366 360.47692154 365.04504853 358.89681243 367.44091797 357.31591797 C368.66689736 356.50885623 369.89449069 355.70424181 371.12353516 354.90185547 C372.92519517 353.72480867 374.72090031 352.53914831 376.515625 351.3515625 C377.57040039 350.65885254 378.62517578 349.96614258 379.71191406 349.25244141 C380.8445166 348.38498291 380.8445166 348.38498291 382 347.5 C382 346.84 382 346.18 382 345.5 C379.77384144 343.98070296 377.54730952 342.58393049 375.234375 341.20703125 C368.91164201 337.34946478 362.70770948 333.35691957 356.578125 329.19921875 C355.34591217 328.36426125 355.34591217 328.36426125 354.08880615 327.51243591 C352.36777618 326.34476463 350.64730866 325.17626397 348.92736816 324.00698853 C328.09735144 309.851305 307.09730692 295.96186249 286.04614258 282.13809204 C280.58387403 278.54874288 275.13983905 274.9332677 269.70617676 271.30081177 C264.62727824 267.90936294 259.52673246 264.55143883 254.421875 261.19921875 C233.45980347 247.4297832 212.56971596 233.56429846 191.81542969 219.4831543 C181.95356589 212.79811835 172.02588646 206.22933825 162.02392578 199.75585938 C153.46535191 194.2160629 144.95165465 188.60772788 136.4375 183 C135.04224594 182.08139191 135.04224594 182.08139191 133.61880493 181.14422607 C119.07754802 171.56530901 104.61129237 161.87973973 90.1875 152.125 C73.20991338 140.63840255 73.20991338 140.63840255 56.125 129.3125 C55.23449951 128.72484863 54.34399902 128.13719727 53.42651367 127.53173828 C52.62834229 127.01208496 51.8301709 126.49243164 51.0078125 125.95703125 C50.34410645 125.52366455 49.68040039 125.09029785 48.99658203 124.64379883 C46.73833887 123.35009998 44.42136425 122.44655366 42 121.5 Z M-4.93359375 399.98046875 C-6.2170166 400.83995117 -6.2170166 400.83995117 -7.52636719 401.71679688 C-8.48704102 402.36712891 -9.44771484 403.01746094 -10.4375 403.6875 C-11.45360352 404.37005859 -12.46970703 405.05261719 -13.51660156 405.75585938 C-16.6009974 407.82842479 -19.68082901 409.90769988 -22.76019287 411.98773193 C-27.08437352 414.90732274 -31.41170036 417.82224916 -35.73828125 420.73828125 C-41.44977268 424.58818448 -47.16060902 428.43904857 -52.86889648 432.29370117 C-67.92708667 442.46139165 -67.92708667 442.46139165 -73.953125 446.46875 C-83.16816541 452.59689856 -92.32779563 458.80802398 -101.5 465 C-130.30040967 484.44259403 -130.30040967 484.44259403 -140.109375 490.8359375 C-140.8828125 491.34253906 -141.65625 491.84914063 -142.453125 492.37109375 C-144.02793355 493.4022184 -145.60625221 494.42799622 -147.1875 495.44921875 C-148.32445312 496.19751953 -148.32445312 496.19751953 -149.484375 496.9609375 C-150.50096191 497.62295166 -150.50096191 497.62295166 -151.53808594 498.29833984 C-152.02051758 498.6948877 -152.50294922 499.09143555 -153 499.5 C-153 500.16 -153 500.82 -153 501.5 C-150.49051806 503.32303866 -147.97206069 505.02505168 -145.3671875 506.703125 C-143.70361298 507.7928743 -142.04054886 508.88340307 -140.37792969 509.97460938 C-139.05722473 510.83783813 -139.05722473 510.83783813 -137.70983887 511.71850586 C-133.19899695 514.68401002 -128.72952898 517.71033075 -124.2578125 520.734375 C-122.41151149 521.9805475 -120.5651569 523.22664064 -118.71875 524.47265625 C-116.85413706 525.73172699 -114.9895539 526.99084182 -113.125 528.25 C-99.59559587 537.39903713 -99.59559587 537.39903713 -86.0234375 546.484375 C-75.85097998 553.24915857 -65.74281686 560.11051581 -55.61767578 566.94580078 C-52.7973849 568.84955724 -49.97688455 570.75300276 -47.15625 572.65625 C-46.25221939 573.26634918 -45.34818878 573.87644836 -44.41676331 574.5050354 C-39.76607283 577.64166085 -35.10760659 580.76543635 -30.43359375 583.8671875 C-26.50294624 586.4773338 -22.62131254 589.14860705 -18.75390625 591.8515625 C-17.73232422 592.55667969 -16.71074219 593.26179687 -15.65820312 593.98828125 C-13.55757427 595.43817902 -11.46667149 596.90225021 -9.38476562 598.37890625 C-8.37220703 599.07113281 -7.35964844 599.76335937 -6.31640625 600.4765625 C-5.41349854 601.10643066 -4.51059082 601.73629883 -3.58032227 602.38525391 C-1.06251831 603.80764039 -1.06251831 603.80764039 1.39212036 602.74060059 C3.86151178 601.56588056 6.04205116 600.29350147 8.30639648 598.76513672 C9.12398941 598.2166507 9.94158234 597.66816467 10.78395081 597.10305786 C11.65833298 596.50959564 12.53271515 595.91613342 13.43359375 595.3046875 C14.35571152 594.68423553 15.27782928 594.06378357 16.22789001 593.42453003 C19.15476594 591.45386183 22.07737118 589.47695976 25 587.5 C26.8500748 586.25371446 28.70049167 585.00793654 30.55126953 583.76269531 C36.05872555 580.05562069 41.56099923 576.34090466 47.0625 572.625 C67.62473771 558.7396475 67.62473771 558.7396475 73.96484375 554.5234375 C83.17598708 548.39790885 92.33168762 542.18934861 101.5 536 C130.30040967 516.55740597 130.30040967 516.55740597 140.109375 510.1640625 C140.8828125 509.65746094 141.65625 509.15085937 142.453125 508.62890625 C144.02793355 507.5977816 145.60625221 506.57200378 147.1875 505.55078125 C147.94546875 505.05191406 148.7034375 504.55304688 149.484375 504.0390625 C150.16209961 503.59771973 150.83982422 503.15637695 151.53808594 502.70166016 C152.2617334 502.10683838 152.2617334 502.10683838 153 501.5 C153 500.84 153 500.18 153 499.5 C150.49051806 497.67696134 147.97206069 495.97494832 145.3671875 494.296875 C143.70361298 493.2071257 142.04054886 492.11659693 140.37792969 491.02539062 C139.49745972 490.44990479 138.61698975 489.87441895 137.70983887 489.28149414 C133.19899695 486.31598998 128.72952898 483.28966925 124.2578125 480.265625 C122.41151149 479.0194525 120.5651569 477.77335936 118.71875 476.52734375 C116.85413706 475.26827301 114.9895539 474.00915818 113.125 472.75 C99.59559587 463.60096287 99.59559587 463.60096287 86.0234375 454.515625 C75.85097998 447.75084143 65.74281686 440.88948419 55.61767578 434.05419922 C41.68591909 424.64746636 41.68591909 424.64746636 27.70996094 415.30664062 C24.68213558 413.28809039 21.66498085 411.25411813 18.6484375 409.21875 C17.61332031 408.52265625 16.57820312 407.8265625 15.51171875 407.109375 C13.37920097 405.67530327 11.24907535 404.23766926 9.12109375 402.796875 C8.09886719 402.11109375 7.07664062 401.4253125 6.0234375 400.71875 C5.10481934 400.09935547 4.18620117 399.47996094 3.23974609 398.84179688 C-0.41578607 396.6518247 -1.61556406 397.7460891 -4.93359375 399.98046875 Z M-416 426.5 C-416 475.34 -416 524.18 -416 574.5 C-412.4397527 573.07590108 -410.05044284 572.02908828 -407.00878906 569.95996094 C-406.25353439 569.44968353 -405.49827972 568.93940613 -404.72013855 568.41366577 C-403.91014908 567.85949982 -403.10015961 567.30533386 -402.265625 566.734375 C-401.40781937 566.1532193 -400.55001373 565.5720636 -399.66621399 564.97329712 C-396.857972 563.0696762 -394.0540714 561.15975761 -391.25 559.25 C-388.31425754 557.25824368 -385.37730543 555.26828088 -382.44020081 553.27853394 C-380.46284716 551.93895837 -378.48582819 550.59888865 -376.50914001 549.2583313 C-368.55523042 543.86657066 -360.5697341 538.52392044 -352.56576538 533.20684814 C-350.5740768 531.88269671 -348.58418552 530.55589162 -346.5949707 529.22802734 C-345.94855118 528.79654388 -345.30213165 528.36506042 -344.63612366 527.92050171 C-343.35140128 527.06294273 -342.0666824 526.20537852 -340.78196716 525.34780884 C-336.79763599 522.69090897 -332.8025896 520.05087708 -328.80134583 517.41952515 C-326.13824887 515.66449277 -323.48262385 513.8983893 -320.82858276 512.12969971 C-319.58019657 511.30141772 -318.32855317 510.47802158 -317.07351685 509.65985107 C-315.36232922 508.54366361 -313.663217 507.40902802 -311.96484375 506.2734375 C-311.0018335 505.63841309 -310.03882324 505.00338867 -309.04663086 504.34912109 C-308.37124268 503.73891113 -307.69585449 503.12870117 -307 502.5 C-307 501.18 -307 499.86 -307 498.5 C-308.56324331 496.86299506 -308.56324331 496.86299506 -310.75683594 495.51074219 C-311.57899597 494.95626404 -312.40115601 494.40178589 -313.24822998 493.83050537 C-314.15115784 493.24190735 -315.05408569 492.65330933 -315.984375 492.046875 C-316.91034485 491.42782288 -317.8363147 490.80877075 -318.79034424 490.17095947 C-321.76846277 488.18427653 -324.75885903 486.21700815 -327.75 484.25 C-329.7208916 482.94006433 -331.69095411 481.62888029 -333.66015625 480.31640625 C-338.32541477 477.21081971 -342.99944232 474.11879403 -347.67758179 471.03265381 C-359.74172566 463.0710576 -371.70720944 454.96187232 -383.6875 446.875 C-386.58133096 444.9217548 -389.47523234 442.96861429 -392.36933899 441.01577759 C-394.15709154 439.80945887 -395.94468997 438.60291169 -397.73210144 437.39608765 C-399.35916776 436.29815872 -400.98727375 435.20176852 -402.61654663 434.1071167 C-404.26394019 432.99631095 -405.90606544 431.87766629 -407.54385376 430.75274658 C-408.35156219 430.20221619 -409.15927063 429.65168579 -409.99145508 429.08447266 C-410.71456375 428.58758942 -411.43767242 428.09070618 -412.18269348 427.57876587 C-413.93440767 426.32985072 -413.93440767 426.32985072 -416 426.5 Z M410.20654297 428.90820312 C409.42231461 429.43779633 408.63808624 429.96738953 407.83009338 430.51303101 C406.54907997 431.38829941 406.54907997 431.38829941 405.2421875 432.28125 C403.91301552 433.18129257 403.91301552 433.18129257 402.55699158 434.09951782 C399.66018272 436.06223429 396.76765988 438.03117514 393.875 440 C390.88371058 442.02851493 387.89133098 444.0554149 384.89894104 446.08230591 C382.93082555 447.41563878 380.96308112 448.74951954 378.99571228 450.08395386 C372.29013679 454.63168452 365.56409496 459.14583148 358.8125 463.625 C357.03757572 464.80961914 355.26284531 465.99452881 353.48828125 467.1796875 C349.70796109 469.7024199 345.92044958 472.21368054 342.12646484 474.71582031 C337.50818023 477.76242255 332.89980931 480.82361753 328.29598999 483.89202881 C326.43993444 485.12540152 324.58059457 486.35384675 322.71792603 487.57720947 C320.10537731 489.29403977 317.50482639 491.02774417 314.90625 492.765625 C313.70823006 493.54427414 313.70823006 493.54427414 312.48600769 494.33865356 C311.76166031 494.82792328 311.03731293 495.31719299 310.29101562 495.82128906 C309.65280884 496.24379944 309.01460205 496.66630981 308.35705566 497.10162354 C306.53571692 498.65365267 306.53571692 498.65365267 307 502.5 C308.56324331 504.13700494 308.56324331 504.13700494 310.75683594 505.48925781 C311.57899597 506.04373596 312.40115601 506.59821411 313.24822998 507.16949463 C314.15115784 507.75809265 315.05408569 508.34669067 315.984375 508.953125 C317.37332977 509.88170319 317.37332977 509.88170319 318.79034424 510.82904053 C321.76846277 512.81572347 324.75885903 514.78299185 327.75 516.75 C329.7208916 518.05993567 331.69095411 519.37111971 333.66015625 520.68359375 C338.32541477 523.78918029 342.99944232 526.88120597 347.67758179 529.96734619 C359.74172566 537.9289424 371.70720944 546.03812768 383.6875 554.125 C386.58133096 556.0782452 389.47523234 558.03138571 392.36933899 559.98422241 C394.15709154 561.19054113 395.94468997 562.39708831 397.73210144 563.60391235 C399.35916776 564.70184128 400.98727375 565.79823148 402.61654663 566.8928833 C404.26394019 568.00368905 405.90606544 569.12233371 407.54385376 570.24725342 C408.35156219 570.79778381 409.15927063 571.34831421 409.99145508 571.91552734 C410.71456375 572.41241058 411.43767242 572.90929382 412.18269348 573.42123413 C413.93440767 574.67014928 413.93440767 574.67014928 416 574.5 C416 525.66 416 476.82 416 426.5 C413.36481473 426.5 412.38228925 427.42957714 410.20654297 428.90820312 Z M-236.26953125 555.5859375 C-236.92460159 556.02835785 -237.57967194 556.4707782 -238.2545929 556.92660522 C-239.71318369 557.91219149 -241.17041872 558.89978619 -242.62652588 559.88903809 C-245.10319174 561.57003993 -247.58486499 563.24341798 -250.06787109 564.91503906 C-255.61082022 568.64714603 -261.14940079 572.38570128 -266.6875 576.125 C-287.59356142 590.23967034 -287.59356142 590.23967034 -293.98828125 594.4921875 C-303.19163053 600.61247615 -312.33947162 606.81590622 -321.5 613 C-349.09032483 631.62568939 -349.09032483 631.62568939 -360.24926758 638.9475708 C-362.64868366 640.52307846 -365.04504853 642.10318757 -367.44091797 643.68408203 C-368.66689736 644.49114377 -369.89449069 645.29575819 -371.12353516 646.09814453 C-372.92519517 647.27519133 -374.72090031 648.46085169 -376.515625 649.6484375 C-377.57040039 650.34114746 -378.62517578 651.03385742 -379.71191406 651.74755859 C-380.8445166 652.61501709 -380.8445166 652.61501709 -382 653.5 C-382 654.16 -382 654.82 -382 655.5 C-379.77384144 657.01929704 -377.54730952 658.41606951 -375.234375 659.79296875 C-368.91164201 663.65053522 -362.70770948 667.64308043 -356.578125 671.80078125 C-355.75664978 672.35741959 -354.93517456 672.91405792 -354.08880615 673.48756409 C-352.36777618 674.65523537 -350.64730866 675.82373603 -348.92736816 676.99301147 C-328.09735144 691.148695 -307.09730692 705.03813751 -286.04614258 718.86190796 C-280.58387403 722.45125712 -275.13983905 726.0667323 -269.70617676 729.69918823 C-264.62727824 733.09063706 -259.52673246 736.44856117 -254.421875 739.80078125 C-233.45980347 753.5702168 -212.56971596 767.43570154 -191.81542969 781.5168457 C-181.95356589 788.20188165 -172.02588646 794.77066175 -162.02392578 801.24414062 C-153.46535191 806.7839371 -144.95165465 812.39227212 -136.4375 818 C-135.50733063 818.6124054 -134.57716125 819.22481079 -133.61880493 819.85577393 C-119.07754802 829.43469099 -104.61129237 839.12026027 -90.1875 848.875 C-73.20991338 860.36159745 -73.20991338 860.36159745 -56.125 871.6875 C-54.78924927 872.56897705 -54.78924927 872.56897705 -53.42651367 873.46826172 C-52.62834229 873.98791504 -51.8301709 874.50756836 -51.0078125 875.04296875 C-50.34410645 875.47633545 -49.68040039 875.90970215 -48.99658203 876.35620117 C-46.73833887 877.64990002 -44.42136425 878.55344634 -42 879.5 C-40.96710179 853.53739218 -40.19392136 827.57790147 -39.72026443 801.59881306 C-39.49435299 789.53171817 -39.18607116 777.47757859 -38.68066406 765.41870117 C-33.14106733 713.35247098 -33.14106733 713.35247098 -48.8489418 666.41576481 C-58.1246197 657.7860715 -69.08323384 652.93577188 -81.05187988 649.18746948 C-87.45192288 647.15173789 -91.84861293 643.77366907 -97 639.5 C-98.68870799 638.32920935 -100.39351477 637.18131334 -102.11328125 636.05664062 C-102.95785889 635.5024646 -103.80243652 634.94828857 -104.67260742 634.37731934 C-105.97935425 633.52539001 -105.97935425 633.52539001 -107.3125 632.65625 C-108.24747314 632.04285767 -109.18244629 631.42946533 -110.14575195 630.79748535 C-113.09547847 628.86239679 -116.04743157 626.93074913 -119 625 C-140.76011311 610.7705857 -140.76011311 610.7705857 -148.94921875 604.67773438 C-157.11119424 598.85148426 -165.60836427 593.4874743 -174 588 C-196.5330048 573.26517491 -196.5330048 573.26517491 -204.62841797 567.24414062 C-209.00992554 564.02183364 -213.53892588 561.01787479 -218.0625 558 C-218.99771484 557.36835937 -219.93292969 556.73671875 -220.89648438 556.0859375 C-222.23356445 555.19261719 -222.23356445 555.19261719 -223.59765625 554.28125 C-224.39695557 553.74564453 -225.19625488 553.21003906 -226.01977539 552.65820312 C-230.20422134 550.21078461 -232.74573032 553.17637132 -236.26953125 555.5859375 Z M222.53515625 555.07421875 C221.96661926 555.46163239 221.39808228 555.84904602 220.81231689 556.24819946 C219.5587745 557.10311947 218.30667832 557.96016275 217.05581665 558.81900024 C214.32484026 560.69393593 211.58697844 562.55870636 208.84953308 564.42417908 C207.35195684 565.44487055 205.85474536 566.46609739 204.35786438 567.48780823 C195.31445969 573.65815765 186.23592747 579.77636635 177.15744019 585.89492798 C174.36302545 587.77844439 171.56925712 589.66291602 168.77563477 591.54760742 C154.55588411 601.13846812 154.55588411 601.13846812 148.07421875 605.44921875 C138.85076052 611.58492597 129.68148483 617.80175893 120.5 624 C99.41851796 638.23169675 99.41851796 638.23169675 93.0390625 642.47265625 C87.50561454 646.15207318 81.99863636 649.8702078 76.4921875 653.58984375 C75.55179626 654.2249588 74.61140503 654.86007385 73.64251709 655.51443481 C69.71560511 658.16684313 65.78890492 660.81956218 61.86328125 663.47387695 C58.9694726 665.43027128 56.07466393 667.38517802 53.1796875 669.33984375 C52.28708221 669.94392563 51.39447693 670.54800751 50.474823 671.1703949 C49.24180954 672.00245201 49.24180954 672.00245201 47.98388672 672.85131836 C47.26063202 673.34014999 46.53737732 673.82898163 45.79220581 674.33262634 C44 675.5 44 675.5 42 676.5 C42 743.49 42 810.48 42 879.5 C45.48159692 878.10736123 47.91630902 877.05776679 50.92431641 875.07104492 C51.66768753 874.58309952 52.41105865 874.09515411 53.17695618 873.59242249 C53.97707626 873.06047775 54.77719635 872.52853302 55.6015625 871.98046875 C56.45449387 871.41827133 57.30742523 870.85607391 58.186203 870.27684021 C61.00227619 868.41843161 63.81372726 866.55316093 66.625 864.6875 C68.59453216 863.38508298 70.56417904 862.08283941 72.53393555 860.78076172 C88.19523603 850.41473568 103.76738896 839.91800244 119.32495117 829.3972168 C129.7035337 822.38098415 140.12135136 815.44269156 150.63671875 808.6328125 C159.70308512 802.75728265 168.72624848 796.81568954 177.75 790.875 C178.68926331 790.25671326 179.62852661 789.63842651 180.59625244 789.00140381 C195.06592956 779.47028839 209.46034436 769.8320301 223.8125 760.125 C236.02722782 751.86383013 248.25922728 743.64862562 260.63671875 735.6328125 C269.70308512 729.75728265 278.72624848 723.81568954 287.75 717.875 C288.68926331 717.25671326 289.62852661 716.63842651 290.59625244 716.00140381 C305.98556641 705.86452747 321.28509717 695.59937846 336.54852295 685.27416992 C371.60978045 661.55857241 371.60978045 661.55857241 380.0703125 656.7578125 C380.70710938 656.34273437 381.34390625 655.92765625 382 655.5 C382 654.84 382 654.18 382 653.5 C380.11781912 651.96867511 380.11781912 651.96867511 377.60546875 650.38671875 C376.60781494 649.72978027 375.61016113 649.0728418 374.58227539 648.39599609 C374.03266144 648.03850281 373.48304749 647.68100952 372.91677856 647.31268311 C369.87512268 645.33358044 366.84902758 643.33085714 363.8203125 641.33203125 C363.14603714 640.88794922 362.47176178 640.44386719 361.77705383 639.98632812 C351.98578278 633.52856867 342.28074318 626.94186217 332.5625 620.375 C328.91830505 617.91356419 325.2737583 615.45265018 321.62890625 612.9921875 C320.76555161 612.40933487 319.90219696 611.82648224 319.01268005 611.22596741 C314.70279643 608.31794671 310.38792141 605.41810001 306.05859375 602.5390625 C295.87444893 595.76641292 285.75449303 588.89736654 275.61767578 582.05419922 C261.54551676 572.5533853 261.54551676 572.5533853 247.42871094 563.11914062 C245.15076999 561.60051332 242.88208811 560.06923639 240.6171875 558.53125 C239.67359375 557.89316406 239.67359375 557.89316406 238.7109375 557.2421875 C237.44567503 556.3861163 236.18278811 555.52652707 234.921875 554.6640625 C229.14322739 550.77133336 228.18595073 551.20217034 222.53515625 555.07421875 Z " fill="#FFFFFF" transform="translate(500,-0.5)"/>
</svg>
