<?xml version="1.0" encoding="UTF-8"?>
<svg version="1.1" xmlns="http://www.w3.org/2000/svg" width="225" height="225">
<path d="M0 0 C2.06911376 0.01607173 4.13626755 0.00006731 6.20532227 -0.01904297 C23.8986389 -0.04932734 39.97330775 4.37124424 52.94946289 16.94189453 C61.89922315 26.96242967 65.7281519 37.4949106 65.51196289 50.82861328 C65.50036133 51.7502124 65.48875977 52.67181152 65.47680664 53.62133789 C65.11557305 68.64573333 59.77205785 78.83309437 49.26196289 89.64111328 C42.71374339 95.8817649 35.78581577 101.31407143 28.2890625 106.35839844 C15.35974574 115.06857958 3.9768525 123.30365152 0.46899414 139.36767578 C-0.03422795 142.43437042 -0.35672005 145.50983069 -0.61694336 148.60595703 C-0.86303711 150.39111328 -0.86303711 150.39111328 -1.86303711 151.39111328 C-4.19601144 151.43204266 -6.53008936 151.43353051 -8.86303711 151.39111328 C-9.30703769 126.86520447 -3.77066497 110.4402023 7.48510742 88.76733398 C16.68579675 70.88789417 17.84200875 48.63047007 12.13696289 29.39111328 C8.79382377 22.46603939 4.17263715 17.55791358 -2.86303711 14.39111328 C-5.367213 13.4898269 -5.367213 13.4898269 -7.86303711 13.39111328 C-9.47178711 13.26736328 -9.47178711 13.26736328 -11.11303711 13.14111328 C-17.02443272 13.53520632 -21.93749964 14.74065259 -26.48803711 18.64111328 C-28.38661752 22.4382741 -27.96890894 24.31321089 -26.86303711 28.39111328 C-26.28819325 29.61366853 -25.68170916 30.82166418 -25.05053711 32.01611328 C-20.58346054 40.49042031 -17.1668664 49.86810009 -19.86303711 59.39111328 C-22.55354038 64.57994102 -26.00987458 67.76073469 -31.05053711 70.64111328 C-36.46190867 72.0841457 -41.75825019 72.13397925 -47.05053711 70.26611328 C-57.39021102 63.37299734 -57.39021102 63.37299734 -59.43334961 56.78955078 C-61.62356319 44.56417679 -59.48429032 33.82641169 -53.02709961 23.38330078 C-40.35421156 5.8608599 -20.77012923 -0.19124898 0 0 Z " fill="#FCA605" transform="translate(109.863037109375,-0.39111328125)"/>
<path d="M0 0 C2.75 2.3125 2.75 2.3125 5 5 C5.886875 5.969375 6.77375 6.93875 7.6875 7.9375 C12.59025584 14.43033882 12.76813124 21.0992215 12 29 C10.25379597 37.15676513 5.79974814 42.32158981 -1 47 C-7.65388774 50.46273749 -17.38899921 50.10384564 -24.578125 48.3828125 C-31.83992161 45.1521707 -37.02608813 38.17237569 -40 31 C-40.9987823 22.73980047 -41.02621771 14.88230465 -36 8 C-35.236875 6.9275 -34.47375 5.855 -33.6875 4.75 C-24.78421259 -4.3603406 -11.2899734 -5.61131879 0 0 Z " fill="#FCA503" transform="translate(120,176)"/>
<path d="M0 0 C2.5 1.25 2.5 1.25 5 3 C5 4.32 5 5.64 5 7 C5.66 7.33 6.32 7.66 7 8 C6.67 8.99 6.34 9.98 6 11 C6.66 11 7.32 11 8 11 C10.94919659 18.07003769 11.43163246 24.39458396 11.3125 32 C11.31572266 33.02867188 11.31894531 34.05734375 11.32226562 35.1171875 C11.20702533 51.58607383 11.20702533 51.58607383 5 58 C5.144375 56.71867187 5.28875 55.43734375 5.4375 54.1171875 C8.88865348 26.94413978 8.88865348 26.94413978 0 2 C0 1.34 0 0.68 0 0 Z " fill="#F2A824" transform="translate(118,21)"/>
<path d="M0 0 C2.04265047 0.02915272 4.08271443 0.02050349 6.12548828 0.00756836 C27.36049295 0.03914623 27.36049295 0.03914623 34.91064453 6.46655273 C33.22250216 6.35055018 31.53513566 6.22324249 29.84814453 6.09155273 C28.90841797 6.02194336 27.96869141 5.95233398 27.00048828 5.88061523 C23.91064453 5.46655273 23.91064453 5.46655273 20.67138672 4.45947266 C14.94304327 2.94706206 9.25078178 3.13273418 3.36987305 3.15087891 C1.24556176 3.15401959 -0.87732702 3.13060289 -3.00146484 3.10522461 C-10.43285968 3.07148745 -17.2681524 3.6090945 -24.4519043 5.72363281 C-27.31261362 6.52944032 -30.15284222 7.02191992 -33.08935547 7.46655273 C-24.4969751 0.03692102 -10.79145849 -0.16735972 0 0 Z " fill="#F3C353" transform="translate(110.08935546875,-0.466552734375)"/>
<path d="M0 0 C4.24854537 6.37281805 4.35916066 12.80829181 4.3125 20.25 C4.30686035 21.18295898 4.3012207 22.11591797 4.29541016 23.07714844 C4.09878138 34.23242447 1.81280597 42.07059411 -5 51 C-5.97918775 47.92443042 -6.1498998 47.31407577 -4.6875 44.25 C-4.130625 43.5075 -3.57375 42.765 -3 42 C-2.34 42 -1.68 42 -1 42 C1.49479885 35.27489006 1.26143565 28.73060519 1.1875 21.625 C1.18685547 20.42488281 1.18621094 19.22476563 1.18554688 17.98828125 C1.67721083 12.63045243 1.67721083 12.63045243 0 8 C-0.14115161 5.32941149 -0.04247107 2.67567762 0 0 Z " fill="#F0B64C" transform="translate(171,30)"/>
<path d="M0 0 C2.00818353 2.06424957 2.2082124 3.76980542 2.5390625 6.58203125 C1.80300781 6.08832031 1.06695312 5.59460937 0.30859375 5.0859375 C-0.66722656 4.44527344 -1.64304688 3.80460937 -2.6484375 3.14453125 C-3.61136719 2.50644531 -4.57429688 1.86835938 -5.56640625 1.2109375 C-10.94738282 -1.8172234 -16.73575367 -2.21847357 -22.76953125 -0.921875 C-27.78698549 0.53639988 -30.64581756 1.96523455 -33.4609375 6.58203125 C-34.16979644 7.89342029 -34.85550202 9.21980142 -35.4609375 10.58203125 C-35.4609375 8.27203125 -35.4609375 5.96203125 -35.4609375 3.58203125 C-34.8009375 3.25203125 -34.1409375 2.92203125 -33.4609375 2.58203125 C-32.80880458 0.5573987 -32.80880458 0.5573987 -32.4609375 -1.41796875 C-21.74163271 -4.24282084 -9.88521867 -5.83116832 0 0 Z " fill="#FAD17E" transform="translate(115.4609375,14.41796875)"/>
<path d="M0 0 C1.15803038 3.47409115 0.78628483 4.26899339 -0.375 7.625 C-1.93562958 12.45585793 -2.51980132 16.95791386 -3 22 C-3.33 22.33 -3.66 22.66 -4 23 C-6.31 23 -8.62 23 -11 23 C-11 16.07 -11 9.14 -11 2 C-10.67 2 -10.34 2 -10 2 C-9.67 8.27 -9.34 14.54 -9 21 C-7.68 21 -6.36 21 -5 21 C-5 17.37 -5 13.74 -5 10 C-4.34 10 -3.68 10 -3 10 C-3 8.02 -3 6.04 -3 4 C-2.34 4 -1.68 4 -1 4 C-0.67 2.68 -0.34 1.36 0 0 Z " fill="#F6C76F" transform="translate(112,128)"/>
<path d="M0 0 C5.63306804 6.47802825 9.93505311 17.21160823 10.03125 25.78515625 C9.48933881 32.51066119 9.48933881 32.51066119 7 35 C6.94465088 34.37955811 6.88930176 33.75911621 6.83227539 33.11987305 C6.57939652 30.30873363 6.32101166 27.49812678 6.0625 24.6875 C5.97548828 23.71103516 5.88847656 22.73457031 5.79882812 21.72851562 C5.71181641 20.79072266 5.62480469 19.85292969 5.53515625 18.88671875 C5.456604 18.02264404 5.37805176 17.15856934 5.29711914 16.26831055 C5.05212023 13.83913288 5.05212023 13.83913288 4 11 C3.34 10.67 2.68 10.34 2 10 C0.55487596 6.3871899 0 3.93312158 0 0 Z " fill="#F8C45E" transform="translate(81,26)"/>
<path d="M0 0 C2.5 1.25 2.5 1.25 5 3 C5 4.32 5 5.64 5 7 C5.66 7.33 6.32 7.66 7 8 C9.39235644 15.82195727 9.30633344 24.08956771 9.25 32.1875 C9.25773437 33.31091797 9.26546875 34.43433594 9.2734375 35.59179688 C9.25897592 41.7488164 8.81273545 47.10860978 7 53 C6.12009655 49.78257528 6.02834068 47.44878805 6.4375 44.125 C7.83439355 30.06293831 8.50651627 13.95130385 0 2 C0 1.34 0 0.68 0 0 Z " fill="#FEE09E" transform="translate(118,21)"/>
<path d="M0 0 C5.13385429 3.65074083 7.7764968 6.73854244 9 13 C9.5193549 19.27347746 9.60024121 25.14945729 7 31 C6.67 31 6.34 31 6 31 C6.02618408 30.42032471 6.05236816 29.84064941 6.0793457 29.2434082 C6.18370612 26.60005125 6.24844327 23.95712801 6.3125 21.3125 C6.35439453 20.40048828 6.39628906 19.48847656 6.43945312 18.54882812 C6.58762957 12.81053724 6.58762957 12.81053724 3.53125 8.0625 C2.6959375 7.381875 1.860625 6.70125 1 6 C0.1875 2.6875 0.1875 2.6875 0 0 Z " fill="#F5BE57" transform="translate(123,180)"/>
<path d="M0 0 C0 3 0 3 -0.9921875 5.07421875 C-2.45518084 9.32143585 -2.21138959 13.35679101 -2.125 17.8125 C-2.11146484 19.13797852 -2.11146484 19.13797852 -2.09765625 20.49023438 C-2.07419637 22.66027359 -2.03832865 24.83017247 -2 27 C-1.34 27 -0.68 27 0 27 C0 27.99 0 28.98 0 30 C0.66 30 1.32 30 2 30 C2.33 31.65 2.66 33.3 3 35 C-1.7403701 30.64398423 -4.64615583 26.92638695 -5.43359375 20.4140625 C-5.44143559 12.80747806 -5.23551186 7.41744221 -1 1 C-0.67 0.67 -0.34 0.34 0 0 Z " fill="#F5CF7D" transform="translate(85,183)"/>
<path d="M0 0 C1.125 3.75 1.125 3.75 0 6 C-0.08400529 7.59447464 -0.10727467 9.19240545 -0.09765625 10.7890625 C-0.09443359 11.73007812 -0.09121094 12.67109375 -0.08789062 13.640625 C-0.07951172 14.62546875 -0.07113281 15.6103125 -0.0625 16.625 C-0.05798828 17.61757813 -0.05347656 18.61015625 -0.04882812 19.6328125 C-0.03702145 22.0886016 -0.020554 24.54427104 0 27 C0.95132813 27.38285156 0.95132813 27.38285156 1.921875 27.7734375 C4 29 4 29 5.25 32.625 C5.4975 33.73875 5.745 34.8525 6 36 C1.77858966 34.49235345 0.19650136 31.78707131 -2 28 C-4.75285056 19.72357265 -3.89719044 7.79438089 0 0 Z " fill="#F6CC75" transform="translate(53,30)"/>
<path d="M0 0 C3.3 0.33 6.6 0.66 10 1 C10 1.66 10 2.32 10 3 C13.3 3 16.6 3 20 3 C15.74253693 5.83830872 11.99804843 5.5199833 7 5 C1.42391304 2.84782609 1.42391304 2.84782609 0 0 Z " fill="#F9CB76" transform="translate(59,66)"/>
<path d="M0 0 C2.97 0.495 2.97 0.495 6 1 C6 1.66 6 2.32 6 3 C6.639375 3.144375 7.27875 3.28875 7.9375 3.4375 C10 4 10 4 11 5 C13.52596259 5.23653523 16.03107207 5.42173692 18.5625 5.5625 C19.62887695 5.62727539 19.62887695 5.62727539 20.71679688 5.69335938 C22.47761912 5.79971777 24.2387832 5.90038846 26 6 C26 6.33 26 6.66 26 7 C8.78851175 7.75195822 8.78851175 7.75195822 2 3 C1.34 2.01 0.68 1.02 0 0 Z " fill="#F9D27C" transform="translate(88,218)"/>
<path d="M0 0 C0.66 0.33 1.32 0.66 2 1 C0.96905133 3.57737166 0.4891374 4.76284247 -2.0625 6 C-2.701875 6.33 -3.34125 6.66 -4 7 C-4.165 7.66 -4.33 8.32 -4.5 9 C-5 11 -5 11 -7.0625 12.25 C-7.701875 12.4975 -8.34125 12.745 -9 13 C-9 13.99 -9 14.98 -9 16 C-9.66 16 -10.32 16 -11 16 C-9.04124347 9.73197909 -4.68161858 4.49994383 0 0 Z " fill="#F7C258" transform="translate(65,14)"/>
<path d="M0 0 C8.19566047 -0.46196834 15.06489475 0.3765965 22 5 C21.67 5.66 21.34 6.32 21 7 C20.46375 6.690625 19.9275 6.38125 19.375 6.0625 C16.6015043 4.82172561 13.99957163 4.4090325 11 4 C11 3.34 11 2.68 11 2 C7.37 1.67 3.74 1.34 0 1 C0 0.67 0 0.34 0 0 Z " fill="#F8CD76" transform="translate(101,173)"/>
<path d="M0 0 C0.85050266 3.07985055 1.21360705 4.96598236 0 8 C-0.99 8.66 -1.98 9.32 -3 10 C-3.73343428 13.06556598 -3.73343428 13.06556598 -4 16 C-4.66 16 -5.32 16 -6 16 C-6 16.66 -6 17.32 -6 18 C-6.66 18 -7.32 18 -8 18 C-6.10463724 11.48180123 -3.4821006 5.82185199 0 0 Z " fill="#F8C96F" transform="translate(115,94)"/>
<path d="M0 0 C1.125 3.75 1.125 3.75 0 6 C-0.22467831 7.53668865 -0.40796805 9.07968054 -0.5625 10.625 C-0.64628906 11.44226563 -0.73007813 12.25953125 -0.81640625 13.1015625 C-0.87699219 13.72804688 -0.93757813 14.35453125 -1 15 C-1.99 15.33 -2.98 15.66 -4 16 C-3.6083965 10.04492601 -2.62875405 5.37180176 0 0 Z " fill="#F8CA71" transform="translate(106,112)"/>
<path d="M0 0 C1.37865891 4.13597673 -0.02135681 5.89201347 -1.80859375 9.703125 C-3.33771001 12.6510606 -5.06419466 15.3036997 -7 18 C-7.6875 16.3125 -7.6875 16.3125 -8 14 C-6.6875 11.25 -6.6875 11.25 -5 9 C-4.34 9 -3.68 9 -3 9 C-2.01 6.03 -1.02 3.06 0 0 Z " fill="#F7D07A" transform="translate(173,63)"/>
<path d="M0 0 C0 3 0 3 -1.49609375 4.82421875 C-2.13675781 5.43910156 -2.77742187 6.05398437 -3.4375 6.6875 C-4.07558594 7.31011719 -4.71367187 7.93273437 -5.37109375 8.57421875 C-7 10 -7 10 -8 10 C-8 7.69 -8 5.38 -8 3 C-6.02 3.99 -6.02 3.99 -4 5 C-4 3.68 -4 2.36 -4 1 C-2.68 0.67 -1.36 0.34 0 0 Z " fill="#F7BE4E" transform="translate(164,81)"/>
<path d="M0 0 C-0.33 0.66 -0.66 1.32 -1 2 C-3.51171875 2.81640625 -3.51171875 2.81640625 -6.6875 3.5625 C-7.72261719 3.81128906 -8.75773437 4.06007813 -9.82421875 4.31640625 C-12.87294406 4.97265093 -15.91981415 5.51511317 -19 6 C-16.12790213 3.63201169 -13.63088082 2.35167408 -10.0625 1.3125 C-9.22847656 1.06113281 -8.39445312 0.80976562 -7.53515625 0.55078125 C-4.94407689 -0.0121497 -2.64272387 -0.09927943 0 0 Z " fill="#F9D38A" transform="translate(96,1)"/>
<path d="M0 0 C4.50884026 2.31883213 6.93906776 5.06451569 10 9 C9.67 9.66 9.34 10.32 9 11 C2.35384615 6.81538462 2.35384615 6.81538462 0.5625 2.6875 C0.376875 1.800625 0.19125 0.91375 0 0 Z " fill="#F6C765" transform="translate(158,14)"/>
<path d="M0 0 C0 0.99 0 1.98 0 3 C-1.98 3 -3.96 3 -6 3 C-6 3.66 -6 4.32 -6 5 C-7.98 5.66 -9.96 6.32 -12 7 C-10.77887968 3.33663903 -9.13279518 2.64957986 -5.88671875 0.76953125 C-4 0 -4 0 0 0 Z " fill="#F7CA71" transform="translate(100,174)"/>
<path d="M0 0 C3.326378 0.41579725 6.20706991 1.39272183 9.25 2.75 C9.93578125 3.05421875 10.6215625 3.3584375 11.328125 3.671875 C13 5 13 5 13.734375 7.640625 C13.82203125 8.41921875 13.9096875 9.1978125 14 10 C12.16136495 8.88368586 10.32920277 7.75670373 8.5 6.625 C7.4790625 5.99851562 6.458125 5.37203125 5.40625 4.7265625 C4.6121875 4.15679687 3.818125 3.58703125 3 3 C3 2.34 3 1.68 3 1 C2.01 0.67 1.02 0.34 0 0 Z " fill="#F3C35D" transform="translate(104,11)"/>
<path d="M0 0 C6.30267439 0.36776168 11.33251843 1.16625922 17 4 C14.00468461 4.99843846 12.82744268 5.00732761 9.8125 4.5625 C8.554375 4.376875 7.29625 4.19125 6 4 C5.67 3.01 5.34 2.02 5 1 C3.35 1 1.7 1 0 1 C0 0.67 0 0.34 0 0 Z " fill="#F9D181" transform="translate(128,1)"/>
<path d="M0 0 C3.2531655 3.74114033 5.44374911 8.31315138 7 13 C6.67 13.66 6.34 14.32 6 15 C5.71125 14.360625 5.4225 13.72125 5.125 13.0625 C4.17176549 10.84793921 4.17176549 10.84793921 2 10 C0.55487596 6.3871899 0 3.93312158 0 0 Z " fill="#F7CA75" transform="translate(81,26)"/>
<path d="M0 0 C1.65 0 3.3 0 5 0 C1.88983545 3.28788824 -1.01618925 5.83735988 -5 8 C-5.33 6.68 -5.66 5.36 -6 4 C-4.35 4 -2.7 4 -1 4 C-0.67 2.68 -0.34 1.36 0 0 Z " fill="#F6C763" transform="translate(127,109)"/>
<path d="M0 0 C1.65 0.33 3.3 0.66 5 1 C1.82679218 4.53586014 -0.16743695 6.58578031 -5 7 C-4.0409375 6.6596875 -4.0409375 6.6596875 -3.0625 6.3125 C-0.72806339 5.14749104 -0.72806339 5.14749104 -0.25 2.375 C-0.1675 1.59125 -0.085 0.8075 0 0 Z " fill="#FACA6A" transform="translate(119,217)"/>
<path d="M0 0 C5.03985731 0.44469329 7.37634988 2.71343362 11 6 C10.01 6.495 10.01 6.495 9 7 C5.92346162 5.97448721 5.19203004 5.19203004 3 3 C2.01 2.67 1.02 2.34 0 2 C0 1.34 0 0.68 0 0 Z " fill="#F6CE74" transform="translate(147,7)"/>
<path d="M0 0 C2.5 1.25 2.5 1.25 5 3 C5 4.32 5 5.64 5 7 C5.66 7.33 6.32 7.66 7 8 C6.01 8 5.02 8 4 8 C0 2.74285714 0 2.74285714 0 0 Z " fill="#F8C86B" transform="translate(118,21)"/>
<path d="M0 0 C0.66 0.33 1.32 0.66 2 1 C0.86500606 4.29148243 0.00716624 4.9959869 -3.125 6.75 C-4.548125 7.36875 -4.548125 7.36875 -6 8 C-4.55746343 4.63408134 -2.66735273 2.48952921 0 0 Z " fill="#FAD58A" transform="translate(65,14)"/>
<path d="M0 0 C2.12508244 3.18762365 2.5020163 5.26512223 3 9 C2.01 8.67 1.02 8.34 0 8 C0 5.36 0 2.72 0 0 Z " fill="#F6C96E" transform="translate(171,30)"/>
</svg>
