<?xml version="1.0" encoding="UTF-8"?>
<svg version="1.1" xmlns="http://www.w3.org/2000/svg" width="500" height="500">
<path d="M0 0 C1.67352598 -0.00298657 1.67352598 -0.00298657 3.38086057 -0.00603348 C4.60653076 -0.00312064 5.83220095 -0.0002078 7.09501266 0.00279331 C8.39700001 0.00193889 9.69898736 0.00108446 11.04042888 0.00020415 C14.65710304 -0.0020349 18.27374766 0.00197243 21.89041805 0.00698221 C25.78949801 0.01129496 29.68857626 0.00983969 33.58765793 0.00907993 C40.34401215 0.00855522 47.10035673 0.01169651 53.85670853 0.01731777 C63.62529567 0.02543992 73.39387813 0.02804873 83.16246828 0.02930576 C99.01081499 0.03149515 114.85915655 0.0381522 130.70750046 0.04760838 C146.10398457 0.0567854 161.50046729 0.06386482 176.89695358 0.06811619 C177.84576728 0.06837891 178.79458098 0.06864164 179.77214661 0.06891232 C184.53199872 0.07021734 189.29185085 0.07148106 194.05170298 0.07272422 C233.54830053 0.08309333 273.04489234 0.10070859 312.54148483 0.12304783 C311.76712464 4.57491666 310.32860984 7.45747173 307.91648483 11.31054783 C307.09386441 12.6463689 306.27374749 13.9837335 305.45554733 15.32226658 C304.99567429 16.07427341 304.53580124 16.82628025 304.06199265 17.60107517 C301.06793595 22.5671326 298.18495705 27.59795141 295.29148483 32.62304783 C294.3257756 34.29923191 294.3257756 34.29923191 293.3405571 36.0092783 C288.0778893 45.16009031 282.87786347 54.34550697 277.69382858 63.54101658 C274.45277421 69.28702832 271.18872728 75.01974926 267.91648483 80.74804783 C267.41930954 81.61921238 266.92213425 82.49037693 266.40989304 83.38794041 C265.9454277 84.20029148 265.48096237 85.01264256 265.00242233 85.84961033 C264.59814011 86.55682224 264.19385788 87.26403416 263.77732468 87.99267673 C263.36949753 88.6956992 262.96167038 89.39872166 262.54148483 90.12304783 C262.17172626 90.97880248 261.80196768 91.83455713 261.4210043 92.71624374 C259.54148483 95.12304783 259.54148483 95.12304783 256.31436253 95.75390434 C254.95431328 95.78231004 253.59352281 95.78292632 252.23333359 95.76228428 C251.48348023 95.77063996 250.73362687 95.77899563 249.96105069 95.78760451 C247.44092545 95.80960409 244.92224778 95.79590725 242.40208054 95.78247166 C240.59869399 95.79092092 238.79531658 95.80156321 236.9919548 95.81424046 C232.08926975 95.84246409 227.18702104 95.83990157 222.28427911 95.83194661 C217.16325775 95.82882837 212.04237704 95.85383583 206.92141342 95.87590122 C197.22105493 95.91340375 187.52083664 95.92549288 177.82041281 95.92852563 C166.77816392 95.93320973 155.73605606 95.9661122 144.69386923 96.00142348 C121.97642487 96.07343629 99.2590341 96.10988725 76.54148483 96.12304783 C77.47792467 97.84887686 78.41548372 99.57409863 79.35349655 101.29907322 C79.87547623 102.25987293 80.3974559 103.22067265 80.93525314 104.2105875 C83.41989094 108.71579621 86.03661478 113.13904079 88.66648483 117.56054783 C89.22054001 118.49632664 89.77459518 119.43210545 90.34543991 120.39624119 C93.20356549 125.21646856 96.08105838 130.02431683 98.98289108 134.81836033 C99.52864792 135.72142918 100.07440475 136.62449802 100.63669968 137.55493259 C101.67389279 139.26847995 102.71441957 140.9800153 103.75876999 142.68920994 C104.22718307 143.462728 104.69559616 144.23624607 105.17820358 145.03320408 C105.58772263 145.70488621 105.99724167 146.37656834 106.41917038 147.06860447 C107.54148483 149.12304783 107.54148483 149.12304783 109.54148483 154.12304783 C147.16148483 154.12304783 184.78148483 154.12304783 223.54148483 154.12304783 C222.41631015 159.74892126 222.41631015 159.74892126 220.53757858 162.87304783 C220.13087936 163.55673435 219.72418015 164.24042088 219.30515671 164.94482517 C218.64870163 166.02304539 218.64870163 166.02304539 217.97898483 167.12304783 C217.52716843 167.87924412 217.07535202 168.63544041 216.60984421 169.41455173 C213.97466345 173.81054616 211.2689209 178.15869147 208.54148483 182.49804783 C205.36730715 187.60847389 202.55138935 192.84148743 199.79148483 198.18554783 C194.92286934 207.60148044 189.52749625 216.64272344 184.01414108 225.69189548 C181.65526109 229.58608099 179.34615303 233.50910822 177.04148483 237.43554783 C176.64445358 238.11053318 176.24742233 238.78551853 175.83835983 239.48095798 C175.09393697 240.74896251 174.35412973 242.01969137 173.61960983 243.29345798 C172.88596215 244.53846608 172.12413374 245.76719808 171.33835983 246.97998142 C169.1035695 250.44640201 169.1035695 250.44640201 168.71921921 254.43945408 C169.73693335 257.76092493 171.25836468 260.40943498 173.04148483 263.39257908 C173.39329315 263.98630314 173.74510147 264.5800272 174.10757065 265.1917429 C175.24586508 267.11019909 176.39370234 269.02275626 177.54148483 270.93554783 C178.71573828 272.91035788 179.8873293 274.8867293 181.05862045 276.86329746 C181.82845133 278.16228632 182.59904576 279.46082299 183.37041855 280.75889683 C186.22699119 285.57080928 189.01185859 290.41836849 191.72898483 295.31054783 C194.41432864 300.13852651 197.18628161 304.89934487 200.05735397 309.61938572 C201.53906119 312.11895925 202.93774822 314.6486619 204.31882858 317.20507908 C211.34152736 330.13310642 218.49555324 343.00243226 226.30320358 355.47461033 C229.56328826 360.73644648 232.66673266 366.09273846 235.79148483 371.43554783 C236.39468552 372.46285007 236.9978862 373.49015232 237.61936569 374.54858494 C240.43207581 379.37009347 243.11126429 384.19259793 245.54929733 389.21264744 C246.66107829 391.3533182 247.90210414 393.37268375 249.18992233 395.41211033 C249.63722702 396.12625095 250.08453171 396.84039158 250.54539108 397.57617283 C251.46969675 399.04031514 252.40756107 400.49597423 253.35789108 401.94336033 C256.66819382 407.30197356 256.66819382 407.30197356 256.05320358 411.28711033 C247.39075598 427.53759343 236.07236011 440.16386255 218.47898483 446.62304783 C202.67751795 450.9133855 186.64907477 448.66195536 172.35398483 440.99804783 C159.7199919 433.06661583 153.34676778 422.53816861 146.12107468 409.87451267 C144.01383768 406.20394683 141.84581317 402.57096999 139.67869186 398.93554783 C130.99280629 384.34595416 122.55672948 369.61432374 114.35398483 354.74804783 C111.02170234 348.711409 107.57595768 342.76263388 104.00120163 336.86670017 C99.54520279 329.50900774 95.26620079 322.04976171 90.97068405 314.5976572 C89.52109904 312.08775052 88.06543603 309.58146445 86.60789108 307.07617283 C78.6185362 293.33631227 78.6185362 293.33631227 75.54148483 287.62304783 C69.89799634 277.15160387 63.89871938 266.84064935 57.60398483 256.74804783 C53.53001568 250.20449737 49.72563942 243.51435969 45.92844772 236.80712986 C43.48343247 232.49384278 41.00203286 228.2140613 38.42429733 223.97851658 C36.30941095 220.47860301 34.42381096 216.94655432 32.63669968 213.27197361 C30.24970715 208.58844526 27.51702363 204.09068425 24.85398483 199.56054783 C24.22677536 198.48917576 23.59956589 197.41780369 22.95335007 196.3139658 C19.37496214 190.21131014 15.75617774 184.13580081 12.09666061 178.08154392 C8.58208441 172.23898476 5.15950438 166.34280921 1.7450676 160.44134617 C0.75420655 158.72913114 -0.23872422 157.0181144 -1.23170853 155.30712986 C-6.38970599 146.36929263 -6.38970599 146.36929263 -8.53273392 141.96289158 C-10.38983085 138.15227625 -12.54685427 134.56361721 -14.74953079 130.94384861 C-16.66646935 127.77980459 -18.54293739 124.5930383 -20.41164017 121.40039158 C-20.75725494 120.81047428 -21.10286972 120.22055698 -21.45895767 119.6127634 C-22.91955468 117.11888362 -24.37881414 114.62422247 -25.83800125 112.12951756 C-26.97038486 110.19362923 -28.10301605 108.25788619 -29.23585892 106.32226658 C-29.60277344 105.69530888 -29.96968796 105.06835117 -30.3477211 104.42239475 C-32.43356351 100.86177097 -34.53288916 97.30978944 -36.64992142 93.76757908 C-37.10270462 93.0077573 -37.55548782 92.24793552 -38.02199173 91.46508884 C-38.81535143 90.13625788 -39.6124521 88.80964773 -40.41456985 87.48608494 C-46.75046294 76.85208255 -48.67169726 68.45171034 -48.77101517 56.12304783 C-48.80001907 54.95386814 -48.82902298 53.78468845 -48.85890579 52.58007908 C-48.96916597 37.29632207 -43.52303059 25.4140239 -32.95460892 14.54882908 C-24.08459499 6.76278109 -12.03017667 -0.00473629 0 0 Z " fill="#4AD194" transform="translate(48.45851516723633,25.876952171325684)"/>
<path d="M0 0 C19.80137002 -0.69632604 34.97376396 -0.92167723 51 12 C52.06154297 12.80050781 52.06154297 12.80050781 53.14453125 13.6171875 C62.82829327 21.3567908 68.92025952 32.9181675 70.38183594 45.21166992 C70.53340455 48.48401652 70.54667849 51.72472583 70.5 55 C70.52320313 56.62808594 70.52320313 56.62808594 70.546875 58.2890625 C70.49161224 69.86661079 66.92533049 79.28943233 60.9375 89.0625 C59.95018646 90.71985294 58.9632165 92.37741059 57.9765625 94.03515625 C57.47801758 94.86418457 56.97947266 95.69321289 56.46582031 96.54736328 C54.20054309 100.33766558 52.01092965 104.17069028 49.8125 108 C46.64045068 113.50038219 43.42674228 118.97395888 40.171875 124.42578125 C38.80177701 126.72117225 37.43180601 129.01663668 36.0625 131.3125 C35.71731323 131.89121857 35.37212646 132.46993713 35.01647949 133.06619263 C30.52831416 140.60244571 26.19786451 148.20154732 22.0625 155.9375 C15.48227717 168.23426991 8.16582009 180.06614044 0.87207031 191.94726562 C-3.41015048 198.93016714 -7.56120355 205.93948895 -11.45507812 213.14746094 C-20.89489903 230.57711761 -30.68603709 247.83545329 -41.125 264.6875 C-46.70506789 273.70916666 -51.88202545 282.94011644 -56.97045898 292.24462891 C-61.98915569 301.42012898 -67.13392566 310.49497076 -72.50292969 319.46972656 C-74.2990427 322.50542703 -76.05829304 325.56157735 -77.8203125 328.6171875 C-78.83373754 330.35658154 -79.84953454 332.09455738 -80.86682129 333.83169556 C-81.86219458 335.54051612 -82.84282714 337.25789543 -83.82324219 338.9753418 C-84.43586914 340.01601807 -85.04849609 341.05669434 -85.6796875 342.12890625 C-86.22351074 343.06806885 -86.76733398 344.00723145 -87.32763672 344.97485352 C-87.8795166 345.64315186 -88.43139648 346.3114502 -89 347 C-90.32 347 -91.64 347 -93 347 C-93.53367187 345.97003906 -94.06734375 344.94007813 -94.6171875 343.87890625 C-100.72136015 332.17831713 -107.28262746 320.80547833 -114.10546875 309.51171875 C-120.3385804 299.1903327 -126.38239365 288.76363866 -132.375 278.30078125 C-134.54915279 274.5056793 -136.7480438 270.72988354 -139 266.98046875 C-139.42990234 266.2527124 -139.85980469 265.52495605 -140.30273438 264.77514648 C-141.07209121 263.4737976 -141.8537085 262.17957749 -142.65039062 260.89477539 C-144.20173522 258.23753297 -144.9955737 256.28891685 -145.04296875 253.1953125 C-143.51622186 248.51786323 -141.22015519 244.40392331 -138.8125 240.125 C-138.01380493 238.68447266 -138.01380493 238.68447266 -137.19897461 237.21484375 C-129.3309644 223.10149345 -121.08640262 209.20470907 -112.84936523 195.30493164 C-107.53437898 186.33418431 -102.313232 177.32490724 -97.23681641 168.21728516 C-90.1896403 155.58355965 -83.07003158 143.0089555 -75.59057617 130.62548828 C-67.03757899 116.45674561 -58.66397927 102.19570606 -50.8125 87.625 C-46.8478019 80.2703485 -42.70424956 73.08142703 -38.29541016 65.98486328 C-33.69908024 58.5737139 -29.32038821 51.04020056 -24.94580078 43.49658203 C-22.2489066 38.84797783 -19.53658119 34.21196048 -16.76171875 29.609375 C-14.80492064 26.36040037 -12.90967592 23.09765297 -11.125 19.75 C-7.53648366 13.09788328 -3.76821532 6.55133881 0 0 Z " fill="#4AD194" transform="translate(430,26)"/>
<path d="M0 0 C0.33 0.66 0.66 1.32 1 2 C1.99 2.495 1.99 2.495 3 3 C1.06339673 6.39634547 -0.87444107 9.79198499 -2.8125 13.1875 C-3.35970703 14.14720703 -3.90691406 15.10691406 -4.47070312 16.09570312 C-5.00244141 17.02705078 -5.53417969 17.95839844 -6.08203125 18.91796875 C-6.56905518 19.77156982 -7.0560791 20.6251709 -7.55786133 21.50463867 C-8.03376709 22.32810791 -8.50967285 23.15157715 -9 24 C-9.55984573 25.29609837 -9.55984573 25.29609837 -10.13100147 26.61838055 C-12 29 -12 29 -15.24273968 29.61523914 C-16.61037748 29.63628535 -17.97860534 29.62943549 -19.34611511 29.60127258 C-20.10005202 29.60554471 -20.85398893 29.60981683 -21.63077241 29.61421841 C-24.16484727 29.62247455 -26.69727808 29.59492232 -29.23120117 29.56762695 C-31.04442811 29.56621704 -32.8576579 29.56700735 -34.67088318 29.56983948 C-39.60054911 29.57127726 -44.52960985 29.54182902 -49.45913482 29.50696969 C-54.60808626 29.47576637 -59.75705075 29.47278021 -64.90608215 29.46684265 C-74.65967382 29.45128647 -84.41298611 29.41023398 -94.16645461 29.3600952 C-105.26905463 29.30425693 -116.37166781 29.27672912 -127.47437322 29.25161803 C-150.31640385 29.1993197 -173.15818629 29.11134293 -196 29 C-195.67 28.34 -195.34 27.68 -195 27 C-194.08116909 26.99576806 -193.16233818 26.99153612 -192.21566391 26.98717594 C-169.8741278 26.88393948 -147.5326236 26.77531224 -125.19114304 26.66066074 C-114.38704259 26.60534696 -103.58293884 26.55186796 -92.77880859 26.50268555 C-83.3636029 26.45982115 -73.94842135 26.41353742 -64.53325295 26.36312145 C-59.54650651 26.33653873 -54.55976479 26.31168606 -49.57299042 26.29092598 C-44.88139436 26.27134076 -40.18984416 26.24719126 -35.49828911 26.21950912 C-33.77454143 26.21014869 -32.05078368 26.20246979 -30.32702065 26.19658089 C-27.9768135 26.1883026 -25.62671713 26.17402106 -23.27655029 26.15821838 C-21.96022991 26.15176583 -20.64390953 26.14531328 -19.28770065 26.1386652 C-16.64422016 26.02717124 -14.50306602 25.79392226 -12 25 C-11.67 23.35 -11.34 21.7 -11 20 C-10.34 20 -9.68 20 -9 20 C-8.814375 18.700625 -8.814375 18.700625 -8.625 17.375 C-8.00318859 14.01721838 -7.41500444 11.11300976 -6 8 C-5.154375 7.67 -4.30875 7.34 -3.4375 7 C-2.633125 6.67 -1.82875 6.34 -1 6 C-0.10169161 2.94727535 -0.10169161 2.94727535 0 0 Z " fill="#62C79C" transform="translate(320,92)"/>
<path d="M0 0 C1.30455062 -0.00170885 2.60910125 -0.0034177 3.95318371 -0.00517833 C7.5631135 -0.00963978 11.17292409 -0.00166478 14.7828387 0.00837779 C18.67982081 0.01702736 22.57679639 0.01409106 26.4737854 0.01257324 C33.22191392 0.01152534 39.97000371 0.017792 46.71812248 0.02904892 C56.47472328 0.04531385 66.23130538 0.05051294 75.98791827 0.0530249 C91.81797032 0.05740044 107.64800175 0.07070573 123.4780426 0.08963013 C138.85401812 0.10799256 154.22998802 0.12214729 169.60597229 0.13064575 C170.55399782 0.1311712 171.50202335 0.13169665 172.47877692 0.13223802 C177.23481711 0.13484812 181.99085733 0.13737553 186.74689758 0.13986182 C226.19318237 0.16058994 265.63944413 0.19581165 305.08570862 0.24050903 C304.37077419 4.26833831 303.24130912 7.05533995 301.08570862 10.55300903 C300.54945862 11.43601685 300.01320862 12.31902466 299.46070862 13.22879028 C299.00695862 13.89265747 298.55320862 14.55652466 298.08570862 15.24050903 C297.75570862 15.24050903 297.42570862 15.24050903 297.08570862 15.24050903 C297.01143023 11.89798179 297.02023909 9.43691763 298.08570862 6.24050903 C298.08570862 4.92050903 298.08570862 3.60050903 298.08570862 2.24050903 C258.86535213 2.21764418 219.64499651 2.20001158 180.4246347 2.1894437 C175.79937092 2.18819292 171.17410715 2.18689861 166.54884338 2.18557739 C165.62799634 2.18531508 164.70714931 2.18505277 163.75839781 2.18478251 C148.82786175 2.18042549 133.89732953 2.17253777 118.96679575 2.16335624 C103.65851317 2.15402058 88.35023261 2.14845361 73.04194731 2.14642054 C63.58803658 2.14504513 54.13413669 2.14069356 44.6802293 2.13259257 C38.20645642 2.12732619 31.73268917 2.12570449 25.2589143 2.12700766 C21.51811576 2.12765121 17.77733619 2.12663161 14.03654099 2.12130356 C9.9906261 2.11558266 5.94475219 2.11750784 1.89883423 2.12025452 C0.70333499 2.11734168 -0.49216424 2.11442883 -1.72389072 2.11142772 C-2.79876761 2.11341877 -3.87364449 2.11540982 -4.98109341 2.1174612 C-6.38397017 2.11689162 -6.38397017 2.11689162 -7.81518787 2.11631054 C-9.90176779 2.00661622 -9.90176779 2.00661622 -10.91429138 3.24050903 C-12.76321085 3.47414784 -14.6191717 3.65354538 -16.47679138 3.80300903 C-17.99466248 3.92869263 -17.99466248 3.92869263 -19.54319763 4.05691528 C-20.32565857 4.11750122 -21.10811951 4.17808716 -21.91429138 4.24050903 C-16.36526947 -1.30851288 -7.24487169 -0.03468258 0 0 Z " fill="#57C498" transform="translate(55.91429138183594,25.759490966796875)"/>
<path d="M0 0 C0.99 0.495 0.99 0.495 2 1 C2 1.66 2 2.32 2 3 C39.62 3 77.24 3 116 3 C114.97038242 8.14808788 113.65675751 10.62920538 111 15 C109.88332721 11.64998162 110.23713764 9.40745188 111 6 C110.15101686 6.00138269 110.15101686 6.00138269 109.28488255 6.00279331 C95.53164365 6.02484965 81.77840784 6.04134833 68.02515507 6.05181217 C61.3742647 6.05704174 54.72339214 6.06414072 48.07250977 6.07543945 C41.65997123 6.08626571 35.24744496 6.09227628 28.83489799 6.09487724 C26.38235722 6.09673197 23.92981715 6.10035347 21.47728157 6.10573006 C18.05523323 6.11293702 14.63323629 6.11399109 11.21118164 6.11352539 C9.6737027 6.1189183 9.6737027 6.1189183 8.10516357 6.12442017 C7.17823196 6.1230455 6.25130035 6.12167084 5.29627991 6.12025452 C4.48602387 6.12117631 3.67576784 6.1220981 2.8409586 6.12304783 C1 6 1 6 0 5 C-0.04063832 3.33382885 -0.042721 1.66611905 0 0 Z " fill="#8CDFBB" transform="translate(156,177)"/>
<path d="M0 0 C0.33 0.66 0.66 1.32 1 2 C1.66 2.33 2.32 2.66 3 3 C1.06339673 6.39634547 -0.87444107 9.79198499 -2.8125 13.1875 C-3.63331055 14.62706055 -3.63331055 14.62706055 -4.47070312 16.09570312 C-5.00244141 17.02705078 -5.53417969 17.95839844 -6.08203125 18.91796875 C-6.56905518 19.77156982 -7.0560791 20.6251709 -7.55786133 21.50463867 C-9.01153984 24.01996761 -10.49845334 26.51300249 -12 29 C-15.3 28.67 -18.6 28.34 -22 28 C-22 27.67 -22 27.34 -22 27 C-18.7 26.34 -15.4 25.68 -12 25 C-11.67 23.35 -11.34 21.7 -11 20 C-10.34 20 -9.68 20 -9 20 C-8.87625 19.13375 -8.7525 18.2675 -8.625 17.375 C-8.00318859 14.01721838 -7.41500444 11.11300976 -6 8 C-5.154375 7.67 -4.30875 7.34 -3.4375 7 C-2.633125 6.67 -1.82875 6.34 -1 6 C-0.10169161 2.94727535 -0.10169161 2.94727535 0 0 Z " fill="#73D5AC" transform="translate(320,92)"/>
<path d="M0 0 C3.38462628 0.60439755 5.55365051 1.55365051 8 4 C8.74118205 6.31074405 9.40206327 8.64811553 10 11 C10.98482022 13.00751815 11.98152514 15.00934459 13 17 C13 17.66 13 18.32 13 19 C13.66 19 14.32 19 15 19 C15.99 21.97 16.98 24.94 18 28 C18.99 27.67 19.98 27.34 21 27 C21 29.64 21 32.28 21 35 C17.96857889 31.39976919 15.59775695 27.73558797 13.3125 23.625 C9.92529202 17.57909481 6.40394763 11.62707321 2.79418945 5.71142578 C0 1.10437262 0 1.10437262 0 0 Z " fill="#78D7B0" transform="translate(54,192)"/>
<path d="M0 0 C1.48430102 3.85918266 0.6330213 6.28858795 -1 10 C-2.64633943 12.0167658 -4.31267723 14.01739574 -6 16 C-7.3049484 18.7124618 -7.3049484 18.7124618 -8 21 C-8.66 21 -9.32 21 -10 21 C-10.433125 22.3303125 -10.433125 22.3303125 -10.875 23.6875 C-11.24625 24.780625 -11.6175 25.87375 -12 27 C-12.309375 27.928125 -12.61875 28.85625 -12.9375 29.8125 C-13.288125 30.534375 -13.63875 31.25625 -14 32 C-15.485 32.495 -15.485 32.495 -17 33 C-18.66710346 34.49985609 -18.66710346 34.49985609 -20 36 C-18.60742751 32.26986495 -16.90252414 28.93665277 -14.8828125 25.5078125 C-13.97208984 23.95513672 -13.97208984 23.95513672 -13.04296875 22.37109375 C-12.41003906 21.29988281 -11.77710938 20.22867188 -11.125 19.125 C-9.87736958 17.00274206 -8.62996787 14.88034964 -7.3828125 12.7578125 C-6.79790039 11.76426758 -6.21298828 10.77072266 -5.61035156 9.74707031 C-3.71415803 6.51238723 -1.84923178 3.26171032 0 0 Z " fill="#70D5AA" transform="translate(414,54)"/>
<path d="M0 0 C0.33 1.32 0.66 2.64 1 4 C0.4225 4.226875 -0.155 4.45375 -0.75 4.6875 C-3.55338976 6.32281069 -5.00442154 8.47226728 -7 11 C-7.66 11 -8.32 11 -9 11 C-9.33 12.65 -9.66 14.3 -10 16 C-10.66 16 -11.32 16 -12 16 C-11.938125 16.680625 -11.87625 17.36125 -11.8125 18.0625 C-12.05868263 21.91936125 -13.35802162 24.51079594 -15 28 C-15.66 28 -16.32 28 -17 28 C-17.33 29.32 -17.66 30.64 -18 32 C-18.66 31.67 -19.32 31.34 -20 31 C-16.76498763 18.4445324 -10.49651837 7.81655623 0 0 Z " fill="#80D6B1" transform="translate(20,37)"/>
<path d="M0 0 C0.6875 1.6875 0.6875 1.6875 1 4 C-0.3125 6.75 -0.3125 6.75 -2 9 C-2.66 9 -3.32 9 -4 9 C-4.33 10.98 -4.66 12.96 -5 15 C-5.66 15 -6.32 15 -7 15 C-7.12375 15.70125 -7.2475 16.4025 -7.375 17.125 C-8.61494446 22.82874452 -10.35829109 27.36509776 -14 32 C-14.99 32 -15.98 32 -17 32 C-15.36803011 25.92826109 -12.20555436 20.82292369 -9.0625 15.4375 C-8.25522461 14.03854492 -8.25522461 14.03854492 -7.43164062 12.61132812 C-4.98922486 8.3860392 -2.51753687 4.18101737 0 0 Z " fill="#A8E7CC" transform="translate(350,164)"/>
<path d="M0 0 C0.66 0.99 1.32 1.98 2 3 C1.05065487 4.67180274 0.09026687 6.33733936 -0.875 8 C-1.40867187 8.928125 -1.94234375 9.85625 -2.4921875 10.8125 C-2.98976563 11.534375 -3.48734375 12.25625 -4 13 C-4.66 13 -5.32 13 -6 13 C-6.11214844 13.71542969 -6.22429687 14.43085938 -6.33984375 15.16796875 C-7.04456005 18.19115998 -8.13287798 20.56322688 -9.5625 23.3125 C-10.01753906 24.19550781 -10.47257812 25.07851562 -10.94140625 25.98828125 C-11.46541016 26.98408203 -11.46541016 26.98408203 -12 28 C-12.99 28 -13.98 28 -15 28 C-15 28.99 -15 29.98 -15 31 C-15.66 31 -16.32 31 -17 31 C-15.36195954 26.49538872 -13.1165039 22.46160989 -10.75 18.3125 C-10.35176025 17.60931641 -9.95352051 16.90613281 -9.54321289 16.18164062 C-6.44787171 10.73593657 -3.27370326 5.34062963 0 0 Z " fill="#7CD7B4" transform="translate(329,201)"/>
<path d="M0 0 C1.16648575 0.0028299 2.3329715 0.00565979 3.5348053 0.00857544 C7.24336201 0.01972862 10.9516731 0.04482464 14.66015625 0.0703125 C17.18163713 0.08034857 19.7031218 0.08947332 22.22460938 0.09765625 C28.39070815 0.11965206 34.55666464 0.15308132 40.72265625 0.1953125 C40.72265625 0.5253125 40.72265625 0.8553125 40.72265625 1.1953125 C40.09847305 1.20561996 39.47428986 1.21592743 38.83119202 1.22654724 C32.35911073 1.33437783 25.88717532 1.44899397 19.4152832 1.56762695 C16.99701986 1.61105128 14.57872435 1.65272062 12.16040039 1.69262695 C8.69277229 1.75014853 5.22530722 1.81389437 1.7578125 1.87890625 C0.66928482 1.89561874 -0.41924286 1.91233124 -1.54075623 1.92955017 C-2.54171829 1.94949539 -3.54268036 1.96944061 -4.57397461 1.98999023 C-5.45999863 2.00553452 -6.34602264 2.0210788 -7.25889587 2.03709412 C-9.27371916 1.97512575 -9.27371916 1.97512575 -10.27734375 3.1953125 C-12.12626321 3.42895131 -13.98222406 3.60834885 -15.83984375 3.7578125 C-17.35771484 3.88349609 -17.35771484 3.88349609 -18.90625 4.01171875 C-19.68871094 4.07230469 -20.47117188 4.13289063 -21.27734375 4.1953125 C-15.84548605 -1.2365452 -7.10453444 -0.06529405 0 0 Z " fill="#5AC699" transform="translate(55.27734375,25.8046875)"/>
<path d="M0 0 C0.99 0.33 1.98 0.66 3 1 C2.63648438 1.59425781 2.27296875 2.18851563 1.8984375 2.80078125 C-3.08207804 11.01224661 -7.79744406 19.36141279 -12 28 C-12.33 28 -12.66 28 -13 28 C-13 26.02 -13 24.04 -13 22 C-12.34 22 -11.68 22 -11 22 C-10.67 20.02 -10.34 18.04 -10 16 C-9.01 16 -8.02 16 -7 16 C-7.33 15.01 -7.66 14.02 -8 13 C-7.01 13 -6.02 13 -5 13 C-5 10.36 -5 7.72 -5 5 C-4.360625 4.731875 -3.72125 4.46375 -3.0625 4.1875 C-0.66868314 3.11332248 -0.66868314 3.11332248 0 0 Z " fill="#78D5AF" transform="translate(426,220)"/>
<path d="M0 0 C2.7083445 2.36012878 3.85019927 4.59993115 5.125 7.9375 C5.45757812 8.79214844 5.79015625 9.64679687 6.1328125 10.52734375 C7.4290979 14.22350888 8.12570131 17.40181684 8.09765625 21.328125 C8.09443359 22.12734375 8.09121094 22.9265625 8.08789062 23.75 C8.07951172 24.575 8.07113281 25.4 8.0625 26.25 C8.05798828 27.09046875 8.05347656 27.9309375 8.04882812 28.796875 C8.03707961 30.86461401 8.01914522 32.93231624 8 35 C7.67 35 7.34 35 7 35 C6.94392578 33.74896484 6.94392578 33.74896484 6.88671875 32.47265625 C6.4061923 24.24717412 5.64017128 16.96025692 1 10 C-0.60725635 6.78548731 -0.05748185 3.56387464 0 0 Z " fill="#6BD2A7" transform="translate(492,51)"/>
<path d="M0 0 C1.32 0.33 2.64 0.66 4 1 C4 2.32 4 3.64 4 5 C4.66 5 5.32 5 6 5 C6.66 7.31 7.32 9.62 8 12 C8.66 12 9.32 12 10 12 C10 12.99 10 13.98 10 15 C10.66 15 11.32 15 12 15 C12.28875 15.928125 12.5775 16.85625 12.875 17.8125 C13.8875 21.09791667 13.8875 21.09791667 16 24 C15.34 24.99 14.68 25.98 14 27 C12.03702621 23.44003818 10.08044562 19.87660169 8.125 16.3125 C7.56941406 15.30509766 7.01382813 14.29769531 6.44140625 13.25976562 C5.90644531 12.28330078 5.37148437 11.30683594 4.8203125 10.30078125 C4.32805176 9.40528564 3.83579102 8.50979004 3.32861328 7.5871582 C2.05263036 5.1024851 0.99120616 2.60962783 0 0 Z " fill="#8BDEBB" transform="translate(123,310)"/>
<path d="M0 0 C8.91 0 17.82 0 27 0 C27 0.33 27 0.66 27 1 C25.94087402 1.00616333 25.94087402 1.00616333 24.86035156 1.01245117 C21.65605397 1.04537925 18.45365979 1.11602246 15.25 1.1875 C14.13882812 1.19330078 13.02765625 1.19910156 11.8828125 1.20507812 C5.53409166 1.20007254 5.53409166 1.20007254 0.3359375 4.38671875 C-0.10492188 5.24910156 -0.54578125 6.11148438 -1 7 C-1.804375 8.299375 -1.804375 8.299375 -2.625 9.625 C-3.07875 10.40875 -3.5325 11.1925 -4 12 C-4.99 13.485 -4.99 13.485 -6 15 C-6.66 14.67 -7.32 14.34 -8 14 C-5.36 9.38 -2.72 4.76 0 0 Z " fill="#63CCA2" transform="translate(430,26)"/>
<path d="M0 0 C0.66 0 1.32 0 2 0 C2 0.66 2 1.32 2 2 C2.99 2 3.98 2 5 2 C5.33 4.31 5.66 6.62 6 9 C6.99 9.33 7.98 9.66 9 10 C12.67050625 15.0052358 15.34943031 18.71025437 15 25 C11.06587302 20.466387 8.21383007 15.43864739 5.25 10.25 C4.49009766 8.93708984 4.49009766 8.93708984 3.71484375 7.59765625 C0 1.13923518 0 1.13923518 0 0 Z " fill="#88DCB7" transform="translate(170,393)"/>
<path d="M0 0 C0.66 0.66 1.32 1.32 2 2 C1.86263043 9.41795652 -0.6422468 18.25602636 -5.6640625 23.85546875 C-6.10492188 24.23316406 -6.54578125 24.61085938 -7 25 C-7 23.02 -7 21.04 -7 19 C-6.34 19 -5.68 19 -5 19 C-4.87753906 18.49984375 -4.75507813 17.9996875 -4.62890625 17.484375 C-3.76319315 14.06453938 -2.84904654 10.65783125 -1.9375 7.25 C-1.75123047 6.55261719 -1.56496094 5.85523437 -1.37304688 5.13671875 C-0.91564761 3.42440354 -0.45786215 1.7121915 0 0 Z " fill="#8CDCBD" transform="translate(498,88)"/>
<path d="M0 0 C0.33 0.66 0.66 1.32 1 2 C1.66 2.33 2.32 2.66 3 3 C1.76725115 5.17825524 0.51574883 7.34104543 -0.75 9.5 C-1.09804688 10.12003906 -1.44609375 10.74007813 -1.8046875 11.37890625 C-2.859375 13.15625 -2.859375 13.15625 -5 16 C-6.32 16 -7.64 16 -9 16 C-10.5625 13.1875 -10.5625 13.1875 -12 10 C-11.67 9.01 -11.34 8.02 -11 7 C-9 10 -9 10 -9 12 C-7.68 12 -6.36 12 -5 12 C-4.67 10.35 -4.34 8.7 -4 7 C-3.01 7 -2.02 7 -1 7 C-1.020625 6.030625 -1.04125 5.06125 -1.0625 4.0625 C-1 1 -1 1 0 0 Z " fill="#7DD6B0" transform="translate(346,357)"/>
<path d="M0 0 C1.98 0 3.96 0 6 0 C5.41841104 4.03477342 4.13243941 6.85241201 2 10.3125 C1.46375 11.19550781 0.9275 12.07851563 0.375 12.98828125 C-0.07875 13.65214844 -0.5325 14.31601562 -1 15 C-1.33 15 -1.66 15 -2 15 C-2.07427838 11.65747276 -2.06546953 9.1964086 -1 6 C-0.64763503 4.00326516 -0.31165441 2.00349261 0 0 Z " fill="#6FD6A9" transform="translate(355,26)"/>
<path d="M0 0 C0.66 0.33 1.32 0.66 2 1 C2 1.99 2 2.98 2 4 C1.34 4 0.68 4 0 4 C0 4.99 0 5.98 0 7 C0.66 7.66 1.32 8.32 2 9 C-0.31 9.66 -2.62 10.32 -5 11 C-5.33 13.31 -5.66 15.62 -6 18 C-6.99 18 -7.98 18 -9 18 C-9 18.99 -9 19.98 -9 21 C-9.66 21 -10.32 21 -11 21 C-9.3003494 16.26525903 -6.86340973 12.03832889 -4.375 7.6875 C-3.95476562 6.94693359 -3.53453125 6.20636719 -3.1015625 5.44335938 C-2.07051505 3.62730989 -1.03563954 1.81343467 0 0 Z " fill="#6AD1A5" transform="translate(373,125)"/>
<path d="M0 0 C1.66666667 0 3.33333333 0 5 0 C3.69047721 4.43526814 1.95266332 7.99986319 -0.5625 11.875 C-1.18253906 12.84179688 -1.80257813 13.80859375 -2.44140625 14.8046875 C-2.95574219 15.52914062 -3.47007812 16.25359375 -4 17 C-4.33 17 -4.66 17 -5 17 C-4.67 14.69 -4.34 12.38 -4 10 C-3.34 10 -2.68 10 -2 10 C-1.93941406 9.36191406 -1.87882812 8.72382812 -1.81640625 8.06640625 C-1.73261719 7.24011719 -1.64882813 6.41382813 -1.5625 5.5625 C-1.48128906 4.73878906 -1.40007812 3.91507813 -1.31640625 3.06640625 C-1 1 -1 1 0 0 Z " fill="#6BD3A6" transform="translate(339,56)"/>
<path d="M0 0 C0.99 0 1.98 0 3 0 C1.64191648 5.16071738 -0.84968501 9.25707809 -3.66015625 13.73046875 C-5.12903566 16.03714501 -5.12903566 16.03714501 -6 19 C-6.66 19 -7.32 19 -8 19 C-8 17.02 -8 15.04 -8 13 C-7.01 12.67 -6.02 12.34 -5 12 C-4.9175 11.319375 -4.835 10.63875 -4.75 9.9375 C-3.77667472 6.1253093 -2.04192545 3.35929671 0 0 Z " fill="#7FD7B1" transform="translate(222,262)"/>
<path d="M0 0 C1.2421875 1.578125 1.2421875 1.578125 2 4 C0.81301179 6.46941266 -0.35228523 8.50781483 -1.875 10.75 C-2.26558594 11.35199219 -2.65617188 11.95398438 -3.05859375 12.57421875 C-4.02479188 14.05886465 -5.01057788 15.53072939 -6 17 C-7.0625 15.125 -7.0625 15.125 -8 13 C-7.67 12.34 -7.34 11.68 -7 11 C-6.01 11 -5.02 11 -4 11 C-3.96261719 10.37351563 -3.92523438 9.74703125 -3.88671875 9.1015625 C-3.82097656 8.28429687 -3.75523437 7.46703125 -3.6875 6.625 C-3.62949219 5.81289062 -3.57148438 5.00078125 -3.51171875 4.1640625 C-3 2 -3 2 0 0 Z " fill="#8ADEBC" transform="translate(245,223)"/>
<path d="M0 0 C0.66 0 1.32 0 2 0 C2 0.66 2 1.32 2 2 C2.99 2 3.98 2 5 2 C5.268125 3.134375 5.53625 4.26875 5.8125 5.4375 C6.4003125 7.2009375 6.4003125 7.2009375 7 9 C7.99 9.33 8.98 9.66 10 10 C11.16796875 12.50390625 11.16796875 12.50390625 12.1875 15.5625 C12.53167969 16.57441406 12.87585938 17.58632813 13.23046875 18.62890625 C13.48441406 19.41136719 13.73835937 20.19382812 14 21 C13.34 21 12.68 21 12 21 C10.67138672 19.17993164 10.67138672 19.17993164 9.1796875 16.66015625 C8.37724609 15.3134082 8.37724609 15.3134082 7.55859375 13.93945312 C7.00300781 12.99005859 6.44742188 12.04066406 5.875 11.0625 C5.31167969 10.11697266 4.74835938 9.17144531 4.16796875 8.19726562 C0 1.15814165 0 1.15814165 0 0 Z " fill="#6ACCA2" transform="translate(153,363)"/>
<path d="M0 0 C0.66 0 1.32 0 2 0 C2 0.66 2 1.32 2 2 C2.99 2 3.98 2 5 2 C5.33 4.31 5.66 6.62 6 9 C6.99 9 7.98 9 9 9 C9.33 11.31 9.66 13.62 10 16 C10.66 16 11.32 16 12 16 C12.33 17.65 12.66 19.3 13 21 C9.00010044 17.50467492 6.75888056 13.40939028 4.25 8.8125 C3.83878906 8.07580078 3.42757813 7.33910156 3.00390625 6.58007812 C0 1.15608129 0 1.15608129 0 0 Z " fill="#95E0C1" transform="translate(302,311)"/>
<path d="M0 0 C0.99 0.33 1.98 0.66 3 1 C2.45730469 1.85722656 1.91460937 2.71445313 1.35546875 3.59765625 C0.6325539 4.75244232 -0.09008773 5.90739946 -0.8125 7.0625 C-1.16892578 7.62388672 -1.52535156 8.18527344 -1.89257812 8.76367188 C-4.35463667 12.71651816 -6.25584361 16.68087454 -8 21 C-8.33 21 -8.66 21 -9 21 C-9 19.35 -9 17.7 -9 16 C-8.34 16 -7.68 16 -7 16 C-7.0825 15.113125 -7.165 14.22625 -7.25 13.3125 C-6.94608803 9.28566635 -5.81763407 7.81763407 -3 5 C-2.34 5 -1.68 5 -1 5 C-0.67 3.35 -0.34 1.7 0 0 Z " fill="#74D2AA" transform="translate(256,204)"/>
<path d="M0 0 C1.22589844 0.01353516 1.22589844 0.01353516 2.4765625 0.02734375 C3.41628906 0.04474609 3.41628906 0.04474609 4.375 0.0625 C0.0619017 2.37308837 -3.5033505 3.19148493 -8.390625 3.16015625 C-9.28007812 3.15693359 -10.16953125 3.15371094 -11.0859375 3.15039062 C-12.00632813 3.14201172 -12.92671875 3.13363281 -13.875 3.125 C-14.81085938 3.12048828 -15.74671875 3.11597656 -16.7109375 3.11132812 C-19.01569041 3.09956918 -21.32031227 3.08313426 -23.625 3.0625 C-23.625 2.7325 -23.625 2.4025 -23.625 2.0625 C-18.70613272 0.99896113 -14.01680061 1.01568469 -9.015625 1.125 C-5.81435982 1.04130679 -3.34630849 -0.04780441 0 0 Z " fill="#74D5AE" transform="translate(263.625,470.9375)"/>
<path d="M0 0 C0.66 0 1.32 0 2 0 C1.41234113 4.3992796 -0.23959717 7.51891411 -2.5 11.3125 C-3.1290625 12.38113281 -3.758125 13.44976562 -4.40625 14.55078125 C-4.9321875 15.35902344 -5.458125 16.16726563 -6 17 C-6.33 17 -6.66 17 -7 17 C-7.19506073 12.80619438 -7.01427301 9.72640507 -5 6 C-3.69084721 4.96854629 -2.35917857 3.96457834 -1 3 C-0.67 2.01 -0.34 1.02 0 0 Z " fill="#78D9B5" transform="translate(373,312)"/>
<path d="M0 0 C2.30973264 2.11288043 3.67864688 4.04510206 5 6.875 C6.17270414 9.33813148 7.35102583 11.5567996 8.8125 13.875 C9.204375 14.57625 9.59625 15.2775 10 16 C9.67 16.66 9.34 17.32 9 18 C5.27269402 15.35165101 3.22555237 13.45655408 2 9 C2 7.68 2 6.36 2 5 C1.34 5 0.68 5 0 5 C-0.5625 3.0625 -0.5625 3.0625 -1 1 C-0.67 0.67 -0.34 0.34 0 0 Z " fill="#73D2A9" transform="translate(288,406)"/>
<path d="M0 0 C2.475 0.495 2.475 0.495 5 1 C5.45572917 3.01822917 5.91145833 5.03645833 6.3671875 7.0546875 C6.90474428 9.20719964 6.90474428 9.20719964 9 11 C11 14 11 14 10.625 16.1875 C10.41875 16.785625 10.2125 17.38375 10 18 C8.32982236 15.18957076 6.66445191 12.37632343 5 9.5625 C4.28457031 8.35883789 4.28457031 8.35883789 3.5546875 7.13085938 C2.87792969 5.98520508 2.87792969 5.98520508 2.1875 4.81640625 C1.76855469 4.10943604 1.34960938 3.40246582 0.91796875 2.67407227 C0 1 0 1 0 0 Z " fill="#86DBB7" transform="translate(142,344)"/>
<path d="M0 0 C-1.37287342 3.69876091 -3.06355453 6.9514476 -5.125 10.3125 C-5.66382813 11.19550781 -6.20265625 12.07851563 -6.7578125 12.98828125 C-7.37269531 13.98408203 -7.37269531 13.98408203 -8 15 C-9.1577506 11.52674819 -9.06866652 8.63932552 -9 5 C-7.68 5.33 -6.36 5.66 -5 6 C-4.814375 4.7934375 -4.814375 4.7934375 -4.625 3.5625 C-4.41875 2.716875 -4.2125 1.87125 -4 1 C-2 0 -2 0 0 0 Z " fill="#7ED9B0" transform="translate(234,247)"/>
<path d="M0 0 C4.94408701 -0.35314907 7.65921617 0.73524322 12 3 C13.32 3 14.64 3 16 3 C16.66 4.32 17.32 5.64 18 7 C11.30965634 6.55397709 5.97187878 3.92654458 0 1 C0 0.67 0 0.34 0 0 Z " fill="#72D7AB" transform="translate(221,466)"/>
<path d="M0 0 C1.32 0.33 2.64 0.66 4 1 C1.03 6.28 -1.94 11.56 -5 17 C-6.28485596 11.86057616 -5.22194431 10.62164416 -3 6 C-2.34 6 -1.68 6 -1 6 C-0.67 4.02 -0.34 2.04 0 0 Z " fill="#88DBBB" transform="translate(452,174)"/>
<path d="M0 0 C1.2421875 1.578125 1.2421875 1.578125 2 4 C0.81301179 6.46941266 -0.35228523 8.50781483 -1.875 10.75 C-2.26558594 11.35199219 -2.65617187 11.95398438 -3.05859375 12.57421875 C-4.02479188 14.05886465 -5.01057788 15.53072939 -6 17 C-7.0625 15.125 -7.0625 15.125 -8 13 C-7.67 12.34 -7.34 11.68 -7 11 C-6.01 11 -5.02 11 -4 11 C-4 9.68 -4 8.36 -4 7 C-3.34 7 -2.68 7 -2 7 C-2.33 5.35 -2.66 3.7 -3 2 C-2.01 2 -1.02 2 0 2 C0 1.34 0 0.68 0 0 Z " fill="#7BD8B1" transform="translate(356,341)"/>
<path d="M0 0 C1.32 0 2.64 0 4 0 C2.51481201 4.04301175 0.57122002 7.61146256 -1.625 11.3125 C-2.25664062 12.38113281 -2.88828125 13.44976562 -3.5390625 14.55078125 C-4.26222656 15.76314453 -4.26222656 15.76314453 -5 17 C-6.19196962 13.42409115 -5.76618616 12.89394025 -4.1875 9.625 C-3.81496094 8.83480469 -3.44242187 8.04460937 -3.05859375 7.23046875 C-2.53458984 6.12638672 -2.53458984 6.12638672 -2 5 C-1.32165413 3.33805262 -0.64800425 1.67401097 0 0 Z " fill="#67D2A0" transform="translate(389,282)"/>
<path d="M0 0 C0.33 0.66 0.66 1.32 1 2 C0.19555664 3.78759766 0.19555664 3.78759766 -1.08984375 5.9140625 C-1.54423828 6.67460937 -1.99863281 7.43515625 -2.46679688 8.21875 C-2.95212891 9.0128125 -3.43746094 9.806875 -3.9375 10.625 C-4.41896484 11.42679688 -4.90042969 12.22859375 -5.39648438 13.0546875 C-6.59056765 15.04088542 -7.79195201 17.02227542 -9 19 C-10.04449911 15.86650268 -9.93423645 15.01031744 -9 12 C-8.34 12 -7.68 12 -7 12 C-7 10.68 -7 9.36 -7 8 C-6.34 8 -5.68 8 -5 8 C-5 7.34 -5 6.68 -5 6 C-4.34 5.67 -3.68 5.34 -3 5 C-3 3.68 -3 2.36 -3 1 C-2.01 0.67 -1.02 0.34 0 0 Z " fill="#7DDBB6" transform="translate(440,199)"/>
<path d="M0 0 C1.10546875 1.7421875 1.10546875 1.7421875 2 4 C1.42578125 6.0703125 1.42578125 6.0703125 0.3125 8.125 C-0.04199219 8.80820312 -0.39648438 9.49140625 -0.76171875 10.1953125 C-2 12 -2 12 -5 14 C-5 9.83588785 -4.38740919 8.33607747 -2.5 4.75 C-2.0359375 3.85796875 -1.571875 2.9659375 -1.09375 2.046875 C-0.7328125 1.37140625 -0.371875 0.6959375 0 0 Z " fill="#74D3AC" transform="translate(421,41)"/>
<path d="M0 0 C0.66 0 1.32 0 2 0 C2 0.66 2 1.32 2 2 C2.99 2.33 3.98 2.66 5 3 C5 3.66 5 4.32 5 5 C6.32 5.33 7.64 5.66 9 6 C8.67 8.31 8.34 10.62 8 13 C5.27324841 10.59310197 3.88033404 8.07528977 2.3125 4.8125 C1.65701172 3.46091797 1.65701172 3.46091797 0.98828125 2.08203125 C0.66214844 1.39496094 0.33601563 0.70789063 0 0 Z " fill="#85DDB9" transform="translate(294,297)"/>
<path d="M0 0 C2 2 2 2 2.5625 4.25 C1.67754559 8.57644376 -1.56958299 10.45344043 -5 13 C-5.33 12.34 -5.66 11.68 -6 11 C-4.78515625 8.3984375 -4.78515625 8.3984375 -3.0625 5.375 C-2.21365234 3.87066406 -2.21365234 3.87066406 -1.34765625 2.3359375 C-0.90292969 1.56507813 -0.45820313 0.79421875 0 0 Z " fill="#79DAB2" transform="translate(298,254)"/>
<path d="M0 0 C1 2 1 2 0.25 4.875 C-0.89946631 7.74866578 -1.8628678 9.77738251 -4 12 C-4.99 12 -5.98 12 -7 12 C-5.77759242 7.95665186 -4.39561694 4.49360803 -2 1 C-1.34 0.67 -0.68 0.34 0 0 Z " fill="#7FD7B2" transform="translate(340,184)"/>
<path d="M0 0 C1.59905166 2.87698229 2.37408122 5.29532353 2.75 8.5625 C2.84796875 9.32691406 2.9459375 10.09132813 3.046875 10.87890625 C3 13 3 13 1 16 C-2.25601751 7.14223195 -2.25601751 7.14223195 -1.1875 2.375 C-0.795625 1.59125 -0.40375 0.8075 0 0 Z " fill="#53CEA1" transform="translate(2,88)"/>
<path d="M0 0 C0.85010911 2.40505552 1.14566919 3.60055975 0.2578125 6.03515625 C-0.11601562 6.70417969 -0.48984375 7.37320313 -0.875 8.0625 C-2.1677445 10.41746463 -3.14326941 12.42980824 -4 15 C-4.99 15.33 -5.98 15.66 -7 16 C-8.66710346 17.49985609 -8.66710346 17.49985609 -10 19 C-8.40376856 14.60616294 -6.21975667 10.71004193 -3.875 6.6875 C-3.50246094 6.04232422 -3.12992187 5.39714844 -2.74609375 4.73242188 C-1.83367787 3.15324055 -0.91724491 1.57638136 0 0 Z " fill="#7AD3AE" transform="translate(404,71)"/>
<path d="M0 0 C0.66 0.33 1.32 0.66 2 1 C-0.64 5.62 -3.28 10.24 -6 15 C-7.15941038 11.52176885 -6.70820884 9.54104422 -6 6 C-5.01 5.67 -4.02 5.34 -3 5 C-2.6278958 3.67696283 -2.29369827 2.34262065 -2 1 C-1.34 0.67 -0.68 0.34 0 0 Z " fill="#76D5AF" transform="translate(351,41)"/>
<path d="M0 0 C1.1171875 1.765625 1.1171875 1.765625 2 4 C1.06434658 6.64564072 -0.45014515 8.62963376 -2 11 C-2.99 11 -3.98 11 -5 11 C-5 11.99 -5 12.98 -5 14 C-5.66 14 -6.32 14 -7 14 C-5.23570801 9.02790438 -2.6060834 4.56561939 0 0 Z " fill="#7CDBB5" transform="translate(319,218)"/>
<path d="M0 0 C0.33 0 0.66 0 1 0 C1.8125 2.6875 1.8125 2.6875 2 6 C-0.64584226 9.3262017 -3.20504617 11.21222732 -7 13 C-6.21085079 11.39459341 -5.41858235 9.79071984 -4.625 8.1875 C-4.18414062 7.29417969 -3.74328125 6.40085938 -3.2890625 5.48046875 C-2 3 -2 3 0 0 Z " fill="#62D3A5" transform="translate(358,151)"/>
<path d="M0 0 C1.625 1.625 1.625 1.625 3 4 C2.08182296 8.69290488 -0.24747256 12.14646158 -3 16 C-3.93423645 12.98968256 -4.04449911 12.13349732 -3 9 C-2.34 9 -1.68 9 -1 9 C-0.67 6.03 -0.34 3.06 0 0 Z " fill="#6AD3AA" transform="translate(302,430)"/>
<path d="M0 0 C0.66 0.33 1.32 0.66 2 1 C-0.64 5.62 -3.28 10.24 -6 15 C-6.33 15 -6.66 15 -7 15 C-7 13.02 -7 11.04 -7 9 C-6.01 9 -5.02 9 -4 9 C-4.66 7.35 -5.32 5.7 -6 4 C-4.02 4.495 -4.02 4.495 -2 5 C-2 4.01 -2 3.02 -2 2 C-1.34 2 -0.68 2 0 2 C0 1.34 0 0.68 0 0 Z " fill="#75D4AB" transform="translate(482,125)"/>
<path d="M0 0 C0.66 0 1.32 0 2 0 C2 0.66 2 1.32 2 2 C2.66 2 3.32 2 4 2 C4 2.66 4 3.32 4 4 C4.66 4.33 5.32 4.66 6 5 C8 10.22222222 8 10.22222222 8 13 C8.66 13 9.32 13 10 13 C9.67 14.32 9.34 15.64 9 17 C7.49743011 14.35559624 5.9978388 11.70958148 4.5 9.0625 C4.07074219 8.30775391 3.64148438 7.55300781 3.19921875 6.77539062 C2.79316406 6.05673828 2.38710937 5.33808594 1.96875 4.59765625 C1.59169922 3.93258057 1.21464844 3.26750488 0.82617188 2.58227539 C0 1 0 1 0 0 Z " fill="#79D5B0" transform="translate(113,293)"/>
<path d="M0 0 C0.99 0 1.98 0 3 0 C3 0.66 3 1.32 3 2 C3.99 1.67 4.98 1.34 6 1 C6.33 2.32 6.66 3.64 7 5 C6.34 5 5.68 5 5 5 C5 5.66 5 6.32 5 7 C5.66 7 6.32 7 7 7 C7 8.65 7 10.3 7 12 C3.95950199 8.35140239 2.03481238 4.2555467 0 0 Z " fill="#85DBBA" transform="translate(87,249)"/>
<path d="M0 0 C0.99 0.33 1.98 0.66 3 1 C2.05065487 2.67180274 1.09026687 4.33733936 0.125 6 C-0.40867187 6.928125 -0.94234375 7.85625 -1.4921875 8.8125 C-1.98976563 9.534375 -2.48734375 10.25625 -3 11 C-3.66 11 -4.32 11 -5 11 C-5 9.02 -5 7.04 -5 5 C-4.360625 4.731875 -3.72125 4.46375 -3.0625 4.1875 C-0.66868314 3.11332248 -0.66868314 3.11332248 0 0 Z " fill="#6ED3A8" transform="translate(426,220)"/>
<path d="M0 0 C1.8125 0.5625 1.8125 0.5625 4 2 C5.625 5.4375 5.625 5.4375 7 9 C7.99 10.485 7.99 10.485 9 12 C8.34 12.66 7.68 13.32 7 14 C5.82807953 12.04480616 4.6626071 10.0857461 3.5 8.125 C2.8503125 7.03445312 2.200625 5.94390625 1.53125 4.8203125 C0 2 0 2 0 0 Z " fill="#8EDBBC" transform="translate(42,170)"/>
<path d="M0 0 C4.8 3.32307692 4.8 3.32307692 5.8125 6.75 C5.874375 7.4925 5.93625 8.235 6 9 C6.66 9 7.32 9 8 9 C10.125 13.625 10.125 13.625 9 17 C7.49462965 14.54481265 5.99555574 12.0861548 4.5 9.625 C4.07074219 8.92632812 3.64148438 8.22765625 3.19921875 7.5078125 C0 2.2265625 0 2.2265625 0 0 Z " fill="#99E2C1" transform="translate(10,115)"/>
<path d="M0 0 C2.67901932 2.31881505 3.66204403 4.31814468 4.6875 7.6875 C4.93886719 8.49574219 5.19023437 9.30398437 5.44921875 10.13671875 C5.63097656 10.75160156 5.81273437 11.36648437 6 12 C5.01 12.33 4.02 12.66 3 13 C-0.22430866 8.16353702 -0.09242903 5.73060016 0 0 Z " fill="#8ADFC0" transform="translate(492,51)"/>
<path d="M0 0 C0.33 1.32 0.66 2.64 1 4 C0.4225 4.226875 -0.155 4.45375 -0.75 4.6875 C-3.18970256 5.92985689 -3.18970256 5.92985689 -5 8.5 C-6.93924781 10.92405976 -8.16317019 11.88553115 -11 13 C-9.43638038 9.16202456 -6.97489917 6.8332373 -4 4 C-3.236875 3.236875 -2.47375 2.47375 -1.6875 1.6875 C-1.130625 1.130625 -0.57375 0.57375 0 0 Z " fill="#90DBBA" transform="translate(20,37)"/>
<path d="M0 0 C0.99 0 1.98 0 3 0 C1.55218207 3.44428265 -0.27694609 5.36130962 -3.125 7.75 C-4.21167969 8.67039062 -4.21167969 8.67039062 -5.3203125 9.609375 C-5.87460937 10.06828125 -6.42890625 10.5271875 -7 11 C-7 7.47190093 -6.35723489 6.53184488 -4 4 C-3.01 4 -2.02 4 -1 4 C-0.67 2.68 -0.34 1.36 0 0 Z " fill="#80D6B7" transform="translate(290,453)"/>
<path d="M0 0 C0.66 0 1.32 0 2 0 C0.35821735 4.77609498 -2.26546702 8.79382904 -5 13 C-6.13583456 9.28272326 -5.66670026 7.52948291 -4 4 C-3.34 4 -2.68 4 -2 4 C-2 3.34 -2 2.68 -2 2 C-1.34 2 -0.68 2 0 2 C0 1.34 0 0.68 0 0 Z " fill="#6ED4AF" transform="translate(381,299)"/>
<path d="M0 0 C1.60031344 3.20062687 0.03173691 5.72271806 -1 9 C-1.66 9 -2.32 9 -3 9 C-3.66 10.65 -4.32 12.3 -5 14 C-5.66 14 -6.32 14 -7 14 C-5.53967505 8.68972746 -3.01679014 4.53669968 0 0 Z " fill="#93DDBD" transform="translate(382,109)"/>
<path d="M0 0 C0.96846689 2.61486062 1.04559628 3.8442127 0.25 6.5625 C-0.95223658 8.90686133 -1.94407782 10.37239494 -4 12 C-4.66 12 -5.32 12 -6 12 C-4.68139111 7.38486888 -2.78644563 3.90102388 0 0 Z " fill="#8DDEBE" transform="translate(389,97)"/>
<path d="M0 0 C-2 2 -2 2 -5 3 C-5.33 3.66 -5.66 4.32 -6 5 C-8.64860427 5.59355614 -11.29197322 5.74209269 -14 6 C-5.00826446 -1.66942149 -5.00826446 -1.66942149 0 0 Z " fill="#77D4AC" transform="translate(35,31)"/>
<path d="M0 0 C2.63886669 3.18483911 5.14494105 6.2898821 7 10 C6.67 10.99 6.34 11.98 6 13 C5.34 13 4.68 13 4 13 C4 11.02 4 9.04 4 7 C2.68 6.67 1.36 6.34 0 6 C0 4.02 0 2.04 0 0 Z " fill="#81DAB4" transform="translate(235,314)"/>
<path d="M0 0 C3.04049801 3.64859761 4.96518762 7.7444533 7 12 C6.01 12.495 6.01 12.495 5 13 C2.53686261 11.17251097 1.16571382 9.77023784 0.51171875 6.73046875 C0.27481707 4.48520654 0.09638651 2.25544422 0 0 Z " fill="#70D5A7" transform="translate(216,281)"/>
<path d="M0 0 C0.66 0.33 1.32 0.66 2 1 C1.23432134 2.58583248 0.46222035 4.16856494 -0.3125 5.75 C-0.74175781 6.63171875 -1.17101562 7.5134375 -1.61328125 8.421875 C-2.90103146 10.81600215 -4.30915754 12.87776958 -6 15 C-6.66 14.67 -7.32 14.34 -8 14 C-5.36 9.38 -2.72 4.76 0 0 Z " fill="#8FDCBE" transform="translate(430,26)"/>
<path d="M0 0 C0.99 0 1.98 0 3 0 C1.43358249 4.30764815 -0.68336156 8.06171464 -3 12 C-3.33 12 -3.66 12 -4 12 C-4 10.35 -4 8.7 -4 7 C-3.34 7 -2.68 7 -2 7 C-1.855625 6.030625 -1.71125 5.06125 -1.5625 4.0625 C-1 1 -1 1 0 0 Z " fill="#86D9B4" transform="translate(403,260)"/>
<path d="M0 0 C0.33 0.66 0.66 1.32 1 2 C-0.21484375 4.6015625 -0.21484375 4.6015625 -1.9375 7.625 C-2.78634766 9.12933594 -2.78634766 9.12933594 -3.65234375 10.6640625 C-4.09707031 11.43492188 -4.54179687 12.20578125 -5 13 C-5.33 13 -5.66 13 -6 13 C-6 11.35 -6 9.7 -6 8 C-5.34 7.67 -4.68 7.34 -4 7 C-4 5.35 -4 3.7 -4 2 C-2.68 1.34 -1.36 0.68 0 0 Z " fill="#7BD7B2" transform="translate(333,73)"/>
<path d="M0 0 C3.28465896 2.79196011 5.01321958 6.23196817 7 10 C7 10.66 7 11.32 7 12 C6.01 12 5.02 12 4 12 C4 10.35 4 8.7 4 7 C3.01 7 2.02 7 1 7 C0.67 4.69 0.34 2.38 0 0 Z " fill="#6AD5AC" transform="translate(257,353)"/>
<path d="M0 0 C0.33 0.66 0.66 1.32 1 2 C1.66 2 2.32 2 3 2 C3.33 1.34 3.66 0.68 4 0 C4.75 1.625 4.75 1.625 5 4 C3.0625 7.25 3.0625 7.25 1 10 C0.855625 9.401875 0.71125 8.80375 0.5625 8.1875 C0.1127561 6.43849596 -0.42892341 4.71322977 -1 3 C-0.67 2.01 -0.34 1.02 0 0 Z " fill="#77D7AD" transform="translate(441,189)"/>
<path d="M0 0 C0.99 0 1.98 0 3 0 C3 0.66 3 1.32 3 2 C3.99 2.33 4.98 2.66 6 3 C5.34 3 4.68 3 4 3 C4.9977758 5.99332739 5.7522025 6.94766315 8 9 C7.01 10.485 7.01 10.485 6 12 C4.02 8.04 2.04 4.08 0 0 Z " fill="#76D8AC" transform="translate(317,336)"/>
<path d="M0 0 C0.66 0.99 1.32 1.98 2 3 C1.67 3.33 1.34 3.66 1 4 C0.8386942 7.06481021 1.01849759 9.05549278 2 12 C2.66 12 3.32 12 4 12 C3.67 12.99 3.34 13.98 3 15 C-0.26404813 11.42007624 -1.7918461 8.89161668 -2 4 C-1.0625 1.625 -1.0625 1.625 0 0 Z " fill="#7FD4AE" transform="translate(287,274)"/>
<path d="M0 0 C-0.639375 0.309375 -1.27875 0.61875 -1.9375 0.9375 C-3.93610821 1.8345163 -3.93610821 1.8345163 -5 3 C-6.84891946 3.23363881 -8.70488031 3.41303635 -10.5625 3.5625 C-12.08037109 3.68818359 -12.08037109 3.68818359 -13.62890625 3.81640625 C-14.41136719 3.87699219 -15.19382813 3.93757813 -16 4 C-11.71327571 -0.28672429 -5.76159905 -0.23516731 0 0 Z " fill="#81D4AF" transform="translate(50,26)"/>
<path d="M0 0 C0.66 0.33 1.32 0.66 2 1 C1.01 3.97 0.02 6.94 -1 10 C-1.99 10 -2.98 10 -4 10 C-4 10.99 -4 11.98 -4 13 C-4.66 13 -5.32 13 -6 13 C-4.31326082 8.50202887 -2.18326108 4.27113698 0 0 Z " fill="#80D9B4" transform="translate(368,133)"/>
<path d="M0 0 C0.33 0.66 0.66 1.32 1 2 C1.66 2.33 2.32 2.66 3 3 C1.35 5.97 -0.3 8.94 -2 12 C-2.33 12 -2.66 12 -3 12 C-3 10.02 -3 8.04 -3 6 C-2.34 6 -1.68 6 -1 6 C-0.67 4.02 -0.34 2.04 0 0 Z " fill="#87DCB7" transform="translate(320,92)"/>
<path d="M0 0 C1.15957207 3.47871621 0.77456651 4.34219645 -0.4375 7.6875 C-0.86869141 8.89986328 -0.86869141 8.89986328 -1.30859375 10.13671875 C-1.53675781 10.75160156 -1.76492187 11.36648438 -2 12 C-2.66 12 -3.32 12 -4 12 C-4 10.02 -4 8.04 -4 6 C-3.01 5.67 -2.02 5.34 -1 5 C-0.67 3.35 -0.34 1.7 0 0 Z " fill="#67D5A9" transform="translate(218,269)"/>
<path d="M0 0 C0.66 0.33 1.32 0.66 2 1 C1.02526874 2.66926454 0.04510211 4.33535642 -0.9375 6 C-1.75541016 7.3921875 -1.75541016 7.3921875 -2.58984375 8.8125 C-3.05519531 9.534375 -3.52054687 10.25625 -4 11 C-4.33 11 -4.66 11 -5 11 C-4.67 8.36 -4.34 5.72 -4 3 C-3.01 2.67 -2.02 2.34 -1 2 C-0.67 1.34 -0.34 0.68 0 0 Z " fill="#94E0C0" transform="translate(489,114)"/>
<path d="M0 0 C1.875 0.3125 1.875 0.3125 4 1 C6.1519437 4.22791555 6.20086443 5.28400809 6 9 C2.91910327 6.22719294 1.31224548 3.93673644 0 0 Z " fill="#64CD9F" transform="translate(37,161)"/>
<path d="M0 0 C0.99 0.33 1.98 0.66 3 1 C3 1.66 3 2.32 3 3 C3.99 3.33 4.98 3.66 6 4 C5.67 5.65 5.34 7.3 5 9 C1.9083091 6.47043472 1.09068668 3.77545388 0 0 Z " fill="#8FDBB9" transform="translate(4,104)"/>
<path d="M0 0 C0.99 0.33 1.98 0.66 3 1 C3.33333333 2.33333333 3.66666667 3.66666667 4 5 C4.99 5.33 5.98 5.66 7 6 C6.67 7.32 6.34 8.64 6 10 C4.99421411 8.71283353 3.99553202 7.42011342 3 6.125 C2.443125 5.40570313 1.88625 4.68640625 1.3125 3.9453125 C0 2 0 2 0 0 Z " fill="#7FD5B1" transform="translate(201,445)"/>
<path d="M0 0 C0.99 0 1.98 0 3 0 C3.33 1.65 3.66 3.3 4 5 C4.66 5 5.32 5 6 5 C6 5.66 6 6.32 6 7 C6.66 7.33 7.32 7.66 8 8 C7.01 9.485 7.01 9.485 6 11 C4.02 7.37 2.04 3.74 0 0 Z " fill="#89DAB8" transform="translate(30,150)"/>
<path d="M0 0 C0.66 0.66 1.32 1.32 2 2 C1.96712417 4.72869407 1.43602229 7.2966618 1 10 C0.01 9.67 -0.98 9.34 -2 9 C-1.34 6.03 -0.68 3.06 0 0 Z " fill="#7AD4B1" transform="translate(498,88)"/>
<path d="M0 0 C0.33 0 0.66 0 1 0 C1 1.65 1 3.3 1 5 C2.65 5.33 4.3 5.66 6 6 C5.67 6.99 5.34 7.98 5 9 C4.67 8.34 4.34 7.68 4 7 C2.68 7 1.36 7 0 7 C0 5.68 0 4.36 0 3 C-0.66 2.67 -1.32 2.34 -2 2 C-1.34 1.34 -0.68 0.68 0 0 Z " fill="#58D29B" transform="translate(260,360)"/>
<path d="M0 0 C1.32 0.33 2.64 0.66 4 1 C4 1.66 4 2.32 4 3 C4.66 3 5.32 3 6 3 C6.33 4.65 6.66 6.3 7 8 C6.01 8.495 6.01 8.495 5 9 C3.35 6.03 1.7 3.06 0 0 Z " fill="#76D6AA" transform="translate(324,349)"/>
<path d="M0 0 C2 2 2 2 2 6 C1.34 6 0.68 6 0 6 C-0.33 7.32 -0.66 8.64 -1 10 C-1.66 9.67 -2.32 9.34 -3 9 C-2.01 6.03 -1.02 3.06 0 0 Z " fill="#8AD9BE" transform="translate(3,59)"/>
<path d="M0 0 C0.66 0 1.32 0 2 0 C2 0.66 2 1.32 2 2 C2.99 2 3.98 2 5 2 C5.66 4.97 6.32 7.94 7 11 C4.42355713 8.42355713 3.31230641 6.96726521 1.8125 3.8125 C1.46832031 3.09707031 1.12414062 2.38164062 0.76953125 1.64453125 C0.51558594 1.10183594 0.26164063 0.55914062 0 0 Z " fill="#B0EAD0" transform="translate(170,393)"/>
<path d="M0 0 C1.32 0.33 2.64 0.66 4 1 C4 2.32 4 3.64 4 5 C4.66 5 5.32 5 6 5 C6 6.32 6 7.64 6 9 C5.34 9 4.68 9 4 9 C2.68 6.03 1.36 3.06 0 0 Z " fill="#71D0A9" transform="translate(123,310)"/>
<path d="M0 0 C0.66 0 1.32 0 2 0 C1.49701212 4.40114397 -0.08772731 6.71195019 -3 10 C-2.25 3.375 -2.25 3.375 0 0 Z " fill="#8CDAB9" transform="translate(373,312)"/>
<path d="M0 0 C0.99 0 1.98 0 3 0 C1.90931332 3.77545388 1.0916909 6.47043472 -2 9 C-2.33 7.35 -2.66 5.7 -3 4 C-2.01 3.34 -1.02 2.68 0 2 C0 1.34 0 0.68 0 0 Z " fill="#84DAB7" transform="translate(472,140)"/>
<path d="M0 0 C0.66 0.99 1.32 1.98 2 3 C0.35 5.64 -1.3 8.28 -3 11 C-4 7 -4 7 -3.22265625 5.078125 C-1.61132812 2.5390625 -1.61132812 2.5390625 0 0 Z " fill="#69CBA3" transform="translate(329,201)"/>
<path d="M0 0 C3.36720387 1.39332574 4.9859524 2.9789286 7 6 C6.67 6.66 6.34 7.32 6 8 C1.3125 4.38671875 1.3125 4.38671875 0 3 C0 2.01 0 1.02 0 0 Z " fill="#8FDEBE" transform="translate(485,43)"/>
<path d="M0 0 C0.99 1.32 1.98 2.64 3 4 C-3.625 3.25 -3.625 3.25 -7 1 C-3.535 0.505 -3.535 0.505 0 0 Z " fill="#85DAB8" transform="translate(236,469)"/>
<path d="M0 0 C0.66 0 1.32 0 2 0 C2 0.66 2 1.32 2 2 C2.99 2 3.98 2 5 2 C5.33 3.65 5.66 5.3 6 7 C3.00675737 5.9024777 2.15389099 5.32317108 0.75 2.375 C0.5025 1.59125 0.255 0.8075 0 0 Z " fill="#8BDDBC" transform="translate(302,311)"/>
<path d="M0 0 C0.99 1.32 1.98 2.64 3 4 C2.34 5.32 1.68 6.64 1 8 C-2 3.25 -2 3.25 -2 1 C-1.34 0.67 -0.68 0.34 0 0 Z " fill="#83DCB8" transform="translate(52,183)"/>
<path d="M0 0 C0.99 0 1.98 0 3 0 C3.625 2.3125 3.625 2.3125 4 5 C3.01 6.485 3.01 6.485 2 8 C0.74335022 5.09399739 0 3.20395416 0 0 Z " fill="#94DDC2" transform="translate(1,96)"/>
<path d="M0 0 C-6.75 4 -6.75 4 -9 4 C-9 3.01 -9 2.02 -9 1 C-3.375 -1.125 -3.375 -1.125 0 0 Z " fill="#85D8B3" transform="translate(282,465)"/>
<path d="M0 0 C0.99 1.32 1.98 2.64 3 4 C2.1875 7.25 2.1875 7.25 1 10 C0.67 10 0.34 10 0 10 C0 6.7 0 3.4 0 0 Z " fill="#9ADEC1" transform="translate(302,430)"/>
<path d="M0 0 C3 0 3 0 5.1875 1.875 C7 4 7 4 7 6 C6.01 6 5.02 6 4 6 C4 5.34 4 4.68 4 4 C3.01 3.67 2.02 3.34 1 3 C0.67 2.01 0.34 1.02 0 0 Z " fill="#64D2A6" transform="translate(292,293)"/>
<path d="M0 0 C1.485 0.99 1.485 0.99 3 2 C3.375 4.4375 3.375 4.4375 3 7 C2.01 7.99 1.02 8.98 0 10 C0 6.7 0 3.4 0 0 Z " fill="#66D4A6" transform="translate(225,252)"/>
<path d="M0 0 C0.66 0.66 1.32 1.32 2 2 C0.68 4.31 -0.64 6.62 -2 9 C-2.33 9 -2.66 9 -3 9 C-3.26218749 5.85375007 -3.24754367 4.38162983 -1.5 1.6875 C-1.005 1.130625 -0.51 0.57375 0 0 Z " fill="#86D9B5" transform="translate(411,247)"/>
<path d="M0 0 C0.33 0.66 0.66 1.32 1 2 C3.01669827 3.13350534 3.01669827 3.13350534 5 4 C3.68 4.99 2.36 5.98 1 7 C1 6.34 1 5.68 1 5 C0.34 5 -0.32 5 -1 5 C-0.67 3.35 -0.34 1.7 0 0 Z " fill="#55D29C" transform="translate(331,198)"/>
<path d="M0 0 C0.66 1.32 1.32 2.64 2 4 C0.68 5.32 -0.64 6.64 -2 8 C-2.66 7.67 -3.32 7.34 -4 7 C-2.68 4.69 -1.36 2.38 0 0 Z " fill="#84DDB3" transform="translate(355,156)"/>
<path d="M0 0 C2.72426311 2.35277269 3.8141763 4.62496331 5 8 C2.5 6.8125 2.5 6.8125 0 5 C-0.3125 2.3125 -0.3125 2.3125 0 0 Z " fill="#7BD4AD" transform="translate(127,128)"/>
<path d="M0 0 C0.99 0 1.98 0 3 0 C2.50168276 3.68754757 1.89932357 5.60490662 -1 8 C-1.04241723 5.66705225 -1.04092937 3.33297433 -1 1 C-0.67 0.67 -0.34 0.34 0 0 Z " fill="#9CDDC4" transform="translate(358,26)"/>
<path d="M0 0 C1.65 0 3.3 0 5 0 C5.66 1.65 6.32 3.3 7 5 C3.34683329 3.75023244 2.21934164 3.32901247 0 0 Z " fill="#73D4AD" transform="translate(213,460)"/>
<path d="M0 0 C2.475 0.495 2.475 0.495 5 1 C4.67 2.65 4.34 4.3 4 6 C1.7522025 3.94766315 0.9977758 2.99332739 0 0 Z " fill="#77DAAE" transform="translate(185,418)"/>
<path d="M0 0 C0.66 0 1.32 0 2 0 C2 0.66 2 1.32 2 2 C2.99 2 3.98 2 5 2 C5.33 3.65 5.66 5.3 6 7 C5.01 7.495 5.01 7.495 4 8 C2.68 5.36 1.36 2.72 0 0 Z " fill="#87DABA" transform="translate(153,363)"/>
<path d="M0 0 C0.66 1.32 1.32 2.64 2 4 C0.35 4.66 -1.3 5.32 -3 6 C-2.625 3.5625 -2.625 3.5625 -2 1 C-1.34 0.67 -0.68 0.34 0 0 Z " fill="#6FD8AC" transform="translate(245,223)"/>
<path d="M0 0 C0.6875 1.6875 0.6875 1.6875 1 4 C-0.4375 6.75 -0.4375 6.75 -2 9 C-2.6875 7.3125 -2.6875 7.3125 -3 5 C-1.5625 2.25 -1.5625 2.25 0 0 Z " fill="#83DDBC" transform="translate(350,164)"/>
<path d="M0 0 C1.35303489 2.70606979 0.7884698 4.1328371 0 7 C-0.66 7.66 -1.32 8.32 -2 9 C-2.6875 7.3125 -2.6875 7.3125 -3 5 C-1.5625 2.25 -1.5625 2.25 0 0 Z " fill="#91E1BE" transform="translate(393,90)"/>
<path d="M0 0 C0.66 0 1.32 0 2 0 C1.39816251 2.02045442 0.72693904 4.02111039 0 6 C-0.99 6.495 -0.99 6.495 -2 7 C-2 5.68 -2 4.36 -2 3 C-2.66 2.67 -3.32 2.34 -4 2 C-2.68 2 -1.36 2 0 2 C0 1.34 0 0.68 0 0 Z " fill="#84DAB4" transform="translate(325,86)"/>
<path d="M0 0 C0.66 0 1.32 0 2 0 C2 1.32 2 2.64 2 4 C1.01 4.33 0.02 4.66 -1 5 C-2.66710346 6.49985609 -2.66710346 6.49985609 -4 8 C-2.87548273 5.0280615 -1.77706209 2.66559313 0 0 Z " fill="#87DAB9" transform="translate(398,82)"/>
<path d="M0 0 C1.16945792 0.80847729 2.33550461 1.62189112 3.5 2.4375 C4.47453125 3.11619141 4.47453125 3.11619141 5.46875 3.80859375 C5.9740625 4.20175781 6.479375 4.59492187 7 5 C7 5.33 7 5.66 7 6 C5.35 6 3.7 6 2 6 C1.34 4.02 0.68 2.04 0 0 Z " fill="#71D0A7" transform="translate(479,37)"/>
</svg>
