<?xml version="1.0" encoding="UTF-8"?>
<svg version="1.1" xmlns="http://www.w3.org/2000/svg" width="225" height="225">
<path d="M0 0 C3.89561537 1.47167692 7.02054213 3.71135836 10.375 6.125 C32.66669003 21.93305005 57.09539251 29.7437182 84.2434082 31.7487793 C90.7993766 32.32998039 94.57159942 32.96939569 99 38 C100.20703125 40.17578125 100.20703125 40.17578125 100.8125 42.3125 C101.02519531 43.00988281 101.23789063 43.70726562 101.45703125 44.42578125 C108.79368471 79.20890808 98.87293621 117.3275009 79.85742188 146.76904297 C74.86696303 154.02690594 69.03488438 160.60405416 63 167 C62.27683594 167.79921875 61.55367187 168.5984375 60.80859375 169.421875 C45.40679466 185.78791532 20.2159368 202.14409782 -2.4609375 205.34765625 C-4.84638731 205.23341057 -6.72116019 204.73557487 -9 204 C-10.84078125 203.45085937 -10.84078125 203.45085937 -12.71875 202.890625 C-27.80942606 198.1182998 -41.58138369 190.80933358 -54 181 C-55.23943359 180.06414062 -55.23943359 180.06414062 -56.50390625 179.109375 C-85.28537262 156.94899713 -102.70999938 124.29518709 -108.53271484 88.74780273 C-109.28493366 82.71472484 -109.22463404 76.67521576 -109.24023438 70.60473633 C-109.24990107 68.33572164 -109.28096492 66.06762957 -109.3125 63.79882812 C-109.38260532 54.15845688 -109.29750996 44.31856446 -104.0625 35.875 C-100.31379264 32.46708421 -97.15867769 31.72905941 -92.15234375 31.32421875 C-90.99919678 31.22149658 -89.8460498 31.11877441 -88.65795898 31.01293945 C-86.81633179 30.85184692 -86.81633179 30.85184692 -84.9375 30.6875 C-57.66407125 27.990281 -32.09410207 19.31981621 -10.41796875 2.09375 C-7.0304754 -0.51919253 -4.19470814 -0.27964721 0 0 Z M-9.5625 34.5 C-28.11166215 46.18191412 -48.13041606 52.6895864 -69.58984375 56.55664062 C-73.73672834 57.3194792 -77.86779511 58.16180249 -82 59 C-82.88131171 92.39192152 -74.50536497 121.85623185 -51.078125 146.828125 C-39.3494423 159.04550282 -19.97330717 176.01708476 -2 177 C0.60779194 176.15820712 2.90781017 175.27043816 5.375 174.125 C6.07399414 173.80692383 6.77298828 173.48884766 7.49316406 173.16113281 C20.36565109 167.15628844 30.91405576 159.97213951 41 150 C41.86238281 149.20980469 42.72476563 148.41960937 43.61328125 147.60546875 C64.42394178 128.08940608 75.16886153 98.79310686 76.21875 70.67578125 C76.53089854 64.65823453 76.53089854 64.65823453 75 59 C72.73181547 58.36028176 72.73181547 58.36028176 69.953125 57.95703125 C68.89101807 57.77430664 67.82891113 57.59158203 66.73461914 57.40332031 C65.58469482 57.20834961 64.43477051 57.01337891 63.25 56.8125 C40.76469338 52.71614252 18.89361476 45.25910157 -0.06640625 32.21484375 C-3.99545371 29.7462907 -6.0113861 32.18888707 -9.5625 34.5 Z " fill="#AE96F8" transform="translate(109,16)"/>
<path d="M0 0 C0.66 0.99 1.32 1.98 2 3 C0.45920256 7.79359205 -1.02856501 10.08761434 -5 13 C-5.12375 13.78375 -5.2475 14.5675 -5.375 15.375 C-6.32338858 19.35823203 -8.76603785 20.59173031 -12 23 C-12.66 22.67 -13.32 22.34 -14 22 C-13.32453125 21.0821875 -12.6490625 20.164375 -11.953125 19.21875 C-7.43113581 13.01769571 -3.1058993 7.05886205 0 0 Z " fill="#BBAAEF" transform="translate(172,135)"/>
<path d="M0 0 C2.64 0 5.28 0 8 0 C9.7680198 3.5360396 9.18464913 7.60571255 9.1875 11.5 C9.19974609 12.38042969 9.21199219 13.26085937 9.22460938 14.16796875 C9.22750977 15.43060547 9.22750977 15.43060547 9.23046875 16.71875 C9.23457764 17.49154297 9.23868652 18.26433594 9.24291992 19.06054688 C9 21 9 21 7 23 C6.67 16.07 6.34 9.14 6 2 C4.35 2 2.7 2 1 2 C0.67 1.34 0.34 0.68 0 0 Z " fill="#AA98E7" transform="translate(178,73)"/>
<path d="M0 0 C0.66 0.33 1.32 0.66 2 1 C0.76537401 5.76212883 0.76537401 5.76212883 -1 8 C-3.62707556 8.92291053 -6.05635708 9.30483985 -8.8203125 9.61328125 C-9.53960937 9.74089844 -10.25890625 9.86851562 -11 10 C-11.33 10.66 -11.66 11.32 -12 12 C-13.65 12 -15.3 12 -17 12 C-13.55797398 9.15467557 -10.03930676 6.6731357 -6.25 4.3125 C-2.95006695 2.38471402 -2.95006695 2.38471402 0 0 Z " fill="#BEAEEE" transform="translate(140,174)"/>
<path d="M0 0 C0.33 0.99 0.66 1.98 1 3 C-0.98 4.32 -2.96 5.64 -5 7 C-4.67 6.01 -4.34 5.02 -4 4 C-6.7223015 3.92221996 -9.02354954 4.00547664 -11.6875 4.625 C-12.450625 4.74875 -13.21375 4.8725 -14 5 C-14.66 4.34 -15.32 3.68 -16 3 C-5.62642369 -0.44419134 -5.62642369 -0.44419134 0 0 Z " fill="#B6A3F2" transform="translate(64,40)"/>
<path d="M0 0 C4.74018901 1.83491188 9.36413251 3.91941459 14 6 C10.24649329 8.11236308 8.21187864 8.09875095 4 7 C3.34 6.34 2.68 5.68 2 5 C2.66 5 3.32 5 4 5 C4 4.34 4 3.68 4 3 C2.68 2.67 1.36 2.34 0 2 C0 1.34 0 0.68 0 0 Z " fill="#B6A4F1" transform="translate(83,183)"/>
<path d="M0 0 C0.66 0 1.32 0 2 0 C2.42765417 6.41481258 0.85743168 11.88595404 -1 18 C-1.66 18 -2.32 18 -3 18 C-2 12 -1 6 0 0 Z " fill="#BCADEE" transform="translate(183,100)"/>
<path d="M0 0 C3 1 3 1 4.16796875 2.84765625 C4.50441406 3.57855469 4.84085938 4.30945313 5.1875 5.0625 C5.53167969 5.79597656 5.87585937 6.52945313 6.23046875 7.28515625 C6.48441406 7.85105469 6.73835938 8.41695312 7 9 C5.35 9 3.7 9 2 9 C2 8.01 2 7.02 2 6 C1.34 6 0.68 6 0 6 C0 4.02 0 2.04 0 0 Z " fill="#B7A6EE" transform="translate(41,142)"/>
<path d="M0 0 C3.80979086 0.9357381 5.14222468 1.8738586 7.5625 4.875 C7.2325 5.865 6.9025 6.855 6.5625 7.875 C5.9025 7.070625 5.2425 6.26625 4.5625 5.4375 C0.68270772 2.12351076 -1.43764825 2.12922975 -6.4375 1.875 C-3.4375 -0.125 -3.4375 -0.125 0 0 Z " fill="#B9AAEC" transform="translate(200.4375,49.125)"/>
<path d="M0 0 C0.66 0 1.32 0 2 0 C2 0.66 2 1.32 2 2 C2.99 2.33 3.98 2.66 5 3 C5.66 3.66 6.32 4.32 7 5 C7.66 5 8.32 5 9 5 C9 6.65 9 8.3 9 10 C8.01 10 7.02 10 6 10 C4.39453125 8.06640625 4.39453125 8.06640625 2.8125 5.5625 C2.28269531 4.73878906 1.75289062 3.91507813 1.20703125 3.06640625 C0 1 0 1 0 0 Z " fill="#BCACEF" transform="translate(21,159)"/>
<path d="M0 0 C6.06892629 -0.25287193 11.16200408 0.30167391 17 2 C17 2.66 17 3.32 17 4 C11.147205 3.48517081 5.6702363 2.54642808 0 1 C0 0.67 0 0.34 0 0 Z " fill="#C1B2EE" transform="translate(154,69)"/>
<path d="M0 0 C0 2.64 0 5.28 0 8 C-0.763125 7.835 -1.52625 7.67 -2.3125 7.5 C-5.03596236 6.90854604 -5.03596236 6.90854604 -8 7 C-6.8572081 5.83035398 -5.71068285 4.66435444 -4.5625 3.5 C-3.92441406 2.8503125 -3.28632813 2.200625 -2.62890625 1.53125 C-1 0 -1 0 0 0 Z " fill="#C2B4F1" transform="translate(158,158)"/>
<path d="M0 0 C6.48292295 -0.3669579 6.48292295 -0.3669579 8.9375 1.375 C10 3 10 3 10 5 C9.01 5.33 8.02 5.66 7 6 C5.17578125 5.0390625 5.17578125 5.0390625 3.3125 3.625 C2.68988281 3.16351563 2.06726562 2.70203125 1.42578125 2.2265625 C0.95527344 1.82179687 0.48476563 1.41703125 0 1 C0 0.67 0 0.34 0 0 Z " fill="#B9A7F0" transform="translate(52,194)"/>
<path d="M0 0 C0.66 0.33 1.32 0.66 2 1 C0.75 4.4375 0.75 4.4375 -1 8 C-3.1875 8.9375 -3.1875 8.9375 -5 9 C-5 5 -5 5 -2.5 2.25 C-1.675 1.5075 -0.85 0.765 0 0 Z " fill="#B5A3F2" transform="translate(140,174)"/>
<path d="M0 0 C2.31 1.65 4.62 3.3 7 5 C6.34 5.66 5.68 6.32 5 7 C4.34 6.34 3.68 5.68 3 5 C2.67 5.33 2.34 5.66 2 6 C0.33382885 6.04063832 -1.33388095 6.042721 -3 6 C-2.505 5.38125 -2.01 4.7625 -1.5 4.125 C0.19222773 2.16119096 0.19222773 2.16119096 0 0 Z " fill="#BBA9F7" transform="translate(63,168)"/>
<path d="M0 0 C1.18414294 3.55242882 0.69535532 4.69830562 -0.4375 8.1875 C-0.72496094 9.08855469 -1.01242188 9.98960938 -1.30859375 10.91796875 C-1.53675781 11.60503906 -1.76492187 12.29210937 -2 13 C-2.66 12.34 -3.32 11.68 -4 11 C-3.65561395 6.86736741 -1.93570031 3.61891796 0 0 Z " fill="#C2B5EF" transform="translate(207,117)"/>
<path d="M0 0 C2.64 0 5.28 0 8 0 C8.625 1.8125 8.625 1.8125 9 4 C8.01 5.485 8.01 5.485 7 7 C6.67 5.35 6.34 3.7 6 2 C4.35 2 2.7 2 1 2 C0.67 1.34 0.34 0.68 0 0 Z " fill="#BBABEB" transform="translate(178,73)"/>
<path d="M0 0 C-4.31369972 2.87579981 -7.80734761 4 -13 4 C-13 3.34 -13 2.68 -13 2 C-8.46298506 0.54815522 -4.81938524 -0.23509196 0 0 Z " fill="#BEB0EE" transform="translate(66,66)"/>
<path d="M0 0 C0 0.66 0 1.32 0 2 C-1.6875 3.6875 -1.6875 3.6875 -4 5 C-6.75 4.6875 -6.75 4.6875 -9 4 C-8 2 -8 2 -5.0625 0.875 C-2 0 -2 0 0 0 Z " fill="#B29EEC" transform="translate(112,191)"/>
<path d="M0 0 C3.44216672 2.6598561 3.99504674 5.90288286 5 10 C4.01 10 3.02 10 2 10 C0.68373308 6.38026598 0 3.90432869 0 0 Z " fill="#BAAAEE" transform="translate(32,122)"/>
<path d="M0 0 C3.5625 0.25 3.5625 0.25 6.5625 2.25 C2.22976186 3.17844389 -1.10476186 3.17844389 -5.4375 2.25 C-3.4375 0.25 -3.4375 0.25 0 0 Z " fill="#C5B7ED" transform="translate(105.4375,15.75)"/>
<path d="M0 0 C2.31 0.33 4.62 0.66 7 1 C6.67 2.32 6.34 3.64 6 5 C3.69 4.34 1.38 3.68 -1 3 C-0.67 2.01 -0.34 1.02 0 0 Z " fill="#B8A6F1" transform="translate(84,211)"/>
<path d="M0 0 C-6.75 4 -6.75 4 -9 4 C-9.33 3.01 -9.66 2.02 -10 1 C-3.71428571 -1.42857143 -3.71428571 -1.42857143 0 0 Z " fill="#BDACEF" transform="translate(147,204)"/>
<path d="M0 0 C0.99 0.33 1.98 0.66 3 1 C0.7629196 4.3556206 0.57482962 4.19278041 -3 5 C-3.33 5.66 -3.66 6.32 -4 7 C-4.66 6.67 -5.32 6.34 -6 6 C-2.25 1.125 -2.25 1.125 0 0 Z " fill="#BBAAEC" transform="translate(9,49)"/>
<path d="M0 0 C2.31 0.33 4.62 0.66 7 1 C7 1.66 7 2.32 7 3 C8.32 3.33 9.64 3.66 11 4 C9.4375 4.75 9.4375 4.75 7 5 C4.49713591 3.86915563 2.32992278 2.47860484 0 1 C0 0.67 0 0.34 0 0 Z " fill="#BAAAF0" transform="translate(68,205)"/>
<path d="M0 0 C3 1 3 1 4.6875 3.9375 C6 7 6 7 6 9 C3 8 3 8 1.3125 5.0625 C0 2 0 2 0 0 Z " fill="#C1B4F0" transform="translate(13,144)"/>
<path d="M0 0 C2.31 0.33 4.62 0.66 7 1 C7 1.99 7 2.98 7 4 C2.25 3.125 2.25 3.125 0 2 C0 1.34 0 0.68 0 0 Z " fill="#BAA8EF" transform="translate(128,58)"/>
<path d="M0 0 C0.33 0 0.66 0 1 0 C1 1.65 1 3.3 1 5 C2.32 5.33 3.64 5.66 5 6 C4.34 6.66 3.68 7.32 3 8 C1.02 6.35 -0.96 4.7 -3 3 C-2.01 2.67 -1.02 2.34 0 2 C0 1.34 0 0.68 0 0 Z " fill="#C5B7F1" transform="translate(48,186)"/>
<path d="M0 0 C0 3.90838866 -1.50567876 5.11594107 -4 8 C-4.99 7.67 -5.98 7.34 -7 7 C-4.69 4.69 -2.38 2.38 0 0 Z " fill="#C6B8ED" transform="translate(149,166)"/>
<path d="M0 0 C3.45925163 1.2491742 6.14693203 2.67527795 9 5 C5.26512223 4.5020163 3.18762365 4.12508244 0 2 C0 1.34 0 0.68 0 0 Z " fill="#BEB0ED" transform="translate(128,29)"/>
<path d="M0 0 C1.32 0.33 2.64 0.66 4 1 C4 1.66 4 2.32 4 3 C2.02 3.66 0.04 4.32 -2 5 C-1.34 3.35 -0.68 1.7 0 0 Z " fill="#B7A6F1" transform="translate(90,52)"/>
</svg>
