<?xml version="1.0" encoding="UTF-8"?>
<svg version="1.1" xmlns="http://www.w3.org/2000/svg" width="225" height="225">
<path d="M0 0 C3.03522895 1.63435405 5.28352297 3.055553 7.375 5.8125 C8.6388849 10.23609716 8.44759978 13.95340049 6.64233398 18.17456055 C6.01657471 19.23457275 5.39081543 20.29458496 4.74609375 21.38671875 C4.40755875 21.96984329 4.06902374 22.55296783 3.7202301 23.15376282 C2.63998168 25.00698026 1.53941504 26.84710093 0.4375 28.6875 C-0.27548108 29.90217848 -0.98708106 31.11766874 -1.69726562 32.33398438 C-3.44956759 35.32814983 -5.21669595 38.31323288 -6.98858643 41.2958374 C-11.29638796 48.55418794 -15.50116716 55.85194234 -19.51708984 63.27587891 C-22.05880578 67.94503702 -24.68925041 72.56381512 -27.3125 77.1875 C-28.46240346 79.21735509 -29.61214254 81.24730331 -30.76171875 83.27734375 C-31.31649902 84.25687012 -31.8712793 85.23639648 -32.44287109 86.24560547 C-34.15688008 89.27750409 -35.86154136 92.31449767 -37.56201172 95.35400391 C-38.6181146 97.23771888 -39.68153584 99.11714659 -40.74609375 100.99609375 C-42.45477759 104.01453794 -44.12287062 107.0534364 -45.78515625 110.09765625 C-46.75207369 111.83623264 -47.71951427 113.57451818 -48.6875 115.3125 C-49.12723145 116.13202148 -49.56696289 116.95154297 -50.02001953 117.79589844 C-52.67027025 122.50502982 -54.63394726 125.23065288 -60 127 C-65.3122988 126.90680178 -68.19765092 125.69051529 -72 122 C-73.67269724 118.65460552 -73.63821596 115.5970877 -73 112 C-71.17980027 107.75336624 -68.85855896 103.84234569 -66.5 99.875 C-65.85434082 98.75770508 -65.20868164 97.64041016 -64.54345703 96.48925781 C-63.26945633 94.28722593 -61.98858795 92.08915013 -60.70019531 89.89550781 C-58.7250473 86.53174338 -56.79707585 83.14430416 -54.875 79.75 C-53.94510809 78.12865001 -53.01517188 76.50732499 -52.08398438 74.88671875 C-46.05678025 64.39612562 -40.03230716 53.90606058 -34.1875 43.3125 C-30.24980918 36.2032791 -26.27224511 29.11654167 -22.24404907 22.05819702 C-21.27507145 20.35652916 -20.31358036 18.65060512 -19.35229492 16.94458008 C-9.14234071 -0.87907122 -9.14234071 -0.87907122 0 0 Z " fill="#FAFBF8" transform="translate(142,49)"/>
<path d="M0 0 C2.97678213 2.01951817 5.45229805 4.47062684 8 7 C8.81984375 7.7940625 9.6396875 8.588125 10.484375 9.40625 C15.02328899 13.86263828 19.34866103 18.43418345 23.484375 23.265625 C24.78376203 24.75255242 26.16619061 26.16619061 27.5625 27.5625 C36.83673469 36.83673469 36.83673469 36.83673469 37.25 42.3125 C36.93257613 46.99450213 35.90361387 49.27834922 32.40625 52.44140625 C31.05707846 53.58875499 29.70524859 54.73298119 28.3515625 55.875 C25.17645492 58.74420021 22.37020759 61.9006828 19.51000977 65.07958984 C15.60019293 69.39873768 11.5528969 73.56415832 7.4375 77.6875 C6.8295459 78.29988525 6.2215918 78.91227051 5.59521484 79.54321289 C0.21239838 84.90849824 0.21239838 84.90849824 -4.3125 85.25 C-8.29892615 84.97973382 -9.95545584 84.53712014 -13 82 C-15.29876123 78.62848352 -16.03659091 76.74662877 -15.8359375 72.65234375 C-14.88407774 68.49351722 -13.51688127 66.5237314 -10.75 63.3125 C-9.98171875 62.40113281 -9.2134375 61.48976562 -8.421875 60.55078125 C-6.0898135 58.09459389 -3.65317239 56.09528221 -1 54 C0.2649916 52.67923723 1.49709313 51.32586217 2.6875 49.9375 C3.26886719 49.26589844 3.85023438 48.59429687 4.44921875 47.90234375 C6.15278989 45.87458561 6.15278989 45.87458561 8 43 C8.66 43 9.32 43 10 43 C4.54455251 36.56377379 -1.3015549 30.65772569 -7.390625 24.82421875 C-15.55697655 16.82799953 -15.55697655 16.82799953 -16.25 10.83984375 C-15.58251497 5.76069987 -14.1707336 3.27700497 -10 0 C-6.04638861 -1.31787046 -4.05226317 -1.0628887 0 0 Z " fill="#FAFBF9" transform="translate(188,72)"/>
<path d="M0 0 C3.78152057 2.65511019 4.81555854 4.37494837 6.125 8.8125 C6.42631945 13.92072298 4.01731704 17.05760175 1 21 C-2.30458728 24.63934959 -5.78903205 28.0736453 -9.3125 31.5 C-10.70952148 32.87671875 -10.70952148 32.87671875 -12.13476562 34.28125 C-14.41646885 36.5278501 -16.70489967 38.76710183 -19 41 C-17.20099271 44.1442261 -15.39136862 46.86847283 -12.890625 49.48828125 C-12.30369873 50.10832031 -11.71677246 50.72835937 -11.11206055 51.3671875 C-10.49758057 52.00914063 -9.88310059 52.65109375 -9.25 53.3125 C-7.9904203 54.65190651 -6.73130072 55.99174586 -5.47265625 57.33203125 C-3.51489497 59.40640724 -1.54677268 61.46628027 0.44140625 63.51171875 C3.33752531 66.58922313 4.85343744 68.52774287 6.125 72.625 C5.9772069 76.61541358 5.24680141 78.70469126 3 82 C0.21065333 84.32445556 -1.74259185 84.95143242 -5.3125 85.625 C-9.18716203 84.96827762 -9.95234011 84.48277857 -12.7265625 81.95703125 C-13.42531494 81.3218457 -14.12406738 80.68666016 -14.84399414 80.03222656 C-18.30922916 76.76593551 -21.70513488 73.43940362 -25.0625 70.0625 C-25.73087891 69.39798828 -26.39925781 68.73347656 -27.08789062 68.04882812 C-31.04996095 64.07905698 -34.82548999 60.00201627 -38.47314453 55.74121094 C-39.85553668 54.16474454 -41.32989177 52.67010823 -42.8125 51.1875 C-45.69425977 48.30574023 -46.93174611 46.73714202 -47.3125 42.625 C-46.69149406 35.42133114 -41.68704035 31.4709142 -36.75 26.6875 C-32.21165307 22.22655707 -27.7986353 17.76539265 -23.6796875 12.91015625 C-9.7432845 -2.93845088 -9.7432845 -2.93845088 0 0 Z " fill="#FAFCF9" transform="translate(47,72)"/>
</svg>
