<?xml version="1.0" encoding="UTF-8"?>
<svg version="1.1" xmlns="http://www.w3.org/2000/svg" width="256" height="256">
<path d="M0 0 C2.88518073 2.46442521 4.68607096 4.24860643 5.37109375 8.0703125 C5.49020943 11.86800055 5.12518672 13.81221993 3 17 C3.34985776 22.79391882 5.17488842 28.0544279 7.01171875 33.51171875 C7.61055053 35.33902091 8.20884203 37.1665002 8.80664062 38.99414062 C9.74873477 41.85346169 10.69538697 44.71104507 11.65161133 47.56567383 C12.57652646 50.33520041 13.48286946 53.11025815 14.38671875 55.88671875 C14.82403572 57.16804939 14.82403572 57.16804939 15.27018738 58.4752655 C15.52738052 59.27322037 15.78457367 60.07117523 16.04956055 60.89331055 C16.28192917 61.59167526 16.51429779 62.29003998 16.75370789 63.00956726 C17.07053288 65.57001806 16.31705735 66.83267627 15 69 C12.69 69 10.38 69 8 69 C7.81856445 68.45730469 7.63712891 67.91460937 7.45019531 67.35546875 C6.13781059 64.09287738 5.13263144 61.63374731 1.98242188 59.87109375 C-0.41566363 59.09673309 -2.78292609 58.5126888 -5.25 58 C-6.09046875 57.79761719 -6.9309375 57.59523437 -7.796875 57.38671875 C-9.8577524 56.89491846 -11.92816069 56.44335656 -14 56 C-14.27714844 56.85464844 -14.55429688 57.70929688 -14.83984375 58.58984375 C-15.20207031 59.69457031 -15.56429687 60.79929688 -15.9375 61.9375 C-16.29714844 63.03964844 -16.65679687 64.14179688 -17.02734375 65.27734375 C-18 68 -18 68 -19 69 C-21.9375 69.1875 -21.9375 69.1875 -25 69 C-25.66 68.34 -26.32 67.68 -27 67 C-26.85943604 65.15289307 -26.85943604 65.15289307 -26.30566406 62.93847656 C-26.10396606 62.13124146 -25.90226807 61.32400635 -25.69445801 60.49230957 C-24.61411927 56.61512976 -23.39126314 52.79906868 -22.109375 48.984375 C-21.55916981 47.30492518 -21.009712 45.62523035 -20.4609375 43.9453125 C-19.60353601 41.33364189 -18.74126186 38.72397869 -17.86621094 36.11816406 C-17.0157504 33.57818527 -16.18602096 31.03218739 -15.359375 28.484375 C-15.09284119 27.7072113 -14.82630737 26.93004761 -14.55169678 26.1293335 C-13.12014871 21.66884972 -13.12014871 21.66884972 -13.79003906 17.09472656 C-14.18932617 16.4034668 -14.58861328 15.71220703 -15 15 C-16.43304064 12.13391871 -16.30644155 10.18699217 -16 7 C-14.37743711 3.98666891 -12.89925309 1.73867218 -10.25 -0.4375 C-6.66498744 -1.33375314 -3.46638537 -1.16003788 0 0 Z M-6 7 C-6.66 8.32 -7.32 9.64 -8 11 C-5.525 11.495 -5.525 11.495 -3 12 C-3.33 10.35 -3.66 8.7 -4 7 C-4.66 7 -5.32 7 -6 7 Z M-6 25 C-6.33 27.64 -6.66 30.28 -7 33 C-5.68 33.33 -4.36 33.66 -3 34 C-3.66 31.03 -4.32 28.06 -5 25 C-5.33 25 -5.66 25 -6 25 Z M-10 39 C-10.33 40.98 -10.66 42.96 -11 45 C-8.69 44.01 -6.38 43.02 -4 42 C-6.67247634 39.65712582 -6.67247634 39.65712582 -10 39 Z M-4.1875 48.4375 C-5.115625 48.953125 -6.04375 49.46875 -7 50 C-3.71536341 52.18975773 -0.79303725 52.99806563 3 54 C2.67 52.02 2.34 50.04 2 48 C-1.07242053 46.59903754 -1.07242053 46.59903754 -4.1875 48.4375 Z " fill="#B51622" transform="translate(82,92)"/>
<path d="M0 0 C-0.72366315 3.34430737 -1.81715496 5.34262343 -4 8 C-4.639375 7.67 -5.27875 7.34 -5.9375 7 C-10.01236841 5.66943072 -13.75190425 5.83340801 -18 6 C-18 7.32 -18 8.64 -18 10 C-16.89140625 10.42410156 -15.7828125 10.84820312 -14.640625 11.28515625 C-13.17659595 11.87639875 -11.71308066 12.46891451 -10.25 13.0625 C-9.15558594 13.47532227 -9.15558594 13.47532227 -8.0390625 13.89648438 C-2.47635279 16.19742339 -0.3619131 18.4330762 2 24 C2.55751929 27.56436493 1.77643289 30.65239809 -0.01953125 33.76953125 C-2.62021038 37.16279831 -4.99577717 38.73611331 -9 40 C-16.98468091 40.87923503 -23.24661341 40.4597836 -30 36 C-30.66 35.01 -31.32 34.02 -32 33 C-30.35 31.02 -28.7 29.04 -27 27 C-24.72871083 27.50473093 -22.75687476 28.10876656 -20.625 29.0625 C-17.58055887 30.1498004 -15.21150085 30.21410006 -12 30 C-11.01 29.505 -11.01 29.505 -10 29 C-9.97675083 27.06529266 -9.97675083 27.06529266 -11 25 C-13.26979997 23.86510001 -15.37903014 22.977413 -17.75 22.125 C-27.28250384 18.33047324 -27.28250384 18.33047324 -30 13 C-30.93133799 8.93191565 -30.90788405 5.63605043 -28.85546875 1.9375 C-20.6396039 -8.46781696 -10.10882436 -5.80014512 0 0 Z " fill="#313131" transform="translate(181,111)"/>
<path d="M0 0 C8.91 0 17.82 0 27 0 C27.09208955 4.8756298 27.17164167 9.74821519 27.21972656 14.62402344 C27.23978009 16.28070325 27.26703029 17.93731282 27.30175781 19.59375 C27.35055512 21.98194758 27.37303064 24.36920547 27.390625 26.7578125 C27.41127014 27.49242706 27.43191528 28.22704163 27.45318604 28.98391724 C27.45541731 34.15565007 26.22953755 37.00549296 23 41 C18.77599776 44.82800203 14.81860504 45.35252174 9.16015625 45.2890625 C3.90108561 44.58531706 -0.43652515 41.82662376 -4 38 C-2.70700306 35.11562221 -1.34058637 33.12780579 1 31 C3 32 5 33 7 34 C10.54171978 34.16669318 10.54171978 34.16669318 14 34 C15.71443219 32.28556781 15.23052967 29.99554759 15.31640625 27.65234375 C15.35830078 26.57275391 15.40019531 25.49316406 15.44335938 24.38085938 C15.48267578 23.24455078 15.52199219 22.10824219 15.5625 20.9375 C15.62727539 19.22723633 15.62727539 19.22723633 15.69335938 17.48242188 C15.79982738 14.65510492 15.90045262 11.82756908 16 9 C10.72 9 5.44 9 0 9 C0 6.03 0 3.06 0 0 Z " fill="#313131" transform="translate(117,107)"/>
<path d="M0 0 C0.99 0.33 1.98 0.66 3 1 C2.38125 1.721875 1.7625 2.44375 1.125 3.1875 C-0.85612401 5.80957589 -1.80910126 7.98305653 -3 11 C-4 12 -5 13 -6 14 C-6.0825 14.60199219 -6.165 15.20398438 -6.25 15.82421875 C-7.3868909 19.12238663 -9.62528193 20.27523048 -12.4375 22.25 C-13.92056641 23.30960938 -13.92056641 23.30960938 -15.43359375 24.390625 C-18 26 -18 26 -20 26 C-17.22337214 16.7839586 -17.22337214 16.7839586 -14 13 C-13.7628125 12.40445313 -13.525625 11.80890625 -13.28125 11.1953125 C-11.48036825 8.10965536 -8.88751654 6.27351102 -6.0625 4.1875 C-5.52431641 3.76791016 -4.98613281 3.34832031 -4.43164062 2.91601562 C-2.84765625 1.73046875 -2.84765625 1.73046875 0 0 Z " fill="#B01924" transform="translate(105,65)"/>
<path d="M0 0 C4.30384822 1.48243661 7.60187646 3.67035668 11.25 6.375 C12.30703125 7.14585938 13.3640625 7.91671875 14.453125 8.7109375 C16.99472836 10.99526199 17.65110628 11.72313545 18 15 C19.10520891 18.02090436 20.20125499 20.30188249 22 23 C21.67 23.99 21.34 24.98 21 26 C19.22095043 24.78275556 17.45205454 23.55066343 15.6875 22.3125 C14.70136719 21.62800781 13.71523438 20.94351563 12.69921875 20.23828125 C9.9786638 17.98230732 8.61510873 16.10755097 7 13 C6.525625 12.236875 6.05125 11.47375 5.5625 10.6875 C3.53843447 7.20610729 1.76794195 3.61665281 0 0 Z " fill="#B11A23" transform="translate(46,65)"/>
<path d="M0 0 C6.11485027 -0.09706112 11.93303301 0.22959149 18 1 C18 1.99 18 2.98 18 4 C20.31 4.66 22.62 5.32 25 6 C25 6.99 25 7.98 25 9 C26.32 9.66 27.64 10.32 29 11 C25.47023118 12.17658961 23.51987603 11.79790695 19.875 11.1875 C18.79992187 11.01605469 17.72484375 10.84460938 16.6171875 10.66796875 C15.75351562 10.44753906 14.88984375 10.22710937 14 10 C13.67 9.34 13.34 8.68 13 8 C11.88625 7.690625 10.7725 7.38125 9.625 7.0625 C6.15332389 6.04493976 5.24227169 5.57861245 3 3 C2.01 2.67 1.02 2.34 0 2 C0 1.34 0 0.68 0 0 Z " fill="#B9131F" transform="translate(33,91)"/>
<path d="M0 0 C-2.05233685 2.2477975 -3.00667261 3.0022242 -6 4 C-6.33 4.66 -6.66 5.32 -7 6 C-9.33333333 6.66666667 -11.66666667 7.33333333 -14 8 C-14.33 8.66 -14.66 9.32 -15 10 C-17.33744294 10.46806645 -19.69739079 10.82669794 -22.0625 11.125 C-23.99802734 11.37636719 -23.99802734 11.37636719 -25.97265625 11.6328125 C-27.47119141 11.81457031 -27.47119141 11.81457031 -29 12 C-29 11.34 -29 10.68 -29 10 C-27.68 9.67 -26.36 9.34 -25 9 C-25 8.01 -25 7.02 -25 6 C-23.02 5.01 -21.04 4.02 -19 3 C-19 2.34 -19 1.68 -19 1 C-12.61773055 0.17648136 -6.43255401 -0.12086218 0 0 Z " fill="#B51722" transform="translate(121,91)"/>
<path d="M0 0 C0.33 1.32 0.66 2.64 1 4 C3.64 3.67 6.28 3.34 9 3 C8.01 5.64 7.02 8.28 6 11 C6.99 11.33 7.98 11.66 9 12 C8.67 12.33 8.34 12.66 8 13 C6.57824665 12.85606216 5.16166631 12.65953361 3.75 12.4375 C-0.04893581 11.97775618 -2.67721352 11.81942137 -6 14 C-6.88693303 16.04105639 -6.88693303 16.04105639 -7 18 C-7.66 17.67 -8.32 17.34 -9 17 C-8.54177532 13.53058454 -8.10868317 10.32604951 -7 7 C-6.34 7 -5.68 7 -5 7 C-4.67 6.01 -4.34 5.02 -4 4 C-3.67 4.66 -3.34 5.32 -3 6 C-2.814375 4.7934375 -2.814375 4.7934375 -2.625 3.5625 C-2.41875 2.716875 -2.2125 1.87125 -2 1 C-1.34 0.67 -0.68 0.34 0 0 Z " fill="#BE1522" transform="translate(68,134)"/>
<path d="M0 0 C2.12931028 3.19396542 3.26230107 6.32791317 4.453125 9.93359375 C4.6769989 10.60793961 4.9008728 11.28228546 5.13153076 11.97706604 C5.60141402 13.40090947 6.06857832 14.82565268 6.53320312 16.2512207 C7.24781602 18.43083871 7.98300561 20.6028299 8.71875 22.77539062 C9.17316617 24.16103557 9.62633371 25.54709074 10.078125 26.93359375 C10.30091125 27.5816246 10.52369751 28.22965546 10.75323486 28.89732361 C11.67921737 31.81351442 12.17577954 33.51221665 11.12011719 36.44165039 C10.75047852 36.95590576 10.38083984 37.47016113 10 38 C7.69 38 5.38 38 3 38 C2.67 36.68 2.34 35.36 2 34 C2.33 34.66 2.66 35.32 3 36 C3.99 36 4.98 36 6 36 C6 35.34 6 34.68 6 34 C6.66 34 7.32 34 8 34 C6.75480267 26.86841528 4.91606986 20.05626734 2.76489258 13.15454102 C1.42177316 8.76559143 0.53204373 4.56122887 0 0 Z " fill="#A3222D" transform="translate(87,123)"/>
<path d="M0 0 C5.10488244 0 7.07269232 0.20792469 11 3.5625 C13.55205433 7.94884337 13.58182538 10.01292528 13 15 C12.34 15.66 11.68 16.32 11 17 C11 13.37 11 9.74 11 6 C9.68 6.33 8.36 6.66 7 7 C7.020625 7.969375 7.04125 8.93875 7.0625 9.9375 C7 13 7 13 6 14 C3 14.125 3 14.125 0 14 C-1 13 -1 13 -1.0625 10.4375 C-1.041875 9.633125 -1.02125 8.82875 -1 8 C1.64 7.01 4.28 6.02 7 5 C7 4.34 7 3.68 7 3 C4.03 2.67 1.06 2.34 -2 2 C-1.34 1.34 -0.68 0.68 0 0 Z M2 8 C1.34 9.32 0.68 10.64 0 12 C2.475 12.495 2.475 12.495 5 13 C4.67 11.35 4.34 9.7 4 8 C3.34 8 2.68 8 2 8 Z " fill="#A11E28" transform="translate(74,91)"/>
<path d="M0 0 C0.33 0 0.66 0 1 0 C1.24279221 4.73139405 1.45754247 9.46294595 1.64697266 14.19677734 C1.71521622 15.80519084 1.7909655 17.41330483 1.87451172 19.02099609 C1.99364789 21.33912771 2.08528288 23.65701441 2.171875 25.9765625 C2.21439392 26.68930328 2.25691284 27.40204407 2.30072021 28.13638306 C2.45462147 33.28780447 1.2138499 36.03121395 -2 40 C-4.65799923 42.41636294 -5.35294333 43 -9 43 C-7.70812691 40.41625382 -5.75667069 39.2008793 -3.47265625 37.51171875 C0.3353157 33.60273959 0.23801592 28.91893381 0.1953125 23.73046875 C0.1924826 23.04946609 0.18965271 22.36846344 0.18673706 21.66682434 C0.17560525 19.50686545 0.15051457 17.34733206 0.125 15.1875 C0.11496111 13.71680289 0.10583685 12.24609924 0.09765625 10.77539062 C0.07568913 7.18345714 0.0412082 3.59177015 0 0 Z " fill="#262626" transform="translate(142,108)"/>
<path d="M0 0 C6.11485027 -0.09706112 11.93303301 0.22959149 18 1 C18 1.99 18 2.98 18 4 C20.31 4.66 22.62 5.32 25 6 C25 6.99 25 7.98 25 9 C24.34 9 23.68 9 23 9 C22.67 8.34 22.34 7.68 22 7 C20.35636866 6.27840576 18.68949614 5.60648579 17 5 C17 4.01 17 3.02 17 2 C14.03 2 11.06 2 8 2 C8 2.99 8 3.98 8 5 C10.31 5.66 12.62 6.32 15 7 C13 8 13 8 9.5625 7.25 C6.25943709 6.09103056 5.18351297 5.51103991 3 3 C2.01 2.67 1.02 2.34 0 2 C0 1.34 0 0.68 0 0 Z " fill="#A02832" transform="translate(33,91)"/>
<path d="M0 0 C4.59306496 1.4859916 7.43569245 3.85014682 11 7 C10.67 7.66 10.34 8.32 10 9 C9.34 9 8.68 9 8 9 C7.67 10.32 7.34 11.64 7 13 C4.37528381 8.8004541 2.17220877 4.44365551 0 0 Z " fill="#A51E2A" transform="translate(46,65)"/>
<path d="M0 0 C2.26986168 2.26986168 2.88775876 4.01085168 4 7 C4.350625 7.845625 4.70125 8.69125 5.0625 9.5625 C6 12 6 12 7 16 C4.36 14.35 1.72 12.7 -1 11 C-0.67 7.37 -0.34 3.74 0 0 Z " fill="#A9212B" transform="translate(61,75)"/>
<path d="M0 0 C2.27152023 1.93499871 2.38200041 3.53525393 2.6875 6.4375 C1.3675 7.4275 0.0475 8.4175 -1.3125 9.4375 C-1.3125 8.7775 -1.3125 8.1175 -1.3125 7.4375 C-1.9725 7.4375 -2.6325 7.4375 -3.3125 7.4375 C-3.580625 6.81875 -3.84875 6.2 -4.125 5.5625 C-5.26806848 3.1379767 -5.26806848 3.1379767 -8.3125 1.4375 C-3.00929849 -0.73199153 -3.00929849 -0.73199153 0 0 Z " fill="#B21924" transform="translate(91.3125,149.5625)"/>
<path d="M0 0 C0.66 0 1.32 0 2 0 C0.60415208 3.37329915 -0.92365611 5.04232662 -4 7 C-7.28519475 8.09506492 -9.73663415 8.09960608 -13.1875 8.0625 C-14.81751953 8.04896484 -14.81751953 8.04896484 -16.48046875 8.03515625 C-17.31191406 8.02355469 -18.14335937 8.01195312 -19 8 C-19 7.34 -19 6.68 -19 6 C-17.67935547 5.92652344 -17.67935547 5.92652344 -16.33203125 5.8515625 C-15.17058594 5.77679688 -14.00914062 5.70203125 -12.8125 5.625 C-11.08966797 5.52058594 -11.08966797 5.52058594 -9.33203125 5.4140625 C-6.15616244 5.01940588 -3.81335298 4.51211293 -1 3 C-0.67 2.01 -0.34 1.02 0 0 Z " fill="#282828" transform="translate(179,143)"/>
<path d="M0 0 C0.99 0.33 1.98 0.66 3 1 C2.38125 1.721875 1.7625 2.44375 1.125 3.1875 C-0.83666353 5.78381938 -1.95316 7.94671666 -3 11 C-3.33 10.01 -3.66 9.02 -4 8 C-5.98 8.33 -7.96 8.66 -10 9 C-3.73362445 2.55458515 -3.73362445 2.55458515 0 0 Z " fill="#9A222C" transform="translate(105,65)"/>
<path d="M0 0 C-2.05233685 2.2477975 -3.00667261 3.0022242 -6 4 C-6.33 4.66 -6.66 5.32 -7 6 C-7.99 5.67 -8.98 5.34 -10 5 C-9.34 5 -8.68 5 -8 5 C-8 4.34 -8 3.68 -8 3 C-11.63 2.67 -15.26 2.34 -19 2 C-19 1.67 -19 1.34 -19 1 C-12.61773055 0.17648136 -6.43255401 -0.12086218 0 0 Z " fill="#9D2D37" transform="translate(121,91)"/>
<path d="M0 0 C0.66 0.33 1.32 0.66 2 1 C1.319375 1.763125 0.63875 2.52625 -0.0625 3.3125 C-0.701875 4.199375 -1.34125 5.08625 -2 6 C-1.67 6.99 -1.34 7.98 -1 9 C1.01508358 9.73323796 1.01508358 9.73323796 3 10 C3 10.66 3 11.32 3 12 C-0.37503669 10.8141763 -2.64722731 9.72426311 -5 7 C-3.70700306 4.11562221 -2.34058637 2.12780579 0 0 Z " fill="#282828" transform="translate(118,138)"/>
<path d="M0 0 C0.99 0.495 0.99 0.495 2 1 C2.40197001 3.32249342 2.72686657 5.65885633 3 8 C3.226875 8.928125 3.45375 9.85625 3.6875 10.8125 C3.8421875 11.8953125 3.8421875 11.8953125 4 13 C3.34 13.66 2.68 14.32 2 15 C2 14.01 2 13.02 2 12 C1.34 12 0.68 12 0 12 C0 8.04 0 4.08 0 0 Z " fill="#9E1B26" transform="translate(83,108)"/>
<path d="M0 0 C0.25 5.625 0.25 5.625 -2 9 C-2.66 8.67 -3.32 8.34 -4 8 C-4 5.69 -4 3.38 -4 1 C-2 0 -2 0 0 0 Z " fill="#C21521" transform="translate(85,97)"/>
<path d="M0 0 C2.15473199 1.5801368 4.10646634 3.10646634 6 5 C5.34 6.65 4.68 8.3 4 10 C2.35 8.68 0.7 7.36 -1 6 C-0.67 4.02 -0.34 2.04 0 0 Z " fill="#B8111F" transform="translate(70,113)"/>
<path d="M0 0 C0 3 0 3 -0.5625 5.0625 C-1.23013503 7.0674281 -1.23013503 7.0674281 0 9 C-3.75 12 -3.75 12 -6 12 C-5.57405412 10.55903414 -5.13373367 9.12231288 -4.6875 7.6875 C-4.44386719 6.88699219 -4.20023437 6.08648437 -3.94921875 5.26171875 C-2.95817977 2.90035427 -1.91925057 1.66120007 0 0 Z " fill="#9A2B34" transform="translate(91,79)"/>
<path d="M0 0 C0.66 0.33 1.32 0.66 2 1 C1.67 2.65 1.34 4.3 1 6 C2.65 6 4.3 6 6 6 C6.33 6.66 6.66 7.32 7 8 C4.125 8.125 4.125 8.125 1 8 C0.34 7.34 -0.32 6.68 -1 6 C-0.625 2.875 -0.625 2.875 0 0 Z " fill="#9E242D" transform="translate(56,153)"/>
<path d="M0 0 C0.66 0.33 1.32 0.66 2 1 C1.67 1.66 1.34 2.32 1 3 C-1.33744294 3.46806645 -3.69739079 3.82669794 -6.0625 4.125 C-7.99802734 4.37636719 -7.99802734 4.37636719 -9.97265625 4.6328125 C-11.47119141 4.81457031 -11.47119141 4.81457031 -13 5 C-13 4.34 -13 3.68 -13 3 C-10.00519083 2.1276588 -7.36424089 1.89170234 -4.25 1.9375 C-3.45078125 1.94652344 -2.6515625 1.95554687 -1.828125 1.96484375 C-1.22484375 1.97644531 -0.6215625 1.98804687 0 2 C0 1.34 0 0.68 0 0 Z " fill="#9A2B35" transform="translate(105,98)"/>
<path d="M0 0 C0.33 0.66 0.66 1.32 1 2 C0.34 2 -0.32 2 -1 2 C0.65 3.98 2.3 5.96 4 8 C0.75791433 7.64950425 -0.61527704 7.43778819 -2.8125 4.9375 C-3.4003125 3.9784375 -3.4003125 3.9784375 -4 3 C-2.68 2.01 -1.36 1.02 0 0 Z " fill="#272727" transform="translate(153,141)"/>
<path d="M0 0 C0.66 0.33 1.32 0.66 2 1 C1.01 2.485 1.01 2.485 0 4 C0.66 4.33 1.32 4.66 2 5 C2 6.32 2 7.64 2 9 C1.01 8.67 0.02 8.34 -1 8 C-1 7.34 -1 6.68 -1 6 C-1.66 6 -2.32 6 -3 6 C-1.125 1.125 -1.125 1.125 0 0 Z " fill="#AD1D28" transform="translate(70,93)"/>
<path d="M0 0 C1.58409994 0.11487748 3.16728963 0.24234508 4.75 0.375 C6.07257812 0.47941406 6.07257812 0.47941406 7.421875 0.5859375 C9.99066382 0.99850055 11.75841015 1.71160957 14 3 C10.42619658 4.19126781 8.49116698 3.7349445 4.8125 3.0625 C3.72582031 2.86785156 2.63914063 2.67320313 1.51953125 2.47265625 C0.68808594 2.31667969 -0.14335938 2.16070312 -1 2 C-0.67 1.34 -0.34 0.68 0 0 Z " fill="#9C2D38" transform="translate(48,99)"/>
<path d="M0 0 C2.875 0.25 2.875 0.25 6 1 C7.375 3.0625 7.375 3.0625 8 5 C5.36 4.01 2.72 3.02 0 2 C0 1.34 0 0.68 0 0 Z " fill="#2B2B2B" transform="translate(163,131)"/>
<path d="M0 0 C-0.33 0.99 -0.66 1.98 -1 3 C-3.31 3 -5.62 3 -8 3 C-7.67 2.34 -7.34 1.68 -7 1 C-4.61370553 0.38812962 -2.46459429 0 0 0 Z " fill="#282828" transform="translate(171,141)"/>
<path d="M0 0 C1.125 3.75 1.125 3.75 0 6 C-0.99 6 -1.98 6 -3 6 C-3 4.68 -3 3.36 -3 2 C-2.01 1.34 -1.02 0.68 0 0 Z " fill="#BC151E" transform="translate(57,72)"/>
</svg>
