<?xml version="1.0" encoding="UTF-8"?>
<svg version="1.1" xmlns="http://www.w3.org/2000/svg" width="500" height="500">
<path d="M0 0 C1.02222656 0.17144531 2.04445313 0.34289062 3.09765625 0.51953125 C5.67152365 1.12493885 7.65098099 1.88796761 9.9375 3.1875 C9.9375 3.8475 9.9375 4.5075 9.9375 5.1875 C10.535625 5.435 11.13375 5.6825 11.75 5.9375 C16.22825192 8.49650109 18.33163304 13.24409772 20.07714844 17.93237305 C21.06244137 21.66021375 21.24913491 25.14975933 21.22265625 28.9765625 C21.21921204 29.71743607 21.21576782 30.45830963 21.21221924 31.22163391 C21.06651637 39.42705429 19.69949891 47.32934861 18.1875 55.375 C17.91189364 56.9034835 17.63765815 58.43221477 17.36474609 59.96118164 C16.69559516 63.69107852 16.01049426 67.41777585 15.31750488 71.14331055 C14.5654498 75.18889819 13.82517555 79.2366558 13.08496094 83.28442383 C12.74713123 85.12117555 12.40436642 86.95702942 12.05566406 88.79174805 C11.90581055 89.59136963 11.75595703 90.39099121 11.6015625 91.21484375 C11.47217285 91.89281006 11.3427832 92.57077637 11.20947266 93.26928711 C10.84391307 95.52466548 10.84391307 95.52466548 10.9375 99.1875 C11.91589844 98.40246094 12.89429688 97.61742187 13.90234375 96.80859375 C15.22646108 95.74726929 16.5506873 94.68608067 17.875 93.625 C18.56650146 93.07070312 19.25800293 92.51640625 19.97045898 91.9453125 C23.45445744 89.15713428 26.95114355 86.39299703 30.5 83.6875 C38.3997425 77.57157032 46.22157194 71.10745105 53.1875 63.9375 C54.095 63.03 55.0025 62.1225 55.9375 61.1875 C56.5975 61.1875 57.2575 61.1875 57.9375 61.1875 C58.2159375 60.58550781 58.494375 59.98351562 58.78125 59.36328125 C59.9375 57.1875 59.9375 57.1875 62.4375 54.375 C66.68147373 49.56655686 70.06146536 44.1598628 73.5703125 38.80859375 C73.96766602 38.2038623 74.36501953 37.59913086 74.77441406 36.97607422 C75.54775289 35.78684662 76.31024509 34.59049256 77.06152344 33.38720703 C77.97023016 31.95437576 78.94790764 30.5657091 79.9375 29.1875 C80.5975 29.1875 81.2575 29.1875 81.9375 29.1875 C82.2778125 28.135625 82.2778125 28.135625 82.625 27.0625 C84.27591288 23.44621465 86.2283835 21.09980024 88.9375 18.1875 C89.5975 18.1875 90.2575 18.1875 90.9375 18.1875 C90.9375 17.5275 90.9375 16.8675 90.9375 16.1875 C92.58203125 14.93359375 92.58203125 14.93359375 94.75 13.625 C95.45769531 13.19058594 96.16539062 12.75617188 96.89453125 12.30859375 C102.26656187 9.36065343 107.97386672 9.6425995 113.9375 10.1875 C120.73840151 12.23221549 124.88139581 16.63126235 129.25 22.0625 C132.68311441 28.46630932 131.85921855 37.09737394 130.3125 43.9609375 C128.09898062 50.06787937 124.38881481 55.25782165 120.64453125 60.5234375 C119.14011483 62.87129104 118.368859 64.47058211 117.9375 67.1875 C117.2775 67.1875 116.6175 67.1875 115.9375 67.1875 C115.9375 67.8475 115.9375 68.5075 115.9375 69.1875 C115.2775 69.1875 114.6175 69.1875 113.9375 69.1875 C113.669375 69.826875 113.40125 70.46625 113.125 71.125 C111.9375 73.1875 111.9375 73.1875 108.9375 74.1875 C108.9375 74.8475 108.9375 75.5075 108.9375 76.1875 C108.2775 76.1875 107.6175 76.1875 106.9375 76.1875 C106.9375 76.8475 106.9375 77.5075 106.9375 78.1875 C106.2775 78.1875 105.6175 78.1875 104.9375 78.1875 C104.9375 78.8475 104.9375 79.5075 104.9375 80.1875 C104.2775 80.1875 103.6175 80.1875 102.9375 80.1875 C102.7209375 80.72890625 102.504375 81.2703125 102.28125 81.828125 C100.47250003 85.00395344 98.02026201 87.39478081 95.4375 89.9375 C94.93863281 90.44410156 94.43976563 90.95070313 93.92578125 91.47265625 C90.19091139 95.1875 90.19091139 95.1875 87.9375 95.1875 C87.73511719 95.71472656 87.53273438 96.24195313 87.32421875 96.78515625 C85.31943212 100.25823732 82.59202428 102.82142475 79.75 105.625 C79.19763672 106.18509766 78.64527344 106.74519531 78.07617188 107.32226562 C68.16489207 117.1875 68.16489207 117.1875 63.9375 117.1875 C63.9375 117.8475 63.9375 118.5075 63.9375 119.1875 C62.55498642 120.16537546 61.16358829 121.13307388 59.73046875 122.03515625 C57.82125325 123.26221197 56.01153748 124.58763578 54.1875 125.9375 C50.9375 128.1875 50.9375 128.1875 48.9375 128.1875 C48.9375 128.8475 48.9375 129.5075 48.9375 130.1875 C47.2421875 131.5625 47.2421875 131.5625 44.8125 133.1875 C40.52971087 136.10318413 36.27775401 139.05044177 32.0625 142.0625 C31.4756543 142.48128418 30.88880859 142.90006836 30.28417969 143.33154297 C24.43123914 147.52342732 18.6739606 151.83787603 12.9375 156.1875 C14.21407119 158.79814558 15.57739569 161.3153246 17.0625 163.8125 C18.9375 167.1875 18.9375 167.1875 18.9375 169.1875 C19.5975 169.1875 20.2575 169.1875 20.9375 169.1875 C22.2421875 170.9609375 22.2421875 170.9609375 23.8125 173.5625 C27.59405909 179.6876724 31.56919741 185.66662209 35.58544922 191.64013672 C38.02342781 195.27746288 40.44211441 198.9264369 42.8046875 202.61328125 C43.2157373 203.25305908 43.62678711 203.89283691 44.05029297 204.55200195 C44.9375 206.1875 44.9375 206.1875 44.9375 208.1875 C45.5975 208.1875 46.2575 208.1875 46.9375 208.1875 C48.3046875 210.19921875 48.3046875 210.19921875 49.8125 212.875 C51.96037074 216.58685428 54.23553733 219.85507937 56.9375 223.1875 C57.88230123 224.81646765 58.82467161 226.44708598 59.73828125 228.09375 C61.23746697 230.71122083 62.82896714 233.26079756 64.4375 235.8125 C65.0046875 236.71226562 65.571875 237.61203125 66.15625 238.5390625 C67.89720874 241.23153542 67.89720874 241.23153542 70.0390625 243.67578125 C74.5785889 249.68178017 75.40223312 257.25419159 74.4375 264.5625 C73.11606162 270.66022166 71.30317931 273.59600843 66.32421875 277.4296875 C60.08831929 281.30208759 53.02444789 280.97765396 45.9375 280.1875 C39.07594295 278.43583362 33.00408987 274.05046805 27.9375 269.1875 C27.9375 268.5275 27.9375 267.8675 27.9375 267.1875 C27.2775 267.1875 26.6175 267.1875 25.9375 267.1875 C24.60546875 265.53515625 24.60546875 265.53515625 23.125 263.25 C22.58617187 262.42113281 22.04734375 261.59226562 21.4921875 260.73828125 C20.13248065 258.50740544 18.93285675 256.26436054 17.75 253.9375 C14.86028709 248.61045736 10.88744449 244.23832304 6.94140625 239.6875 C3.78028788 236.03437473 0.74780954 232.28776623 -2.25 228.5 C-2.73162598 227.89969971 -3.21325195 227.29939941 -3.70947266 226.6809082 C-7.0625 222.4248594 -7.0625 222.4248594 -7.0625 220.1875 C-7.7225 220.1875 -8.3825 220.1875 -9.0625 220.1875 C-10.6875 217.6875 -10.6875 217.6875 -12.0625 215.1875 C-15.08677132 221.54858133 -16.751928 228.13125956 -18.5 234.9375 C-24.66687458 258.93980735 -24.66687458 258.93980735 -31.0625 264.1875 C-31.53945313 264.68894531 -32.01640625 265.19039063 -32.5078125 265.70703125 C-37.09399457 270.07427498 -43.03984412 270.44425577 -49.0625 270.625 C-56.04602935 270.44593514 -60.58158072 269.33386869 -65.76953125 264.64453125 C-70.62757246 259.4791687 -72.72317855 254.24139307 -73.5 247.25 C-73.09595693 236.07147519 -68.92619679 224.59571308 -66.01171875 213.859375 C-64.49952877 208.00975122 -63.26666195 202.10796292 -62.0625 196.1875 C-63.36960937 196.4040625 -63.36960937 196.4040625 -64.703125 196.625 C-78.70317195 198.8068255 -91.97644557 200.16192121 -104.3125 192 C-114.18999179 184.52132765 -119.64085624 175.9365786 -121.75 163.71484375 C-123.83075931 146.88670286 -118.54517065 131.52725276 -110.0625 117.1875 C-109.4025 117.1875 -108.7425 117.1875 -108.0625 117.1875 C-107.82273438 116.46046875 -107.58296875 115.7334375 -107.3359375 114.984375 C-105.88102288 111.78891834 -104.1764438 109.90163705 -101.6875 107.4375 C-100.53121094 106.26960938 -100.53121094 106.26960938 -99.3515625 105.078125 C-97.13199687 103.24490014 -95.87025207 102.57212357 -93.0625 102.1875 C-93.0625 101.5275 -93.0625 100.8675 -93.0625 100.1875 C-77.70473852 90.78478889 -61.59857809 87.73533459 -43.9375 91.1875 C-42.64424808 91.51462898 -41.35223808 91.84678081 -40.0625 92.1875 C-40.01134033 91.39190674 -39.96018066 90.59631348 -39.9074707 89.77661133 C-39.3694548 82.06807365 -38.47634527 74.50203818 -37.25 66.875 C-37.07549316 65.76560059 -36.90098633 64.65620117 -36.72119141 63.51318359 C-35.05700235 52.99616429 -33.32151336 42.49022008 -31.53149414 31.99389648 C-31.19576833 29.98495938 -30.87357089 27.97374299 -30.56030273 25.96118164 C-30.39216064 24.89504639 -30.22401855 23.82891113 -30.05078125 22.73046875 C-29.90165283 21.76133545 -29.75252441 20.79220215 -29.59887695 19.79370117 C-28.16253793 12.81467565 -23.49714718 7.58534866 -18.0625 3.1875 C-12.18250021 -0.24772376 -6.64460823 -1.16763659 0 0 Z M-72.0625 145.1875 C-72.72836 147.28570696 -72.72836 147.28570696 -73.0625 149.1875 C-66.19773882 148.09831033 -60.28779789 146.28511199 -54.0625 143.1875 C-54.3925 142.1975 -54.7225 141.2075 -55.0625 140.1875 C-62.46647819 139.59465477 -67.02857052 139.35873955 -72.0625 145.1875 Z " fill="#810380" transform="translate(330.0625,119.8125)"/>
<path d="M0 0 C6.99787305 7.03406894 10.24386106 15.33243632 10.640625 25.15234375 C10.47969266 33.20901883 7.62367796 39.83267766 2.15625 45.76953125 C-3.34323173 50.15548156 -10.65727832 51.97812806 -17.61328125 51.59375 C-24.42771757 50.57723187 -30.2464244 47.5978417 -34.734375 42.27734375 C-35.10276412 40.95326734 -35.44059956 39.61994752 -35.734375 38.27734375 C-40.21589904 38.46980184 -44.69333025 38.71293954 -49.171875 38.96484375 C-51.06196289 39.04508789 -51.06196289 39.04508789 -52.99023438 39.12695312 C-60.53112703 39.57980046 -66.69653429 40.44953677 -72.734375 45.27734375 C-73.229375 46.26734375 -73.229375 46.26734375 -73.734375 47.27734375 C-74.394375 47.27734375 -75.054375 47.27734375 -75.734375 47.27734375 C-75.734375 47.93734375 -75.734375 48.59734375 -75.734375 49.27734375 C-76.394375 49.27734375 -77.054375 49.27734375 -77.734375 49.27734375 C-78.394375 52.24734375 -79.054375 55.21734375 -79.734375 58.27734375 C-74.40803476 60.02230066 -69.62980708 60.603456 -64.046875 60.77734375 C-50.910024 61.37124364 -38.28929802 62.64149765 -27.734375 71.27734375 C-21.22444718 79.97488959 -20.61392549 88.55236026 -21.37451172 99.16455078 C-21.8819111 102.14354283 -22.92737167 103.54610321 -25.234375 105.46484375 C-26.72692086 106.4141662 -28.22719488 107.35143105 -29.734375 108.27734375 C-31.14319803 109.63903144 -32.51861971 111.03608522 -33.859375 112.46484375 C-36.95450113 115.60261926 -39.90630424 118.08987474 -43.734375 120.27734375 C-44.394375 120.27734375 -45.054375 120.27734375 -45.734375 120.27734375 C-45.734375 120.93734375 -45.734375 121.59734375 -45.734375 122.27734375 C-47.68481928 123.75751089 -49.63069028 125.12045012 -51.671875 126.46484375 C-55.65887111 129.15323369 -59.58442 131.85563524 -63.359375 134.83984375 C-66.75519736 137.52374046 -70.19118427 140.14157045 -73.671875 142.71484375 C-74.58839844 143.39417969 -75.50492187 144.07351563 -76.44921875 144.7734375 C-78.734375 146.27734375 -78.734375 146.27734375 -80.734375 146.27734375 C-80.734375 146.93734375 -80.734375 147.59734375 -80.734375 148.27734375 C-82.23828125 149.79296875 -82.23828125 149.79296875 -84.296875 151.52734375 C-85.02648437 152.14867187 -85.75609375 152.77 -86.5078125 153.41015625 C-87.24257812 154.02632812 -87.97734375 154.6425 -88.734375 155.27734375 C-89.96509408 156.31717579 -91.19438251 157.35870476 -92.421875 158.40234375 C-92.94136719 158.83804688 -93.46085937 159.27375 -93.99609375 159.72265625 C-108.87655808 173.03147603 -125.55491841 193.90265165 -126.8828125 214.58984375 C-126.94958875 218.64983973 -126.60473729 222.30152881 -125.734375 226.27734375 C-113.15884571 226.12698416 -102.51874439 224.66222538 -90.734375 220.27734375 C-89.63867188 219.90609375 -88.54296875 219.53484375 -87.4140625 219.15234375 C-69.18726675 212.70355115 -53.51097379 201.14678974 -38.4140625 189.34375 C-31.78827109 184.23435692 -25.79281047 184.58134984 -17.734375 185.27734375 C-13.32221314 186.59256968 -9.77388295 188.78923372 -6.734375 192.27734375 C-6.734375 192.93734375 -6.734375 193.59734375 -6.734375 194.27734375 C-6.074375 194.27734375 -5.414375 194.27734375 -4.734375 194.27734375 C-1.60069305 201.2882932 -0.70022191 207.79013236 -2.734375 215.27734375 C-6.42647425 222.14303921 -11.49463494 227.65993611 -17.734375 232.27734375 C-18.394375 232.27734375 -19.054375 232.27734375 -19.734375 232.27734375 C-19.734375 232.93734375 -19.734375 233.59734375 -19.734375 234.27734375 C-22.0703125 236.00390625 -22.0703125 236.00390625 -25.109375 237.90234375 C-26.10710937 238.53398437 -27.10484375 239.165625 -28.1328125 239.81640625 C-30.734375 241.27734375 -30.734375 241.27734375 -32.734375 241.27734375 C-32.734375 241.93734375 -32.734375 242.59734375 -32.734375 243.27734375 C-39.484375 247.27734375 -39.484375 247.27734375 -41.734375 247.27734375 C-41.734375 247.93734375 -41.734375 248.59734375 -41.734375 249.27734375 C-46.00957467 251.58693438 -50.29504731 253.8757091 -54.59228516 256.14404297 C-55.96123356 256.86830311 -57.32829669 257.5961454 -58.69287109 258.32861328 C-78.87618208 269.12941214 -99.7839426 275.55857566 -122.734375 276.27734375 C-124.71244141 276.35662109 -124.71244141 276.35662109 -126.73046875 276.4375 C-140.23681394 276.75033579 -149.90543739 273.37863041 -160.734375 265.27734375 C-161.229375 263.79234375 -161.229375 263.79234375 -161.734375 262.27734375 C-162.394375 262.27734375 -163.054375 262.27734375 -163.734375 262.27734375 C-168.07548222 257.95443823 -169.83039031 252.58791609 -171.921875 246.96484375 C-172.27701172 246.05283203 -172.63214844 245.14082031 -172.99804688 244.20117188 C-176.65725816 234.51502436 -176.98309667 225.57668182 -176.734375 215.27734375 C-176.70601562 214.05144531 -176.67765625 212.82554687 -176.6484375 211.5625 C-175.96875916 195.88134968 -170.41318043 184.04652488 -162.98291016 170.54833984 C-161.48083023 167.81616396 -160.00759109 165.06918859 -158.53637695 162.3203125 C-157.27656631 159.96857749 -156.00600617 157.62270323 -154.734375 155.27734375 C-154.074375 155.27734375 -153.414375 155.27734375 -152.734375 155.27734375 C-152.64542969 154.73722656 -152.55648437 154.19710937 -152.46484375 153.640625 C-150.03621745 145.78330462 -143.36232986 138.17329646 -137.734375 132.27734375 C-137.074375 132.27734375 -136.414375 132.27734375 -135.734375 132.27734375 C-135.734375 131.61734375 -135.734375 130.95734375 -135.734375 130.27734375 C-134.04163216 128.71301588 -132.27867648 127.22405803 -130.484375 125.77734375 C-129.02257812 124.58625 -129.02257812 124.58625 -127.53125 123.37109375 C-124.734375 121.27734375 -124.734375 121.27734375 -122.4375 120.18359375 C-120.37077734 119.33480305 -120.37077734 119.33480305 -119.734375 116.27734375 C-117.95703125 114.671875 -117.95703125 114.671875 -115.796875 113.08984375 C-115.08660156 112.56003906 -114.37632813 112.03023438 -113.64453125 111.484375 C-111.734375 110.27734375 -111.734375 110.27734375 -109.734375 110.27734375 C-109.734375 109.61734375 -109.734375 108.95734375 -109.734375 108.27734375 C-107.734375 106.94401042 -105.734375 105.61067708 -103.734375 104.27734375 C-101.90136591 102.17158732 -101.90136591 102.17158732 -100.734375 100.27734375 C-101.46140625 100.01824219 -102.1884375 99.75914062 -102.9375 99.4921875 C-105.83189335 98.23498592 -108.0014188 96.77704951 -110.484375 94.83984375 C-111.65226562 93.94458984 -111.65226562 93.94458984 -112.84375 93.03125 C-114.734375 91.27734375 -114.734375 91.27734375 -115.734375 88.27734375 C-116.34023437 88.02210938 -116.94609375 87.766875 -117.5703125 87.50390625 C-120.76583471 85.69272579 -121.8422169 82.85448718 -123.359375 79.65234375 C-123.6584375 79.06066406 -123.9575 78.46898437 -124.265625 77.859375 C-130.16048146 65.78274428 -130.77722025 51.0828675 -127.109375 38.21484375 C-121.72576779 23.39585525 -111.75252313 12.85706477 -98.734375 4.27734375 C-97.54908203 3.47683594 -97.54908203 3.47683594 -96.33984375 2.66015625 C-84.70989683 -4.78455273 -72.27542921 -8.60043255 -58.734375 -10.72265625 C-57.97253906 -10.85414062 -57.21070313 -10.985625 -56.42578125 -11.12109375 C-37.26667941 -13.88478485 -15.25581686 -12.88109065 0 0 Z " fill="#810380" transform="translate(217.734375,120.72265625)"/>
<path d="M0 0 C1.23643828 3.70931485 1.53721791 6.10517012 1 10 C-1.04294151 12.19629905 -3.28296383 13.73747998 -6 15 C-6.99 15 -7.98 15 -9 15 C-9.33 15.99 -9.66 16.98 -10 18 C-10.33 18.66 -10.66 19.32 -11 20 C-11.66 20 -12.32 20 -13 20 C-13 20.99 -13 21.98 -13 23 C-13.66 23 -14.32 23 -15 23 C-14.67 21.68 -14.34 20.36 -14 19 C-13.34 19 -12.68 19 -12 19 C-11.91492188 18.46503906 -11.82984375 17.93007813 -11.7421875 17.37890625 C-10.73534701 14.15171753 -9.01669793 11.73347111 -7.125 8.9375 C-6.42632812 7.89464844 -5.72765625 6.85179687 -5.0078125 5.77734375 C-3.43906238 3.60734116 -1.97029813 1.79061686 0 0 Z " fill="#800C7F" transform="translate(77,257)"/>
<path d="M0 0 C-3.3683267 2.24555114 -3.83585761 2.16630606 -7.625 1.625 C-16.40606771 0.51231771 -16.40606771 0.51231771 -25 2 C-26.37433431 2.04278083 -27.75059873 2.04057273 -29.125 2 C-30.40375 2 -31.6825 2 -33 2 C-33.33 2.33 -33.66 2.66 -34 3 C-36.67058851 3.14115161 -39.32432238 3.04247107 -42 3 C-29.15069576 -3.62632281 -13.83545241 -3.89339364 0 0 Z " fill="#954396" transform="translate(290,212)"/>
<path d="M0 0 C-0.61277612 2.96175123 -1.25372522 4.38058783 -3 7 C-6.625 7.1875 -6.625 7.1875 -10 7 C-9.938125 7.78375 -9.87625 8.5675 -9.8125 9.375 C-9.874375 10.24125 -9.93625 11.1075 -10 12 C-12.90092502 13.93395001 -13.89674737 14.30131941 -17.1875 14.625 C-18.445625 14.74875 -19.70375 14.8725 -21 15 C-20.09515208 13.84481082 -19.1755794 12.70114594 -18.25 11.5625 C-17.73953125 10.92441406 -17.2290625 10.28632813 -16.703125 9.62890625 C-14.80332371 7.81189446 -13.56413092 7.39576803 -11 7 C-11 6.34 -11 5.68 -11 5 C-9.54462432 4.16151196 -8.08559627 3.32936066 -6.625 2.5 C-5.40683594 1.80390625 -5.40683594 1.80390625 -4.1640625 1.09375 C-2 0 -2 0 0 0 Z " fill="#8F308E" transform="translate(248,215)"/>
<path d="M0 0 C2.64 0.33 5.28 0.66 8 1 C-5.19234794 8.16451272 -20.09995706 11.51876358 -35 11 C-35 10.67 -35 10.34 -35 10 C-33.35 10 -31.7 10 -30 10 C-30 9.34 -30 8.68 -30 8 C-25.38 8 -20.76 8 -16 8 C-16 7.34 -16 6.68 -16 6 C-15.07767578 5.92652344 -15.07767578 5.92652344 -14.13671875 5.8515625 C-13.32847656 5.77679688 -12.52023438 5.70203125 -11.6875 5.625 C-10.48673828 5.52058594 -10.48673828 5.52058594 -9.26171875 5.4140625 C-6.72775559 5.10435574 -6.72775559 5.10435574 -4 3 C-2.68 3 -1.36 3 0 3 C0 2.01 0 1.02 0 0 Z " fill="#934293" transform="translate(135,385)"/>
<path d="M0 0 C0.33 0 0.66 0 1 0 C1.22226864 1.76913824 1.42733873 3.54044371 1.625 5.3125 C1.74101562 6.29863281 1.85703125 7.28476562 1.9765625 8.30078125 C2 11 2 11 0 14 C-0.39387788 16.32387947 -0.73486085 18.65793749 -1 21 C-1.99 21.33 -2.98 21.66 -4 22 C-4 27.94 -4 33.88 -4 40 C-4.33 39.34 -4.66 38.68 -5 38 C-5.66 38 -6.32 38 -7 38 C-7.65896358 28.93925082 -5.22380145 20.70024238 -3 12 C-2.41636126 9.64590903 -1.83298447 7.29175308 -1.25 4.9375 C-0.83459513 3.29134774 -0.41847664 1.64537405 0 0 Z " fill="#984799" transform="translate(264,333)"/>
<path d="M0 0 C1.55364999 3.10729999 0.56982392 5.66199027 -0.1953125 8.953125 C-1 11 -1 11 -3.5 12.25 C-4.325 12.4975 -5.15 12.745 -6 13 C-7.36078035 15.52372901 -7.36078035 15.52372901 -8 18 C-8.99 18 -9.98 18 -11 18 C-11.33 19.98 -11.66 21.96 -12 24 C-13.98 24.66 -15.96 25.32 -18 26 C-12.19392361 17.19518086 -6.14737753 8.5690717 0 0 Z " fill="#8F338C" transform="translate(409,151)"/>
<path d="M0 0 C0 0.99 0 1.98 0 3 C-1.4786954 4.21581622 -2.96145051 5.42753455 -4.4765625 6.59765625 C-6.7259794 8.66827334 -7.6972956 11.27052411 -9 14 C-9.99 14.33 -10.98 14.66 -12 15 C-12.66 14.67 -13.32 14.34 -14 14 C-12.63912904 10.05066831 -10.87823048 7.31994902 -8.125 4.1875 C-7.44695312 3.39730469 -6.76890625 2.60710937 -6.0703125 1.79296875 C-4 0 -4 0 0 0 Z " fill="#8F308D" transform="translate(111,134)"/>
<path d="M0 0 C0.66 0 1.32 0 2 0 C4.6825615 5.365123 3.65188207 14.43119739 2.2109375 20.109375 C0.65829838 24.11542098 -0.78749935 27.09126016 -4 30 C-3.56360096 26.50880766 -2.92556386 23.83921793 -1.4375 20.625 C1.15801101 14.19922033 0.22271163 6.79682905 0 0 Z " fill="#822881" transform="translate(458,144)"/>
<path d="M0 0 C2.5 1.25 2.5 1.25 5 3 C5 4.32 5 5.64 5 7 C3.68 6.67 2.36 6.34 1 6 C1 6.66 1 7.32 1 8 C0.01 8.66 -0.98 9.32 -2 10 C-3.20450304 12.55183404 -3.20450304 12.55183404 -4 15 C-4.66 15 -5.32 15 -6 15 C-6.66 16.32 -7.32 17.64 -8 19 C-8 15.91926653 -7.61175432 14.86670766 -6.25 12.20703125 C-5.70859375 11.1387207 -5.70859375 11.1387207 -5.15625 10.04882812 C-4.7746875 9.31083984 -4.393125 8.57285156 -4 7.8125 C-3.6184375 7.06291016 -3.236875 6.31332031 -2.84375 5.54101562 C-1.90120191 3.69126501 -0.95129907 1.84526538 0 0 Z " fill="#852186" transform="translate(57,287)"/>
<path d="M0 0 C1.63001953 0.01353516 1.63001953 0.01353516 3.29296875 0.02734375 C4.12441406 0.03894531 4.95585937 0.05054688 5.8125 0.0625 C5.8125 1.0525 5.8125 2.0425 5.8125 3.0625 C5.12542969 3.03929687 4.43835938 3.01609375 3.73046875 2.9921875 C2.82941406 2.97414062 1.92835938 2.95609375 1 2.9375 C0.10667969 2.91429687 -0.78664063 2.89109375 -1.70703125 2.8671875 C-4.44152714 2.87964173 -4.44152714 2.87964173 -7.1875 5.0625 C-10.375 5.1875 -10.375 5.1875 -13.1875 5.0625 C-13.435 5.701875 -13.6825 6.34125 -13.9375 7 C-15.1875 9.0625 -15.1875 9.0625 -17.3125 9.8125 C-18.240625 9.93625 -18.240625 9.93625 -19.1875 10.0625 C-19.1875 9.4025 -19.1875 8.7425 -19.1875 8.0625 C-18.5275 8.0625 -17.8675 8.0625 -17.1875 8.0625 C-17.1875 7.4025 -17.1875 6.7425 -17.1875 6.0625 C-15.54296875 4.80859375 -15.54296875 4.80859375 -13.375 3.5 C-12.66730469 3.06558594 -11.95960938 2.63117188 -11.23046875 2.18359375 C-7.37878142 0.06995271 -4.31976052 -0.04644904 0 0 Z " fill="#8C2B85" transform="translate(438.1875,129.9375)"/>
<path d="M0 0 C0.99 0.33 1.98 0.66 3 1 C2.07038578 2.15224028 1.1309875 3.29659176 0.1875 4.4375 C-0.59560547 5.39462891 -0.59560547 5.39462891 -1.39453125 6.37109375 C-3 8 -3 8 -6 9 C-6.268125 9.5775 -6.53625 10.155 -6.8125 10.75 C-8.55133944 14.04464314 -11.07645336 15.71200698 -14 18 C-14.66 17.01 -15.32 16.02 -16 15 C-11.375 11 -11.375 11 -8 11 C-7.773125 10.071875 -7.54625 9.14375 -7.3125 8.1875 C-5.77297911 4.44866356 -4.50533113 3.79760571 -1 2 C-0.67 1.34 -0.34 0.68 0 0 Z " fill="#8E3E92" transform="translate(424,206)"/>
<path d="M0 0 C0.99 0.66 1.98 1.32 3 2 C1.37660195 3.70884005 -0.29319053 5.37446717 -2 7 C-2.66 7 -3.32 7 -4 7 C-4 7.66 -4 8.32 -4 9 C-6.97 10.65 -9.94 12.3 -13 14 C-13 12.02 -13 10.04 -13 8 C-11.88625 7.855625 -10.7725 7.71125 -9.625 7.5625 C-6.17857953 7.21627965 -6.17857953 7.21627965 -4 6 C-4 5.01 -4 4.02 -4 3 C-2 1.3125 -2 1.3125 0 0 Z " fill="#973694" transform="translate(202,346)"/>
<path d="M0 0 C2 3 2 3 2 5 C9.26 4.67 16.52 4.34 24 4 C23.34 5.32 22.68 6.64 22 8 C14.74 7.67 7.48 7.34 0 7 C0 4.69 0 2.38 0 0 Z " fill="#913C90" transform="translate(90,342)"/>
<path d="M0 0 C3.36231991 3.08212659 5.70620827 5.892129 7.88671875 9.95703125 C9.74356168 13.3645009 11.80700718 16.64910582 13.828125 19.9609375 C15 22 15 22 15 23 C13.35 23 11.7 23 10 23 C10.33 21.35 10.66 19.7 11 18 C10.34 18 9.68 18 9 18 C9 16.68 9 15.36 9 14 C8.01 13.67 7.02 13.34 6 13 C2.48108601 10.46638193 2.01427495 7.05709981 1 3 C0.67 2.01 0.34 1.02 0 0 Z " fill="#A359A2" transform="translate(382,338)"/>
<path d="M0 0 C5.54362725 0.51971505 10.81636839 3.40883826 14.40234375 7.6640625 C15.33615779 9.06644515 16.17886601 10.5288016 17 12 C16.67 12.66 16.34 13.32 16 14 C15.34 13.67 14.68 13.34 14 13 C14 12.01 14 11.02 14 10 C13.01 10 12.02 10 11 10 C11 9.34 11 8.68 11 8 C10.34 8 9.68 8 9 8 C9 7.34 9 6.68 9 6 C7.7934375 5.814375 7.7934375 5.814375 6.5625 5.625 C5.716875 5.41875 4.87125 5.2125 4 5 C3.67 4.34 3.34 3.68 3 3 C1.68 3 0.36 3 -1 3 C-0.67 2.01 -0.34 1.02 0 0 Z " fill="#90388F" transform="translate(177,186)"/>
<path d="M0 0 C0.66 0.66 1.32 1.32 2 2 C2.66 1.34 3.32 0.68 4 0 C4 1.32 4 2.64 4 4 C3.01 4 2.02 4 1 4 C1.165 5.216875 1.33 6.43375 1.5 7.6875 C2.19161175 13.7853726 2.08524443 19.87187237 2 26 C1.67 26 1.34 26 1 26 C-1.09692037 17.20042347 -1.87938613 8.92708413 0 0 Z " fill="#A360A2" transform="translate(209,265)"/>
<path d="M0 0 C-0.75 1.9375 -0.75 1.9375 -2 4 C-4.125 4.75 -4.125 4.75 -6 5 C-6 5.66 -6 6.32 -6 7 C-7.98 7.99 -9.96 8.98 -12 10 C-12.33 9.01 -12.66 8.02 -13 7 C-11.8125 4.8125 -11.8125 4.8125 -10 3 C-8.68 3 -7.36 3 -6 3 C-6 2.34 -6 1.68 -6 1 C-4 0 -4 0 0 0 Z " fill="#943593" transform="translate(385,243)"/>
<path d="M0 0 C4.82886424 0.54679786 9.65051191 0.89629431 14.5 1.1875 C15.2233252 1.23116699 15.94665039 1.27483398 16.69189453 1.31982422 C18.41950687 1.42305807 20.14724104 1.52424979 21.875 1.625 C21.875 1.955 21.875 2.285 21.875 2.625 C17.58442047 2.87898309 13.29276866 3.09898533 9 3.3125 C7.16501953 3.42174805 7.16501953 3.42174805 5.29296875 3.53320312 C4.12636719 3.58798828 2.95976562 3.64277344 1.7578125 3.69921875 C0.67902832 3.75682373 -0.39975586 3.81442871 -1.51123047 3.8737793 C-2.80504639 3.75063354 -2.80504639 3.75063354 -4.125 3.625 C-4.785 2.635 -5.445 1.645 -6.125 0.625 C-3.68803135 -0.59348432 -2.68176855 -0.33635741 0 0 Z " fill="#9E4A9F" transform="translate(160.125,156.375)"/>
<path d="M0 0 C4.17188107 0.24068545 6.3505558 0.38386063 9.4375 3.3125 C11 6 11 6 11 10 C5.78172467 8.61869182 3.07338663 5.21402497 0 1 C0 0.67 0 0.34 0 0 Z " fill="#8E288B" transform="translate(260,378)"/>
<path d="M0 0 C2.31 0 4.62 0 7 0 C7.33 0.99 7.66 1.98 8 3 C9.62948064 4.22445284 9.62948064 4.22445284 11.5625 5.1875 C12.696875 5.785625 13.83125 6.38375 15 7 C14.34 8.32 13.68 9.64 13 11 C12.34 10.67 11.68 10.34 11 10 C11.33 9.34 11.66 8.68 12 8 C11.319375 7.773125 10.63875 7.54625 9.9375 7.3125 C6.27461218 5.67589055 3.0916961 3.55710888 0 1 C0 0.67 0 0.34 0 0 Z " fill="#9B4A9B" transform="translate(105,213)"/>
<path d="M0 0 C1.65 0 3.3 0 5 0 C1.31568907 4.53353153 -2.42838446 8.36348764 -7 12 C-7.66 12.66 -8.32 13.32 -9 14 C-8.47731534 11.23723823 -7.89130413 8.6739124 -7 6 C-5.68 6 -4.36 6 -3 6 C-2.690625 5.38125 -2.38125 4.7625 -2.0625 4.125 C-1.375 2.75 -0.6875 1.375 0 0 Z " fill="#A55CA3" transform="translate(122,277)"/>
<path d="M0 0 C0.66 0.33 1.32 0.66 2 1 C5.60283891 1.23842316 9.20458361 1.38296535 12.8125 1.5234375 C13.864375 1.68070312 14.91625 1.83796875 16 2 C16.99 3.485 16.99 3.485 18 5 C10.63740707 5.22424141 4.12950371 4.90120099 -3 3 C-2.01 2.01 -1.02 1.02 0 0 Z " fill="#B068AF" transform="translate(236,313)"/>
<path d="M0 0 C0.66 0 1.32 0 2 0 C2.39235298 4.9698044 1.22958209 8.85758838 -0.265625 13.51953125 C-1.20202444 16.68236979 -1.64411135 19.72582439 -2 23 C-2.33 23 -2.66 23 -3 23 C-3.05402274 20.89611431 -3.09280256 18.79183286 -3.125 16.6875 C-3.14820312 15.51574219 -3.17140625 14.34398437 -3.1953125 13.13671875 C-3 10 -3 10 -1 7 C-0.60612212 4.67612053 -0.26513915 2.34206251 0 0 Z " fill="#934691" transform="translate(92,317)"/>
<path d="M0 0 C3.88862987 1.26117725 5.89375599 2.45264167 8 6 C8 6.66 8 7.32 8 8 C5.75 8.3125 5.75 8.3125 3 8 C0.625 5.6875 0.625 5.6875 -1 3 C-0.67 2.01 -0.34 1.02 0 0 Z " fill="#912F8E" transform="translate(450,134)"/>
<path d="M0 0 C0.66 0.33 1.32 0.66 2 1 C1.53031881 6.63617433 0.09327687 11.21417541 -3 16 C-3.66 16.33 -4.32 16.66 -5 17 C-4.01 12.05 -3.02 7.1 -2 2 C-1.34 2 -0.68 2 0 2 C0 1.34 0 0.68 0 0 Z " fill="#9B4B9A" transform="translate(270,315)"/>
<path d="M0 0 C0.66 0 1.32 0 2 0 C1.85698235 7.91797731 1.33389433 12.98227306 -4 19 C-4.33 17.68 -4.66 16.36 -5 15 C-4.34 15 -3.68 15 -3 15 C-3 13.68 -3 12.36 -3 11 C-2.34 11 -1.68 11 -1 11 C-0.67 7.37 -0.34 3.74 0 0 Z " fill="#9A4E98" transform="translate(214,324)"/>
<path d="M0 0 C0.99 0.33 1.98 0.66 3 1 C2.979375 1.86625 2.95875 2.7325 2.9375 3.625 C2.99738956 6.85903648 3.39580933 9.82799897 4 13 C0.6433715 10.76224766 0.42003986 10.06679952 -0.6875 6.375 C-0.93886719 5.55773437 -1.19023437 4.74046875 -1.44921875 3.8984375 C-1.63097656 3.27195312 -1.81273437 2.64546875 -2 2 C-1.34 1.34 -0.68 0.68 0 0 Z " fill="#903690" transform="translate(213,289)"/>
<path d="M0 0 C-2.5 2 -2.5 2 -5 4 C-5.886875 4.7425 -6.77375 5.485 -7.6875 6.25 C-10 8 -10 8 -12 8 C-12.33 8.66 -12.66 9.32 -13 10 C-13 9.01 -13 8.02 -13 7 C-12.34 7 -11.68 7 -11 7 C-10.896875 6.360625 -10.79375 5.72125 -10.6875 5.0625 C-10.460625 4.381875 -10.23375 3.70125 -10 3 C-9.01 2.67 -8.02 2.34 -7 2 C-7.33 1.34 -7.66 0.68 -8 0 C-5.13822943 -1.43088528 -3.06624227 -0.59991697 0 0 Z " fill="#924294" transform="translate(149,259)"/>
<path d="M0 0 C0.33 1.32 0.66 2.64 1 4 C0.01 4 -0.98 4 -2 4 C-2.33 4.99 -2.66 5.98 -3 7 C-3.99 7 -4.98 7 -6 7 C-5.67 8.32 -5.34 9.64 -5 11 C-7.475 10.01 -7.475 10.01 -10 9 C-8.625 7 -8.625 7 -7 5 C-6.34 5 -5.68 5 -5 5 C-5 4.34 -5 3.68 -5 3 C-2.5 1.375 -2.5 1.375 0 0 Z " fill="#943A93" transform="translate(113,226)"/>
<path d="M0 0 C0.33 0.66 0.66 1.32 1 2 C0.01 2.495 0.01 2.495 -1 3 C-1.33 3.825 -1.66 4.65 -2 5.5 C-4 8 -4 8 -6.41796875 8.55078125 C-8.95064293 8.79011717 -11.45694382 8.94751666 -14 9 C-11.03786426 6.69534766 -7.97847243 4.72409552 -4.75 2.8125 C-3.85796875 2.28269531 -2.9659375 1.75289063 -2.046875 1.20703125 C-1.03367188 0.60955078 -1.03367188 0.60955078 0 0 Z " fill="#98419B" transform="translate(159,325)"/>
<path d="M0 0 C-1.50863992 4.22419176 -4.29984272 5.6874017 -8 8 C-8.66 8.66 -9.32 9.32 -10 10 C-10.66 9.34 -11.32 8.68 -12 8 C-10.57084149 6.65772954 -9.13137328 5.32642904 -7.6875 4 C-6.48673828 2.88625 -6.48673828 2.88625 -5.26171875 1.75 C-3 0 -3 0 0 0 Z " fill="#913891" transform="translate(381,189)"/>
<path d="M0 0 C1.65 0 3.3 0 5 0 C5.45375 1.11375 5.9075 2.2275 6.375 3.375 C7.72465986 6.96199008 7.72465986 6.96199008 10 9 C9.67 9.99 9.34 10.98 9 12 C7.49707257 10.18992669 5.99772829 8.37687764 4.5 6.5625 C3.6646875 5.55316406 2.829375 4.54382813 1.96875 3.50390625 C0 1 0 1 0 0 Z " fill="#974599" transform="translate(328,347)"/>
<path d="M0 0 C0.33 0 0.66 0 1 0 C1.02712066 1.43739513 1.04645067 2.87493863 1.0625 4.3125 C1.07410156 5.11300781 1.08570312 5.91351563 1.09765625 6.73828125 C1 9 1 9 0 12 C-0.22718496 14.56634861 -0.41608184 17.11678107 -0.5625 19.6875 C-0.60568359 20.38939453 -0.64886719 21.09128906 -0.69335938 21.81445312 C-0.7991736 23.54275206 -0.90006581 25.2713511 -1 27 C-1.33 27 -1.66 27 -2 27 C-2.05444001 23.99975053 -2.0938836 21.00050961 -2.125 18 C-2.14175781 17.16082031 -2.15851563 16.32164062 -2.17578125 15.45703125 C-2.21849117 9.94745123 -1.55502007 5.28951708 0 0 Z " fill="#B074B0" transform="translate(91,158)"/>
<path d="M0 0 C0.66 0 1.32 0 2 0 C2.3690205 12.66970387 2.3690205 12.66970387 0 18 C-0.33 18 -0.66 18 -1 18 C-0.505 9.09 -0.505 9.09 0 0 Z " fill="#AA5CA6" transform="translate(226,140)"/>
<path d="M0 0 C1.93359375 0.3828125 1.93359375 0.3828125 4 1 C5.0625 2.875 5.0625 2.875 6 5 C6.8353125 5.7425 6.8353125 5.7425 7.6875 6.5 C8.120625 6.995 8.55375 7.49 9 8 C8.6875 10.1875 8.6875 10.1875 8 12 C8 11.34 8 10.68 8 10 C7.38640625 9.75507813 6.7728125 9.51015625 6.140625 9.2578125 C3.57364433 7.74947715 2.96142096 6.55743212 1.75 3.875 C1.41484375 3.15054688 1.0796875 2.42609375 0.734375 1.6796875 C0.49203125 1.12539062 0.2496875 0.57109375 0 0 Z " fill="#A0599F" transform="translate(94,199)"/>
<path d="M0 0 C0.33 0 0.66 0 1 0 C1 1.65 1 3.3 1 5 C0.01 5 -0.98 5 -2 5 C-2.33 6.98 -2.66 8.96 -3 11 C-4.98 11.66 -6.96 12.32 -9 13 C-8.06398754 11.58235006 -7.1261208 10.16592432 -6.1875 8.75 C-5.66542969 7.96109375 -5.14335937 7.1721875 -4.60546875 6.359375 C-3.12635376 4.18568776 -1.64317664 2.05279374 0 0 Z " fill="#A257A4" transform="translate(400,164)"/>
<path d="M0 0 C-1.31224548 3.93673644 -2.91910327 6.22719294 -6 9 C-6.66 8.67 -7.32 8.34 -8 8 C-8 7.01 -8 6.02 -8 5 C-7.01 5 -6.02 5 -5 5 C-5.33 4.01 -5.66 3.02 -6 2 C-3 0 -3 0 0 0 Z " fill="#974596" transform="translate(224,159)"/>
<path d="M0 0 C1.32 0.33 2.64 0.66 4 1 C4 1.99 4 2.98 4 4 C3.34 4 2.68 4 2 4 C2 4.66 2 5.32 2 6 C1.34 6 0.68 6 0 6 C-0.66 7.32 -1.32 8.64 -2 10 C-3.125 6.25 -3.125 6.25 -2 4 C-1.34 4 -0.68 4 0 4 C0 2.68 0 1.36 0 0 Z " fill="#9D489C" transform="translate(444,183)"/>
<path d="M0 0 C0.66 0.33 1.32 0.66 2 1 C1.48474397 6.28137429 -0.25477117 9.57221156 -3 14 C-4.37095624 10.30962722 -3.60010967 8.29116165 -2.0625 4.75 C-1.68222656 3.85796875 -1.30195313 2.9659375 -0.91015625 2.046875 C-0.60980469 1.37140625 -0.30945313 0.6959375 0 0 Z " fill="#9B4C99" transform="translate(458,160)"/>
<path d="M0 0 C0.58265625 0.21527344 1.1653125 0.43054688 1.765625 0.65234375 C0.26822917 1.88932292 -1.22916667 3.12630208 -2.7265625 4.36328125 C-3.94488661 5.40485367 -5.10097597 6.51894472 -6.234375 7.65234375 C-6.564375 6.99234375 -6.894375 6.33234375 -7.234375 5.65234375 C-7.894375 5.32234375 -8.554375 4.99234375 -9.234375 4.65234375 C-8.16330383 3.78285058 -7.07691556 2.9322017 -5.984375 2.08984375 C-5.38109375 1.61417969 -4.7778125 1.13851562 -4.15625 0.6484375 C-2.234375 -0.34765625 -2.234375 -0.34765625 0 0 Z " fill="#8B2F8A" transform="translate(121.234375,125.34765625)"/>
<path d="M0 0 C0.99 0 1.98 0 3 0 C3 0.66 3 1.32 3 2 C-0.08310459 4.81883849 -2.96949988 6.83327628 -7 8 C-7.99 7.67 -8.98 7.34 -10 7 C-8.35 6.34 -6.7 5.68 -5 5 C-5 4.34 -5 3.68 -5 3 C-3.35 2.67 -1.7 2.34 0 2 C0 1.34 0 0.68 0 0 Z " fill="#9E559C" transform="translate(298,381)"/>
<path d="M0 0 C2.64 0.33 5.28 0.66 8 1 C5.02719558 2.52433823 2.02018843 3.89955928 -1.0625 5.1875 C-1.91972656 5.55230469 -2.77695313 5.91710937 -3.66015625 6.29296875 C-6 7 -6 7 -9 6 C-5.55930376 3.70620251 -4.27709699 3 0 3 C0 2.01 0 1.02 0 0 Z " fill="#A664A7" transform="translate(135,385)"/>
<path d="M0 0 C1.65 0.33 3.3 0.66 5 1 C1.87567603 3.52349243 -1.38060496 5.27256146 -5 7 C-4.42655063 4.13275314 -4.1385485 3.1385485 -2 1 C-1.34 1.33 -0.68 1.66 0 2 C0 1.34 0 0.68 0 0 Z " fill="#90358F" transform="translate(165,371)"/>
<path d="M0 0 C0 0.99 0 1.98 0 3 C-1.6875 3.75 -1.6875 3.75 -4 4 C-6.75 2.0625 -6.75 2.0625 -9 0 C-5.93109813 -1.53445094 -3.29905734 -0.54984289 0 0 Z " fill="#86188A" transform="translate(192,307)"/>
<path d="M0 0 C0.99 0.33 1.98 0.66 3 1 C-0.27708863 4.67033927 -3.71522208 6.69281189 -8 9 C-8.33 8.34 -8.66 7.68 -9 7 C-8.01 7 -7.02 7 -6 7 C-5.67 5.68 -5.34 4.36 -5 3 C-3.35 2.67 -1.7 2.34 0 2 C0 1.34 0 0.68 0 0 Z " fill="#9D4D9D" transform="translate(167,242)"/>
<path d="M0 0 C0.99 0.33 1.98 0.66 3 1 C-0.3 3.97 -3.6 6.94 -7 10 C-7.66 9.67 -8.32 9.34 -9 9 C-8.67 8.01 -8.34 7.02 -8 6 C-7.401875 5.87625 -6.80375 5.7525 -6.1875 5.625 C-2.99895456 4.71398702 -1.88378299 2.62384059 0 0 Z " fill="#A25BA3" transform="translate(406,225)"/>
<path d="M0 0 C0.66 1.32 1.32 2.64 2 4 C0.35 4.66 -1.3 5.32 -3 6 C-3 6.99 -3 7.98 -3 9 C-4.98 9.33 -6.96 9.66 -9 10 C-7.38405168 7.95880212 -5.7143618 5.95927063 -4 4 C-3.34 4 -2.68 4 -2 4 C-1.34 2.68 -0.68 1.36 0 0 Z " fill="#A65BA5" transform="translate(390,177)"/>
<path d="M0 0 C0 0.33 0 0.66 0 1 C-3.63 1 -7.26 1 -11 1 C-11 1.66 -11 2.32 -11 3 C-13.31 3 -15.62 3 -18 3 C-17 1 -17 1 -15.21484375 0.33203125 C-9.75266401 -0.91405778 -5.51576461 -1.00286629 0 0 Z " fill="#A256A0" transform="translate(332,120)"/>
<path d="M0 0 C0.99 0.66 1.98 1.32 3 2 C1.37660195 3.70884005 -0.29319053 5.37446717 -2 7 C-2.66 7 -3.32 7 -4 7 C-4.33 7.66 -4.66 8.32 -5 9 C-5.33 8.01 -5.66 7.02 -6 6 C-5.34 6 -4.68 6 -4 6 C-4 5.01 -4 4.02 -4 3 C-2 1.3125 -2 1.3125 0 0 Z " fill="#994497" transform="translate(202,346)"/>
<path d="M0 0 C0.33 0 0.66 0 1 0 C2.28571429 7.42857143 2.28571429 7.42857143 1 11 C0.34 11 -0.32 11 -1 11 C-1 13.31 -1 15.62 -1 18 C-1.33 18 -1.66 18 -2 18 C-2.2361959 11.59646678 -1.823321 6.15370839 0 0 Z " fill="#A55BA5" transform="translate(44,313)"/>
<path d="M0 0 C0.33 0.66 0.66 1.32 1 2 C-1.19566645 8.47143795 -1.19566645 8.47143795 -4.1875 10.4375 C-5.0846875 10.7159375 -5.0846875 10.7159375 -6 11 C-6 11.99 -6 12.98 -6 14 C-6.66 14 -7.32 14 -8 14 C-7.67 12.68 -7.34 11.36 -7 10 C-6.34 10 -5.68 10 -5 10 C-4.9175 9.46375 -4.835 8.9275 -4.75 8.375 C-3.73623902 5.1647569 -1.92839451 2.73707608 0 0 Z " fill="#9F59A0" transform="translate(70,266)"/>
<path d="M0 0 C0.33 1.32 0.66 2.64 1 4 C0.01 4.33 -0.98 4.66 -2 5 C-2.33 5.99 -2.66 6.98 -3 8 C-4.65 8.33 -6.3 8.66 -8 9 C-8 8.34 -8 7.68 -8 7 C-6.25 5.2734375 -6.25 5.2734375 -4 3.375 C-3.2575 2.74335938 -2.515 2.11171875 -1.75 1.4609375 C-1.1725 0.97882813 -0.595 0.49671875 0 0 Z " fill="#954092" transform="translate(90,244)"/>
<path d="M0 0 C-1 3 -1 3 -4 5 C-6.26171875 5.4140625 -6.26171875 5.4140625 -8.6875 5.625 C-9.49574219 5.69976562 -10.30398437 5.77453125 -11.13671875 5.8515625 C-12.05904297 5.92503906 -12.05904297 5.92503906 -13 6 C-9.40464172 2.97989905 -4.81374718 0 0 0 Z " fill="#9D4F9A" transform="translate(138,116)"/>
<path d="M0 0 C4.71403788 0.47939368 8.66579301 0.96834048 13 3 C12.34 3.66 11.68 4.32 11 5 C7.37 4.01 3.74 3.02 0 2 C0 1.34 0 0.68 0 0 Z " fill="#964994" transform="translate(195,111)"/>
<path d="M0 0 C0.66 0 1.32 0 2 0 C2 0.66 2 1.32 2 2 C2.99 1.67 3.98 1.34 5 1 C5 1.99 5 2.98 5 4 C6.32 4 7.64 4 9 4 C9 5.32 9 6.64 9 8 C6.5625 7.1875 6.5625 7.1875 4 6 C3.67 5.01 3.34 4.02 3 3 C2.34 3 1.68 3 1 3 C0.67 2.01 0.34 1.02 0 0 Z " fill="#9D549E" transform="translate(53,380)"/>
<path d="M0 0 C1.32 0.33 2.64 0.66 4 1 C3.67 2.65 3.34 4.3 3 6 C3.66 6 4.32 6 5 6 C5.33 7.98 5.66 9.96 6 12 C2.50071836 9.66714557 2.3670902 8.79204931 1.3125 4.875 C1.06113281 3.96492188 0.80976562 3.05484375 0.55078125 2.1171875 C0.27814453 1.06917969 0.27814453 1.06917969 0 0 Z " fill="#9B4E9C" transform="translate(47,368)"/>
<path d="M0 0 C0.99 0 1.98 0 3 0 C3 3 3 3 2 6 C1.01 6.33 0.02 6.66 -1 7 C-1.66 6.67 -2.32 6.34 -3 6 C-1.125 1.125 -1.125 1.125 0 0 Z " fill="#8B2887" transform="translate(100,142)"/>
<path d="M0 0 C0 0.66 0 1.32 0 2 C-1.423125 2.37125 -1.423125 2.37125 -2.875 2.75 C-6.43559968 4.17423987 -6.51742659 4.71715887 -8 8 C-10.125 8.75 -10.125 8.75 -12 9 C-12 8.34 -12 7.68 -12 7 C-11.34 7 -10.68 7 -10 7 C-10 6.34 -10 5.68 -10 5 C-8.3203125 3.7109375 -8.3203125 3.7109375 -6.125 2.375 C-5.40570313 1.92898437 -4.68640625 1.48296875 -3.9453125 1.0234375 C-2 0 -2 0 0 0 Z " fill="#A665A6" transform="translate(431,131)"/>
<path d="M0 0 C0 0.66 0 1.32 0 2 C-4.92737019 3.97094808 -8.78020872 4.1799928 -14 4 C-9.39033958 1.51787516 -5.27072485 0 0 0 Z " fill="#9A4B9A" transform="translate(262,211)"/>
<path d="M0 0 C2.31 0 4.62 0 7 0 C3.87511433 2.52394612 0.68685613 4.39701907 -3 6 C-3.66 5.67 -4.32 5.34 -5 5 C-4.67 4.34 -4.34 3.68 -4 3 C-2.68 3 -1.36 3 0 3 C0 2.01 0 1.02 0 0 Z " fill="#A55EA5" transform="translate(148,380)"/>
<path d="M0 0 C0.99 0.99 1.98 1.98 3 3 C3 3.66 3 4.32 3 5 C3.66 5 4.32 5 5 5 C5.66 6.65 6.32 8.3 7 10 C5.68 10 4.36 10 3 10 C2.01 6.7 1.02 3.4 0 0 Z " fill="#9E579C" transform="translate(372,323)"/>
<path d="M0 0 C0.99 0.33 1.98 0.66 3 1 C4.1875 4.0625 4.1875 4.0625 5 7 C3.68 7.33 2.36 7.66 1 8 C0.67 5.36 0.34 2.72 0 0 Z " fill="#872D88" transform="translate(344,282)"/>
<path d="M0 0 C0.66 0 1.32 0 2 0 C2.33 3.63 2.66 7.26 3 11 C2.67 10.34 2.34 9.68 2 9 C1.34 9 0.68 9 0 9 C0 6.03 0 3.06 0 0 Z " fill="#A259A4" transform="translate(257,362)"/>
<path d="M0 0 C0.33 0 0.66 0 1 0 C1 1.98 1 3.96 1 6 C0.01 6.33 -0.98 6.66 -2 7 C-3.20882096 9.00016466 -3.20882096 9.00016466 -4 11 C-4 7.80389448 -3.45328458 6.58282374 -2 3.8125 C-1.62875 3.09707031 -1.2575 2.38164062 -0.875 1.64453125 C-0.441875 0.83048828 -0.441875 0.83048828 0 0 Z " fill="#A95EA9" transform="translate(53,295)"/>
<path d="M0 0 C0.33 0 0.66 0 1 0 C2.125 6.625 2.125 6.625 1 10 C0.34 10 -0.32 10 -1 10 C-1.33 10.66 -1.66 11.32 -2 12 C-2.21278058 7.53160785 -1.59138085 4.17737474 0 0 Z " fill="#A24E9D" transform="translate(212,253)"/>
<path d="M0 0 C2.64 0 5.28 0 8 0 C7.67 0.99 7.34 1.98 7 3 C6.01 3 5.02 3 4 3 C3.67 3.66 3.34 4.32 3 5 C1.5 3.625 1.5 3.625 0 2 C0 1.34 0 0.68 0 0 Z " fill="#912C90" transform="translate(183,161)"/>
<path d="M0 0 C0.66 0 1.32 0 2 0 C3.38232443 1.62626404 4.71937515 3.2925002 6 5 C5.67 5.33 5.34 5.66 5 6 C5.66 6.66 6.32 7.32 7 8 C6.34 8.66 5.68 9.32 5 10 C4.1641146 8.52227402 3.33135744 7.04277811 2.5 5.5625 C2.0359375 4.73878906 1.571875 3.91507812 1.09375 3.06640625 C0 1 0 1 0 0 Z " fill="#984598" transform="translate(349,374)"/>
<path d="M0 0 C0.103125 0.639375 0.20625 1.27875 0.3125 1.9375 C0.539375 2.618125 0.76625 3.29875 1 4 C1.99 4.33 2.98 4.66 4 5 C4.33 6.65 4.66 8.3 5 10 C2.35247996 7.42215154 0.05567935 5.08351902 -2 2 C-1.34 2 -0.68 2 0 2 C0 1.34 0 0.68 0 0 Z " fill="#954093" transform="translate(342,360)"/>
<path d="M0 0 C0.66 0.33 1.32 0.66 2 1 C0.35 4.3 -1.3 7.6 -3 11 C-3.66 11 -4.32 11 -5 11 C-3.77472971 6.94718288 -2.30119506 3.55639236 0 0 Z " fill="#A363A5" transform="translate(220,237)"/>
<path d="M0 0 C0.98484375 0.11085937 1.9696875 0.22171875 2.984375 0.3359375 C3.73203125 0.43132812 4.4796875 0.52671875 5.25 0.625 C5.25 0.955 5.25 1.285 5.25 1.625 C-0.09629602 2.6274305 -4.37374766 2.47388195 -9.75 1.625 C-6.30824478 -0.52199969 -3.9779708 -0.47356795 0 0 Z " fill="#9A4A9A" transform="translate(169.75,183.375)"/>
<path d="M0 0 C0.33 0 0.66 0 1 0 C1.05382106 2.62527189 1.09358313 5.24944713 1.125 7.875 C1.14175781 8.62136719 1.15851563 9.36773437 1.17578125 10.13671875 C1.1933959 12.09194461 1.10320189 14.04742021 1 16 C0.34 16.66 -0.32 17.32 -1 18 C-1 14.2158381 -0.77944732 10.52253876 -0.5 6.75 C-0.4071875 5.48671875 -0.314375 4.2234375 -0.21875 2.921875 C-0.1465625 1.95765625 -0.074375 0.9934375 0 0 Z " fill="#740973" transform="translate(349,142)"/>
<path d="M0 0 C4.75 0.875 4.75 0.875 7 2 C7 2.66 7 3.32 7 4 C7.99 4.33 8.98 4.66 10 5 C8 6 8 6 5.9375 5.6875 C4 5 4 5 3 3 C2.01 2.67 1.02 2.34 0 2 C0 1.34 0 0.68 0 0 Z " fill="#A15B9F" transform="translate(333,121)"/>
<path d="M0 0 C2.64 0.33 5.28 0.66 8 1 C8.33 1.99 8.66 2.98 9 4 C8.01 4.33 7.02 4.66 6 5 C2.8125 3.125 2.8125 3.125 0 1 C0 0.67 0 0.34 0 0 Z " fill="#90358E" transform="translate(62,388)"/>
<path d="M0 0 C0.33 0.99 0.66 1.98 1 3 C-0.875 6.1875 -0.875 6.1875 -3 9 C-3.33 9 -3.66 9 -4 9 C-4 7.35 -4 5.7 -4 4 C-3.34 4 -2.68 4 -2 4 C-1.67 3.01 -1.34 2.02 -1 1 C-0.67 0.67 -0.34 0.34 0 0 Z " fill="#AA65A8" transform="translate(305,372)"/>
<path d="M0 0 C0.99 0 1.98 0 3 0 C3.99 2.31 4.98 4.62 6 7 C4.35 7 2.7 7 1 7 C1.33 5.35 1.66 3.7 2 2 C1.34 2 0.68 2 0 2 C0 1.34 0 0.68 0 0 Z " fill="#903C90" transform="translate(391,354)"/>
<path d="M0 0 C1.5625 1.125 1.5625 1.125 3 3 C2.6875 6.1875 2.6875 6.1875 2 9 C1.01 8.34 0.02 7.68 -1 7 C-0.67 4.69 -0.34 2.38 0 0 Z " fill="#942D94" transform="translate(353,294)"/>
<path d="M0 0 C1.25541557 3.76624671 0.37061958 5.37188934 -1 9 C-1.33 8.01 -1.66 7.02 -2 6 C-2.66 6 -3.32 6 -4 6 C-2.84826645 3.53199953 -1.95216435 1.95216435 0 0 Z " fill="#9E479F" transform="translate(77,257)"/>
<path d="M0 0 C0.99 0 1.98 0 3 0 C1.63016497 3.16115776 1.0109362 3.9927092 -2 6 C-2.99 5.67 -3.98 5.34 -5 5 C-4.67 4.01 -4.34 3.02 -4 2 C-2.02 2.495 -2.02 2.495 0 3 C0 2.01 0 1.02 0 0 Z " fill="#943792" transform="translate(181,231)"/>
<path d="M0 0 C5.57142857 5.14285714 5.57142857 5.14285714 6 9 C5.01 8.67 4.02 8.34 3 8 C3 7.01 3 6.02 3 5 C2.01 5 1.02 5 0 5 C0 3.35 0 1.7 0 0 Z " fill="#A05AA0" transform="translate(188,191)"/>
<path d="M0 0 C0.66 1.32 1.32 2.64 2 4 C-0.61941217 5.74627478 -2.03824877 6.38722388 -5 7 C-3.70700306 4.11562221 -2.34058637 2.12780579 0 0 Z " fill="#963791" transform="translate(309,126)"/>
<path d="M0 0 C2.31 0.33 4.62 0.66 7 1 C7 1.66 7 2.32 7 3 C6.34 3 5.68 3 5 3 C4.67 3.99 4.34 4.98 4 6 C0 1.125 0 1.125 0 0 Z " fill="#953B94" transform="translate(260,378)"/>
<path d="M0 0 C1.32 0 2.64 0 4 0 C2.55746343 3.36591866 0.66735273 5.51047079 -2 8 C-1.47731534 5.23723823 -0.89130413 2.6739124 0 0 Z " fill="#933A8F" transform="translate(115,283)"/>
<path d="M0 0 C0.33 0 0.66 0 1 0 C1.19456705 1.95764383 1.38044247 3.91615321 1.5625 5.875 C1.66691406 6.96554688 1.77132813 8.05609375 1.87890625 9.1796875 C2 12 2 12 1 14 C0.34 14 -0.32 14 -1 14 C-0.67 9.38 -0.34 4.76 0 0 Z " fill="#B270AE" transform="translate(292,190)"/>
<path d="M0 0 C0.33 0 0.66 0 1 0 C1.14285714 7.42857143 1.14285714 7.42857143 0 11 C-0.66 11 -1.32 11 -2 11 C-2.19622241 6.78121808 -1.80230168 3.82989106 0 0 Z " fill="#A35FA3" transform="translate(343,193)"/>
<path d="M0 0 C0.99 0.33 1.98 0.66 3 1 C3.33 2.65 3.66 4.3 4 6 C1.36 6 -1.28 6 -4 6 C-4 5.67 -4 5.34 -4 5 C-2.35 5 -0.7 5 1 5 C0.67 3.35 0.34 1.7 0 0 Z " fill="#760976" transform="translate(176,152)"/>
<path d="M0 0 C-0.99 0 -1.98 0 -3 0 C-3 0.66 -3 1.32 -3 2 C-6.28976808 3.09658936 -7.71303767 2.79953138 -11 2 C-11 1.67 -11 1.34 -11 1 C-3.57142857 -1.42857143 -3.57142857 -1.42857143 0 0 Z M-8 3 C-7.01 3.495 -7.01 3.495 -6 4 C-6.99 4.495 -6.99 4.495 -8 5 C-8 4.34 -8 3.68 -8 3 Z " fill="#984399" transform="translate(125,344)"/>
<path d="M0 0 C1.32 0 2.64 0 4 0 C3.25 1.9375 3.25 1.9375 2 4 C-0.125 4.75 -0.125 4.75 -2 5 C-1.125 1.125 -1.125 1.125 0 0 Z " fill="#8F338A" transform="translate(166,320)"/>
<path d="M0 0 C2.5 1.25 2.5 1.25 5 3 C5 4.32 5 5.64 5 7 C4.34 7 3.68 7 3 7 C2.34 6.01 1.68 5.02 1 4 C0.34 4 -0.32 4 -1 4 C-0.67 2.68 -0.34 1.36 0 0 Z " fill="#982F98" transform="translate(57,287)"/>
<path d="M0 0 C-4.75 3.875 -4.75 3.875 -7 5 C-7.33 3.35 -7.66 1.7 -8 0 C-5.13822943 -1.43088528 -3.06624227 -0.59991697 0 0 Z " fill="#9B4A9C" transform="translate(149,259)"/>
<path d="M0 0 C1.32 0 2.64 0 4 0 C4 0.66 4 1.32 4 2 C2.46875 3.2890625 2.46875 3.2890625 0.5 4.625 C-0.1496875 5.07101563 -0.799375 5.51703125 -1.46875 5.9765625 C-1.9740625 6.31429687 -2.479375 6.65203125 -3 7 C-2.67 5.68 -2.34 4.36 -2 3 C-1.34 3 -0.68 3 0 3 C0 2.01 0 1.02 0 0 Z " fill="#934091" transform="translate(188,224)"/>
<path d="M0 0 C1.32 0.33 2.64 0.66 4 1 C3.34 2.32 2.68 3.64 2 5 C0.68 5 -0.64 5 -2 5 C-1.34 3.35 -0.68 1.7 0 0 Z " fill="#871E8C" transform="translate(207,115)"/>
<path d="M0 0 C0.66 0 1.32 0 2 0 C1.67 2.31 1.34 4.62 1 7 C0.01 6.67 -0.98 6.34 -2 6 C-2 2 -2 2 0 0 Z " fill="#780576" transform="translate(314,332)"/>
<path d="M0 0 C0.99 0.33 1.98 0.66 3 1 C1.515 3.475 1.515 3.475 0 6 C-0.99 5.67 -1.98 5.34 -3 5 C-2.01 3.35 -1.02 1.7 0 0 Z " fill="#760975" transform="translate(50,304)"/>
<path d="M0 0 C0.598125 0.20625 1.19625 0.4125 1.8125 0.625 C-1.9375 3.625 -1.9375 3.625 -4.1875 3.625 C-4.5175 4.285 -4.8475 4.945 -5.1875 5.625 C-5.1875 4.305 -5.1875 2.985 -5.1875 1.625 C-2.1875 -0.375 -2.1875 -0.375 0 0 Z " fill="#9A4A98" transform="translate(176.1875,237.375)"/>
<path d="M0 0 C0.99 0.33 1.98 0.66 3 1 C2.34 2.32 1.68 3.64 1 5 C0.01 5 -0.98 5 -2 5 C-2.33 4.34 -2.66 3.68 -3 3 C-2.01 2.01 -1.02 1.02 0 0 Z " fill="#923492" transform="translate(411,218)"/>
<path d="M0 0 C0.33 0.99 0.66 1.98 1 3 C0.01 4.485 0.01 4.485 -1 6 C-3.625 6.1875 -3.625 6.1875 -6 6 C-4.68 5.34 -3.36 4.68 -2 4 C-2 3.01 -2 2.02 -2 1 C-1.34 0.67 -0.68 0.34 0 0 Z " fill="#760673" transform="translate(357,208)"/>
<path d="M0 0 C0.99 0.33 1.98 0.66 3 1 C1.35 2.98 -0.3 4.96 -2 7 C-2.66 6.34 -3.32 5.68 -4 5 C-2.68 3.35 -1.36 1.7 0 0 Z " fill="#9E4CA1" transform="translate(424,206)"/>
<path d="M0 0 C0.66 0.33 1.32 0.66 2 1 C0.515 3.475 0.515 3.475 -1 6 C-2.32 5.67 -3.64 5.34 -5 5 C-3.35 3.35 -1.7 1.7 0 0 Z " fill="#9F4D9E" transform="translate(367,198)"/>
<path d="M0 0 C0.33 0.99 0.66 1.98 1 3 C4.51190809 4.22969878 4.51190809 4.22969878 8 5 C8 5.33 8 5.66 8 6 C2.46153846 6.36923077 2.46153846 6.36923077 0.125 4.5 C-0.24625 4.005 -0.6175 3.51 -1 3 C-0.67 2.01 -0.34 1.02 0 0 Z " fill="#A056A1" transform="translate(137,176)"/>
<path d="M0 0 C0.66 1.32 1.32 2.64 2 4 C-1 6 -1 6 -4 6 C-2.84826645 3.53199953 -1.95216435 1.95216435 0 0 Z " fill="#994997" transform="translate(418,140)"/>
<path d="M0 0 C2.91517292 1.07401108 4.77810176 1.77810176 7 4 C4.69 4 2.38 4 0 4 C0 2.68 0 1.36 0 0 Z " fill="#7C0574" transform="translate(183,308)"/>
<path d="M0 0 C1.65 0 3.3 0 5 0 C3.35 1.65 1.7 3.3 0 5 C-2 4 -2 4 -3 2 C-2.01 2 -1.02 2 0 2 C0 1.34 0 0.68 0 0 Z " fill="#A355A2" transform="translate(368,253)"/>
<path d="M0 0 C0.33 0.99 0.66 1.98 1 3 C-0.32 3.33 -1.64 3.66 -3 4 C-3 4.66 -3 5.32 -3 6 C-4.32 5.67 -5.64 5.34 -7 5 C-4.69 3.35 -2.38 1.7 0 0 Z " fill="#9F5AA0" transform="translate(354,209)"/>
<path d="M0 0 C1.32 0.99 2.64 1.98 4 3 C3.34 4.32 2.68 5.64 2 7 C1.34 7 0.68 7 0 7 C0 4.69 0 2.38 0 0 Z " fill="#770874" transform="translate(291,204)"/>
<path d="M0 0 C0.66 0 1.32 0 2 0 C1.43628586 3.26954202 0.50037734 4.82575883 -2 7 C-2.33 5.35 -2.66 3.7 -3 2 C-2.01 2 -1.02 2 0 2 C0 1.34 0 0.68 0 0 Z " fill="#9F59A0" transform="translate(450,176)"/>
<path d="M0 0 C2.15377564 2.62198774 3.40072174 4.64404172 4 8 C3.01 8 2.02 8 1 8 C0.67 5.36 0.34 2.72 0 0 Z " fill="#9B449A" transform="translate(222,127)"/>
</svg>
