<?xml version="1.0" encoding="UTF-8"?>
<svg version="1.1" xmlns="http://www.w3.org/2000/svg" width="200" height="200">
<path d="M0 0 C8.91 0 17.82 0 27 0 C27.33 33.33 27.66 66.66 28 101 C30.5827737 94.54306574 32.93777346 88.3357851 34.8828125 81.70703125 C35.26667618 80.4219165 35.26667618 80.4219165 35.65829468 79.11083984 C36.20297569 77.28697159 36.74579541 75.46254657 37.28686523 73.63760376 C38.71377322 68.82792007 40.15670014 64.02306611 41.6015625 59.21875 C41.88964783 58.26063919 42.17773315 57.30252838 42.47454834 56.31538391 C46.13414282 44.185482 50.06097144 32.14592461 53.99560547 20.10302734 C55.77988313 14.59058955 57.47772516 9.05205161 59.16015625 3.5078125 C60 1 60 1 61 0 C62.91458282 -0.09971786 64.83282317 -0.13080589 66.75 -0.1328125 C67.9153125 -0.13410156 69.080625 -0.13539062 70.28125 -0.13671875 C71.5084375 -0.13285156 72.735625 -0.12898438 74 -0.125 C75.84078125 -0.13080078 75.84078125 -0.13080078 77.71875 -0.13671875 C79.46671875 -0.13478516 79.46671875 -0.13478516 81.25 -0.1328125 C82.32765625 -0.13168457 83.4053125 -0.13055664 84.515625 -0.12939453 C87 0 87 0 88 1 C88.09554399 2.42946471 88.12188438 3.86362665 88.12025452 5.29627991 C88.12231651 6.68667732 88.12231651 6.68667732 88.12442017 8.10516357 C88.11902725 9.64264252 88.11902725 9.64264252 88.11352539 11.21118164 C88.11367142 12.28422043 88.11381744 13.35725922 88.1139679 14.46281433 C88.11326824 18.02861516 88.10547338 21.59436449 88.09765625 25.16015625 C88.09579226 27.62495393 88.09436827 30.08975199 88.09336853 32.55455017 C88.08954187 39.05653905 88.07971032 45.55850575 88.06866455 52.06048584 C88.05791748 58.68940817 88.05387159 65.31833693 88.04882812 71.94726562 C88.03808819 84.96485352 88.02101 97.98242492 88 111 C83.38 111 78.76 111 74 111 C73.67 78.33 73.34 45.66 73 12 C70.82037064 17.08580185 69.02397811 21.91534433 67.5 27.1875 C66.97761445 28.95864394 66.45407716 30.72944839 65.9296875 32.5 C65.6315918 33.50804687 65.33349609 34.51609375 65.02636719 35.5546875 C62.92494479 42.60874862 60.77435007 49.6479216 58.625 56.6875 C58.3878125 57.46481476 58.150625 58.24212952 57.90625 59.04299927 C54.53702629 70.0763772 51.10291966 81.08562794 47.54931641 92.0612793 C45.82615419 97.38480478 44.17680772 102.71917368 42.63085938 108.09716797 C42 110 42 110 41 111 C32.09 111 23.18 111 14 111 C13.67 76.68 13.34 42.36 13 7 C11.68 11.62 10.36 16.24 9 21 C7.80915266 24.77795018 6.60441893 28.54736447 5.375 32.3125 C2.09122981 42.46591113 -1.0457234 52.65826974 -4.125 62.875 C-7.66410067 74.61107144 -11.23177285 86.33500996 -15 98 C-15.40089844 99.24394531 -15.80179688 100.48789063 -16.21484375 101.76953125 C-18.86213235 109.86213235 -18.86213235 109.86213235 -20 111 C-22.35313555 111.07271741 -24.70833668 111.08370868 -27.0625 111.0625 C-28.99802734 111.04896484 -28.99802734 111.04896484 -30.97265625 111.03515625 C-31.97167969 111.02355469 -32.97070312 111.01195312 -34 111 C-32.50676696 101.86648413 -29.73513881 93.12966434 -27 84.3125 C-26.50575235 82.70668232 -26.01169615 81.10080571 -25.51782227 79.49487305 C-22.02139133 68.15709886 -18.4001027 56.86240598 -14.72094727 45.58276367 C-11.01933613 34.18778197 -7.54795484 22.72761266 -4.13452148 11.2434082 C-3.82979919 10.22430611 -3.82979919 10.22430611 -3.5189209 9.18461609 C-2.96773602 7.34077622 -2.42015012 5.49586159 -1.87280273 3.65087891 C-1 1 -1 1 0 0 Z " fill="#FDFDFD" transform="translate(66,44)"/>
</svg>
