<?xml version="1.0" encoding="UTF-8"?>
<svg version="1.1" xmlns="http://www.w3.org/2000/svg" width="500" height="500">
<path d="M0 0 C6.42502621 6.48303999 7.25664388 10.65294652 7.625 19.625 C7.69255493 21.2490979 7.69255493 21.2490979 7.76147461 22.90600586 C8.24750793 37.27986026 7.60857913 51.63836051 7 66 C7.79664063 65.65066406 8.59328125 65.30132812 9.4140625 64.94140625 C10.47367188 64.48636719 11.53328125 64.03132813 12.625 63.5625 C13.66914063 63.11003906 14.71328125 62.65757812 15.7890625 62.19140625 C25.72817465 58.50353617 36.93045076 59.19373218 47 62 C47.66 62.33 48.32 62.66 49 63 C49.3403125 61.9171875 49.3403125 61.9171875 49.6875 60.8125 C51.55201417 56.8171125 53.78250797 54.06736386 57.83154297 52.1184082 C64.30221533 49.78959861 70.23575185 49.64452323 77.0625 49.8125 C78.11888672 49.82603516 79.17527344 49.83957031 80.26367188 49.85351562 C82.84299809 49.8885291 85.42121494 49.93763325 88 50 C88 49.34 88 48.68 88 48 C88.66 48 89.32 48 90 48 C90 47.34 90 46.68 90 46 C96.60150057 42.05709086 101.64090421 41.41910829 109.25390625 41.50390625 C110.31359116 41.50245102 111.37327606 41.50099579 112.46507263 41.49949646 C114.69476077 41.50114921 116.92446107 41.51264011 119.15405273 41.53344727 C122.55567111 41.56244179 125.95573251 41.55403386 129.35742188 41.54101562 C131.53125753 41.54725276 133.70508829 41.5556435 135.87890625 41.56640625 C136.889496 41.56347061 137.90008575 41.56053497 138.94129944 41.55751038 C144.79425875 41.63527569 148.75262307 42.4377457 154 45 C157.2651869 44.79592582 159.86076429 44.04838164 162.9453125 42.9765625 C168.17252401 41.49003135 173.47782307 41.59244734 178.875 41.5625 C179.91269531 41.52962891 180.95039063 41.49675781 182.01953125 41.46289062 C190.0760558 41.40701309 195.99032286 43.14462141 201.87792969 48.80566406 C205.94201752 53.22093794 208 56.89079261 208 63 C211.48996994 63.1395988 214.33019957 63.2498067 217.62890625 62.01953125 C225.93902213 59.50627488 238.54187804 58.97799044 246.375 63.0625 C252.0001262 67.08207399 255.76098902 71.1546045 257 78 C258.06329529 77.99000725 258.06329529 77.99000725 259.14807129 77.97981262 C265.85609795 77.91949033 272.56404797 77.87391892 279.27228546 77.84456348 C282.72037914 77.82896372 286.16824712 77.80783107 289.61621094 77.77368164 C293.58786235 77.73459545 297.55942505 77.72024371 301.53125 77.70703125 C303.37233337 77.68380547 303.37233337 77.68380547 305.25061035 77.66011047 C313.16626752 77.65856504 318.88042428 78.41328967 325.6875 82.6875 C332.73885063 89.73885063 334.12775438 96.50228929 334.25 106.3125 C334.16222822 114.45931723 333.47734427 120.60630653 327.9375 126.8125 C318.85512314 134.71081832 308.67275669 134.54827771 297.2734375 134.390625 C295.67347933 134.38315008 294.07351191 134.37746307 292.47354126 134.37347412 C288.29439314 134.35831596 284.115815 134.31912125 279.93688965 134.2746582 C275.65982775 134.23349146 271.38267233 134.21541775 267.10546875 134.1953125 C258.73671972 134.15261542 250.36843108 134.08448607 242 134 C241.85304688 135.10754639 241.70609375 136.21509277 241.5546875 137.35620117 C240.07720415 147.06194015 232.6708381 155.32381915 225.28515625 161.4140625 C217.5819999 166.34860275 208.11503059 167.27017577 199.1875 167.375 C198.48254395 167.38885742 197.77758789 167.40271484 197.05126953 167.41699219 C190.49051404 167.35820683 185.19033292 165.4795211 180.1875 161.0625 C179.62417969 160.57910156 179.06085938 160.09570312 178.48046875 159.59765625 C175.91292866 156.8268808 175 154.78525761 175 151 C173.31583984 151.01740234 173.31583984 151.01740234 171.59765625 151.03515625 C157.968562 151.13100721 157.968562 151.13100721 152.625 150.4375 C149.05407285 149.74440854 149.05407285 149.74440854 146 151 C143.86581389 151.10449764 141.72850325 151.1486437 139.59179688 151.16113281 C138.94578522 151.16609772 138.29977356 151.17106262 137.63418579 151.17617798 C135.4956963 151.19078545 133.35728121 151.19760254 131.21875 151.203125 C129.72481282 151.20888176 128.23087565 151.21463942 126.73693848 151.22039795 C123.59968727 151.23090677 120.46246164 151.23674884 117.32519531 151.24023438 C113.3320809 151.24569028 109.33931247 151.26965577 105.34630585 151.29820633 C102.25593126 151.31697038 99.16563728 151.32204577 96.07521057 151.32357025 C94.6050072 151.32657116 93.13480437 151.33451156 91.66465759 151.34775543 C81.76806945 151.430476 72.54149366 151.03213804 63.6875 146.1875 C61.04293415 144.71075939 61.04293415 144.71075939 58.1875 145.5625 C56.3995488 146.36883094 54.61305567 147.17848243 52.83203125 148 C42.54391574 152.68738261 32.17433737 153.32647305 21.171875 150.515625 C14.47522546 148.79325258 14.47522546 148.79325258 8 150 C7.99453156 150.97599655 7.99453156 150.97599655 7.98895264 151.97171021 C7.94709428 158.75298591 7.87772464 165.53358692 7.79248047 172.31445312 C7.76428068 174.84400683 7.74306127 177.37364849 7.72900391 179.90332031 C7.70756171 183.54277546 7.6609014 187.18117415 7.609375 190.8203125 C7.60814636 191.94865509 7.60691772 193.07699768 7.60565186 194.23953247 C7.48988449 200.46655152 7.15924817 204.25368563 3 209 C2.48179687 209.59167969 1.96359375 210.18335938 1.4296875 210.79296875 C-5.72833033 217.21360283 -13.69074092 218.50062639 -23.10546875 218.22265625 C-31.6041929 217.56890824 -37.97666498 215.64604845 -43.75 209 C-46.97657902 204.69789465 -48.23411364 201.97659091 -48.4140625 196.578125 C-48.45273438 195.55332031 -48.49140625 194.52851563 -48.53125 193.47265625 C-48.5621875 192.40917969 -48.593125 191.34570312 -48.625 190.25 C-48.66367188 189.17105469 -48.70234375 188.09210938 -48.7421875 186.98046875 C-48.83634631 184.32048225 -48.92197387 181.6605006 -49 179 C-51.70936488 180.04834722 -54.16975244 181.09869328 -56.6875 182.5625 C-62.32185497 185.00759744 -68.19891092 185.90897452 -74.125 183.9375 C-82.98161142 179.96178666 -91.82826855 172.26265445 -96.2265625 163.578125 C-98.04197913 157.52673622 -98.28571274 150.83679061 -95.65625 145.03515625 C-94.59480102 143.330329 -93.4833642 141.65505844 -92.3125 140.0234375 C-90.72790445 137.98249212 -90.72790445 137.98249212 -91 135 C-92.12905762 134.9906543 -93.25811523 134.98130859 -94.42138672 134.97167969 C-98.6524042 134.93149108 -102.88271641 134.86565536 -107.11328125 134.79248047 C-108.93643054 134.76443698 -110.75969766 134.74314064 -112.58300781 134.72900391 C-135.39209324 134.54163464 -135.39209324 134.54163464 -143.125 127.375 C-145 125 -145 125 -145 123 C-145.66 123 -146.32 123 -147 123 C-149.59925123 117.0433826 -150.30130131 111.85924602 -150.3125 105.4375 C-150.31765625 104.72988525 -150.3228125 104.02227051 -150.328125 103.29321289 C-150.25514748 97.66286687 -149.55028391 92.10056781 -147 87 C-146.34 87 -145.68 87 -145 87 C-144.814375 86.4225 -144.62875 85.845 -144.4375 85.25 C-142.1024767 81.59518092 -138.27530986 79.66236673 -134.14788818 78.46083069 C-131.97371292 77.99436009 -130.00327762 77.84266341 -127.78222656 77.79467773 C-126.96167786 77.77473251 -126.14112915 77.75478729 -125.29571533 77.73423767 C-124.41953552 77.71752518 -123.54335571 77.70081268 -122.640625 77.68359375 C-121.73624695 77.66281265 -120.8318689 77.64203156 -119.90008545 77.62062073 C-117.01679945 77.5553406 -114.1334239 77.49634048 -111.25 77.4375 C-109.29295956 77.39429429 -107.33592812 77.35067935 -105.37890625 77.30664062 C-100.5860288 77.19968128 -95.79306146 77.09835327 -91 77 C-91.67164494 74.13287853 -92.48322606 71.90667415 -94 69.375 C-97.82214288 62.92513388 -98.28648212 56.08508137 -96.421875 48.71484375 C-92.83596454 40.77694196 -85.66356631 33.09911686 -78 29 C-70.2707365 26.55296243 -62.03614227 27.12837338 -54.75 30.5 C-53.1627042 31.32576082 -51.578076 32.15675328 -50 33 C-49.67 33 -49.34 33 -49 33 C-49.00169189 31.98015015 -49.00169189 31.98015015 -49.00341797 30.93969727 C-48.99119703 27.81299678 -48.93339889 24.68866561 -48.875 21.5625 C-48.87886719 19.95858398 -48.87886719 19.95858398 -48.8828125 18.32226562 C-48.65991253 9.21122955 -45.74057717 4.29066204 -39.875 -2.4375 C-28.65937935 -8.53294601 -10.25634966 -8.0043588 0 0 Z " fill="#EFF2F2" transform="translate(158,144)"/>
<path d="M0 0 C4.546238 2.03886628 7.56747505 5.11859235 10.296875 9.29296875 C12.70222129 16.05084643 12.296875 20.68224483 12.296875 28.29296875 C2.066875 28.29296875 -8.163125 28.29296875 -18.703125 28.29296875 C-16.53645833 34.12630208 -16.53645833 34.12630208 -13.703125 35.29296875 C-8.37951214 35.93330383 -8.37951214 35.93330383 -3.8359375 33.7890625 C-0.94379084 31.76032226 1.05662437 31.99165623 4.546875 32.10546875 C6.16335937 32.14607422 6.16335937 32.14607422 7.8125 32.1875 C8.63234375 32.22230469 9.4521875 32.25710938 10.296875 32.29296875 C9.9433678 38.18475541 8.68053312 41.28238791 4.296875 45.29296875 C-3.07609979 48.18949456 -13.09415339 48.94719853 -20.640625 46.23046875 C-26.17252409 42.73069585 -30.19639696 38.00883148 -32.2265625 31.72265625 C-33.62536769 24.59104288 -34.05602602 16.97065185 -30.703125 10.35546875 C-29.28125 8.26953125 -29.28125 8.26953125 -27.703125 6.29296875 C-27.20296875 5.59945312 -26.7028125 4.9059375 -26.1875 4.19140625 C-19.70620452 -3.13654495 -8.83335066 -2.31045733 0 0 Z " fill="#0A4745" transform="translate(200.703125,226.70703125)"/>
<path d="M0 0 C3.3 0 6.6 0 10 0 C10.61875 1.7015625 10.61875 1.7015625 11.25 3.4375 C12.34029649 6.38078865 13.5629862 9.1803452 14.9375 12 C17.97701878 18.65408166 19.36259394 25.90167052 21 33 C21.66 33 22.32 33 23 33 C23.226875 31.783125 23.45375 30.56625 23.6875 29.3125 C24.84308643 24.06283594 26.7763335 19.22224245 28.76171875 14.23828125 C30.19715656 10.48440761 31.3481632 6.6984815 32.421875 2.828125 C33 1 33 1 34 0 C35.68608966 -0.07205511 37.37500659 -0.08386068 39.0625 -0.0625 C39.98160156 -0.05347656 40.90070313 -0.04445312 41.84765625 -0.03515625 C42.55792969 -0.02355469 43.26820313 -0.01195312 44 0 C44.94261784 10.50844334 42.53912289 17.62129219 38 27 C37.10918795 29.0557201 36.23328569 31.11798872 35.375 33.1875 C34.96894531 34.15816406 34.56289063 35.12882812 34.14453125 36.12890625 C33.0254087 38.93626146 32.0372838 41.76483188 31.0625 44.625 C28.80982787 50.8925152 26.09100459 57.48160957 20.828125 61.76953125 C17.09152899 63.39526018 13.67908731 63.32661698 9.6875 63.1875 C8.57665039 63.16719727 8.57665039 63.16719727 7.44335938 63.14648438 C5.62858925 63.11135979 3.81419712 63.05755972 2 63 C1.97311849 61.35425434 1.95365877 59.70838587 1.9375 58.0625 C1.92589844 57.14597656 1.91429687 56.22945313 1.90234375 55.28515625 C2 53 2 53 3 52 C4.68183948 51.76712992 6.3712416 51.58735834 8.0625 51.4375 C8.98160156 51.35371094 9.90070313 51.26992188 10.84765625 51.18359375 C11.55792969 51.12300781 12.26820313 51.06242187 13 51 C14.45462074 46.36173229 13.4234236 43.73667852 11.54296875 39.34375 C11.27994461 38.7189978 11.01692047 38.09424561 10.7459259 37.45056152 C9.90533666 35.46158261 9.04689296 33.48091642 8.1875 31.5 C7.62052944 30.1684856 7.05476146 28.83645845 6.49023438 27.50390625 C5.44908738 25.04935108 4.39978751 22.5989576 3.34448242 20.15039062 C2.90080322 19.11076172 2.45712402 18.07113281 2 17 C1.61513428 16.10192627 1.23026855 15.20385254 0.83374023 14.27856445 C-0.24636954 11.32668611 -0.19382229 8.81891438 -0.125 5.6875 C-0.10695313 4.61886719 -0.08890625 3.55023438 -0.0703125 2.44921875 C-0.04710937 1.64097656 -0.02390625 0.83273438 0 0 Z " fill="#0B4846" transform="translate(350,226)"/>
<path d="M0 0 C1.44230259 -0.02146428 2.88447907 -0.05542921 4.32617188 -0.10253906 C18.75883522 -0.56971777 18.75883522 -0.56971777 24.69165039 4.79663086 C29.70127201 10.44016492 31.27377397 15.17421182 31.21704102 22.69799805 C31.21562607 23.40402664 31.21421112 24.11005524 31.2127533 24.83747864 C31.20716241 27.08920555 31.19461164 29.34083251 31.18188477 31.5925293 C31.17686858 33.12052265 31.17230588 34.64851757 31.16821289 36.17651367 C31.15719597 39.91939064 31.13993764 43.66219303 31.11938477 47.4050293 C26.82938477 47.4050293 22.53938477 47.4050293 18.11938477 47.4050293 C18.09360352 45.28581055 18.06782227 43.1665918 18.04125977 40.9831543 C18.0028159 38.92442703 17.95766381 36.86594828 17.91186523 34.80737305 C17.88368866 33.37975993 17.86245749 31.95199176 17.84838867 30.52416992 C17.82691085 28.46802598 17.78024502 26.41373927 17.72875977 24.3581543 C17.7078125 23.12226563 17.68686523 21.88637695 17.6652832 20.61303711 C17.3447251 16.85908334 17.3447251 16.85908334 13.11938477 13.4050293 C6.18938477 12.9100293 6.18938477 12.9100293 -0.88061523 12.4050293 C-0.88061523 23.9550293 -0.88061523 35.5050293 -0.88061523 47.4050293 C-5.17061523 47.4050293 -9.46061523 47.4050293 -13.88061523 47.4050293 C-13.9052587 40.8722359 -13.92344815 34.33946932 -13.93554688 27.80664062 C-13.9405884 25.58235198 -13.94742146 23.35806667 -13.95605469 21.13378906 C-13.96812822 17.94424621 -13.97384519 14.75474701 -13.97827148 11.56518555 C-13.98343277 10.56415298 -13.98859406 9.56312042 -13.99391174 8.53175354 C-13.99398727 7.61087448 -13.99406281 6.68999542 -13.99414062 5.74121094 C-13.99636124 4.92624649 -13.99858185 4.11128204 -14.00086975 3.2716217 C-13.66315006 -1.97046835 -4.12982077 0.04613023 0 0 Z " fill="#0C4A48" transform="translate(128.880615234375,225.594970703125)"/>
<path d="M0 0 C0.73605469 0.01353516 1.47210938 0.02707031 2.23046875 0.04101562 C4.02896743 0.07605131 5.82708422 0.12984712 7.625 0.1875 C7.625 3.8175 7.625 7.4475 7.625 11.1875 C3.995 11.5175 0.365 11.8475 -3.375 12.1875 C-3.705 14.1675 -4.035 16.1475 -4.375 18.1875 C-0.745 18.1875 2.885 18.1875 6.625 18.1875 C6.625 22.1475 6.625 26.1075 6.625 30.1875 C2.995 30.1875 -0.635 30.1875 -4.375 30.1875 C-4.375 41.7375 -4.375 53.2875 -4.375 65.1875 C-8.665 65.1875 -12.955 65.1875 -17.375 65.1875 C-17.375 53.6375 -17.375 42.0875 -17.375 30.1875 C-20.015 30.1875 -22.655 30.1875 -25.375 30.1875 C-26.375 29.1875 -26.375 29.1875 -26.47265625 26.68359375 C-26.46105469 25.67425781 -26.44945312 24.66492188 -26.4375 23.625 C-26.42847656 22.61308594 -26.41945313 21.60117188 -26.41015625 20.55859375 C-26.39855469 19.77613281 -26.38695312 18.99367187 -26.375 18.1875 C-23.405 18.1875 -20.435 18.1875 -17.375 18.1875 C-17.40980469 17.52363281 -17.44460938 16.85976562 -17.48046875 16.17578125 C-17.76435179 6.91578697 -17.76435179 6.91578697 -14.375 3.1875 C-9.4273309 0.10265812 -5.62988895 -0.1985223 0 0 Z " fill="#094746" transform="translate(336.375,207.8125)"/>
<path d="M0 0 C4.62 0 9.24 0 14 0 C14 3.3 14 6.6 14 10 C17.96 10 21.92 10 26 10 C26 13.96 26 17.92 26 22 C22.04 22 18.08 22 14 22 C14.33 29.59 14.66 37.18 15 45 C18.63 45.33 22.26 45.66 26 46 C26 49.63 26 53.26 26 57 C23.12340174 57.1356886 20.25326537 57.23440753 17.375 57.3125 C16.56675781 57.35439453 15.75851563 57.39628906 14.92578125 57.43945312 C10.70025831 57.52533774 7.89680253 57.38988141 4.5390625 54.66796875 C0.57794587 50.50574927 -0.24835899 48.45023234 -0.1953125 42.80078125 C-0.18564453 40.98803711 -0.18564453 40.98803711 -0.17578125 39.13867188 C-0.15902344 37.87603516 -0.14226562 36.61339844 -0.125 35.3125 C-0.11597656 34.03826172 -0.10695312 32.76402344 -0.09765625 31.45117188 C-0.07405641 28.30059373 -0.04113194 25.15039017 0 22 C-2.64 22 -5.28 22 -8 22 C-8 18.04 -8 14.08 -8 10 C-5.36 10 -2.72 10 0 10 C0 6.7 0 3.4 0 0 Z " fill="#0D4A48" transform="translate(226,216)"/>
<path d="M0 0 C21.78 0 43.56 0 66 0 C66 4.62 66 9.24 66 14 C57.54232269 14.02255381 49.08466859 14.0409167 40.62696934 14.05181217 C36.70011342 14.05704031 32.77327906 14.06413669 28.84643555 14.07543945 C25.05985743 14.0862708 21.2733001 14.09227736 17.48670769 14.09487724 C16.03895681 14.09673105 14.59120712 14.10035081 13.14346504 14.10573006 C11.12242865 14.11294367 9.10137152 14.11340808 7.08032227 14.11352539 C5.35157616 14.11685631 5.35157616 14.11685631 3.58790588 14.12025452 C1 14 1 14 0 13 C0 8.71 0 4.42 0 0 Z " fill="#05B3B0" transform="translate(30,243)"/>
<path d="M0 0 C20.46 0 40.92 0 62 0 C62 4.29 62 8.58 62 13 C61 14 61 14 58.37413025 14.12025452 C57.20386795 14.11803391 56.03360565 14.11581329 54.82788086 14.11352539 C53.86205833 14.11374443 53.86205833 14.11374443 52.87672424 14.1139679 C50.73939697 14.11326885 48.60215587 14.10547691 46.46484375 14.09765625 C44.98653715 14.09579204 43.50822993 14.09436815 42.02992249 14.09336853 C38.13201198 14.08954359 34.23413851 14.07971352 30.33624268 14.06866455 C26.36153667 14.05844992 22.38682471 14.0538708 18.41210938 14.04882812 C10.608056 14.03809122 2.80403318 14.02101509 -5 14 C-4.42163139 8.21631389 -2.85937886 5.71875773 0 0 Z " fill="#04B4B0" transform="translate(408,243)"/>
<path d="M0 0 C4.29 0 8.58 0 13 0 C13 21.78 13 43.56 13 66 C8.71 66 4.42 66 0 66 C0 44.22 0 22.44 0 0 Z " fill="#0B4947" transform="translate(262,208)"/>
<path d="M0 0 C4.29 0 8.58 0 13 0 C13 15.51 13 31.02 13 47 C8.71 47 4.42 47 0 47 C0 31.49 0 15.98 0 0 Z " fill="#0EAEAB" transform="translate(131,293)"/>
<path d="M0 0 C4.29 0 8.58 0 13 0 C13 15.51 13 31.02 13 47 C8.71 47 4.42 47 0 47 C0 31.49 0 15.98 0 0 Z " fill="#0A4845" transform="translate(288,226)"/>
<path d="M0 0 C4.29 0 8.58 0 13 0 C13 15.51 13 31.02 13 47 C8.71 47 4.42 47 0 47 C0 31.49 0 15.98 0 0 Z " fill="#0FB4B2" transform="translate(131,160)"/>
<path d="M0 0 C1.61648437 0.04060547 1.61648437 0.04060547 3.265625 0.08203125 C4.08546875 0.11683594 4.9053125 0.15164063 5.75 0.1875 C5.3964928 6.07928666 4.13365812 9.17691916 -0.25 13.1875 C-7.77764044 16.14478732 -17.84707854 16.82509717 -25.5 13.9375 C-28.25 12.1875 -28.25 12.1875 -29.1875 10 C-29.208125 9.401875 -29.22875 8.80375 -29.25 8.1875 C-28.59 7.8575 -27.93 7.5275 -27.25 7.1875 C-27.25 6.5275 -27.25 5.8675 -27.25 5.1875 C-24.94631264 4.12097808 -22.60981813 3.12328995 -20.25 2.1875 C-19.59 2.5175 -18.93 2.8475 -18.25 3.1875 C-12.92638714 3.82783508 -12.92638714 3.82783508 -8.3828125 1.68359375 C-5.49066584 -0.34514649 -3.49025063 -0.11381252 0 0 Z " fill="#094643" transform="translate(205.25,258.8125)"/>
<path d="M0 0 C0.68767677 3.52243324 0.77437587 6.4826542 0 10 C-3.81444141 15.50022451 -8.53963316 20.13436646 -14 24 C-17.82792868 22.4404735 -20.36359864 20.16368164 -23 17 C-22.63178992 12.59045977 -19.6902579 10.07873834 -16.81640625 6.97265625 C-14.84522275 4.88955541 -14.84522275 4.88955541 -12.6875 2 C-8.6664459 -0.99241235 -4.84661437 -0.42349058 0 0 Z " fill="#0CAFAC" transform="translate(106,283)"/>
<path d="M0 0 C3.50647882 1.23940341 5.27640207 3.13659265 7.83984375 5.8125 C8.69964844 6.69679687 9.55945313 7.58109375 10.4453125 8.4921875 C13.62164831 12.01145514 14.91351801 13.92698792 14.77734375 18.625 C14.75929688 19.43324219 14.74125 20.24148437 14.72265625 21.07421875 C14.69945313 21.68910156 14.67625 22.30398437 14.65234375 22.9375 C11.03679674 23.89239616 8.2727982 23.92489667 4.65234375 22.9375 C1.98769652 21.1335574 -0.26116793 19.01901446 -2.53515625 16.75 C-3.12385498 16.17290283 -3.71255371 15.59580566 -4.3190918 15.0012207 C-8.34652454 10.73309274 -8.34652454 10.73309274 -8.3515625 7.19140625 C-6.67076455 3.41778594 -4.43967673 -0.11819439 0 0 Z " fill="#0DB4B1" transform="translate(91.34765625,194.0625)"/>
<path d="M0 0 C20.46 0 40.92 0 62 0 C62 4.29 62 8.58 62 13 C61 14 61 14 58.37413025 14.12025452 C57.20386795 14.11803391 56.03360565 14.11581329 54.82788086 14.11352539 C53.86205833 14.11374443 53.86205833 14.11374443 52.87672424 14.1139679 C50.73939697 14.11326885 48.60215587 14.10547691 46.46484375 14.09765625 C44.98653715 14.09579204 43.50822993 14.09436815 42.02992249 14.09336853 C38.13201198 14.08954359 34.23413851 14.07971352 30.33624268 14.06866455 C26.36153667 14.05844992 22.38682471 14.0538708 18.41210938 14.04882812 C10.608056 14.03809122 2.80403318 14.02101509 -5 14 C-4.42163139 8.21631389 -2.85937886 5.71875773 0 0 Z M0 2 C-0.53229326 3.26607607 -1.05044544 4.53810412 -1.5625 5.8125 C-1.85253906 6.52019531 -2.14257812 7.22789062 -2.44140625 7.95703125 C-3.25063024 10.1735067 -3.25063024 10.1735067 -2 13 C28.69 12.505 28.69 12.505 60 12 C60 9.03 60 6.06 60 3 C58.95689295 1.73349015 58.95689295 1.73349015 56.63987732 1.87974548 C55.07101524 1.8830764 55.07101524 1.8830764 53.47045898 1.88647461 C51.69873573 1.88658791 51.69873573 1.88658791 49.89122009 1.88670349 C47.96313255 1.89444542 47.96313255 1.89444542 45.99609375 1.90234375 C44.68794205 1.9037587 43.37979034 1.90517365 42.03199768 1.90663147 C38.54837141 1.9104559 35.06478661 1.92028554 31.58117676 1.93133545 C28.02873292 1.94155118 24.47628241 1.94612944 20.92382812 1.95117188 C13.94920168 1.96190788 6.97460283 1.9789834 0 2 Z " fill="#28B0AC" transform="translate(408,243)"/>
<path d="M0 0 C21.78 0 43.56 0 66 0 C66 4.62 66 9.24 66 14 C57.54232269 14.02255381 49.08466859 14.0409167 40.62696934 14.05181217 C36.70011342 14.05704031 32.77327906 14.06413669 28.84643555 14.07543945 C25.05985743 14.0862708 21.2733001 14.09227736 17.48670769 14.09487724 C16.03895681 14.09673105 14.59120712 14.10035081 13.14346504 14.10573006 C11.12242865 14.11294367 9.10137152 14.11340808 7.08032227 14.11352539 C5.35157616 14.11685631 5.35157616 14.11685631 3.58790588 14.12025452 C1 14 1 14 0 13 C0 8.71 0 4.42 0 0 Z M1 1 C1.33 4.63 1.66 8.26 2 12 C22.79 12 43.58 12 65 12 C65 8.37 65 4.74 65 1 C43.88 1 22.76 1 1 1 Z " fill="#39B1B1" transform="translate(30,243)"/>
<path d="M0 0 C0.33 0 0.66 0 1 0 C1.32760214 6.49137575 1.11324494 11.92953602 -1.24609375 18.02734375 C-1.99938833 19.99839951 -2.52663615 21.94569282 -3 24 C-4.32 23.34 -5.64 22.68 -7 22 C-6.54625 21.484375 -6.0925 20.96875 -5.625 20.4375 C-3.61799617 17.42699426 -2.87268191 14.49072763 -2 11 C-3.91750286 11.08743331 -5.83406665 11.1956189 -7.75 11.3125 C-9.35101563 11.39951172 -9.35101563 11.39951172 -10.984375 11.48828125 C-14.24884068 12.04222556 -15.47270911 12.97284668 -18 15 C-23.10463224 15.64820727 -24.88446778 15.85988942 -29 12.6875 C-31 10 -31 10 -31 7 C-20.77 7 -10.54 7 0 7 C0 4.69 0 2.38 0 0 Z " fill="#E4EFF1" transform="translate(213,248)"/>
<path d="M0 0 C0.94101563 0.00644531 1.88203125 0.01289063 2.8515625 0.01953125 C5.375 0.1875 5.375 0.1875 8.375 1.1875 C8.045 1.8475 7.715 2.5075 7.375 3.1875 C6.055 2.8575 4.735 2.5275 3.375 2.1875 C3.375 3.1775 3.375 4.1675 3.375 5.1875 C2.06233482 6.54118596 0.72932675 7.87549596 -0.625 9.1875 C-0.625 9.8475 -0.625 10.5075 -0.625 11.1875 C-1.718125 11.455625 -2.81125 11.72375 -3.9375 12 C-7.24192663 13.06413739 -8.57460422 13.53404664 -10.625 16.1875 C-10.625 15.5275 -10.625 14.8675 -10.625 14.1875 C-11.285 14.1875 -11.945 14.1875 -12.625 14.1875 C-12.625 14.8475 -12.625 15.5075 -12.625 16.1875 C-13.615 16.1875 -14.605 16.1875 -15.625 16.1875 C-15.58375 15.445 -15.5425 14.7025 -15.5 13.9375 C-15.62898134 11.09991048 -16.19551222 9.59976062 -17.625 7.1875 C-11.86080661 2.81466364 -7.40570432 -0.11220764 0 0 Z " fill="#074645" transform="translate(192.625,225.8125)"/>
<path d="M0 0 C22.44 0 44.88 0 68 0 C69.32815332 5.31261329 69.76224352 10.71326944 68 16 C67.34 16 66.68 16 66 16 C66 11.71 66 7.42 66 3 C44.22 3 22.44 3 0 3 C0 2.01 0 1.02 0 0 Z " fill="#CFF7F6" transform="translate(30,240)"/>
<path d="M0 0 C4.29 0 8.58 0 13 0 C13 3.63 13 7.26 13 11 C8.71 11 4.42 11 0 11 C0 7.37 0 3.74 0 0 Z " fill="#114C4A" transform="translate(288,208)"/>
<path d="M0 0 C3.51581925 1.24087738 5.32217401 3.14331972 7.90625 5.8125 C9.21335937 7.13894531 9.21335937 7.13894531 10.546875 8.4921875 C12.65625 10.9375 12.65625 10.9375 13.65625 13.9375 C10.96875 14.25 10.96875 14.25 7.65625 13.9375 C4.78125 11.625 4.78125 11.625 2.65625 8.9375 C2.65625 7.9475 2.65625 6.9575 2.65625 5.9375 C-1.03835876 6.99224665 -1.03835876 6.99224665 -3.40625 9.8125 C-3.56040306 12.16366748 -3.56040306 12.16366748 -1.40625 14.1875 C-0.725625 14.765 -0.045 15.3425 0.65625 15.9375 C0.32625 16.5975 -0.00375 17.2575 -0.34375 17.9375 C-1.71542605 16.72790384 -3.06568609 15.49398812 -4.40625 14.25 C-5.16035156 13.56550781 -5.91445312 12.88101563 -6.69140625 12.17578125 C-8.34375 9.9375 -8.34375 9.9375 -8.23046875 7.34765625 C-6.79341541 3.44165665 -4.46569153 -0.11908511 0 0 Z " fill="#0EB5B5" transform="translate(91.34375,194.0625)"/>
<path d="M0 0 C2.9375 2.3125 2.9375 2.3125 5 5 C5 5.99 5 6.98 5 8 C-0.61 8 -6.22 8 -12 8 C-11 3 -11 3 -9.375 1.1875 C-5.98279278 -0.50860361 -3.74493155 -0.52560443 0 0 Z " fill="#DFEBEB" transform="translate(194,237)"/>
<path d="M0 0 C1 4 1 4 -2 12 C19.12 12 40.24 12 62 12 C62 12.33 62 12.66 62 13 C40.22 13 18.44 13 -4 13 C-3.12288257 7.7372954 -2.1476409 4.66878456 0 0 Z " fill="#4DB4B3" transform="translate(407,244)"/>
<path d="M0 0 C0.33 0 0.66 0 1 0 C1.32760214 6.49137575 1.11324494 11.92953602 -1.24609375 18.02734375 C-1.99938833 19.99839951 -2.52663615 21.94569282 -3 24 C-4.32 23.34 -5.64 22.68 -7 22 C-6.54625 21.484375 -6.0925 20.96875 -5.625 20.4375 C-3.61799617 17.42699426 -2.87268191 14.49072763 -2 11 C-2.66 10.67 -3.32 10.34 -4 10 C-3.34 9.67 -2.68 9.34 -2 9 C-15.86 8.505 -15.86 8.505 -30 8 C-30.33 8.66 -30.66 9.32 -31 10 C-31 9.01 -31 8.02 -31 7 C-20.77 7 -10.54 7 0 7 C0 4.69 0 2.38 0 0 Z " fill="#D0E7E7" transform="translate(213,248)"/>
<path d="M0 0 C1.32 0 2.64 0 4 0 C4 15.18 4 30.36 4 46 C0.7 46 -2.6 46 -6 46 C-5.34 45.34 -4.68 44.68 -4 44 C-1.69 44 0.62 44 3 44 C3 30.47 3 16.94 3 3 C2.01 2.67 1.02 2.34 0 2 C0 1.34 0 0.68 0 0 Z " fill="#10B1AF" transform="translate(139,161)"/>
<path d="M0 0 C0.66 0.33 1.32 0.66 2 1 C1.319375 2.051875 1.319375 2.051875 0.625 3.125 C-2.99193173 9.52418691 -3.35121347 15.371912 -3.56640625 22.51757812 C-3.64492341 24.34907626 -3.81488435 26.1761901 -4 28 C-4.66 28.33 -5.32 28.66 -6 29 C-6.41860465 9.8372093 -6.41860465 9.8372093 -3 3 C-2.34 3 -1.68 3 -1 3 C-0.67 2.01 -0.34 1.02 0 0 Z " fill="#E5E5E5" transform="translate(14,228)"/>
<path d="M0 0 C-1 2 -1 2 -3.9375 3 C-5.4534375 3.495 -5.4534375 3.495 -7 4 C-7.66 4.66 -8.32 5.32 -9 6 C-9.99 6.495 -9.99 6.495 -11 7 C-11 8.65 -11 10.3 -11 12 C-12.98 12.33 -14.96 12.66 -17 13 C-14.20264007 5.83176518 -8.37281227 -1.46524215 0 0 Z " fill="#134B47" transform="translate(187,226)"/>
<path d="M0 0 C0.99 1.485 0.99 1.485 2 3 C2.9075 2.62875 3.815 2.2575 4.75 1.875 C8 1 8 1 10.375 1.875 C10.91125 2.24625 11.4475 2.6175 12 3 C12 3.99 12 4.98 12 6 C8.04 6 4.08 6 0 6 C0 4.02 0 2.04 0 0 Z " fill="#E6EEEF" transform="translate(332,220)"/>
<path d="M0 0 C6.27 0.33 12.54 0.66 19 1 C18.67 1.66 18.34 2.32 18 3 C15.28553021 3.31241455 12.66090639 3.51336592 9.9375 3.625 C9.17888672 3.66367187 8.42027344 3.70234375 7.63867188 3.7421875 C5.75952805 3.83673562 3.87979664 3.91946756 2 4 C1.34 2.68 0.68 1.36 0 0 Z " fill="#C3D9D9" transform="translate(233,272)"/>
<path d="M0 0 C1.1055189 0.93590504 2.20935453 1.87379858 3.3125 2.8125 C3.92738281 3.33457031 4.54226562 3.85664063 5.17578125 4.39453125 C7 6 7 6 8.40625 7.65625 C10.6116057 9.51566755 12.34161468 9.50270225 15.1875 9.6875 C16.08855469 9.75324219 16.98960938 9.81898438 17.91796875 9.88671875 C18.60503906 9.92410156 19.29210937 9.96148437 20 10 C20 10.33 20 10.66 20 11 C9.93553556 11.79317145 9.93553556 11.79317145 6.125 8.5625 C5.42375 7.716875 4.7225 6.87125 4 6 C1.32209104 5.12761142 1.32209104 5.12761142 -1 5 C-0.67 3.35 -0.34 1.7 0 0 Z " fill="#C5F4F4" transform="translate(86,207)"/>
<path d="M0 0 C1.32 0.66 2.64 1.32 4 2 C2.35 4.97 0.7 7.94 -1 11 C-1.66 11 -2.32 11 -3 11 C-3 9.68 -3 8.36 -3 7 C-2.34 7 -1.68 7 -1 7 C-1.33 5.02 -1.66 3.04 -2 1 C-1.34 0.67 -0.68 0.34 0 0 Z " fill="#D4F0EC" transform="translate(84,289)"/>
<path d="M0 0 C0.66 0 1.32 0 2 0 C0.125 5.75 0.125 5.75 -1 8 C-1.23029956 10.37123246 -1.41119942 12.74741943 -1.5625 15.125 C-1.64628906 16.40632813 -1.73007813 17.68765625 -1.81640625 19.0078125 C-1.90728516 20.48894531 -1.90728516 20.48894531 -2 22 C-2.33 22 -2.66 22 -3 22 C-3.02690104 19.20826945 -3.04679053 16.41679652 -3.0625 13.625 C-3.07087891 12.8309375 -3.07925781 12.036875 -3.08789062 11.21875 C-3.11328125 5.2265625 -3.11328125 5.2265625 -2 3 C-1.34 3 -0.68 3 0 3 C0 2.01 0 1.02 0 0 Z " fill="#D4E8E9" transform="translate(170,234)"/>
<path d="M0 0 C0.66 0 1.32 0 2 0 C1.67 0.99 1.34 1.98 1 3 C0.34 3 -0.32 3 -1 3 C-2.56633048 5.48770135 -3.04100928 6.65552204 -2.6875 9.625 C-2.08066352 11.98940187 -2.08066352 11.98940187 -1 14 C-1.99 14 -2.98 14 -4 14 C-5.52846661 10.94306678 -5.23242445 8.37015453 -5 5 C-3.5 2.5625 -3.5 2.5625 -2 1 C-1.34 1.33 -0.68 1.66 0 2 C0 1.34 0 0.68 0 0 Z " fill="#CFF5F6" transform="translate(87,193)"/>
<path d="M0 0 C0.33 0.66 0.66 1.32 1 2 C0.67 2.99 0.34 3.98 0 5 C0.66 5 1.32 5 2 5 C3.92152816 7.88229224 5.46387819 10.90127153 7 14 C5.87411986 13.04270084 4.7493285 12.08412105 3.625 11.125 C2.99851562 10.59132812 2.37203125 10.05765625 1.7265625 9.5078125 C0.44163349 8.38567993 -0.79371975 7.20628025 -2 6 C-1.44444444 1.44444444 -1.44444444 1.44444444 0 0 Z " fill="#35B1AF" transform="translate(85,198)"/>
<path d="M0 0 C0.99 0.33 1.98 0.66 3 1 C1.84826645 3.46800047 0.95216435 5.04783565 -1 7 C-3.625 6.625 -3.625 6.625 -6 6 C-4 4 -2 2 0 0 Z " fill="#184C49" transform="translate(206,265)"/>
<path d="M0 0 C3.3 0 6.6 0 10 0 C10 2.31 10 4.62 10 7 C9.34 5.68 8.68 4.36 8 3 C5.03 3 2.06 3 -1 3 C-0.67 2.01 -0.34 1.02 0 0 Z " fill="#2C5B58" transform="translate(384,226)"/>
<path d="M0 0 C2 3 2 3 1.9375 5.5 C0.70665597 8.78225076 -0.91736 9.49820102 -4 11 C-2.7874262 7.27566618 -1.49140021 3.62197194 0 0 Z " fill="#CFE2E2" transform="translate(387,253)"/>
<path d="M0 0 C3.80099658 1.4479987 5.21194352 3.75960987 7.625 7 C2.75 5.25 2.75 5.25 1.625 3 C-0.685 3.33 -2.995 3.66 -5.375 4 C-5.375 3.34 -5.375 2.68 -5.375 2 C-2.375 0 -2.375 0 0 0 Z " fill="#2BB1AB" transform="translate(91.375,194)"/>
<path d="M0 0 C0.99386719 0.00902344 1.98773438 0.01804687 3.01171875 0.02734375 C4.15060547 0.04474609 4.15060547 0.04474609 5.3125 0.0625 C5.3125 0.3925 5.3125 0.7225 5.3125 1.0625 C2.0125 1.0625 -1.2875 1.0625 -4.6875 1.0625 C-5.3475 2.3825 -6.0075 3.7025 -6.6875 5.0625 C-7.6775 5.5575 -7.6775 5.5575 -8.6875 6.0625 C-8.6875 4.4125 -8.6875 2.7625 -8.6875 1.0625 C-5.53819107 0.01273036 -3.29935544 -0.03881595 0 0 Z " fill="#C7F5F5" transform="translate(100.6875,281.9375)"/>
<path d="M0 0 C0.65226562 0.08121094 1.30453125 0.16242188 1.9765625 0.24609375 C1.9765625 0.57609375 1.9765625 0.90609375 1.9765625 1.24609375 C-0.9934375 1.24609375 -3.9634375 1.24609375 -7.0234375 1.24609375 C-7.2503125 2.05046875 -7.4771875 2.85484375 -7.7109375 3.68359375 C-8.360625 4.95203125 -8.360625 4.95203125 -9.0234375 6.24609375 C-11.6484375 7.05859375 -11.6484375 7.05859375 -14.0234375 7.24609375 C-10.14306042 1.06272865 -7.31447886 -0.52862753 0 0 Z " fill="#40B5B0" transform="translate(104.0234375,282.75390625)"/>
<path d="M0 0 C-3.96 3.465 -3.96 3.465 -8 7 C-8.33 5.68 -8.66 4.36 -9 3 C-8.34 3 -7.68 3 -7 3 C-7 2.34 -7 1.68 -7 1 C-3.375 -1.125 -3.375 -1.125 0 0 Z " fill="#D3E8E8" transform="translate(181,227)"/>
<path d="M0 0 C1.32 0.33 2.64 0.66 4 1 C3.34 1 2.68 1 2 1 C1.59250325 5.25731568 1.59250325 5.25731568 3.5 8.875 C3.995 9.24625 4.49 9.6175 5 10 C3.35 10 1.7 10 0 10 C0 6.7 0 3.4 0 0 Z " fill="#07403B" transform="translate(311,227)"/>
<path d="M0 0 C1.45792884 -0.05399736 2.91642712 -0.09279177 4.375 -0.125 C5.18710937 -0.14820313 5.99921875 -0.17140625 6.8359375 -0.1953125 C9 0 9 0 11 2 C10.37351562 2.04898438 9.74703125 2.09796875 9.1015625 2.1484375 C8.28429687 2.22320312 7.46703125 2.29796875 6.625 2.375 C5.81289063 2.44460937 5.00078125 2.51421875 4.1640625 2.5859375 C1.79665809 2.82892588 1.79665809 2.82892588 0 5 C0 3.35 0 1.7 0 0 Z " fill="#EFF9FA" transform="translate(333,220)"/>
<path d="M0 0 C2 1.8125 2 1.8125 4 4 C4 4.99 4 5.98 4 7 C2.68 6.67 1.36 6.34 0 6 C-1.125 2.25 -1.125 2.25 0 0 Z " fill="#E1F7F5" transform="translate(98,194)"/>
<path d="M0 0 C0.99 0.33 1.98 0.66 3 1 C3 1.66 3 2.32 3 3 C2.4225 3.04125 1.845 3.0825 1.25 3.125 C-2.13312465 4.44065958 -3.19222685 6.96552364 -5 10 C-5.33 9.01 -5.66 8.02 -6 7 C-4.78515625 5.17578125 -4.78515625 5.17578125 -3.0625 3.3125 C-2.49660156 2.68988281 -1.93070312 2.06726563 -1.34765625 1.42578125 C-0.90292969 0.95527344 -0.45820312 0.48476563 0 0 Z " fill="#28ADAA" transform="translate(89,290)"/>
<path d="M0 0 C-0.556875 0.268125 -1.11375 0.53625 -1.6875 0.8125 C-4.08933398 2.00699665 -4.08933398 2.00699665 -6.625 3.625 C-9 5 -9 5 -11 5 C-8.45499142 -0.63537615 -5.97208347 -0.11059414 0 0 Z " fill="#D4E9E8" transform="translate(194,237)"/>
<path d="M0 0 C0.33 0 0.66 0 1 0 C1.02708567 1.60407328 1.04643483 3.2082785 1.0625 4.8125 C1.07410156 5.70582031 1.08570312 6.59914063 1.09765625 7.51953125 C1 10 1 10 0 13 C-1.32 12.67 -2.64 12.34 -4 12 C-3.51917969 11.60167969 -3.03835937 11.20335937 -2.54296875 10.79296875 C-0.62608175 8.56549753 -0.52258357 7.21165331 -0.3125 4.3125 C-0.21388672 3.10013672 -0.21388672 3.10013672 -0.11328125 1.86328125 C-0.07589844 1.24839844 -0.03851563 0.63351562 0 0 Z " fill="#C0ECF1" transform="translate(106,284)"/>
<path d="M0 0 C2.12508244 3.18762365 2.5020163 5.26512223 3 9 C2.01 9 1.02 9 0 9 C0 6.03 0 3.06 0 0 Z " fill="#D2E6E6" transform="translate(362,267)"/>
<path d="M0 0 C1.98 0.99 1.98 0.99 4 2 C4 3.32 4 4.64 4 6 C2.68 6 1.36 6 0 6 C0 4.02 0 2.04 0 0 Z " fill="#DCEFF0" transform="translate(194,238)"/>
<path d="M0 0 C-6.4 4.06153846 -6.4 4.06153846 -9.4375 3.75 C-9.953125 3.5025 -10.46875 3.255 -11 3 C-4.04069767 -1.2122093 -4.04069767 -1.2122093 0 0 Z " fill="#275453" transform="translate(332,209)"/>
<path d="M0 0 C1.65 0 3.3 0 5 0 C3.63016497 3.16115776 3.0109362 3.9927092 0 6 C-1.125 2.25 -1.125 2.25 0 0 Z " fill="#28B2B0" transform="translate(95,298)"/>
<path d="M0 0 C0.33 0 0.66 0 1 0 C1 2.64 1 5.28 1 8 C0.01 8.495 0.01 8.495 -1 9 C-1.99 8.34 -2.98 7.68 -4 7 C-3.525625 6.401875 -3.05125 5.80375 -2.5625 5.1875 C-0.83534256 2.99617076 -0.83534256 2.99617076 0 0 Z " fill="#D5E4E4" transform="translate(210,263)"/>
<path d="M0 0 C0.95465783 2.16967689 1.14401212 3.56328793 0.3984375 5.82421875 C-0.35870385 7.5684743 -1.17609198 9.28627131 -2 11 C-2.95465783 8.83032311 -3.14401212 7.43671207 -2.3984375 5.17578125 C-1.64129615 3.4315257 -0.82390802 1.71372869 0 0 Z " fill="#32B5AF" transform="translate(407,244)"/>
<path d="M0 0 C1.36125 0.12375 1.36125 0.12375 2.75 0.25 C2.42 0.91 2.09 1.57 1.75 2.25 C-0.31640625 2.8828125 -0.31640625 2.8828125 -2.8125 3.375 C-4.05193359 3.62636719 -4.05193359 3.62636719 -5.31640625 3.8828125 C-5.95449219 4.00398437 -6.59257812 4.12515625 -7.25 4.25 C-4.83923194 1.28290085 -3.90322061 0.30024774 0 0 Z " fill="#2B5759" transform="translate(184.25,225.75)"/>
<path d="M0 0 C1.32 1.32 2.64 2.64 4 4 C3.67 4.99 3.34 5.98 3 7 C1.68 6.01 0.36 5.02 -1 4 C-0.67 2.68 -0.34 1.36 0 0 Z " fill="#D9E7EA" transform="translate(227,266)"/>
</svg>
