<?xml version="1.0" encoding="UTF-8"?>
<svg version="1.1" xmlns="http://www.w3.org/2000/svg" width="500" height="500">
<path d="M0 0 C1.69913795 -0.00642769 1.69913795 -0.00642769 3.43260193 -0.01298523 C5.81321551 -0.01868501 8.19384649 -0.01926128 10.57446289 -0.01489258 C14.15086803 -0.01174753 17.72643188 -0.03519699 21.30273438 -0.06054688 C35.02357157 -0.09805142 48.13999923 0.7340371 61.62109375 3.30078125 C62.36371964 3.43632919 63.10634552 3.57187714 63.87147522 3.71153259 C94.12203959 9.24482872 123.95330071 21.44146671 149.62109375 38.30078125 C150.59199951 38.93234131 150.59199951 38.93234131 151.58251953 39.57666016 C160.25523917 45.25549809 168.35287585 51.3460186 176.14453125 58.18359375 C178.41866387 60.30009708 178.41866387 60.30009708 180.62109375 61.30078125 C180.62109375 61.96078125 180.62109375 62.62078125 180.62109375 63.30078125 C181.48395996 63.67686523 181.48395996 63.67686523 182.36425781 64.06054688 C184.92550571 65.46806952 186.66166767 67.0824815 188.73046875 69.14453125 C189.48457031 69.89605469 190.23867188 70.64757812 191.015625 71.421875 C191.79292969 72.20691406 192.57023437 72.99195312 193.37109375 73.80078125 C194.16386719 74.58582031 194.95664062 75.37085937 195.7734375 76.1796875 C196.52238281 76.93121094 197.27132813 77.68273437 198.04296875 78.45703125 C198.7297168 79.14603516 199.41646484 79.83503906 200.12402344 80.54492188 C201.62109375 82.30078125 201.62109375 82.30078125 201.62109375 84.30078125 C202.28109375 84.30078125 202.94109375 84.30078125 203.62109375 84.30078125 C205.35361615 86.28386244 206.96382678 88.27292933 208.55859375 90.36328125 C209.04368408 90.99161865 209.52877441 91.61995605 210.02856445 92.26733398 C211.56860723 94.27164889 213.09643939 96.28474147 214.62109375 98.30078125 C215.10384766 98.93628906 215.58660156 99.57179688 216.08398438 100.2265625 C225.88267453 113.17531037 233.96415755 126.42912158 240.6640625 141.22363281 C241.55615973 143.15984792 242.4839918 145.0719347 243.43359375 146.98046875 C248.18446303 156.67309045 251.65156055 166.62887197 254.875 176.92382812 C255.50299554 178.92453643 256.15324473 180.91824014 256.80859375 182.91015625 C260.29873197 194.08950525 261.95031787 205.73146484 263.62109375 217.30078125 C263.79833984 218.51145264 263.97558594 219.72212402 264.15820312 220.96948242 C264.77595272 226.01971439 264.81987256 231.05790757 264.859375 236.140625 C264.8690329 237.17233826 264.8786908 238.20405151 264.88864136 239.26702881 C264.91339635 242.59081631 264.92602406 245.9144116 264.93359375 249.23828125 C264.93654449 250.36682526 264.93949524 251.49536926 264.9425354 252.65811157 C264.9517566 268.10499252 264.55710091 282.93733288 261.11621094 298.06103516 C260.67042093 300.07764141 260.33036388 302.11692292 260.00390625 304.15625 C255.23316374 333.59761305 241.31960114 366.17670111 223.62109375 390.30078125 C222.96109375 390.30078125 222.30109375 390.30078125 221.62109375 390.30078125 C221.51667969 390.8628125 221.41226562 391.42484375 221.3046875 392.00390625 C220.4949614 394.72458596 219.25906037 396.69335932 217.68359375 399.05078125 C217.15894531 399.85 216.63429688 400.64921875 216.09375 401.47265625 C215.36478516 402.37757813 215.36478516 402.37757813 214.62109375 403.30078125 C213.96109375 403.30078125 213.30109375 403.30078125 212.62109375 403.30078125 C212.39679688 403.831875 212.1725 404.36296875 211.94140625 404.91015625 C210.17019428 408.11720277 207.87885305 410.79001607 205.49609375 413.55078125 C204.97474854 414.15559326 204.45340332 414.76040527 203.91625977 415.38354492 C194.05844023 426.65024052 183.45935517 437.12978243 171.62109375 446.30078125 C169.82878221 447.75832195 168.03710049 449.21663752 166.24609375 450.67578125 C158.09434478 457.30078125 158.09434478 457.30078125 154.62109375 457.30078125 C154.62109375 457.96078125 154.62109375 458.62078125 154.62109375 459.30078125 C153.16703125 460.10515625 153.16703125 460.10515625 151.68359375 460.92578125 C148.90435935 462.50288649 146.29570592 464.21225615 143.68359375 466.05078125 C111.47363348 487.66893334 67.13638339 500.33639023 28.578125 500.50390625 C27.5332341 500.50960632 26.4883432 500.5153064 25.41178894 500.5211792 C23.20397945 500.53058466 20.99615621 500.53714536 18.78833008 500.54101562 C15.48817771 500.55062236 12.18867592 500.58164787 8.88867188 500.61328125 C-31.11806793 500.81168813 -69.59273208 490.54234844 -104.64648438 471.25146484 C-106.25505783 470.36874429 -107.87137403 469.50017353 -109.48828125 468.6328125 C-122.24678338 461.77776094 -122.24678338 461.77776094 -125.37890625 459.30078125 C-125.37890625 458.64078125 -125.37890625 457.98078125 -125.37890625 457.30078125 C-126.09175781 457.05070312 -126.80460937 456.800625 -127.5390625 456.54296875 C-150.11267492 446.66895397 -171.10185437 421.51612848 -185.37890625 402.30078125 C-187.32308928 399.88424389 -189.27287469 397.47280586 -191.234375 395.0703125 C-192.37890625 393.30078125 -192.37890625 393.30078125 -192.37890625 390.30078125 C-193.03890625 390.30078125 -193.69890625 390.30078125 -194.37890625 390.30078125 C-196.02559752 387.99908639 -197.52940143 385.71056082 -199.00390625 383.30078125 C-199.44831055 382.58108154 -199.89271484 381.86138184 -200.35058594 381.11987305 C-204.48476731 374.31711755 -208.09488346 367.3114638 -211.50585938 360.12353516 C-212.28935967 358.48773728 -213.10554438 356.86768937 -213.92578125 355.25 C-227.45445762 327.79260575 -235.38900897 294.74627385 -235.6171875 264.14453125 C-235.62525925 263.08455933 -235.63333099 262.0245874 -235.64164734 260.93249512 C-235.65542183 258.69020181 -235.66617336 256.44788811 -235.67407227 254.20556641 C-235.68548275 251.96429069 -235.70575605 249.72303971 -235.7355957 247.48193359 C-236.25091912 208.63403343 -227.01196924 170.91647086 -209.37890625 136.30078125 C-209.07162598 135.68122559 -208.7643457 135.06166992 -208.44775391 134.42333984 C-198.92398294 115.25002176 -186.01716889 95.11597743 -170.37890625 80.30078125 C-169.71890625 80.30078125 -169.05890625 80.30078125 -168.37890625 80.30078125 C-168.11045898 79.7085376 -167.84201172 79.11629395 -167.56542969 78.50610352 C-165.58497848 74.82515377 -162.57777303 72.16244201 -159.62890625 69.23828125 C-158.62670044 68.24127197 -158.62670044 68.24127197 -157.60424805 67.22412109 C-151.74894645 61.49363513 -145.55951537 56.39693756 -138.99169922 51.51220703 C-137.48793057 50.38267327 -136.01220622 49.21606884 -134.5390625 48.046875 C-121.00184746 37.43354652 -105.91897599 29.10467139 -90.23095703 22.14160156 C-88.5725385 21.38868917 -86.94029759 20.57872799 -85.3125 19.76171875 C-66.58497457 10.43536121 -45.8732823 5.80814061 -25.37890625 2.30078125 C-24.39525589 2.12741745 -23.41160553 1.95405365 -22.39814758 1.7754364 C-14.87937643 0.52178557 -7.61580609 -0.00660211 0 0 Z M-123.37890625 127.30078125 C-123.37890625 127.96078125 -123.37890625 128.62078125 -123.37890625 129.30078125 C-124.39984375 129.57921875 -124.39984375 129.57921875 -125.44140625 129.86328125 C-133.78491622 133.94627549 -139.33187712 142.68353014 -142.43783569 151.20658875 C-143.90463372 156.52601714 -143.68728851 161.95411857 -143.69775391 167.43286133 C-143.70779953 168.64057693 -143.71784515 169.84829254 -143.72819519 171.09260559 C-143.75373496 174.39552182 -143.77063519 177.69826696 -143.78362322 181.00124192 C-143.7993743 184.48848069 -143.82615152 187.97563572 -143.85165405 191.46281433 C-143.89843051 198.08977663 -143.93514071 204.71675561 -143.96832693 211.34379834 C-144.00611778 218.78330351 -144.05585174 226.22271325 -144.10631108 233.66214144 C-144.27609063 258.87502913 -144.41006713 284.08719852 -144.37890625 309.30078125 C-143.71890625 308.97078125 -143.05890625 308.64078125 -142.37890625 308.30078125 C-142.37890625 307.64078125 -142.37890625 306.98078125 -142.37890625 306.30078125 C-141.71890625 306.30078125 -141.05890625 306.30078125 -140.37890625 306.30078125 C-140.37890625 305.64078125 -140.37890625 304.98078125 -140.37890625 304.30078125 C-139.71890625 304.30078125 -139.05890625 304.30078125 -138.37890625 304.30078125 C-138.37890625 303.64078125 -138.37890625 302.98078125 -138.37890625 302.30078125 C-137.71890625 302.30078125 -137.05890625 302.30078125 -136.37890625 302.30078125 C-136.37890625 301.64078125 -136.37890625 300.98078125 -136.37890625 300.30078125 C-135.6621875 300.03136719 -134.94546875 299.76195312 -134.20703125 299.484375 C-131.36862843 298.2964799 -128.810234 296.86865526 -126.12890625 295.36328125 C-120.94462156 292.72370101 -116.18741397 291.50149557 -110.45703125 290.609375 C-109.28648193 290.4154718 -109.28648193 290.4154718 -108.09228516 290.21765137 C-106.18919279 289.90362655 -104.28422391 289.60100908 -102.37890625 289.30078125 C-102.3765179 288.55386709 -102.37412954 287.80695293 -102.37166882 287.03740501 C-102.31252062 268.85935841 -102.2369717 250.68144761 -102.14319134 232.50354576 C-102.09823482 223.71282526 -102.05881982 214.92214525 -102.0324707 206.13134766 C-102.00948946 198.46886305 -101.97609002 190.80650662 -101.93020469 183.14412367 C-101.90627414 179.08731857 -101.88754428 175.0306404 -101.88129234 170.97376633 C-101.87524069 167.15370857 -101.85523819 163.33397558 -101.82463074 159.51403809 C-101.81585176 158.11365642 -101.81212765 156.71323231 -101.81389809 155.31282425 C-101.81555522 153.3968564 -101.79705728 151.48090306 -101.77763367 149.56503296 C-101.77072022 147.95834779 -101.77072022 147.95834779 -101.76366711 146.31920433 C-101.30965003 142.75747084 -100.23536571 140.36151622 -98.37890625 137.30078125 C-94.49193231 134.79584249 -90.94551475 133.84442512 -86.37890625 133.30078125 C-86.28609375 131.44453125 -86.28609375 131.44453125 -86.19140625 129.55078125 C-86.15660156 128.8546875 -86.12179688 128.15859375 -86.0859375 127.44140625 C-86.47895626 124.56974914 -87.29524571 123.30859119 -89.37890625 121.30078125 C-100.39060284 119.238273 -113.61763896 122.10486119 -123.37890625 127.30078125 Z M-93.37890625 145.30078125 C-93.82465668 148.17572231 -93.82465668 148.17572231 -93.7396698 151.50798035 C-93.74585579 153.45783592 -93.74585579 153.45783592 -93.75216675 155.44708252 C-93.74154923 156.89074914 -93.7306448 158.33441367 -93.71948242 159.77807617 C-93.71863636 161.29574059 -93.71911089 162.81340624 -93.72080994 164.33106995 C-93.72167212 168.45483489 -93.70401034 172.57833906 -93.68308806 176.70204329 C-93.66435843 181.01019586 -93.66257376 185.31835414 -93.65901184 189.62654114 C-93.64968044 197.78633787 -93.62505187 205.9460143 -93.59496337 214.10575801 C-93.56145341 223.39463026 -93.54494193 232.68350819 -93.52987707 241.97242582 C-93.49850324 261.08194589 -93.4457215 280.1913539 -93.37890625 299.30078125 C-93.95007172 299.29063492 -94.52123718 299.28048859 -95.10971069 299.27003479 C-97.72804542 299.22945728 -100.34631369 299.20445954 -102.96484375 299.1796875 C-103.86323975 299.16345337 -104.76163574 299.14721924 -105.68725586 299.13049316 C-117.27170954 299.04839027 -124.97944835 303.01655124 -133.25390625 311.0390625 C-141.99090914 320.33818874 -144.36457979 329.60753364 -144.37890625 342.30078125 C-143.70148662 351.04565289 -140.10035614 359.61812777 -134.37890625 366.30078125 C-133.71890625 366.30078125 -133.05890625 366.30078125 -132.37890625 366.30078125 C-132.37890625 366.96078125 -132.37890625 367.62078125 -132.37890625 368.30078125 C-123.38468433 377.29500317 -112.410597 379.40213681 -100.18236226 379.43452466 C-99.11854181 379.43229393 -98.05472137 379.43006321 -96.95866394 379.42776489 C-95.24284251 379.43010488 -95.24284251 379.43010488 -93.49235803 379.43249214 C-89.6631051 379.43647778 -85.83389189 379.43332194 -82.00463867 379.43017578 C-79.25811684 379.4309808 -76.51159669 379.43327523 -73.76507568 379.43548584 C-67.08306907 379.43992821 -60.4010737 379.43897409 -53.71906664 379.4360732 C-48.29066439 379.4338141 -42.86226528 379.43350884 -37.43386269 379.43459702 C-36.66106278 379.43475025 -35.88826286 379.43490348 -35.09204477 379.43506136 C-33.52214397 379.43538108 -31.95224317 379.43570529 -30.38234238 379.43603395 C-15.66962236 379.438884 -0.95690859 379.43560866 13.7558104 379.43023358 C26.38823544 379.42576154 39.0206513 379.42654569 51.65307617 379.43115234 C66.32119052 379.43649884 80.98929942 379.43861403 95.65741462 379.43554008 C97.21998608 379.43522152 98.78255755 379.43490715 100.34512901 379.43459702 C101.49838965 379.4343656 101.49838965 379.4343656 102.67494849 379.43412951 C108.10127632 379.43326492 113.5276007 379.43472592 118.95392799 379.43707657 C125.55997479 379.4398754 132.1660097 379.43913436 138.77205513 379.43379582 C142.14443159 379.43116062 145.5167717 379.43068553 148.88915062 379.43344498 C152.53804377 379.43615654 156.18688017 379.4327753 159.83576965 379.42776489 C160.91074371 379.42999561 161.98571776 379.43222634 163.09326679 379.43452466 C164.06479936 379.43191691 165.03633193 379.42930916 166.03730488 379.42662239 C166.88028671 379.42646004 167.72326853 379.42629769 168.59179527 379.42613041 C170.68997628 379.42934809 170.68997628 379.42934809 172.62109375 378.30078125 C173.87352011 374.54350218 173.75374308 371.05849233 173.73632812 367.14526367 C173.73630295 366.27531832 173.73627777 365.40537296 173.73625183 364.50906563 C173.73438623 361.4955963 173.72469572 358.48220324 173.71484375 355.46875 C173.71100723 353.24277278 173.70739491 351.01679517 173.70397949 348.79081726 C173.63207905 312.53140712 173.38724269 276.27205117 173.17571259 240.01325786 C173.11407773 229.43922783 173.05415725 218.86518825 172.99433613 208.29114783 C172.871742 186.6276817 172.74713329 164.96422759 172.62109375 143.30078125 C170.28123716 142.13085296 168.9145642 142.17346498 166.3072443 142.16935349 C165.39594606 142.16551234 164.48464781 142.1616712 163.54573447 142.15771365 C162.03423627 142.15901338 162.03423627 142.15901338 160.49220276 142.16033936 C158.89410378 142.15588267 158.89410378 142.15588267 157.26371998 142.15133595 C153.67002751 142.14261828 150.07636824 142.14113813 146.48266602 142.13964844 C143.91584196 142.1350225 141.3490186 142.12999815 138.78219604 142.12460327 C131.79266828 142.11100996 124.80314624 142.10499387 117.81360745 142.10059261 C113.45195408 142.09783226 109.09030292 142.09359533 104.72865105 142.08908844 C92.65968369 142.0768952 80.59071811 142.06659552 68.52174473 142.06321335 C67.74902312 142.06299378 66.97630151 142.06277422 66.1801641 142.062548 C65.40556525 142.06232972 64.6309664 142.06211144 63.83289486 142.06188655 C62.26318967 142.06144308 60.69348448 142.06099651 59.1237793 142.06054688 C58.34514678 142.06032545 57.56651425 142.06010402 56.76428681 142.05987588 C44.14052111 142.05592573 31.51681305 142.03846537 18.89306963 142.01518735 C5.9419174 141.99149771 -7.00920588 141.97901261 -19.96038014 141.97784543 C-27.2358556 141.9769274 -34.51125592 141.97114291 -41.78671074 141.95302582 C-48.62631499 141.93605438 -55.46577413 141.93435427 -62.30539322 141.94316483 C-64.82134063 141.94393905 -67.3372955 141.93954224 -69.8532238 141.92970657 C-73.27666648 141.91710369 -76.69959349 141.9228002 -80.12303162 141.93328857 C-81.12846636 141.92523217 -82.1339011 141.91717577 -83.16980356 141.90887523 C-84.08370955 141.91546507 -84.99761555 141.92205492 -85.93921566 141.92884445 C-86.7298484 141.92824736 -87.52048115 141.92765028 -88.33507246 141.92703509 C-90.92287903 142.40025496 -91.8088424 143.22078094 -93.37890625 145.30078125 Z " fill="#FBFBFB" transform="translate(235.37890625,-0.30078125)"/>
<path d="M0 0 C1.82738205 -0.00017372 1.82738205 -0.00017372 3.69168091 -0.00035095 C5.03355575 0.00979032 6.3754289 0.02015863 7.71730042 0.0307312 C9.13685409 0.03461146 10.55641025 0.03765714 11.97596741 0.03993225 C15.82521246 0.04900047 19.67427379 0.0712091 23.52344012 0.09687662 C26.73912474 0.11744736 29.95482678 0.13241038 33.17054039 0.14763629 C40.75798364 0.18397983 48.34529824 0.23181826 55.93263245 0.28610229 C63.75504525 0.34180653 71.57733809 0.375247 79.39990944 0.39820969 C86.12117867 0.41889227 92.84225331 0.45486321 99.56338364 0.50273407 C103.57541448 0.53106529 107.58724872 0.55329204 111.59937859 0.560215 C115.37284313 0.56727257 119.14570539 0.59339466 122.91895294 0.63404274 C124.30158246 0.64573356 125.68428816 0.65069883 127.0669651 0.64834785 C140.02091183 0.63361965 140.02091183 0.63361965 144.93434143 5.22946167 C150.71428913 11.79048339 150.24292082 16.83681008 150.37184143 25.35446167 C150.41760315 26.56618042 150.46336487 27.77789917 150.51051331 29.02633667 C150.59609858 35.85827454 150.22171522 40.37569112 145.71974182 45.67428589 C141.57851612 49.28150697 138.38199766 50.60414879 132.88264465 50.66424561 C131.05858597 50.69427673 131.05858597 50.69427673 129.19767761 50.72491455 C127.85762207 50.73184014 126.51756454 50.73838873 125.17750549 50.74459839 C123.75920744 50.76177213 122.34092287 50.78009203 120.9226532 50.79946899 C117.07018894 50.84732767 113.21785158 50.87495047 109.36515522 50.89589071 C106.94691071 50.90916594 104.52870228 50.92542382 102.11048126 50.94241714 C94.51309117 50.99422263 86.91579198 51.03231396 79.3182528 51.05284297 C70.60940204 51.07672399 61.90255387 51.14644823 53.19438004 51.25684536 C46.42959176 51.33958105 39.66536403 51.37855205 32.90007949 51.38644612 C28.87710355 51.39212561 24.85618858 51.41488206 20.83376312 51.48418808 C1.39353349 51.80131998 -13.7879245 50.07185936 -31.32015228 40.63595963 C-36.05417116 38.21076471 -40.9950505 36.30056175 -45.94065857 34.35446167 C-54.54162214 30.92751775 -54.54162214 30.92751775 -57.13597107 27.47164917 C-57.44276794 26.73172729 -57.74956482 25.99180542 -58.06565857 25.22946167 C-55.04320964 20.74502616 -51.97509906 18.97884814 -47.00315857 17.22946167 C-45.64429473 16.71984691 -44.28622367 16.20811345 -42.92893982 15.69430542 C-41.93434753 15.32281372 -41.93434753 15.32281372 -40.91966248 14.94381714 C-38.45949986 13.99590618 -36.07762311 12.91027839 -33.69065857 11.79196167 C-26.26061217 8.34549436 -18.65690153 5.30030064 -11.06565857 2.22946167 C-10.3254695 1.88789473 -9.58528044 1.54632778 -8.8226614 1.19441032 C-5.70460618 0.10309364 -3.29949143 -0.01255842 0 0 Z M-1.06565857 10.22946167 C-1.06565857 13.52946167 -1.06565857 16.82946167 -1.06565857 20.22946167 C22.16317394 20.87385012 45.38329077 21.33418571 68.62184143 21.35446167 C69.63981812 21.35695923 70.6577948 21.35945679 71.70661926 21.36203003 C74.57813543 21.36785 77.44954319 21.36647696 80.32106018 21.36227417 C81.18252151 21.36425812 82.04398285 21.36624207 82.93154907 21.36828613 C86.74094315 21.72516943 86.74094315 21.72516943 89.93434143 20.22946167 C89.93434143 16.92946167 89.93434143 13.62946167 89.93434143 10.22946167 C59.90434143 10.22946167 29.87434143 10.22946167 -1.06565857 10.22946167 Z M98.93434143 10.22946167 C98.93434143 20.45946167 98.93434143 30.68946167 98.93434143 41.22946167 C101.24434143 41.22946167 103.55434143 41.22946167 105.93434143 41.22946167 C105.93434143 30.99946167 105.93434143 20.76946167 105.93434143 10.22946167 C103.62434143 10.22946167 101.31434143 10.22946167 98.93434143 10.22946167 Z M115.93434143 10.22946167 C115.93434143 20.45946167 115.93434143 30.68946167 115.93434143 41.22946167 C120.76059143 41.35321167 120.76059143 41.35321167 125.68434143 41.47946167 C126.69206604 41.51587769 127.69979065 41.5522937 128.73805237 41.58981323 C133.96229427 41.71192184 133.96229427 41.71192184 138.51246643 39.40133667 C141.53182855 34.78934397 141.22149381 30.17323595 141.30934143 24.85446167 C141.34672424 24.00368042 141.38410706 23.15289917 141.42262268 22.27633667 C141.48143217 18.08126001 141.27792152 15.7930473 139.05543518 12.14743042 C134.55639448 9.38268826 130.78163481 9.68176334 125.62184143 9.91696167 C120.82652893 10.07164917 120.82652893 10.07164917 115.93434143 10.22946167 Z M-25.56565857 18.60446167 C-27.31556091 19.36629761 -27.31556091 19.36629761 -29.10081482 20.14352417 C-30.21327576 20.63336792 -31.32573669 21.12321167 -32.47190857 21.62789917 C-33.49606873 22.07826538 -34.52022888 22.52863159 -35.57542419 22.99264526 C-38.16017615 24.1114727 -38.16017615 24.1114727 -40.06565857 26.22946167 C-33.56728056 29.21706343 -27.04398705 32.14861911 -20.50315857 35.04196167 C-19.80061951 35.35592896 -19.09808044 35.66989624 -18.37425232 35.99337769 C-14.85448578 37.65637194 -14.85448578 37.65637194 -11.06565857 38.22946167 C-11.06565857 29.97946167 -11.06565857 21.72946167 -11.06565857 13.22946167 C-15.96528738 13.22946167 -21.14998773 16.65278395 -25.56565857 18.60446167 Z M-1.06565857 30.22946167 C-1.06565857 33.85946167 -1.06565857 37.48946167 -1.06565857 41.22946167 C10.65160931 41.25258382 22.3688718 41.2703761 34.0861578 41.28127384 C39.52636455 41.28650295 44.96655574 41.2936011 50.40675354 41.30490112 C55.65219845 41.31572902 60.89762835 41.32173829 66.14308357 41.32433891 C68.14905089 41.32619334 70.15501735 41.32981429 72.16097832 41.33519173 C74.96036967 41.34240086 77.75969822 41.34345267 80.55909729 41.34298706 C81.39706848 41.34658234 82.23503967 41.35017761 83.09840393 41.35388184 C86.81937573 41.70624872 86.81937573 41.70624872 89.93434143 40.22946167 C90.03224713 38.73208043 90.06409007 37.23003275 90.05934143 35.72946167 C90.06191956 34.91477417 90.06449768 34.10008667 90.06715393 33.26071167 C90.15885923 31.2341579 90.15885923 31.2341579 88.93434143 30.22946167 C86.13444423 30.13426799 83.35927969 30.10392223 80.55909729 30.11593628 C79.68112991 30.11579025 78.80316254 30.11564423 77.89859009 30.11549377 C74.98209708 30.11619323 72.0656671 30.12398712 69.14918518 30.13180542 C67.13279251 30.13366949 65.11639939 30.13509344 63.1000061 30.13609314 C57.78169005 30.13991923 52.46340113 30.14975028 47.14509583 30.16079712 C41.72263455 30.17100929 36.30016891 30.17559034 30.87770081 30.18063354 C20.2299024 30.19137247 9.58212417 30.20844998 -1.06565857 30.22946167 Z " fill="#E5E3E2" transform="translate(237.06565856933594,305.7705383300781)"/>
<path d="M0 0 C1.10601562 -0.01417969 2.21203125 -0.02835938 3.3515625 -0.04296875 C6.34776911 0.18542426 7.95034093 0.44854768 10.375 2.1875 C12.36568509 5.1171875 12.60271976 7.44502832 12.5 10.9375 C12.48195313 11.73671875 12.46390625 12.5359375 12.4453125 13.359375 C12.42210937 13.96265625 12.39890625 14.5659375 12.375 15.1875 C13.47908203 14.41212891 13.47908203 14.41212891 14.60546875 13.62109375 C15.58128906 12.96238281 16.55710937 12.30367187 17.5625 11.625 C18.52542969 10.96371094 19.48835938 10.30242187 20.48046875 9.62109375 C23.375 8.1875 23.375 8.1875 25.98828125 8.2734375 C30.26329461 9.91067666 33.14223186 13.03278663 36.375 16.1875 C37.19677734 16.95513672 37.19677734 16.95513672 38.03515625 17.73828125 C40.64128177 20.43151961 41.3652874 21.91554713 41.5 25.6875 C40.13420805 29.9366305 38.42759525 31.97836141 35.375 35.1875 C38.26635538 36.41413562 41.00804622 37.34844395 44.0625 38.125 C47.375 39.1875 47.375 39.1875 49.375 42.1875 C49.84613251 45.12991959 49.79120723 48.08624337 49.8125 51.0625 C49.84537109 51.86558594 49.87824219 52.66867188 49.91210938 53.49609375 C49.95092584 57.78002032 49.78017966 59.64370625 47.1484375 63.17578125 C44.45277261 65.13108748 42.80572413 65.96753037 39.5625 66.5 C38.77230469 66.64050781 37.98210937 66.78101563 37.16796875 66.92578125 C36.28044922 67.05533203 36.28044922 67.05533203 35.375 67.1875 C35.81972656 67.76757812 36.26445312 68.34765625 36.72265625 68.9453125 C41.30125218 75.26565221 41.30125218 75.26565221 41.625 79.3125 C38.91875462 85.53686438 33.58253995 91.28691136 27.375 94.1875 C23.52313946 94.11197332 20.69371108 93.102141 17.375 91.1875 C17.375 90.5275 17.375 89.8675 17.375 89.1875 C15.395 88.6925 15.395 88.6925 13.375 88.1875 C13.21064453 89.20070312 13.21064453 89.20070312 13.04296875 90.234375 C12.88441406 91.12640625 12.72585937 92.0184375 12.5625 92.9375 C12.33626953 94.26007813 12.33626953 94.26007813 12.10546875 95.609375 C11.23967172 98.66512924 10.82527491 100.11711267 8.375 102.1875 C5.2214781 102.78936814 2.13861614 102.74487624 -1.0625 102.6875 C-1.92166016 102.70296875 -2.78082031 102.7184375 -3.66601562 102.734375 C-7.55270894 102.71025278 -9.89074792 102.69293864 -13.14453125 100.453125 C-14.71775584 98.04555174 -15.37713293 96.2587467 -15.875 93.4375 C-16.02453125 92.63828125 -16.1740625 91.8390625 -16.328125 91.015625 C-16.42609375 90.41234375 -16.5240625 89.8090625 -16.625 89.1875 C-17.945 89.1875 -19.265 89.1875 -20.625 89.1875 C-20.625 89.8475 -20.625 90.5075 -20.625 91.1875 C-23.7422064 93.04298 -25.83186929 94.21548019 -29.50390625 94.0859375 C-33.44289971 92.95205953 -35.13700473 91.21198058 -37.9375 88.25 C-38.79988281 87.35410156 -39.66226563 86.45820313 -40.55078125 85.53515625 C-43.67068661 82.00396393 -43.67068661 82.00396393 -43.50390625 79.0234375 C-43.39949219 78.21132812 -43.29507813 77.39921875 -43.1875 76.5625 C-43.08566406 75.74523437 -42.98382813 74.92796875 -42.87890625 74.0859375 C-42.79511719 73.45945312 -42.71132812 72.83296875 -42.625 72.1875 C-41.965 72.1875 -41.305 72.1875 -40.625 72.1875 C-40.625 71.1975 -40.625 70.2075 -40.625 69.1875 C-39.965 69.1875 -39.305 69.1875 -38.625 69.1875 C-38.625 68.1975 -38.625 67.2075 -38.625 66.1875 C-39.30046875 66.08953125 -39.9759375 65.9915625 -40.671875 65.890625 C-41.56390625 65.74109375 -42.4559375 65.5915625 -43.375 65.4375 C-44.25671875 65.29828125 -45.1384375 65.1590625 -46.046875 65.015625 C-49.37229074 63.94746116 -50.63755043 63.08662368 -52.625 60.1875 C-53.20362731 57.17350135 -53.1836677 54.24799829 -53.125 51.1875 C-53.14046875 50.38054687 -53.1559375 49.57359375 -53.171875 48.7421875 C-53.14704081 44.97980831 -53.08176476 42.84178465 -50.890625 39.703125 C-48.47963322 38.09025463 -46.71888723 37.43936245 -43.875 36.9375 C-43.07578125 36.78796875 -42.2765625 36.6384375 -41.453125 36.484375 C-40.54820312 36.33742188 -40.54820312 36.33742188 -39.625 36.1875 C-40.65199767 33.42250627 -41.61561535 31.20023631 -43.375 28.8125 C-44.625 26.1875 -44.625 26.1875 -43.8125 22.375 C-43.420625 21.323125 -43.02875 20.27125 -42.625 19.1875 C-41.965 19.1875 -41.305 19.1875 -40.625 19.1875 C-40.35816406 18.59582031 -40.09132812 18.00414062 -39.81640625 17.39453125 C-37.84062757 13.73448223 -35.26690608 11.20466159 -31.625 9.1875 C-26.84211854 8.55795834 -23.52717124 9.57991529 -19.5625 12.25 C-18.923125 12.889375 -18.28375 13.52875 -17.625 14.1875 C-16.50997333 11.47957808 -15.48897402 8.77942207 -14.5625 6 C-13.625 3.1875 -13.625 3.1875 -12.625 1.1875 C-8.41789596 0.21328859 -4.30733596 0.02521859 0 0 Z M-6.625 9.1875 C-6.61597656 9.93515625 -6.60695312 10.6828125 -6.59765625 11.453125 C-6.83327794 19.27986283 -6.83327794 19.27986283 -9.0390625 21.80859375 C-12.75985785 24.04598831 -16.30842591 25.01407802 -20.625 24.1875 C-22.88364039 22.69379961 -24.64865532 21.06973303 -26.625 19.1875 C-29.50937779 20.48049694 -31.49719421 21.84691363 -33.625 24.1875 C-32.40672581 27.78426486 -32.40672581 27.78426486 -30 30.625 C-28.625 32.1875 -28.625 32.1875 -28.3125 35 C-28.63830334 38.32319403 -29.43930321 41.07504592 -30.625 44.1875 C-31.90697266 44.38666016 -31.90697266 44.38666016 -33.21484375 44.58984375 C-34.31957031 44.76644531 -35.42429688 44.94304687 -36.5625 45.125 C-37.66464844 45.29902344 -38.76679688 45.47304687 -39.90234375 45.65234375 C-42.52926929 45.90595136 -42.52926929 45.90595136 -43.625 47.1875 C-43.69648199 48.53993917 -43.70899454 49.89584367 -43.6875 51.25 C-43.666875 52.549375 -43.64625 53.84875 -43.625 55.1875 C-40.55605664 56.58247425 -38.41353827 57.19843768 -35 57.375 C-33.88625 57.643125 -32.7725 57.91125 -31.625 58.1875 C-29.22652007 62.21075666 -28.15917606 65.53642717 -28.625 70.1875 C-29.9375 72.42578125 -29.9375 72.42578125 -31.625 74.5 C-32.181875 75.19738281 -32.73875 75.89476562 -33.3125 76.61328125 C-33.745625 77.13277344 -34.17875 77.65226562 -34.625 78.1875 C-33.965 78.1875 -33.305 78.1875 -32.625 78.1875 C-32.2846875 79.1465625 -32.2846875 79.1465625 -31.9375 80.125 C-30.77249104 82.45943661 -30.77249104 82.45943661 -28 82.9375 C-27.21625 83.02 -26.4325 83.1025 -25.625 83.1875 C-25.625 82.5275 -25.625 81.8675 -25.625 81.1875 C-22.33016196 79.2866319 -19.43130171 78.4158781 -15.625 78.1875 C-12.34422154 79.51242976 -10.124964 80.687536 -7.625 83.1875 C-7.04769825 86.50970821 -6.88400988 89.82037151 -6.625 93.1875 C-3.325 93.1875 -0.025 93.1875 3.375 93.1875 C3.705 89.2275 4.035 85.2675 4.375 81.1875 C8.35178523 79.76721956 12.14523808 78.46335404 16.375 78.1875 C18.625 79.625 18.625 79.625 20.375 81.1875 C21.035 81.1875 21.695 81.1875 22.375 81.1875 C22.375 81.8475 22.375 82.5075 22.375 83.1875 C25.09175995 82.82037028 26.98563713 82.46005401 29.25 80.875 C30.55970118 79.26517267 30.55970118 79.26517267 30.3125 77.3125 C29.42564531 74.99363762 29.42564531 74.99363762 27.25 72.875 C25.375 70.1875 25.375 70.1875 25.5 66.75 C26.30217029 63.48402095 27.21980768 60.34502566 28.375 57.1875 C34.315 56.6925 34.315 56.6925 40.375 56.1875 C40.395625 54.723125 40.41625 53.25875 40.4375 51.75 C40.44910156 50.92628906 40.46070313 50.10257813 40.47265625 49.25390625 C40.60767348 47.19586062 40.60767348 47.19586062 39.375 46.1875 C37.11956376 45.94488335 34.86554477 45.80417867 32.6015625 45.6640625 C29.93858188 45.09409121 29.05976638 44.28579995 27.375 42.1875 C25.20400579 38.17116071 25.25405413 35.57787133 26.375 31.1875 C27.4375 28.8125 27.4375 28.8125 28.375 27.1875 C29.035 27.1875 29.695 27.1875 30.375 27.1875 C30.06881595 23.51329134 29.61728216 22.40614487 26.8125 19.875 C26.008125 19.318125 25.20375 18.76125 24.375 18.1875 C23.9625 18.63222656 23.55 19.07695312 23.125 19.53515625 C18.51302022 24.05448465 18.51302022 24.05448465 15.26953125 24.43359375 C11.72336101 24.01444042 8.34340866 23.20601789 5.375 21.1875 C3.54820894 17.53391788 3.73576174 13.20741656 3.375 9.1875 C0.075 9.1875 -3.225 9.1875 -6.625 9.1875 Z " fill="#E3E0E0" transform="translate(234.625,164.8125)"/>
<path d="M0 0 C1.11198257 -0.00953201 2.22396515 -0.01906403 3.36964417 -0.02888489 C4.57789352 -0.02797348 5.78614288 -0.02706207 7.03100586 -0.02612305 C8.27200546 -0.03040817 9.51300507 -0.0346933 10.79161072 -0.03910828 C13.42550698 -0.04486332 16.05901304 -0.04627496 18.69287109 -0.04101562 C21.38249489 -0.03639762 24.07166537 -0.04324102 26.76123047 -0.06152344 C30.64296154 -0.08612915 34.5242062 -0.09017398 38.40600586 -0.08862305 C39.6000856 -0.09783279 40.79416534 -0.10704254 42.02442932 -0.11653137 C50.48259691 -0.07007464 58.23972083 0.78890282 65.05834961 6.2121582 C65.68483398 6.69555664 66.31131836 7.17895508 66.95678711 7.67700195 C68.82787264 9.40839105 70.28158845 11.14621717 71.68334961 13.2746582 C71.68334961 13.9346582 71.68334961 14.5946582 71.68334961 15.2746582 C72.34334961 15.2746582 73.00334961 15.2746582 73.68334961 15.2746582 C77.76542749 23.43881396 78.428082 33.60966292 75.73413086 42.35668945 C73.46707853 47.12679641 70.73193696 50.83335896 66.68334961 54.2746582 C65.54677839 55.26175451 65.54677839 55.26175451 64.38724613 56.26879215 C55.02591917 63.21342476 43.01108733 62.84699918 31.88085938 62.77294922 C30.23352062 62.77678125 28.58618523 62.78240779 26.93885803 62.78967285 C23.41891916 62.80154012 19.89927903 62.80119971 16.3793354 62.79107857 C10.81072024 62.77541223 5.24240731 62.78926598 -0.32618713 62.80711365 C-11.13206155 62.83780958 -21.93784156 62.8394382 -32.74375153 62.83746338 C-46.52364169 62.83606646 -60.30346023 62.84641751 -74.08329731 62.8860411 C-79.61712204 62.90095761 -85.1506756 62.9007188 -90.68450439 62.88856328 C-94.12316843 62.88385194 -97.5617286 62.89137173 -101.00037575 62.90210724 C-102.59268647 62.90451226 -104.18501461 62.90178195 -105.7773056 62.89349937 C-107.95336845 62.88285743 -110.12863474 62.89064421 -112.30467224 62.90284729 C-114.1293838 62.90196783 -114.1293838 62.90196783 -115.99095821 62.90107059 C-122.08142134 63.5852354 -126.20555656 66.41543569 -130.00024414 71.0324707 C-132.14313297 74.68237631 -132.86915951 78.57818235 -133.67602539 82.70043945 C-134.31665039 85.2746582 -134.31665039 85.2746582 -136.31665039 87.2746582 C-139.37915039 87.0246582 -139.37915039 87.0246582 -142.31665039 86.2746582 C-144.51505249 81.877854 -143.48702108 76.97885704 -142.37915039 72.3996582 C-139.2739597 64.9176273 -132.46539185 58.00443636 -125.31665039 54.2746582 C-120.44909608 52.64960037 -116.24791683 52.02580927 -111.12626648 52.02983093 C-110.43722081 52.02756636 -109.74817515 52.02530179 -109.03824931 52.02296859 C-106.7477341 52.01770531 -104.45749363 52.02647706 -102.16699219 52.03515625 C-100.51718052 52.03404244 -98.86736926 52.03198319 -97.21755981 52.02905273 C-93.67304459 52.02434078 -90.12859568 52.02543997 -86.58408165 52.03082848 C-80.97290167 52.03845584 -75.36184863 52.02776266 -69.75068665 52.0136261 C-53.79749044 51.97593736 -37.84435205 51.95768911 -21.89111328 51.96923828 C-13.07379435 51.97546409 -4.25668086 51.96382718 4.56058758 51.93279296 C10.13187474 51.91418737 15.70257774 51.91741047 21.27385485 51.93696058 C24.74885487 51.94386823 28.22354184 51.9298345 31.69848251 51.91001129 C33.3020041 51.9049868 34.90557927 51.9083897 36.509058 51.92114449 C45.36744963 51.98656341 53.32995738 51.82452104 60.68334961 46.2746582 C64.53437076 41.99867703 66.44311343 37.54196229 66.83569336 31.79418945 C66.53386466 26.80240706 65.11244226 22.04637435 63.68334961 17.2746582 C63.02334961 17.2746582 62.36334961 17.2746582 61.68334961 17.2746582 C61.68334961 16.6146582 61.68334961 15.9546582 61.68334961 15.2746582 C56.72654043 12.70446085 52.68981191 11.029955 47.03857422 10.98754883 C45.93070053 10.97413452 44.82282684 10.96072021 43.68138123 10.94689941 C41.90151573 10.93898376 41.90151573 10.93898376 40.08569336 10.9309082 C38.85927628 10.9162854 37.63285919 10.9016626 36.36927795 10.88659668 C31.12503331 10.82435417 25.88067165 10.78469294 20.63623047 10.74291992 C16.80675867 10.70921772 12.97753777 10.66410185 9.14819336 10.6184082 C7.95959213 10.6131311 6.77099091 10.607854 5.54637146 10.60241699 C4.44164993 10.58900269 3.33692841 10.57558838 2.19873047 10.56176758 C1.22785995 10.55447632 0.25698944 10.54718506 -0.74330139 10.53967285 C-3.39098069 10.26700335 -5.0443369 9.62278457 -7.31665039 8.2746582 C-7.44165039 5.3996582 -7.44165039 5.3996582 -7.31665039 2.2746582 C-4.71388643 -0.32810575 -3.62472688 0.01702379 0 0 Z " fill="#DFDDDD" transform="translate(298.316650390625,232.725341796875)"/>
<path d="M0 0 C5.87795364 4.80440334 9.147611 10.72285011 10.34765625 18.15234375 C10.79111814 24.62233898 8.58394051 29.69179592 5 35 C0.62871137 39.94235959 -4.70282364 43.42084645 -11.34765625 44.31640625 C-17.59832871 44.61589751 -22.76172863 43.49218091 -28 40 C-34.1220106 34.29858555 -37.34052761 29.08080907 -38.03125 20.73046875 C-37.96351694 14.81229306 -36.17424394 9.77915748 -32.9375 4.875 C-31 3 -31 3 -29 3 C-29 2.34 -29 1.68 -29 1 C-19.69231515 -5.76922534 -9.81718781 -5.07245117 0 0 Z M-25 10 C-28.08961523 14.53143568 -28.79933815 18.66042117 -28 24 C-26.00818041 29.02697324 -24.17958162 32.00928108 -19.25 34.25 C-14.46714889 35.35373487 -10.81558673 34.76001305 -6.3125 32.875 C-2.3225878 29.63993605 0.1932524 25.1126414 1 20 C0.24224187 15.24059779 -1.4616418 11.65948879 -4.5 7.9375 C-10.75789368 3.43181655 -19.67638135 4.94256229 -25 10 Z " fill="#DEDCDB" transform="translate(247,196)"/>
<path d="M0 0 C0.67160001 -0.00170885 1.34320002 -0.0034177 2.03515154 -0.00517833 C4.26610473 -0.00844988 6.49675132 0.00249141 8.72767639 0.01345825 C10.33459974 0.01402287 11.94152361 0.01370481 13.54844666 0.01257324 C17.89711253 0.01200071 22.2456675 0.02373885 26.59430766 0.03772116 C31.14401226 0.05024517 35.69371955 0.05140033 40.24343872 0.05377197 C48.8528517 0.05998183 57.46221374 0.07638597 66.07160431 0.09647095 C75.8756842 0.11884533 85.67976655 0.12982725 95.48386562 0.13986182 C115.64597483 0.16075263 135.80803822 0.195919 155.97010803 0.24050903 C155.97010803 0.57050903 155.97010803 0.90050903 155.97010803 1.24050903 C155.42444026 1.24474097 154.87877249 1.24897291 154.31656933 1.25333309 C140.75438897 1.35872621 127.19224009 1.46761674 113.63011456 1.57984829 C107.07036122 1.63403675 100.51060331 1.6872382 93.95082092 1.73782349 C67.75633911 1.94069814 41.56109678 2.16249557 15.36925697 2.59636116 C13.13586597 2.63224757 10.90242169 2.66497268 8.66893578 2.69436455 C5.6060825 2.73566087 2.54368963 2.78919629 -0.51890564 2.84622192 C-1.4158206 2.85598871 -2.31273556 2.8657555 -3.23682976 2.87581825 C-7.5980155 2.97110107 -11.06057607 3.20882625 -15.02989197 5.24050903 C-15.02989197 5.90050903 -15.02989197 6.56050903 -15.02989197 7.24050903 C-15.68989197 7.24050903 -16.34989197 7.24050903 -17.02989197 7.24050903 C-17.35989197 7.90050903 -17.68989197 8.56050903 -18.02989197 9.24050903 C-18.02989197 8.58050903 -18.02989197 7.92050903 -18.02989197 7.24050903 C-18.68989197 6.91050903 -19.34989197 6.58050903 -20.02989197 6.24050903 C-13.7146511 1.61960108 -7.91371325 -0.0122031 0 0 Z " fill="#595857" transform="translate(187.02989196777344,284.7594909667969)"/>
<path d="M0 0 C2.3277176 2.02736694 3.8204515 3.5331739 4.9375 6.4375 C5.0207795 9.85195958 3.99127009 11.25342056 2 14 C1.13375 15.2375 1.13375 15.2375 0.25 16.5 C-2.51608145 19.57342384 -5.26196938 22.16747306 -9 24 C-13.31978424 24 -15.7908299 22.83888125 -19 20 C-17.68 20 -16.36 20 -15 20 C-14.34 18.35 -13.68 16.7 -13 15 C-13.99 14.67 -14.98 14.34 -16 14 C-16 13.01 -16 12.02 -16 11 C-15.34 11 -14.68 11 -14 11 C-14 11.66 -14 12.32 -14 13 C-10.65544834 11.97805366 -9.18809858 11.2410013 -7 8.4375 C-5 6 -5 6 -2.25 5.1875 C-1.5075 5.125625 -0.765 5.06375 0 5 C0 3.35 0 1.7 0 0 Z " fill="#D5D3D3" transform="translate(271,235)"/>
<path d="M0 0 C3 1 3 1 4 3 C4.06996014 4.70702735 4.08440154 6.41668003 4.0625 8.125 C4.05347656 9.03507813 4.04445312 9.94515625 4.03515625 10.8828125 C4.02355469 11.58148438 4.01195312 12.28015625 4 13 C2.1746875 13.3403125 2.1746875 13.3403125 0.3125 13.6875 C-3.96673292 14.73454635 -6.13425164 16.61320649 -9 20 C-9.33 20.33 -9.66 20.66 -10 21 C-10.39049893 24.36422219 -10.43330765 27.76543782 -10.55859375 31.1484375 C-10.60084579 32.2763974 -10.64309784 33.4043573 -10.68663025 34.5664978 C-11.28991393 53.20425805 -11.10951365 71.86100454 -11.06866455 90.50585938 C-11.05827451 95.76301667 -11.05383398 101.02017906 -11.04882812 106.27734375 C-11.03823242 116.51824217 -11.02125744 126.75911853 -11 137 C-11.66 137 -12.32 137 -13 137 C-13.07013185 122.10952535 -13.12300861 107.21906352 -13.15543652 92.32845879 C-13.17089467 85.41422881 -13.19196395 78.50010154 -13.22631836 71.5859375 C-13.25945333 64.9140087 -13.27685113 58.24220869 -13.28463173 51.57019424 C-13.29017691 49.02408289 -13.30100517 46.47797741 -13.31719017 43.93191147 C-13.33895112 40.36707665 -13.3419674 36.80268347 -13.34057617 33.23779297 C-13.351362 32.18402969 -13.36214783 31.13026642 -13.3732605 30.04457092 C-13.34646907 23.70481703 -12.77706906 19.0975001 -8.375 14.1875 C-4.74926622 12.37463311 -1.00645647 12.24826333 3 12 C2.69106068 10.3743193 2.3777305 8.74947252 2.0625 7.125 C1.88847656 6.22007813 1.71445313 5.31515625 1.53515625 4.3828125 C1.10036299 2.00043683 1.10036299 2.00043683 0 0 Z " fill="#918F90" transform="translate(146,121)"/>
<path d="M0 0 C0.33 0 0.66 0 1 0 C1.09340294 13.89918853 1.16369337 27.79832847 1.20724869 41.6977663 C1.22814993 48.15140457 1.25651431 54.60483245 1.30175781 61.05834961 C1.34512439 67.28288537 1.36911798 73.5072184 1.37950897 79.73189354 C1.38691683 82.11024354 1.40138204 84.48858207 1.42292023 86.86684608 C1.45183135 90.19053003 1.45596106 93.51336936 1.45410156 96.8371582 C1.47567322 98.32177299 1.47567322 98.32177299 1.49768066 99.83638 C1.49218201 100.74081848 1.48668335 101.64525696 1.48101807 102.57710266 C1.48470524 103.36339208 1.48839241 104.14968149 1.49219131 104.95979786 C0.81558659 107.76441949 -0.61256244 108.51711232 -3 110 C-3 109.34 -3 108.68 -3 108 C-18.84 108 -34.68 108 -51 108 C-51 107.67 -51 107.34 -51 107 C-34.5 106.67 -18 106.34 -1 106 C-0.67 71.02 -0.34 36.04 0 0 Z " fill="#A8A3A3" transform="translate(409,272)"/>
<path d="M0 0 C3 1 3 1 4 3 C4.06996014 4.70702735 4.08440154 6.41668003 4.0625 8.125 C4.05347656 9.03507813 4.04445312 9.94515625 4.03515625 10.8828125 C4.02355469 11.58148438 4.01195312 12.28015625 4 13 C2.1746875 13.3403125 2.1746875 13.3403125 0.3125 13.6875 C-3.96673292 14.73454635 -6.13425164 16.61320649 -9 20 C-9.33 20.33 -9.66 20.66 -10 21 C-10.15806531 22.92478813 -10.251135 24.8549921 -10.31640625 26.78515625 C-10.35830078 27.95498047 -10.40019531 29.12480469 -10.44335938 30.33007812 C-10.48267578 31.56177734 -10.52199219 32.79347656 -10.5625 34.0625 C-10.60568359 35.29806641 -10.64886719 36.53363281 -10.69335938 37.80664062 C-10.79984198 40.87097335 -10.90185424 43.93539073 -11 47 C-11.33 47 -11.66 47 -12 47 C-12.11625936 42.43771459 -12.18727408 37.87581072 -12.25 33.3125 C-12.28351563 32.01892578 -12.31703125 30.72535156 -12.3515625 29.39257812 C-12.36445313 28.14541016 -12.37734375 26.89824219 -12.390625 25.61328125 C-12.41157227 24.46641846 -12.43251953 23.31955566 -12.45410156 22.13793945 C-11.90258091 18.32681314 -10.66708643 16.72318721 -8 14 C-4.28558235 11.94729551 -1.20044297 11.80463056 3 12 C2.69106068 10.3743193 2.3777305 8.74947252 2.0625 7.125 C1.88847656 6.22007813 1.71445313 5.31515625 1.53515625 4.3828125 C1.10036299 2.00043683 1.10036299 2.00043683 0 0 Z " fill="#BFBDBD" transform="translate(146,121)"/>
<path d="M0 0 C0.99 0 1.98 0 3 0 C3 9.57 3 19.14 3 29 C1.68 28.67 0.36 28.34 -1 28 C-0.34 27.67 0.32 27.34 1 27 C0.67 18.09 0.34 9.18 0 0 Z " fill="#989596" transform="translate(225,317)"/>
<path d="M0 0 C1.32 0.33 2.64 0.66 4 1 C4.33 2.65 4.66 4.3 5 6 C3.87851563 6.14695313 3.87851563 6.14695313 2.734375 6.296875 C1.74953125 6.44640625 0.7646875 6.5959375 -0.25 6.75 C-1.22453125 6.88921875 -2.1990625 7.0284375 -3.203125 7.171875 C-6.65689627 8.19450001 -7.94416483 9.0304603 -10 12 C-10.44888571 14.86596259 -10.69425198 17.3815111 -10.75 20.25 C-10.77964844 20.99507812 -10.80929688 21.74015625 -10.83984375 22.5078125 C-10.9102343 24.33796672 -10.95741832 26.16898769 -11 28 C-11.33 28 -11.66 28 -12 28 C-12.10806144 25.08234109 -12.18732877 22.16868875 -12.25 19.25 C-12.28351563 18.425 -12.31703125 17.6 -12.3515625 16.75 C-12.44987912 10.65436963 -12.44987912 10.65436963 -10.28125 7.5 C-7.86471845 5.91104775 -6.0861227 5.25049224 -3.25 4.75 C-2.05117187 4.52570313 -2.05117187 4.52570313 -0.828125 4.296875 C-0.22484375 4.19890625 0.3784375 4.1009375 1 4 C0.67 2.68 0.34 1.36 0 0 Z " fill="#9C999A" transform="translate(194,197)"/>
<path d="M0 0 C0 2 0 2 -2 4.1875 C-4.27596265 6.38565196 -6.6615042 8.44008024 -9.0625 10.5 C-12.09646818 13.11115529 -14.51995277 15.85224775 -17 19 C-17.66 19 -18.32 19 -19 19 C-17.61314777 15.8804428 -15.99810509 13.74144201 -13.59375 11.328125 C-12.60181641 10.33232422 -12.60181641 10.33232422 -11.58984375 9.31640625 C-10.55537109 8.29353516 -10.55537109 8.29353516 -9.5 7.25 C-8.81035156 6.55261719 -8.12070313 5.85523437 -7.41015625 5.13671875 C-6.74886719 4.47800781 -6.08757812 3.81929688 -5.40625 3.140625 C-4.80103516 2.53766602 -4.19582031 1.93470703 -3.57226562 1.31347656 C-2 0 -2 0 0 0 Z " fill="#BBB8B9" transform="translate(86,61)"/>
<path d="M0 0 C-0.99 0.495 -0.99 0.495 -2 1 C-2 1.66 -2 2.32 -2 3 C-3.98 3 -5.96 3 -8 3 C-7.67 3.99 -7.34 4.98 -7 6 C-7.99 6.66 -8.98 7.32 -10 8 C-10.99 7.67 -11.98 7.34 -13 7 C-15.35188447 7.59793673 -17.68925595 8.25881795 -20 9 C-17.11908213 5.82760103 -14.46469675 4.00355305 -10.5625 2.25 C-9.63566406 1.82203125 -8.70882812 1.3940625 -7.75390625 0.953125 C-4.96802649 -0.01106601 -2.92146884 -0.19087637 0 0 Z " fill="#CBC8C9" transform="translate(121,291)"/>
<path d="M0 0 C0.33 0.66 0.66 1.32 1 2 C1.66 2.33 2.32 2.66 3 3 C1.68 3.33 0.36 3.66 -1 4 C-1 4.99 -1 5.98 -1 7 C-1.66 7 -2.32 7 -3 7 C-3.59732819 9.76264289 -4 12.16032769 -4 15 C-7.33333333 18 -7.33333333 18 -10 18 C-8.47146065 13.72813475 -6.28490519 10.00673137 -3.875 6.1875 C-3.50246094 5.59001953 -3.12992188 4.99253906 -2.74609375 4.37695312 C-1.8342952 2.91573749 -0.91764024 1.45755415 0 0 Z " fill="#A8A5A4" transform="translate(40,112)"/>
<path d="M0 0 C3.97256398 2.09663099 6.43898489 4.30075595 9 8 C9 8.66 9 9.32 9 10 C9.66 10 10.32 10 11 10 C11.33 11.65 11.66 13.3 12 15 C11.401875 14.505 10.80375 14.01 10.1875 13.5 C8.02970006 11.71723582 8.02970006 11.71723582 5 12 C5 10.02 5 8.04 5 6 C4.01 5.67 3.02 5.34 2 5 C2 4.01 2 3.02 2 2 C1.34 2 0.68 2 0 2 C0 1.34 0 0.68 0 0 Z " fill="#BDBAB8" transform="translate(361,238)"/>
<path d="M0 0 C1.38724233 2.56362383 2.02025413 4.16878442 2.375 7.125 C2.684375 8.548125 2.684375 8.548125 3 10 C4.95021083 11.22527948 4.95021083 11.22527948 7 12 C7.33 12.99 7.66 13.98 8 15 C2.25 13.375 2.25 13.375 0 10 C-0.1953125 7.51953125 -0.1953125 7.51953125 -0.125 4.8125 C-0.10695312 3.91144531 -0.08890625 3.01039063 -0.0703125 2.08203125 C-0.04710937 1.39496094 -0.02390625 0.70789063 0 0 Z " fill="#A19E9D" transform="translate(238,174)"/>
<path d="M0 0 C0.8125 1.6875 0.8125 1.6875 1 4 C-1.3125 6.75 -1.3125 6.75 -4 9 C-4.66 9 -5.32 9 -6 9 C-6 10.65 -6 12.3 -6 14 C-6.66 13.67 -7.32 13.34 -8 13 C-7.34 10.69 -6.68 8.38 -6 6 C-5.34 6 -4.68 6 -4 6 C-3.71125 5.38125 -3.4225 4.7625 -3.125 4.125 C-2 2 -2 2 0 0 Z " fill="#9B9999" transform="translate(198,178)"/>
<path d="M0 0 C0.33 0 0.66 0 1 0 C1.11613204 3.10385211 1.18722029 6.20714662 1.25 9.3125 C1.30027344 10.63411133 1.30027344 10.63411133 1.3515625 11.98242188 C1.45112665 18.52876499 1.45112665 18.52876499 -1.015625 21.10546875 C-1.67046875 21.40066406 -2.3253125 21.69585937 -3 22 C-3 21.34 -3 20.68 -3 20 C-3.99 19.67 -4.98 19.34 -6 19 C-4.35 18.67 -2.7 18.34 -1 18 C-0.505 9.09 -0.505 9.09 0 0 Z " fill="#B3B0AF" transform="translate(409,360)"/>
<path d="M0 0 C2.31 0 4.62 0 7 0 C3.74147635 2.1723491 0.40755272 4.07119658 -3 6 C-2.01 6.66 -1.02 7.32 0 8 C-2.9375 7.625 -2.9375 7.625 -6 7 C-6.33 6.34 -6.66 5.68 -7 5 C-5.35 3.68 -3.7 2.36 -2 1 C-1.34 1.33 -0.68 1.66 0 2 C0 1.34 0 0.68 0 0 Z " fill="#A8A0A1" transform="translate(201,326)"/>
<path d="M0 0 C0.66 0.33 1.32 0.66 2 1 C-2.30769231 6.84615385 -2.30769231 6.84615385 -6 8 C-7.32 7.67 -8.64 7.34 -10 7 C-6.7 4.69 -3.4 2.38 0 0 Z " fill="#A2A0A0" transform="translate(116,37)"/>
<path d="M0 0 C0.33 0 0.66 0 1 0 C0.95875 1.19625 0.9175 2.3925 0.875 3.625 C0.88176222 7.43213083 1.37831764 10.50058016 3 14 C3.99 14.33 4.98 14.66 6 15 C3.0625 14.625 3.0625 14.625 0 14 C-1.86987216 10.26025568 -1.30641834 5.53209172 -0.5 1.5 C-0.335 1.005 -0.17 0.51 0 0 Z " fill="#A6A3A2" transform="translate(156,305)"/>
<path d="M0 0 C0 4.03223106 -1.64129026 5.80880447 -4 9 C-4.99 9.495 -4.99 9.495 -6 10 C-6.33 10.99 -6.66 11.98 -7 13 C-7.66 13 -8.32 13 -9 13 C-7.47987323 7.59510481 -3.72614782 4.01507372 0 0 Z " fill="#B1ACAC" transform="translate(166,292)"/>
<path d="M0 0 C-4.19648651 2.17595597 -8.37393594 3.97198576 -13 5 C-13 4.34 -13 3.68 -13 3 C-8.42154598 -0.90843635 -5.81633966 -1.39592152 0 0 Z " fill="#949394" transform="translate(222,243)"/>
<path d="M0 0 C4.43458973 1.3937282 6.87378374 3.60582235 10 7 C5.6109185 6.48964169 2.66291938 5.47785723 -1 3 C-0.67 2.01 -0.34 1.02 0 0 Z " fill="#B1ADAC" transform="translate(388,41)"/>
<path d="M0 0 C1.65 0 3.3 0 5 0 C2.67459062 2.73665541 0.94458185 3.48944975 -2.5625 4.125 C-5.88705386 4.74131311 -5.88705386 4.74131311 -9 6 C-9 4.68 -9 3.36 -9 2 C-6.03 2 -3.06 2 0 2 C0 1.34 0 0.68 0 0 Z " fill="#A09B9C" transform="translate(277,227)"/>
<path d="M0 0 C0.33 0 0.66 0 1 0 C1 6.6 1 13.2 1 20 C0.34 20.33 -0.32 20.66 -1 21 C-1.5625 19.0625 -1.5625 19.0625 -2 17 C-1.67 16.67 -1.34 16.34 -1 16 C-0.76321284 13.30764224 -0.57801975 10.63501844 -0.4375 7.9375 C-0.39431641 7.17888672 -0.35113281 6.42027344 -0.30664062 5.63867188 C-0.20026367 3.75934562 -0.09960066 1.87969756 0 0 Z " fill="#E1DDD7" transform="translate(385,327)"/>
<path d="M0 0 C1.65 0.33 3.3 0.66 5 1 C4 3 4 3 2 6 C0.68 6 -0.64 6 -2 6 C-1.49396008 3.83125748 -1.00016187 2.00032373 0 0 Z " fill="#F7F4F4" transform="translate(254,249)"/>
<path d="M0 0 C0.33 0 0.66 0 1 0 C1.0810206 2.10353495 1.13919907 4.20795952 1.1875 6.3125 C1.22230469 7.48425781 1.25710938 8.65601563 1.29296875 9.86328125 C1 13 1 13 -0.51171875 14.91796875 C-1.00285156 15.27503906 -1.49398438 15.63210937 -2 16 C-2.2396943 10.36718401 -1.38529821 5.45461169 0 0 Z " fill="#928D8D" transform="translate(5,194)"/>
<path d="M0 0 C-0.99 0.495 -0.99 0.495 -2 1 C-2 1.66 -2 2.32 -2 3 C-2.86625 3.144375 -3.7325 3.28875 -4.625 3.4375 C-6.295625 3.7159375 -6.295625 3.7159375 -8 4 C-10 4.33333333 -12 4.66666667 -14 5 C-9.55595403 1.37892551 -5.78565632 -0.33060893 0 0 Z " fill="#ACA8A8" transform="translate(121,291)"/>
<path d="M0 0 C-2.64 0.99 -5.28 1.98 -8 3 C-8 3.66 -8 4.32 -8 5 C-8.66 5 -9.32 5 -10 5 C-10.33 5.66 -10.66 6.32 -11 7 C-11 6.34 -11 5.68 -11 5 C-11.66 4.67 -12.32 4.34 -13 4 C-5.27810651 -1.31952663 -5.27810651 -1.31952663 0 0 Z " fill="#ADABAA" transform="translate(180,287)"/>
<path d="M0 0 C1.32 0.66 2.64 1.32 4 2 C2.23050388 2.50471197 0.45934777 3.00360685 -1.3125 3.5 C-2.79169922 3.91765625 -2.79169922 3.91765625 -4.30078125 4.34375 C-7 5 -7 5 -10 5 C-10 4.34 -10 3.68 -10 3 C-9.04287109 2.80083984 -9.04287109 2.80083984 -8.06640625 2.59765625 C-7.24011719 2.42105469 -6.41382813 2.24445313 -5.5625 2.0625 C-4.73878906 1.88847656 -3.91507812 1.71445312 -3.06640625 1.53515625 C-1.02338796 1.19247006 -1.02338796 1.19247006 0 0 Z " fill="#8F8B8B" transform="translate(313,490)"/>
<path d="M0 0 C5.37305699 0.2642487 5.37305699 0.2642487 8 1 C10 3.5625 10 3.5625 11 6 C6.95743617 4.77782954 3.50711041 3.37245704 0 1 C0 0.67 0 0.34 0 0 Z " fill="#A8A5A5" transform="translate(125,467)"/>
<path d="M0 0 C0.66 0.33 1.32 0.66 2 1 C0.576875 1.928125 0.576875 1.928125 -0.875 2.875 C-3.94445109 4.81970969 -3.94445109 4.81970969 -6 7 C-8.625 6.625 -8.625 6.625 -11 6 C-8.66460191 4.44306794 -6.42031244 3.09799354 -3.9375 1.8125 C-2.89916016 1.26529297 -2.89916016 1.26529297 -1.83984375 0.70703125 C-1.23269531 0.47371094 -0.62554687 0.24039062 0 0 Z " fill="#918F8E" transform="translate(199,319)"/>
<path d="M0 0 C1.29922995 2.5984599 0.81286289 3.75961451 0.1875 6.5625 C0.01605469 7.36816406 -0.15539062 8.17382812 -0.33203125 9.00390625 C-1 11 -1 11 -3 12 C-4.21386936 8.35839192 -3.6674695 7.66834531 -2.0625 4.3125 C-1.49208984 3.10013672 -1.49208984 3.10013672 -0.91015625 1.86328125 C-0.60980469 1.24839844 -0.30945313 0.63351562 0 0 Z " fill="#9E9A97" transform="translate(165,307)"/>
<path d="M0 0 C0 0.33 0 0.66 0 1 C-0.804375 1.12375 -1.60875 1.2475 -2.4375 1.375 C-3.7059375 1.684375 -3.7059375 1.684375 -5 2 C-5.33 2.66 -5.66 3.32 -6 4 C-7.65 4 -9.3 4 -11 4 C-6.99509003 -0.13840697 -5.70470474 -1.35111428 0 0 Z " fill="#948B8C" transform="translate(263,174)"/>
<path d="M0 0 C0.33 1.32 0.66 2.64 1 4 C-0.9375 6.25 -0.9375 6.25 -3 8 C-3.99 7.67 -4.98 7.34 -6 7 C-4.02 4.69 -2.04 2.38 0 0 Z " fill="#B5B2B3" transform="translate(59,87)"/>
<path d="M0 0 C0.33 0 0.66 0 1 0 C1.07654536 4.51617599 1.10228696 8.59085217 0 13 C-0.33 13 -0.66 13 -1 13 C-1.2236337 11.58566794 -1.42826476 10.16832382 -1.625 8.75 C-1.74101562 7.96109375 -1.85703125 7.1721875 -1.9765625 6.359375 C-2.00319395 3.67847541 -1.36592084 2.27305911 0 0 Z " fill="#ADAAA8" transform="translate(498,275)"/>
<path d="M0 0 C0.66 0.33 1.32 0.66 2 1 C-0.475 5.455 -0.475 5.455 -3 10 C-3.66 8.68 -4.32 7.36 -5 6 C-4.01 6 -3.02 6 -2 6 C-2.33 4.68 -2.66 3.36 -3 2 C-2.01 1.34 -1.02 0.68 0 0 Z " fill="#9C999A" transform="translate(470,367)"/>
<path d="M0 0 C1.32 0.33 2.64 0.66 4 1 C4.33 2.65 4.66 4.3 5 6 C2.03 6 -0.94 6 -4 6 C-4 5.67 -4 5.34 -4 5 C-2.35 4.67 -0.7 4.34 1 4 C0.67 2.68 0.34 1.36 0 0 Z " fill="#8B7E7E" transform="translate(194,197)"/>
<path d="M0 0 C0.99 0.33 1.98 0.66 3 1 C2.01 1.495 2.01 1.495 1 2 C0.67 2.99 0.34 3.98 0 5 C-2.5625 6.1875 -2.5625 6.1875 -5 7 C-3.47793991 4.37098712 -2.15634036 2.15634036 0 0 Z " fill="#A8A5A6" transform="translate(65,80)"/>
<path d="M0 0 C0.66 0 1.32 0 2 0 C2 2 2 2 -0.25 4.5625 C-2.86855367 6.88349075 -3.7582031 7.38350444 -7 8 C-6.02133662 6.85373678 -5.04205413 5.70800212 -4.0625 4.5625 C-3.51722656 3.92441406 -2.97195312 3.28632812 -2.41015625 2.62890625 C-1.63204305 1.73008851 -0.84063472 0.84063472 0 0 Z " fill="#939092" transform="translate(84,61)"/>
<path d="M0 0 C0.66 0 1.32 0 2 0 C2.25 2.3125 2.25 2.3125 2 5 C0 6.8125 0 6.8125 -2 8 C-2.66 7.67 -3.32 7.34 -4 7 C-3.34 6.01 -2.68 5.02 -2 4 C-1.34 4 -0.68 4 0 4 C0 2.68 0 1.36 0 0 Z " fill="#A9A7A7" transform="translate(265,188)"/>
<path d="M0 0 C2.5 2.3125 2.5 2.3125 5 5 C5 5.99 5 6.98 5 8 C2 7 2 7 0.8125 5.125 C0 3 0 3 0 0 Z " fill="#AEA9A4" transform="translate(448,97)"/>
<path d="M0 0 C-4.625 4 -4.625 4 -8 4 C-8 3.01 -8 2.02 -8 1 C-5.29120665 -0.35439668 -2.99066732 -0.06501451 0 0 Z " fill="#A6A3A2" transform="translate(379,465)"/>
<path d="M0 0 C-4.75 4 -4.75 4 -7 4 C-7.33 3.01 -7.66 2.02 -8 1 C-4.93251126 -0.86240388 -3.40254489 -1.2151946 0 0 Z " fill="#A7A4A3" transform="translate(402,450)"/>
<path d="M0 0 C3.00617269 3.00617269 2.59585316 5.82381598 3 10 C2.01 10.495 2.01 10.495 1 11 C0.4254048 7.26513121 0 3.78706732 0 0 Z " fill="#949392" transform="translate(204,225)"/>
<path d="M0 0 C3.63 0.66 7.26 1.32 11 2 C11 2.33 11 2.66 11 3 C7.37 3 3.74 3 0 3 C0 2.01 0 1.02 0 0 Z " fill="#969294" transform="translate(269,201)"/>
<path d="M0 0 C0.144375 0.61875 0.28875 1.2375 0.4375 1.875 C0.93152225 4.03258322 0.93152225 4.03258322 2 6 C0.68 6.33 -0.64 6.66 -2 7 C-2 7.99 -2 8.98 -2 10 C-2.66 10 -3.32 10 -4 10 C-2.66666667 6.66666667 -1.33333333 3.33333333 0 0 Z " fill="#AAA8A0" transform="translate(29,130)"/>
<path d="M0 0 C-1.15173355 2.46800047 -2.04783565 4.04783565 -4 6 C-4 5.34 -4 4.68 -4 4 C-5.32 3.67 -6.64 3.34 -8 3 C-2.25 0 -2.25 0 0 0 Z " fill="#B2B1B1" transform="translate(140,25)"/>
<path d="M0 0 C0.99 0.33 1.98 0.66 3 1 C0.525 4.465 0.525 4.465 -2 8 C-2.33 6.68 -2.66 5.36 -3 4 C-1.5625 1.75 -1.5625 1.75 0 0 Z " fill="#C5C2C4" transform="translate(137,136)"/>
<path d="M0 0 C2.79872437 2.52788007 4.45773019 4.20411134 5 8 C3.68 7.67 2.36 7.34 1 7 C0.67 4.69 0.34 2.38 0 0 Z " fill="#9E9898" transform="translate(457,109)"/>
<path d="M0 0 C1.65 1.65 3.3 3.3 5 5 C3.02 5.99 3.02 5.99 1 7 C0 2.25 0 2.25 0 0 Z " fill="#B2B1B0" transform="translate(104,368)"/>
<path d="M0 0 C2.1875 0.3125 2.1875 0.3125 4 1 C1.03 3.475 1.03 3.475 -2 6 C-2.33 5.01 -2.66 4.02 -3 3 C-1.75 1.4375 -1.75 1.4375 0 0 Z " fill="#9F9C9D" transform="translate(103,306)"/>
<path d="M0 0 C0.33 0.66 0.66 1.32 1 2 C1.66 2.33 2.32 2.66 3 3 C1.68 3.33 0.36 3.66 -1 4 C-1 4.99 -1 5.98 -1 7 C-1.99 7.33 -2.98 7.66 -4 8 C-2.87548273 5.0280615 -1.77706209 2.66559313 0 0 Z " fill="#B1B0AF" transform="translate(40,112)"/>
</svg>
