<?xml version="1.0" encoding="UTF-8"?>
<svg version="1.1" xmlns="http://www.w3.org/2000/svg" width="225" height="225">
<path d="M0 0 C0.65967773 0.13470703 1.31935547 0.26941406 1.99902344 0.40820312 C19.185343 4.06891296 36.03213671 12.03517586 49 24 C49.83402344 24.71800781 50.66804687 25.43601562 51.52734375 26.17578125 C73.91962838 45.67222155 87.5581869 72.56892968 89.83984375 102.23046875 C90.71191151 117.31086006 87.96431461 131.17842695 85 146 C14.38 146 -56.24 146 -129 146 C-131 142 -131 142 -130.625 139.75 C-130.41875 139.1725 -130.2125 138.595 -130 138 C-123.41716454 137.81036269 -116.83388667 137.64862313 -110.25 137.5 C-109.17596924 137.47565887 -108.10193848 137.45131775 -106.99536133 137.42623901 C-88.89687209 137.03689287 -70.80535215 136.97057899 -52.703125 137.00390625 C-51.03762478 137.00653284 -51.03762478 137.00653284 -49.33847809 137.00921249 C-37.997892 137.02736364 -26.657452 137.05487443 -15.31698227 137.11018467 C-10.98200956 137.12946173 -6.6470384 137.14069891 -2.31203461 137.15031242 C-0.27613558 137.15679131 1.75975563 137.16693287 3.79561615 137.18103218 C24.4851031 138.00617664 24.4851031 138.00617664 42.6875 129.75 C47.88043385 123.57461921 48.61935711 118.21788066 48.41015625 110.27734375 C46.80094407 97.41897215 35.39020301 87.05417591 27 78 C26.44828125 77.3709375 25.8965625 76.741875 25.328125 76.09375 C11.46462238 60.99488576 -7.50305172 57.15821391 -27 56 C-34.02316474 55.76956931 -41.05192113 55.74414759 -48.078125 55.68359375 C-50.10122055 55.66298402 -52.12431219 55.64198661 -54.1473999 55.62062073 C-59.43427327 55.56581458 -64.72118277 55.51622508 -70.00811768 55.46777344 C-75.41820435 55.41725281 -80.82823949 55.36172739 -86.23828125 55.30664062 C-96.82547666 55.1995673 -107.4127171 55.09801266 -118 55 C-118.62451172 53.19384766 -118.62451172 53.19384766 -119 51 C-117.46025626 48.60283034 -115.94166007 46.5446548 -114.125 44.375 C-113.61759277 43.75399414 -113.11018555 43.13298828 -112.58740234 42.49316406 C-111.07156751 40.65057098 -109.53700538 38.82493772 -108 37 C-107.2471875 36.07960937 -106.494375 35.15921875 -105.71875 34.2109375 C-96.82949107 23.76274137 -86.44934585 16.96119542 -74.4375 10.625 C-73.49245605 10.12500488 -72.54741211 9.62500977 -71.57373047 9.10986328 C-49.39597922 -2.22985722 -24.36486879 -5.12370842 0 0 Z " fill="#EFF0EB" transform="translate(135,2)"/>
<path d="M0 0 C67.32 0 134.64 0 204 0 C200.40747525 17.96262377 181.75109729 35.94213784 167.09765625 46.0625 C140.64075386 62.61057514 110.13198909 70.45000597 79.25 63.875 C60.58164291 59.57025636 44.66521589 52.59039435 30 40 C29.17757812 39.31164062 28.35515625 38.62328125 27.5078125 37.9140625 C16.45122048 28.3730158 3.65960345 14.63841379 0 0 Z " fill="#EFF0EB" transform="translate(10,159)"/>
<path d="M0 0 C1.33470085 -0.01062721 1.33470085 -0.01062721 2.69636536 -0.02146912 C3.67548889 -0.0189917 4.65461243 -0.01651428 5.66340637 -0.01396179 C7.2077813 -0.02162819 7.2077813 -0.02162819 8.78335571 -0.02944946 C12.20672846 -0.04341047 15.62990101 -0.04238203 19.05329895 -0.04008484 C21.4358935 -0.0439718 23.81848736 -0.04830648 26.20108032 -0.05307007 C31.2106805 -0.06054885 36.22021026 -0.06023164 41.22981262 -0.05497742 C47.61586554 -0.04921903 54.001625 -0.06601739 60.38762951 -0.08932209 C65.31823382 -0.10414734 70.2487692 -0.10491857 75.17939186 -0.10181236 C77.53105049 -0.10232244 79.88271331 -0.10750068 82.2343502 -0.11762428 C115.33347418 -0.24248013 115.33347418 -0.24248013 126.7603302 7.26069641 C128.03263489 8.09407532 128.03263489 8.09407532 129.3306427 8.94429016 C139.49662905 15.98119158 148.50693598 24.49326266 154.7603302 35.26069641 C154.7603302 35.92069641 154.7603302 36.58069641 154.7603302 37.26069641 C150.73091475 38.6038349 146.82927616 38.43876868 142.62556458 38.46601868 C141.21469165 38.48086382 141.21469165 38.48086382 139.77531624 38.49600887 C136.63493014 38.52777782 133.49453006 38.55250525 130.3540802 38.57710266 C128.13991461 38.59777907 125.92575243 38.61882273 123.71159363 38.64021301 C117.78436037 38.69603406 111.85708978 38.74537049 105.92978668 38.79312515 C102.27516271 38.82307486 98.62055991 38.85489073 94.96595764 38.88737488 C58.89682726 39.20751866 22.83085703 39.41399733 -13.2396698 39.26069641 C-13.29389927 37.82361551 -13.33256703 36.38594179 -13.3646698 34.94819641 C-13.38787292 34.1476886 -13.41107605 33.34718079 -13.4349823 32.52241516 C-13.2396698 30.26069641 -13.2396698 30.26069641 -11.2396698 27.26069641 C-8.40165116 26.94472552 -5.77713373 26.82332205 -2.93449402 26.82832336 C-1.64658463 26.81303589 -1.64658463 26.81303589 -0.33265686 26.79743958 C2.51350821 26.76717574 5.3593375 26.75802332 8.2056427 26.74897766 C10.17577749 26.73214088 12.14590147 26.71399201 14.11601257 26.69458008 C19.30767947 26.64696519 24.49930258 26.61723026 29.69111633 26.59114075 C34.98641108 26.56139304 40.2815547 26.51484294 45.57673645 26.46968079 C55.97118884 26.38351704 66.36567222 26.31623005 76.7603302 26.26069641 C76.7603302 23.29069641 76.7603302 20.32069641 76.7603302 17.26069641 C48.7103302 16.93069641 20.6603302 16.60069641 -8.2396698 16.26069641 C-9.26895081 12.14357239 -9.14603569 11.00602887 -7.9271698 7.13569641 C-7.53078308 5.83245422 -7.53078308 5.83245422 -7.12638855 4.50288391 C-5.55701461 0.53451103 -4.02188073 0.010652 0 0 Z " fill="#EFF0EB" transform="translate(13.239669799804688,68.73930358886719)"/>
<path d="M0 0 C56.43 0 112.86 0 171 0 C170 5 170 5 166.9102478 7.28213501 C160.45014907 10.12038354 153.35052869 9.54066929 146.43603516 9.48583984 C144.86176234 9.48798817 143.28749108 9.49186953 141.71322632 9.49734497 C137.45734532 9.50700056 133.20188677 9.49178623 128.94605684 9.47143888 C124.48938284 9.45382453 120.03272101 9.4573937 115.57601929 9.4581604 C108.09959877 9.45629049 100.62334115 9.43896221 93.14697266 9.41162109 C84.49673302 9.38010458 75.84667125 9.36962743 67.19637835 9.3710922 C58.87334956 9.37231129 50.55037878 9.36211832 42.2273674 9.34550858 C38.68433556 9.33843855 35.14132423 9.33478149 31.59828568 9.33372116 C27.4334903 9.33171726 23.26884512 9.31954864 19.10409927 9.29938889 C17.57301248 9.29353187 16.04190841 9.29108957 14.51081085 9.29224396 C12.42734413 9.29322069 10.34430246 9.28196154 8.26089478 9.26742554 C7.09323389 9.26407385 5.92557301 9.26072216 4.72252846 9.25726891 C2 9 2 9 0 7 C0 4.69 0 2.38 0 0 Z " fill="#F1F1EF" transform="translate(0,119)"/>
<path d="M0 0 C0 0.99 0 1.98 0 3 C-4.79212897 4.53742863 -8.79803879 5.24854065 -13.8780365 5.24050903 C-14.5333023 5.24221788 -15.1885681 5.24392673 -15.86369044 5.24568737 C-18.03936844 5.2489577 -20.21473171 5.2380197 -22.39038086 5.22705078 C-23.95789584 5.22648613 -25.52541135 5.22680427 -27.09292603 5.22793579 C-31.33415848 5.22850822 -35.57527717 5.21677177 -39.81648326 5.20278788 C-44.25407884 5.19026213 -48.69167719 5.18910856 -53.12928772 5.18673706 C-61.52620552 5.18052771 -69.92307108 5.16412427 -78.3199659 5.14403808 C-87.88221223 5.12166212 -97.44446109 5.11068138 -107.0067271 5.10064721 C-126.67118053 5.07975756 -146.33558697 5.04459218 -166 5 C-166 6.32 -166 7.64 -166 9 C-60.565 9.495 -60.565 9.495 47 10 C47.33 7.36 47.66 4.72 48 2 C48.33 2 48.66 2 49 2 C49.125 8.625 49.125 8.625 48 12 C-22.62 12 -93.24 12 -166 12 C-168 8 -168 8 -167.625 5.75 C-167.41875 5.1725 -167.2125 4.595 -167 4 C-160.41716454 3.81036269 -153.83388667 3.64862313 -147.25 3.5 C-146.17596924 3.47565887 -145.10193848 3.45131775 -143.99536133 3.42623901 C-125.89687209 3.03689287 -107.80535215 2.97057899 -89.703125 3.00390625 C-88.03762478 3.00653284 -88.03762478 3.00653284 -86.33847809 3.00921249 C-74.997892 3.02736364 -63.657452 3.05487443 -52.31698227 3.11018467 C-47.98200956 3.12946173 -43.6470384 3.14069891 -39.31203461 3.15031242 C-37.27613558 3.15679131 -35.24024437 3.16693287 -33.20438385 3.18103218 C-16.38357884 3.42759133 -16.38357884 3.42759133 0 0 Z " fill="#FAFBF7" transform="translate(172,136)"/>
<path d="M0 0 C0.89983109 0.00719055 1.79966217 0.0143811 2.72676086 0.02178955 C3.67314926 0.0214975 4.61953766 0.02120544 5.59460449 0.02090454 C8.73298712 0.02230153 11.87113439 0.0378801 15.00947571 0.05352783 C17.18137991 0.05725665 19.35328578 0.06010424 21.52519226 0.06210327 C27.24959433 0.06975006 32.97389537 0.08940752 38.69825745 0.11151123 C44.53635796 0.13194716 50.37447476 0.14110016 56.21260071 0.15118408 C67.67358267 0.17265243 79.13448955 0.20680096 90.59541321 0.24884033 C88.59541321 2.24884033 88.59541321 2.24884033 84.78630066 2.4513855 C83.10391249 2.43937759 81.42158443 2.41601124 79.73945618 2.38409424 C78.36376465 2.36990196 78.36376465 2.36990196 76.96028137 2.35542297 C73.91918873 2.32165916 70.87849661 2.27356751 67.83760071 2.22540283 C65.73296668 2.19924459 63.62832141 2.17397688 61.52366638 2.14956665 C55.9767182 2.08282867 50.43000561 2.00395472 44.883255 1.92260742 C39.22620201 1.84177214 33.56901055 1.7723393 27.91181946 1.70196533 C16.8061847 1.56212398 5.70076538 1.4094697 -5.40458679 1.24884033 C-5.54767273 1.82118408 -5.69075867 2.39352783 -5.83818054 2.98321533 C-6.69364929 6.40509033 -7.54911804 9.82696533 -8.40458679 13.24884033 C-7.36919769 13.24439911 -6.33380859 13.23995789 -5.26704407 13.23538208 C4.47440711 13.1948982 14.2158413 13.16488591 23.95735741 13.14521599 C28.96597668 13.13476366 33.97452823 13.12057813 38.98310852 13.09796143 C43.81359653 13.07628458 48.64401927 13.06428263 53.47455215 13.05908585 C55.32060906 13.05538079 57.16666226 13.04814608 59.0126915 13.03738022 C61.59161445 13.02293377 64.17026512 13.0208595 66.7492218 13.02178955 C67.90260292 13.01100372 67.90260292 13.01100372 69.07928467 13 C74.36730889 13.02073601 74.36730889 13.02073601 76.59541321 15.24884033 C76.59541321 19.86884033 76.59541321 24.48884033 76.59541321 29.24884033 C46.89541321 29.24884033 17.19541321 29.24884033 -13.40458679 29.24884033 C-13.40458679 28.58884033 -13.40458679 27.92884033 -13.40458679 27.24884033 C30.15541321 26.75384033 30.15541321 26.75384033 74.59541321 26.24884033 C74.59541321 23.27884033 74.59541321 20.30884033 74.59541321 17.24884033 C46.54541321 16.91884033 18.49541321 16.58884033 -10.40458679 16.24884033 C-11.4338678 12.13171631 -11.31095269 10.99417279 -10.09208679 7.12384033 C-9.82782898 6.25501221 -9.56357117 5.38618408 -9.29130554 4.49102783 C-7.37125845 -0.36406921 -4.81381395 0.01616119 0 0 Z " fill="#FAFAF8" transform="translate(15.404586791992188,68.75115966796875)"/>
<path d="M0 0 C0.33 0 0.66 0 1 0 C1 2.64 1 5.28 1 8 C54.79 8 108.58 8 164 8 C164 8.33 164 8.66 164 9 C147.5625533 9.17204383 131.12505366 9.33849346 114.6875 9.5 C112.87477474 9.51781588 112.87477474 9.51781588 111.02542877 9.53599167 C73.68215898 9.90130279 36.3451011 10.1587179 -1 10 C-1.02689216 8.52093108 -1.04634621 7.04172517 -1.0625 5.5625 C-1.07410156 4.73878906 -1.08570312 3.91507812 -1.09765625 3.06640625 C-1 1 -1 1 0 0 Z " fill="#FEFEFC" transform="translate(1,98)"/>
<path d="M0 0 C0.93972656 0.25136719 0.93972656 0.25136719 1.8984375 0.5078125 C2.71570313 0.71148437 3.53296875 0.91515625 4.375 1.125 C5.18710938 1.33382812 5.99921875 1.54265625 6.8359375 1.7578125 C7.90714844 1.87769531 7.90714844 1.87769531 9 2 C9.66 1.34 10.32 0.68 11 0 C14 1 14 1 16 4 C18.41607417 4.79798218 18.41607417 4.79798218 21.125 5.1875 C22.03507812 5.34605469 22.94515625 5.50460938 23.8828125 5.66796875 C24.93082031 5.83232422 24.93082031 5.83232422 26 6 C26 6.33 26 6.66 26 7 C17.35345731 6.64707989 9.12546368 5.03274349 1 2 C0.67 1.34 0.34 0.68 0 0 Z " fill="#F8F8F7" transform="translate(71,216)"/>
<path d="M0 0 C0.99 0.33 1.98 0.66 3 1 C3.7277167 2.64092981 4.38520811 4.31350863 5 6 C6.49466961 8.57305192 8.0737641 11.08037383 9.66015625 13.59765625 C10.88028746 15.78535506 11.54264626 17.55513373 12 20 C8.3304964 16.7106702 6.11629795 13.12557223 3.75 8.875 C3.38648438 8.24207031 3.02296875 7.60914063 2.6484375 6.95703125 C0 2.2675047 0 2.2675047 0 0 Z " fill="#FBFBF9" transform="translate(10,159)"/>
<path d="M0 0 C-1.24716797 0.48919922 -1.24716797 0.48919922 -2.51953125 0.98828125 C-3.60621094 1.42527344 -4.69289063 1.86226563 -5.8125 2.3125 C-7.43091797 2.95638672 -7.43091797 2.95638672 -9.08203125 3.61328125 C-11.69144777 4.85336541 -13.17408984 5.81531451 -15 8 C-16.32 7.34 -17.64 6.68 -19 6 C-16.40074504 4.80057395 -13.79654493 3.61527179 -11.1875 2.4375 C-10.08051758 1.92413086 -10.08051758 1.92413086 -8.95117188 1.40039062 C-8.23896484 1.08134766 -7.52675781 0.76230469 -6.79296875 0.43359375 C-6.1383667 0.13509521 -5.48376465 -0.16340332 -4.80932617 -0.47094727 C-3 -1 -3 -1 0 0 Z " fill="#FAFAF8" transform="translate(83,5)"/>
<path d="M0 0 C-1.05277207 3.15831622 -1.64975486 3.81762951 -4 6 C-5.2065625 7.2375 -5.2065625 7.2375 -6.4375 8.5 C-8.54291046 10.55405898 -10.60156182 12.31221017 -13 14 C-11.42491141 10.33620697 -9.15806427 7.70148695 -6.5 4.75 C-5.7059375 3.85796875 -4.911875 2.9659375 -4.09375 2.046875 C-2 0 -2 0 0 0 Z " fill="#F8F8F7" transform="translate(38,29)"/>
<path d="M0 0 C5.01113235 1.4317521 6.94469549 3.98445693 10 8 C6.88349604 6.49946106 3.86850702 4.93818042 1 3 C0.67 2.01 0.34 1.02 0 0 Z " fill="#FAFAF7" transform="translate(144,80)"/>
<path d="M0 0 C1.32 0 2.64 0 4 0 C3.67 1.65 3.34 3.3 3 5 C2.01 5 1.02 5 0 5 C0 3.35 0 1.7 0 0 Z " fill="#F7F7F6" transform="translate(167,119)"/>
<path d="M0 0 C2.9719385 1.12451727 5.33440687 2.22293791 8 4 C7.67 4.99 7.34 5.98 7 7 C5.83040013 6.02433888 4.66438823 5.044375 3.5 4.0625 C2.8503125 3.51722656 2.200625 2.97195312 1.53125 2.41015625 C1.0259375 1.94480469 0.520625 1.47945312 0 1 C0 0.67 0 0.34 0 0 Z " fill="#FAFAF9" transform="translate(33,192)"/>
<path d="M0 0 C3.65316671 1.24976756 4.78065836 1.67098753 7 5 C6.67 5.99 6.34 6.98 6 8 C4.02 5.36 2.04 2.72 0 0 Z " fill="#FAFAF9" transform="translate(23,181)"/>
<path d="M0 0 C0.33 0 0.66 0 1 0 C0.67 3.3 0.34 6.6 0 10 C-2 7 -2 7 -3 4 C-2.34 4 -1.68 4 -1 4 C-0.67 2.68 -0.34 1.36 0 0 Z " fill="#F8F8F6" transform="translate(222,128)"/>
</svg>
