<?xml version="1.0" encoding="UTF-8"?>
<svg version="1.1" xmlns="http://www.w3.org/2000/svg" width="707" height="353">
<path d="M0 0 C2 2 2 2 2 5 C2.99 5 3.98 5 5 5 C8.11823145 19.39183747 8.11823145 19.39183747 5 25 C2.1361086 29.06441153 -1.05336593 32.28327041 -6.02148438 33.49169922 C-9.03134194 33.96522712 -12.01648802 34.26976226 -15.05883789 34.43310547 C-19.35355286 34.66836545 -21.95010117 34.87807588 -25 38 C-25.62711449 40.76348772 -25.62711449 40.76348772 -25.57421875 43.91015625 C-25.60193359 45.06451172 -25.62964844 46.21886719 -25.65820312 47.40820312 C-25.67270508 49.21708008 -25.67270508 49.21708008 -25.6875 51.0625 C-25.72946266 53.44928495 -25.77485832 55.83601283 -25.82421875 58.22265625 C-25.83541748 59.28234619 -25.84661621 60.34203613 -25.8581543 61.43383789 C-26 64 -26 64 -27 66 C-38.55 66 -50.1 66 -62 66 C-62 53.46 -62 40.92 -62 28 C-56.39 28 -50.78 28 -45 28 C-40.24085668 26.25660308 -40.24085668 26.25660308 -37 24 C-36.34 24 -35.68 24 -35 24 C-32.98819349 19.18470387 -31.42007095 14.23721038 -29.85546875 9.26367188 C-28.21912969 4.21912969 -28.21912969 4.21912969 -26 2 C-24.68 2 -23.36 2 -22 2 C-22 1.01 -22 0.02 -22 -1 C-14.23603497 -3.64305192 -7.22867978 -4.58404083 0 0 Z " fill="#F3F3F3" transform="translate(238,144)"/>
<path d="M0 0 C1.69092773 0.0009668 1.69092773 0.0009668 3.41601562 0.00195312 C4.59486328 0.01806641 5.77371094 0.03417969 6.98828125 0.05078125 C8.14779297 0.04755859 9.30730469 0.04433594 10.50195312 0.04101562 C24.89203473 0.13100477 24.89203473 0.13100477 30.5078125 3.80859375 C34.92224255 8.42709721 38.10143114 12.83890038 38.390625 19.40234375 C37.83884998 26.73104791 33.82911346 31.79067956 29.30078125 37.36328125 C30.40342971 39.42659331 31.50796491 41.48889714 32.61328125 43.55078125 C33.22816406 44.69933594 33.84304688 45.84789062 34.4765625 47.03125 C36.20208898 50.29361046 36.20208898 50.29361046 38.03125 52.9765625 C39.46409004 55.67030177 39.55846563 57.35696343 39.30078125 60.36328125 C29.06497488 61.40673724 29.06497488 61.40673724 25.37890625 59.2265625 C21.17488057 54.55918991 15.30078125 45.69518995 15.30078125 39.36328125 C14.68589844 39.37488281 14.07101562 39.38648438 13.4375 39.3984375 C12.62925781 39.40746094 11.82101562 39.41648438 10.98828125 39.42578125 C10.18777344 39.43738281 9.38726562 39.44898438 8.5625 39.4609375 C6.30078125 39.36328125 6.30078125 39.36328125 3.30078125 38.36328125 C3.30078125 45.29328125 3.30078125 52.22328125 3.30078125 59.36328125 C-0.65921875 59.36328125 -4.61921875 59.36328125 -8.69921875 59.36328125 C-8.76698553 52.11362557 -8.82202927 44.86414284 -8.85465527 37.61423779 C-8.87031386 34.24783248 -8.89155496 30.88165502 -8.92553711 27.51538086 C-8.96183624 23.64560876 -8.97892625 19.77616099 -8.9921875 15.90625 C-9.00767136 14.69680222 -9.02315521 13.48735443 -9.03910828 12.24125671 C-9.03933487 11.1203212 -9.03956146 9.99938568 -9.03979492 8.84448242 C-9.04645676 7.85631027 -9.05311859 6.86813812 -9.0599823 5.85002136 C-8.69921875 3.36328125 -8.69921875 3.36328125 -7.3404541 1.54397583 C-4.90845551 -0.20558894 -2.96772212 -0.00865089 0 0 Z M3.30078125 11.36328125 C3.30078125 16.97328125 3.30078125 22.58328125 3.30078125 28.36328125 C5.65203125 28.42515625 8.00328125 28.48703125 10.42578125 28.55078125 C11.1542627 28.57809326 11.88274414 28.60540527 12.63330078 28.63354492 C17.27859137 28.69213077 20.45537098 27.9830396 24.30078125 25.36328125 C25.44490404 23.31720139 25.44490404 23.31720139 25.55078125 20.98828125 C25.6590625 20.23804688 25.76734375 19.4878125 25.87890625 18.71484375 C25.13616114 15.69367784 23.60159047 14.19668965 21.15429688 12.3359375 C17.82368108 10.58815387 14.59667461 10.83674051 10.92578125 11.05078125 C7.15140625 11.20546875 7.15140625 11.20546875 3.30078125 11.36328125 Z " fill="#EAEAEA" transform="translate(282.69921875,150.63671875)"/>
<path d="M0 0 C0.70125 -0.01675781 1.4025 -0.03351563 2.125 -0.05078125 C2.74375 0.06910156 3.3625 0.18898437 4 0.3125 C6.2502418 3.68786271 6.24864989 4.81280261 6.24291992 8.76196289 C6.24753487 10.43368309 6.24753487 10.43368309 6.25224304 12.13917542 C6.24505753 13.34234909 6.23787201 14.54552277 6.23046875 15.78515625 C6.23001053 17.01914658 6.22955231 18.2531369 6.2290802 19.52452087 C6.22528251 22.80355671 6.21227343 26.08239902 6.19561768 29.36138916 C6.18215874 32.69991295 6.18534189 36.03840315 6.18554688 39.37695312 C6.18063161 41.90885618 6.17480325 44.44075765 6.16796875 46.97265625 C6.16685593 48.17785416 6.1657431 49.38305206 6.16459656 50.62477112 C6.15821671 51.73609909 6.15183685 52.84742706 6.14526367 53.99243164 C6.13954597 55.46444786 6.13954597 55.46444786 6.13371277 56.96620178 C6 59.3125 6 59.3125 5 61.3125 C1.7 61.3125 -1.6 61.3125 -5 61.3125 C-5 60.6525 -5 59.9925 -5 59.3125 C-5.78375 59.786875 -6.5675 60.26125 -7.375 60.75 C-13.11325776 63.22338697 -18.45370611 63.66371295 -24.625 62.8125 C-30.31224192 60.28483693 -34.51523097 56.56360144 -37.9375 51.375 C-40.53988047 43.874021 -40.05115373 37.870861 -38 30.3125 C-37.67 29.6525 -37.34 28.9925 -37 28.3125 C-36.01 28.3125 -35.02 28.3125 -34 28.3125 C-33.9175 27.549375 -33.835 26.78625 -33.75 26 C-32.83456067 22.71967573 -31.91528755 21.9783786 -29 20.3125 C-25.22180509 19.02950641 -21.45975122 19.14448696 -17.5 19.125 C-16.1903125 19.11082031 -14.880625 19.09664062 -13.53125 19.08203125 C-10.21519673 19.29845508 -8.80382215 19.7593949 -6 21.3125 C-6.01571045 20.46486084 -6.01571045 20.46486084 -6.03173828 19.60009766 C-6.07324788 17.04594347 -6.0993096 14.49186018 -6.125 11.9375 C-6.14175781 11.04804688 -6.15851563 10.15859375 -6.17578125 9.2421875 C-6.18544922 7.96601563 -6.18544922 7.96601563 -6.1953125 6.6640625 C-6.21102295 5.48577881 -6.21102295 5.48577881 -6.22705078 4.28369141 C-5.77330065 0.34435965 -3.44559053 0.01900142 0 0 Z M-27 33.3125 C-28.73571782 36.78393564 -28.46645793 40.51693818 -28 44.3125 C-26.39711048 47.71796227 -26.39711048 47.71796227 -24 50.3125 C-23.1646875 51.3025 -23.1646875 51.3025 -22.3125 52.3125 C-18.98425363 53.75174167 -16.56848457 53.09543752 -13.125 52.18359375 C-10.03272386 50.91598791 -8.66530525 49.15739647 -7 46.3125 C-5.78237269 42.65961807 -5.60924149 40.15495864 -6 36.3125 C-8.52384168 32.05351717 -10.04030294 30.5956893 -14.8125 29.1875 C-19.46300959 28.91342054 -23.24440586 30.66204329 -27 33.3125 Z " fill="#E7E7E7" transform="translate(449,148.6875)"/>
<path d="M0 0 C3.98607813 3.20449418 6.24263515 6.39866892 7 11.5 C7.2037001 15.74860203 6.636218 19.07307681 5 23 C4.01 23.33 3.02 23.66 2 24 C3.32 24.99 4.64 25.98 6 27 C5.92692372 30.06920388 5.61468135 32.25820324 3.62109375 34.6640625 C-1.99534603 39.76534785 -8.05516713 41.57230341 -15.59765625 41.37890625 C-21.50539072 40.44711724 -27.04144415 37.49412517 -31 33 C-35.31482225 26.52776662 -35.93154984 20.65201656 -35 13 C-33.08340278 7.19476957 -30.43915696 2.10808969 -25 -1 C-17.02503135 -4.12743868 -7.52413842 -4.52737237 0 0 Z M-21 10 C-21.99 11.32 -22.98 12.64 -24 14 C-17.73 14 -11.46 14 -5 14 C-5.39163141 9.15239858 -5.39163141 9.15239858 -7.75 7.6875 C-13.00943537 6.0804503 -16.34343721 7.16557048 -21 10 Z M-22 23 C-18.72171131 27.81375192 -18.72171131 27.81375192 -16 29 C-11.03741054 29.37453505 -7.95586258 29.14142028 -4 26 C-3.67 25.01 -3.34 24.02 -3 23 C-9.27 23 -15.54 23 -22 23 Z " fill="#E2E2E2" transform="translate(493,171)"/>
<path d="M0 0 C5.83095633 -0.27238031 10.55070252 1.00199112 15.9453125 3.14453125 C15.9453125 4.13453125 15.9453125 5.12453125 15.9453125 6.14453125 C17.2653125 6.47453125 18.5853125 6.80453125 19.9453125 7.14453125 C23.82324677 19.2603372 23.82324677 19.2603372 21.9453125 25.14453125 C19.8828125 26.58203125 19.8828125 26.58203125 17.9453125 27.14453125 C18.4403125 27.53640625 18.9353125 27.92828125 19.4453125 28.33203125 C20.9453125 30.14453125 20.9453125 30.14453125 21.4453125 32.51953125 C20.71765179 36.33975 18.90641961 37.69839929 15.9453125 40.14453125 C9.79377922 43.65969312 3.99878969 45.12082903 -3.0546875 44.14453125 C-8.80597458 42.11516055 -13.96511903 39.58217175 -17.0546875 34.14453125 C-20.19467059 26.87732147 -21.14460946 20.77616795 -18.5546875 13.14453125 C-16.24354954 7.7764626 -12.97373753 4.27047728 -8.0546875 1.14453125 C-5.23164261 0.24355948 -2.91682626 0.20517599 0 0 Z M-6.0546875 13.14453125 C-6.3846875 14.46453125 -6.7146875 15.78453125 -7.0546875 17.14453125 C-1.4446875 17.14453125 4.1653125 17.14453125 9.9453125 17.14453125 C9.55368109 12.29692983 9.55368109 12.29692983 7.1953125 10.83203125 C1.9847219 9.23990634 -1.47334815 10.22913348 -6.0546875 13.14453125 Z M-6.0546875 26.14453125 C-4.71905134 31.0891676 -4.71905134 31.0891676 -2.0546875 32.14453125 C3.20072235 32.54879355 6.44833529 31.90403999 10.9453125 29.14453125 C11.9353125 28.15453125 12.9253125 27.16453125 13.9453125 26.14453125 C7.3453125 26.14453125 0.7453125 26.14453125 -6.0546875 26.14453125 Z " fill="#E4E4E4" transform="translate(340.0546875,167.85546875)"/>
<path d="M0 0 C3.71351979 2.76133523 5.9706485 5.4119455 7.4375 9.8125 C7.5329867 12.08436273 7.56823537 14.35894494 7.5703125 16.6328125 C7.57126923 17.29207733 7.57222595 17.95134216 7.57321167 18.63058472 C7.57389105 20.02081396 7.57205367 21.41104641 7.56787109 22.80126953 C7.56250228 24.93659514 7.56783293 27.07171203 7.57421875 29.20703125 C7.57355826 30.55729213 7.5722777 31.90755289 7.5703125 33.2578125 C7.56918457 34.49031738 7.56805664 35.72282227 7.56689453 36.99267578 C7.4375 39.8125 7.4375 39.8125 6.4375 40.8125 C4.60634117 40.91101171 2.77130067 40.94222629 0.9375 40.9375 C-0.0628125 40.94007813 -1.063125 40.94265625 -2.09375 40.9453125 C-4.5625 40.8125 -4.5625 40.8125 -5.5625 39.8125 C-5.72123955 37.59562006 -5.81383837 35.37394702 -5.87890625 33.15234375 C-5.89968735 32.48787735 -5.92046844 31.82341095 -5.94187927 31.1388092 C-6.00743658 29.00931457 -6.06628785 26.87969332 -6.125 24.75 C-6.16817939 23.30923153 -6.21179349 21.86847601 -6.25585938 20.42773438 C-6.36394527 16.88945097 -6.46297093 13.35107603 -6.5625 9.8125 C-10.8525 10.8025 -15.1425 11.7925 -19.5625 12.8125 C-19.62308594 14.74996094 -19.68367188 16.68742187 -19.74609375 18.68359375 C-19.83047774 21.20573759 -19.9151268 23.72787257 -20 26.25 C-20.03931641 27.52939453 -20.07863281 28.80878906 -20.11914062 30.12695312 C-20.16103516 31.34189453 -20.20292969 32.55683594 -20.24609375 33.80859375 C-20.30108032 35.49746704 -20.30108032 35.49746704 -20.35717773 37.22045898 C-20.5625 39.8125 -20.5625 39.8125 -21.5625 40.8125 C-24.8625 40.8125 -28.1625 40.8125 -31.5625 40.8125 C-31.5625 27.2825 -31.5625 13.7525 -31.5625 -0.1875 C-27.6025 -0.1875 -23.6425 -0.1875 -19.5625 -0.1875 C-13.40955161 -2.2384828 -6.11765143 -2.03921714 0 0 Z " fill="#E3E3E3" transform="translate(399.5625,169.1875)"/>
<path d="M0 0 C2.52197266 -0.2487793 2.52197266 -0.2487793 5.6640625 -0.07421875 C7.34628906 0.00795898 7.34628906 0.00795898 9.0625 0.09179688 C10.238125 0.16462891 11.41375 0.23746094 12.625 0.3125 C14.40003906 0.4043457 14.40003906 0.4043457 16.2109375 0.49804688 C19.14164579 0.65167271 22.0708392 0.81957381 25 1 C25 4.3 25 7.6 25 11 C23.5975 11.12375 22.195 11.2475 20.75 11.375 C17.33829127 11.67603312 15.01954845 12.41223006 12 14 C11.97494385 14.81267334 11.9498877 15.62534668 11.92407227 16.46264648 C11.80850882 20.12110752 11.68560416 23.77928528 11.5625 27.4375 C11.52318359 28.71689453 11.48386719 29.99628906 11.44335938 31.31445312 C11.40146484 32.52939453 11.35957031 33.74433594 11.31640625 34.99609375 C11.26141968 36.68496704 11.26141968 36.68496704 11.20532227 38.40795898 C11 41 11 41 10 42 C8.16884117 42.09851171 6.33380067 42.12972629 4.5 42.125 C3.4996875 42.12757813 2.499375 42.13015625 1.46875 42.1328125 C-1 42 -1 42 -2 41 C-2.11348062 38.223444 -2.16418399 35.47270746 -2.16796875 32.6953125 C-2.17129715 31.86039276 -2.17462555 31.02547302 -2.17805481 30.16525269 C-2.18312812 28.39484205 -2.18546301 26.62442181 -2.18530273 24.85400391 C-2.18748519 22.1433941 -2.20562526 19.43319374 -2.22460938 16.72265625 C-2.227544 15.00520973 -2.22952833 13.28776127 -2.23046875 11.5703125 C-2.23765427 10.7577298 -2.24483978 9.94514709 -2.25224304 9.10794067 C-2.2364331 5.21621206 -2.20858526 3.31287789 0 0 Z " fill="#EEEEEE" transform="translate(506,168)"/>
</svg>
