<?xml version="1.0" encoding="UTF-8"?>
<svg version="1.1" xmlns="http://www.w3.org/2000/svg" width="512" height="512">
<path d="M0 0 C168.96 0 337.92 0 512 0 C512 168.96 512 337.92 512 512 C343.04 512 174.08 512 0 512 C0 343.04 0 174.08 0 0 Z " fill="#000000" transform="translate(0,0)"/>
<path d="M0 0 C6.94992546 6.31811405 10.593774 13.02341829 11.26953125 22.4296875 C11.75311595 34.66184631 10.73862982 44.87057089 3.79296875 55.2890625 C1.74365234 55.65795898 1.74365234 55.65795898 -0.80859375 55.66015625 C-1.76145264 55.6746582 -2.71431152 55.68916016 -3.69604492 55.70410156 C-5.24835815 55.71521973 -5.24835815 55.71521973 -6.83203125 55.7265625 C-29.19711632 56.28480686 -52.23255107 60.42363243 -73.20703125 68.2890625 C-73.53703125 124.7190625 -73.86703125 181.1490625 -74.20703125 239.2890625 C-87.60486195 242.16002622 -99.07055235 243.48311435 -112.58203125 243.5390625 C-113.81953125 243.5596875 -115.05703125 243.5803125 -116.33203125 243.6015625 C-127.50229357 243.64859518 -139.09204342 242.33961931 -148.20703125 235.2890625 C-157.07905158 226.2440983 -159.3102956 216.62110692 -159.35420227 204.18133545 C-159.35787896 203.50116246 -159.36155565 202.82098946 -159.36534375 202.12020516 C-159.37628443 199.85975127 -159.38020787 197.59934348 -159.3840332 195.33886719 C-159.39030501 193.71038165 -159.39695244 192.08189752 -159.40394592 190.45341492 C-159.42489929 185.12259908 -159.43533854 179.79178324 -159.4453125 174.4609375 C-159.44936299 172.62024165 -159.45348 170.77954595 -159.45766258 168.9388504 C-159.47669325 160.29069348 -159.49093002 151.64254499 -159.49927455 142.99437118 C-159.50904629 133.03366188 -159.53537312 123.07317483 -159.57577544 113.11254382 C-159.60598821 105.39764306 -159.62074822 97.68280586 -159.62405556 89.96784711 C-159.62639964 85.3670826 -159.6352766 80.76655611 -159.66051674 76.16585541 C-159.68389388 71.83519964 -159.68799223 67.50493705 -159.67775536 63.17423439 C-159.67726226 61.59207916 -159.68351531 60.00990392 -159.6973114 58.42780876 C-159.82810886 42.52876049 -155.98838691 31.67493177 -145.05078125 19.984375 C-132.53955191 8.56990927 -114.31366583 1.78812244 -98.20703125 -2.7109375 C-96.43005859 -3.22527344 -96.43005859 -3.22527344 -94.6171875 -3.75 C-66.24376582 -11.42165787 -25.29911899 -19.61241437 0 0 Z " fill="#FEFEFE" transform="translate(284.20703125,137.7109375)"/>
<path d="M0 0 C5.36735294 2.9415673 9.94184579 6.39344657 14 11 C14.48082031 11.53882813 14.96164062 12.07765625 15.45703125 12.6328125 C25.85118864 25.21105866 26.45257404 39.35644707 25 55 C23.75851562 63.44819629 20.1517564 70.29565948 15 77 C14.401875 77.886875 13.80375 78.77375 13.1875 79.6875 C5.89090301 87.40104539 -4.93274215 92.4334242 -15.52026367 93.17700195 C-18.40943546 93.24386983 -21.29768306 93.28483743 -24.1875 93.3125 C-25.6734668 93.35600586 -25.6734668 93.35600586 -27.18945312 93.40039062 C-37.61767118 93.48928691 -45.53899317 89.85029076 -54 84 C-54.845625 83.443125 -55.69125 82.88625 -56.5625 82.3125 C-63.4864194 75.74365339 -67.21308252 68.0050398 -70 59 C-70.495 57.515 -70.495 57.515 -71 56 C-72.45437334 38.37446793 -71.20320807 24.65172176 -60.09375 10.37109375 C-45.81636573 -5.79751119 -19.12131392 -9.11206309 0 0 Z " fill="#FDFDFD" transform="translate(362,292)"/>
<path d="M0 0 C14.52 0 29.04 0 44 0 C40.99559979 2.00293347 39.29006055 2.49271626 35.8125 3.125 C34.46091797 3.37636719 34.46091797 3.37636719 33.08203125 3.6328125 C32.39496094 3.75398437 31.70789063 3.87515625 31 4 C30.67 4.99 30.34 5.98 30 7 C29.21625 7.12375 28.4325 7.2475 27.625 7.375 C24.85942178 7.79117993 24.85942178 7.79117993 23 10 C21.88475237 11.01086484 20.75869747 12.0098712 19.625 13 C19.03976563 13.515625 18.45453125 14.03125 17.8515625 14.5625 C16 16 16 16 13.8359375 17.0078125 C11.00157568 18.539574 10.95339911 21.02062779 10 24 C9.37609375 24.55429687 8.7521875 25.10859375 8.109375 25.6796875 C5.20826138 28.87091249 4.40015995 32.15571992 3.25 36.25 C3.02957031 36.99507812 2.80914062 37.74015625 2.58203125 38.5078125 C2.04318906 40.33519035 1.52001096 42.1671745 1 44 C0.67 44 0.34 44 0 44 C0 29.48 0 14.96 0 0 Z " fill="#111111" transform="translate(0,0)"/>
<path d="M0 0 C-1.98 0.33 -3.96 0.66 -6 1 C-6.33 1.99 -6.66 2.98 -7 4 C-8.65 4 -10.3 4 -12 4 C-8.66437635 0.13769893 -4.98576775 -1.84658065 0 0 Z " fill="#8E8E8E" transform="translate(37,3)"/>
<path d="M0 0 C5.75 2.625 5.75 2.625 8 6 C6.02 5.34 4.04 4.68 2 4 C2 3.34 2 2.68 2 2 C1.34 2 0.68 2 0 2 C0 1.34 0 0.68 0 0 Z " fill="#7E7E7E" transform="translate(486,6)"/>
</svg>
