<?xml version="1.0" encoding="UTF-8"?>
<svg version="1.1" xmlns="http://www.w3.org/2000/svg" width="500" height="500">
<path d="M0 0 C0.78632813 0.44859375 1.57265625 0.8971875 2.3828125 1.359375 C24.18465515 15.02620174 39.86590277 38.22654451 46 63 C46.29777344 64.18078125 46.59554687 65.3615625 46.90234375 66.578125 C49.00565733 75.84433597 49.33464308 84.56802276 49 94 C49.60585938 93.9270874 50.21171875 93.8541748 50.8359375 93.77905273 C74.34705182 91.1589199 94.72565956 95.5127026 113.5 110.1875 C131.46494171 125.41589206 140.55004977 143.5723509 143 167 C144.40293531 184.91665302 138.3039789 202.65405107 128.234375 217.1875 C126.95367117 218.9811299 126.95367117 218.9811299 126 221 C126.66876527 222.93886992 126.66876527 222.93886992 127.75 225.0625 C129.60266052 229.02424463 131.07093851 232.98448122 132.38671875 237.15234375 C132.97229804 239.06349402 132.97229804 239.06349402 134 241 C134.04022391 243.3329866 134.04320247 245.66706666 134 248 C132.0625 249.25 132.0625 249.25 129 250 C125.81710483 249.07358561 122.94477647 247.50472473 120 246 C117.77872116 244.88004983 115.54912333 243.77648308 113.3125 242.6875 C112.25675781 242.15511719 111.20101563 241.62273437 110.11328125 241.07421875 C105.45715627 239.46765116 102.5351258 240.30145502 98.1328125 242.3046875 C96.64394531 243.08199219 96.64394531 243.08199219 95.125 243.875 C78.00007863 251.96122848 58.05376308 251.93715154 40 247 C35.49323543 245.28782307 31.2616102 243.24629589 27 241 C25.82050781 240.44892578 25.82050781 240.44892578 24.6171875 239.88671875 C7.60835115 231.50422772 -4.30699007 214.19731718 -11 197 C-12.17191339 193.36288308 -13.18511019 189.73297143 -14 186 C-17.21813958 186 -19.13753391 186.90689726 -22.03222656 188.19384766 C-44.50965046 197.40234067 -72.74877934 195.00904763 -94.78369141 185.95507812 C-97.83723851 184.65087921 -100.86530189 183.29769293 -103.8762207 181.89794922 C-104.57706787 181.60162598 -105.27791504 181.30530273 -106 181 C-106.9475415 180.58411621 -107.89508301 180.16823242 -108.87133789 179.73974609 C-112.87689547 178.79266537 -114.46286043 179.58024731 -118.1328125 181.359375 C-119.26847656 181.89820313 -120.40414062 182.43703125 -121.57421875 182.9921875 C-122.74597656 183.57226562 -123.91773438 184.15234375 -125.125 184.75 C-126.89423828 185.59691406 -126.89423828 185.59691406 -128.69921875 186.4609375 C-134.49936094 189.23316054 -134.49936094 189.23316054 -140.20263672 192.19628906 C-142.76934717 193.34402213 -144.37033633 192.8304201 -147 192 C-149 190 -149 190 -149.22265625 188.25 C-148.52690881 178.4755969 -144.35942287 168.71884574 -140 160 C-139.7647268 157.89145964 -139.7647268 157.89145964 -139.75 155.5625 C-139.72421875 154.78003906 -139.6984375 153.99757813 -139.671875 153.19140625 C-140.08455053 150.43532324 -140.97999797 149.85915878 -143 148 C-146.91535472 141.63102299 -150.11269807 134.8860339 -153 128 C-153.33902344 127.24460937 -153.67804688 126.48921875 -154.02734375 125.7109375 C-158.18916312 116.06808054 -160.39530619 105.48135943 -161 95 C-161.05285156 94.15953125 -161.10570312 93.3190625 -161.16015625 92.453125 C-161.60559605 78.43145465 -158.72981455 64.14636668 -154 51 C-153.69191406 50.10925781 -153.38382812 49.21851563 -153.06640625 48.30078125 C-151.13950834 43.07976742 -148.67750362 38.64750512 -145.46484375 34.10546875 C-143.95610741 32.00430258 -143.95610741 32.00430258 -142.671875 29.66796875 C-140.50813429 26.21508346 -137.97044689 23.20607576 -135.3125 20.125 C-134.77939209 19.50657227 -134.24628418 18.88814453 -133.69702148 18.25097656 C-122.95204546 5.95526279 -122.95204546 5.95526279 -116 4 C-116 3.34 -116 2.68 -116 2 C-112.83623141 -0.26909633 -109.39579496 -2.10090658 -106 -4 C-105.35546875 -4.36480469 -104.7109375 -4.72960937 -104.046875 -5.10546875 C-71.73512606 -22.31498721 -30.45737097 -19.76960261 0 0 Z M-106.3125 80.1875 C-108.47990228 83.79983713 -109.20653931 86.79485971 -109 91 C-107.1434497 96.36336752 -104.05501111 99.47249444 -99 102 C-94.05484073 102.48481954 -90.64680233 101.97598798 -86.515625 99.32421875 C-83.74748206 96.90566087 -82.93209787 94.49536701 -82 91 C-81.72432977 86.5462029 -82.51497439 83.18226432 -85.25 79.625 C-88.60352165 76.42391115 -90.89174207 75.27028948 -95.4375 74.6875 C-99.96527683 75.23966791 -103.02886176 77.08135572 -106.3125 80.1875 Z M-68.0625 81.6875 C-69.59265276 87.09403976 -68.94413297 91.71420438 -66.8125 96.875 C-64.37829243 99.72889853 -62.5761459 100.80795137 -59 102 C-54.39948705 102.20284449 -50.99900955 101.61641015 -47.0625 99.1875 C-43.22983899 95.1225565 -42.54379945 91.71062082 -42.6875 86.25 C-43.18592997 82.66130423 -44.5968583 80.65610399 -47 78 C-54.65072757 73.11655687 -62.47609861 74.4082497 -68.0625 81.6875 Z M-25 78 C-28.61601545 81.85708315 -29.36428034 85.68266599 -29.27734375 90.9375 C-28.8083752 94.42504073 -27.29403799 96.4041149 -25 99 C-20.94153843 101.64682276 -17.81604946 102.77056791 -13 102 C-9.0611972 100.20762344 -5.83549861 98.32287279 -3.5 94.625 C-2.41020059 88.9035531 -2.47285076 84.48326672 -5.58984375 79.51171875 C-8.14281877 76.77487295 -11.40731715 75.77460308 -15 75 C-18.95702268 75 -21.47666862 76.23833431 -25 78 Z M27.625 163.625 C25.65689526 166.50146077 24.60951303 168.54609285 24 172 C25.06786591 175.55955305 25.85439469 178.09141648 28.8125 180.4375 C32.92350292 181.49461504 35.88450573 181.53239499 39.75 179.6875 C42.22072445 178.02946845 42.22072445 178.02946845 44 175 C44.34222445 170.34582831 44.34222445 170.34582831 43 166 C42.34 166 41.68 166 41 166 C40.67 165.01 40.34 164.02 40 163 C35.87136859 160.9356843 31.3502371 161.07615356 27.625 163.625 Z M55 167 C53.6690684 170.39969811 53.6690684 170.39969811 54 174 C55.98611413 177.45968268 57.18210534 179.38924488 60.9765625 180.6640625 C63.87345044 181.13060251 66.4596938 181.13142583 69.3125 180.4375 C71.85101852 178.2750583 72.84346991 176.10437024 74 173 C73.75841603 169.6178244 72.78681495 166.87875743 71 164 C64.76176053 159.84117368 59.21398201 160.99826804 55 167 Z M85 166 C83.5255083 170.52177454 83.91825102 173.74187708 86 178 C88.28164045 180.08031923 89.86811759 180.92574131 92.96484375 181.12890625 C96.73516762 180.89721037 98.57278832 180.36312993 101.5 177.875 C103.42798576 174.17969396 103.65067954 172.12097041 103 168 C101.17331062 164.42462844 101.17331062 164.42462844 98 162 C92.68594794 160.59649028 88.63055033 161.81936629 85 166 Z " fill="#2BAAE0" transform="translate(259,133)"/>
<path d="M0 0 C4.11072755 4.11072755 4.65256622 11.40207768 6 17 C6.23203125 17.94875 6.4640625 18.8975 6.703125 19.875 C8.41104722 27.87783555 8.18377965 35.86264542 8 44 C8.60585938 43.9270874 9.21171875 43.8541748 9.8359375 43.77905273 C33.34705182 41.1589199 53.72565956 45.5127026 72.5 60.1875 C90.46494171 75.41589206 99.55004977 93.5723509 102 117 C103.40293531 134.91665302 97.3039789 152.65405107 87.234375 167.1875 C85.95367117 168.9811299 85.95367117 168.9811299 85 171 C85.66876527 172.93886992 85.66876527 172.93886992 86.75 175.0625 C88.60266052 179.02424463 90.07093851 182.98448122 91.38671875 187.15234375 C91.97229804 189.06349402 91.97229804 189.06349402 93 191 C93.04022391 193.3329866 93.04320247 195.66706666 93 198 C91.0625 199.25 91.0625 199.25 88 200 C84.81710483 199.07358561 81.94477647 197.50472473 79 196 C76.77872116 194.88004983 74.54912333 193.77648308 72.3125 192.6875 C71.25675781 192.15511719 70.20101562 191.62273437 69.11328125 191.07421875 C64.45715627 189.46765116 61.5351258 190.30145502 57.1328125 192.3046875 C56.14023437 192.82289063 55.14765625 193.34109375 54.125 193.875 C37.00007863 201.96122848 17.05376308 201.93715154 -1 197 C-5.50676457 195.28782307 -9.7383898 193.24629589 -14 191 C-14.78632813 190.63261719 -15.57265625 190.26523437 -16.3828125 189.88671875 C-33.39164885 181.50422772 -45.30699007 164.19731718 -52 147 C-53.17191339 143.36288308 -54.18511019 139.73297143 -55 136 C-58.21813958 136 -60.13753391 136.90689726 -63.03222656 138.19384766 C-78.42002306 144.49788042 -98.87465113 145.41380019 -115 142 C-115 141.67 -115 141.34 -115 141 C-114.17387207 141.01047363 -113.34774414 141.02094727 -112.49658203 141.03173828 C-109.38412538 141.06615173 -106.27176683 141.09105838 -103.15917969 141.10986328 C-101.16855363 141.12467591 -99.17801563 141.15010992 -97.1875 141.17578125 C-88.21696659 141.22108697 -80.12727777 140.70320103 -71.75 137.375 C-68.16534597 136.06062685 -65.7667508 135.71749369 -62 136 C-62 135.34 -62 134.68 -62 134 C-58.535 133.01 -58.535 133.01 -55 132 C-55.05220703 130.83210938 -55.05220703 130.83210938 -55.10546875 129.640625 C-55.44020939 115.8046787 -54.46559654 100.46936476 -48 88 C-47.57976562 87.11441406 -47.15953125 86.22882813 -46.7265625 85.31640625 C-43.61067962 79.11046272 -39.83798626 74.21011686 -35.05078125 69.19140625 C-32.97156817 67.06340497 -32.97156817 67.06340497 -31.35546875 64.71484375 C-30.90816406 64.14894531 -30.46085937 63.58304688 -30 63 C-29.34 63 -28.68 63 -28 63 C-28 62.34 -28 61.68 -28 61 C-25.43854292 58.9441612 -22.55605048 57.32574647 -19.75 55.625 C-18.93257324 55.12766357 -18.11514648 54.63032715 -17.27294922 54.11791992 C-9.94508073 49.77118449 -2.7012257 46 6 46 C5.505 33.625 5.505 33.625 5 21 C4.34 21 3.68 21 3 21 C0.95938459 13.82140651 -0.37369729 7.47394574 0 0 Z M-13.375 113.625 C-15.34310474 116.50146077 -16.39048697 118.54609285 -17 122 C-15.93213409 125.55955305 -15.14560531 128.09141648 -12.1875 130.4375 C-8.07649708 131.49461504 -5.11549427 131.53239499 -1.25 129.6875 C1.22072445 128.02946845 1.22072445 128.02946845 3 125 C3.34222445 120.34582831 3.34222445 120.34582831 2 116 C1.34 116 0.68 116 0 116 C-0.33 115.01 -0.66 114.02 -1 113 C-5.12863141 110.9356843 -9.6497629 111.07615356 -13.375 113.625 Z M14 117 C12.6690684 120.39969811 12.6690684 120.39969811 13 124 C14.98611413 127.45968268 16.18210534 129.38924488 19.9765625 130.6640625 C22.87345044 131.13060251 25.4596938 131.13142583 28.3125 130.4375 C30.85101852 128.2750583 31.84346991 126.10437024 33 123 C32.75841603 119.6178244 31.78681495 116.87875743 30 114 C23.76176053 109.84117368 18.21398201 110.99826804 14 117 Z M44 116 C42.5255083 120.52177454 42.91825102 123.74187708 45 128 C47.28164045 130.08031923 48.86811759 130.92574131 51.96484375 131.12890625 C55.73516762 130.89721037 57.57278832 130.36312993 60.5 127.875 C62.42798576 124.17969396 62.65067954 122.12097041 62 118 C60.17331062 114.42462844 60.17331062 114.42462844 57 112 C51.68594794 110.59649028 47.63055033 111.81936629 44 116 Z " fill="#58CCF6" transform="translate(300,183)"/>
<path d="M0 0 C0.33 0.66 0.66 1.32 1 2 C1.96421875 1.855625 2.9284375 1.71125 3.921875 1.5625 C5.81679688 1.2840625 5.81679688 1.2840625 7.75 1 C9.00296875 0.814375 10.2559375 0.62875 11.546875 0.4375 C15 0 15 0 19 0 C19 0.66 19 1.32 19 2 C18.34 2 17.68 2 17 2 C17 3.32 17 4.64 17 6 C17.66 6 18.32 6 19 6 C19.33848652 7.89492006 19.67056911 9.79098466 20 11.6875 C20.185625 12.74324219 20.37125 13.79898437 20.5625 14.88671875 C20.95068074 17.64904062 21.08259976 20.21742043 21 23 C15.50595221 25.53876576 10.83252197 25.45813049 5 24 C1.57760842 21.94776169 -1.20230508 19.59538984 -3 16 C-3.94101877 4.76206434 -3.94101877 4.76206434 0 0 Z M1.625 4.625 C-0.34310474 7.50146077 -1.39048697 9.54609285 -2 13 C-0.93213409 16.55955305 -0.14560531 19.09141648 2.8125 21.4375 C6.92350292 22.49461504 9.88450573 22.53239499 13.75 20.6875 C16.22072445 19.02946845 16.22072445 19.02946845 18 16 C18.34222445 11.34582831 18.34222445 11.34582831 17 7 C16.34 7 15.68 7 15 7 C14.67 6.01 14.34 5.02 14 4 C9.87136859 1.9356843 5.3502371 2.07615356 1.625 4.625 Z " fill="#82D7F3" transform="translate(285,292)"/>
<path d="M0 0 C6.14741228 9.22111841 4.53316788 23.45805125 2.625 33.88671875 C0.05888089 46.66919957 -3.91432959 57.59058853 -12 68 C-12.99 68.495 -12.99 68.495 -14 69 C-13.70867187 68.42765625 -13.41734375 67.8553125 -13.1171875 67.265625 C-12.05700232 65.11559911 -11.0815748 62.94775036 -10.125 60.75 C-8.21749373 56.42584105 -6.14403589 52.21149906 -4 48 C-3.34 48 -2.68 48 -2 48 C-1.67 43.71 -1.34 39.42 -1 35 C-0.34 35 0.32 35 1 35 C1.10709533 23.27901152 0.99140649 11.68443367 0 0 Z " fill="#B3E6F5" transform="translate(398,284)"/>
<path d="M0 0 C0.66 0 1.32 0 2 0 C5.74361774 5.61542661 5.68396373 11.40019411 5 18 C3.98046875 20.87109375 3.98046875 20.87109375 3 23 C1.35 23 -0.3 23 -2 23 C-2 23.66 -2 24.32 -2 25 C-5.14173196 26.57086598 -8.54445256 26.41960033 -12 26.625 C-13.10601562 26.70234375 -13.10601562 26.70234375 -14.234375 26.78125 C-19.75273945 27.12363028 -19.75273945 27.12363028 -22 26 C-22 25.01 -22 24.02 -22 23 C-21.01 23 -20.02 23 -19 23 C-19.33 21.68 -19.66 20.36 -20 19 C-19.23816406 19.433125 -19.23816406 19.433125 -18.4609375 19.875 C-14.18518344 22.18102466 -10.96375746 23.84489489 -6 23 C-2.42990279 21.5945091 0.3615403 20.02708734 2.4375 16.6875 C3.80380436 10.15960139 2.85559199 5.83016699 0 0 Z " fill="#5AB5D9" transform="translate(252,211)"/>
<path d="M0 0 C0.33 0 0.66 0 1 0 C1 5.28 1 10.56 1 16 C3.165625 15.75056641 3.165625 15.75056641 5.375 15.49609375 C20.92163684 13.96274929 35.67299425 15.60037776 50 22 C50.495 22.99 50.495 22.99 51 24 C45.06 23.01 45.06 23.01 39 22 C39 21.34 39 20.68 39 20 C36.69 20 34.38 20 32 20 C31.67 19.01 31.34 18.02 31 17 C15.655 17.495 15.655 17.495 0 18 C0 12.06 0 6.12 0 0 Z " fill="#B0E9F4" transform="translate(307,211)"/>
<path d="M0 0 C0 0.33 0 0.66 0 1 C-0.83660156 0.9278125 -1.67320312 0.855625 -2.53515625 0.78125 C-21.53681265 -0.92184493 -21.53681265 -0.92184493 -40 3 C-40.33 3.33 -40.66 3.66 -41 4 C-42.89132506 4.21178134 -44.78885354 4.36921992 -46.6875 4.5 C-50.84366103 4.81208361 -54.90298274 5.20335776 -59 6 C-45.44479515 -5.46978872 -16.09019213 -4.22037826 0 0 Z " fill="#8ED1EA" transform="translate(224,119)"/>
<path d="M0 0 C2.70343211 2.70343211 3.15970399 5.71161401 4.0625 9.3125 C4.23587891 9.97701172 4.40925781 10.64152344 4.58789062 11.32617188 C6.0276164 16.9030407 7.12851903 21.96694173 7.09765625 27.73828125 C7.09443359 28.80498047 7.09121094 29.87167969 7.08789062 30.97070312 C7.07951172 32.07349609 7.07113281 33.17628906 7.0625 34.3125 C7.05798828 35.43462891 7.05347656 36.55675781 7.04882812 37.71289062 C7.03707313 40.4753151 7.02064077 43.23762998 7 46 C7.99 46 8.98 46 10 46 C9.67 46.99 9.34 47.98 9 49 C8.01 49 7.02 49 6 49 C5.67 39.76 5.34 30.52 5 21 C4.34 21 3.68 21 3 21 C0.95938459 13.82140651 -0.37369729 7.47394574 0 0 Z " fill="#7DC9E7" transform="translate(300,183)"/>
<path d="M0 0 C0 0.99 0 1.98 0 3 C0.12375 3.7425 0.2475 4.485 0.375 5.25 C-0.05832032 8.42768234 -0.72231765 8.99281851 -2.875 11.25 C-6.03881521 14.6366191 -6.91232849 17.45061778 -7.578125 21.984375 C-8 24 -8 24 -10 27 C-10.66 27 -11.32 27 -12 27 C-12.33 27.66 -12.66 28.32 -13 29 C-12.43841512 23.69918661 -11.17007194 19.28317265 -9.125 14.375 C-8.86847656 13.73304688 -8.61195312 13.09109375 -8.34765625 12.4296875 C-4.503232 3.00215467 -4.503232 3.00215467 0 0 Z " fill="#66BEDE" transform="translate(115,167)"/>
<path d="M0 0 C5.58903108 0.05322887 5.58903108 0.05322887 8.15625 2.03125 C11.05975256 6.28521886 11.96452048 10.53074583 11.69140625 15.640625 C11.25 17.5625 11.25 17.5625 9.25 19.625 C8.26 20.0890625 8.26 20.0890625 7.25 20.5625 C6.59 20.2325 5.93 19.9025 5.25 19.5625 C5.745 19.046875 6.24 18.53125 6.75 18 C8.82700386 14.62486872 8.72919182 12.46449054 8.25 8.5625 C6.92838573 5.49376102 6.92838573 5.49376102 4.25 3.5625 C-1.18419491 2.8724435 -4.26133104 3.19599828 -8.75 6.5625 C-6.58215634 0.92610648 -6.12946997 0.35132328 0 0 Z " fill="#AEE8F7" transform="translate(352.75,292.4375)"/>
<path d="M0 0 C0.66 1.32 1.32 2.64 2 4 C2.66 4 3.32 4 4 4 C4.33 5.98 4.66 7.96 5 10 C5.66 10 6.32 10 7 10 C7.2475 10.61875 7.495 11.2375 7.75 11.875 C9.20628639 14.35068687 10.37812506 14.95125002 13 16 C13 17.65 13 19.3 13 21 C13.66 21 14.32 21 15 21 C15 21.66 15 22.32 15 23 C15.66 23 16.32 23 17 23 C16.67 24.32 16.34 25.64 16 27 C0 9.16600791 0 9.16600791 0 0 Z " fill="#7DCFF0" transform="translate(250,332)"/>
<path d="M0 0 C2 3.75 2 3.75 2 6 C1.01 6.495 1.01 6.495 0 7 C0 9.64 0 12.28 0 15 C1.65 15.33 3.3 15.66 5 16 C5 15.01 5 14.02 5 13 C7.31 13 9.62 13 12 13 C12 12.34 12 11.68 12 11 C13.65 11 15.3 11 17 11 C12.68163247 14.7551022 6.87093688 18.12216753 1.0625 17.875 C-1 17 -1 17 -3 15 C-3.10988249 9.82636597 -2.32492733 4.64985465 0 0 Z " fill="#8ED0E8" transform="translate(113,308)"/>
<path d="M0 0 C3.38889974 5.08334961 5.51928881 10.25452592 7.3515625 16.046875 C7.96403589 18.04691317 7.96403589 18.04691317 9 20 C9.04022391 22.3329866 9.04320247 24.66706666 9 27 C5.88228073 28.60339848 4.60988311 29.18974141 1.1875 28.125 C0.465625 27.75375 -0.25625 27.3825 -1 27 C1.89234315 26.17361624 3.88742431 26 7 26 C6.46274105 22.62294375 5.88935377 19.303314 5 16 C4.34 16 3.68 16 3 16 C2.49411853 14.08487728 1.99551609 12.16783078 1.5 10.25 C1.2215625 9.18265625 0.943125 8.1153125 0.65625 7.015625 C0 4 0 4 0 0 Z " fill="#A7E4F3" transform="translate(384,354)"/>
<path d="M0 0 C0.33 0.66 0.66 1.32 1 2 C4.96 2 8.92 2 13 2 C13.33 2.66 13.66 3.32 14 4 C13.31292969 3.98839844 12.62585938 3.97679687 11.91796875 3.96484375 C11.01691406 3.95582031 10.11585938 3.94679688 9.1875 3.9375 C8.29417969 3.92589844 7.40085937 3.91429687 6.48046875 3.90234375 C3.86586209 3.88990033 3.86586209 3.88990033 1 5 C-1.12445658 10.86754675 -1.17569234 14.19815377 1 20 C-1 18.6875 -1 18.6875 -3 16 C-3.74182932 10.92432568 -3.69600055 6.47900117 -1.5 1.8125 C-1.005 1.214375 -0.51 0.61625 0 0 Z " fill="#99E2F3" transform="translate(285,292)"/>
<path d="M0 0 C1.64666203 0.1135629 3.29236082 0.24117381 4.9375 0.375 C5.85402344 0.44460938 6.77054687 0.51421875 7.71484375 0.5859375 C8.84599609 0.79089844 8.84599609 0.79089844 10 1 C10.33 1.66 10.66 2.32 11 3 C13.52733235 3.65555119 13.52733235 3.65555119 16 4 C16 3.34 16 2.68 16 2 C19.75 0.875 19.75 0.875 22 2 C21.67 3.65 21.34 5.3 21 7 C12.87444134 6.83007387 7.00353714 5.11704678 0 1 C0 0.67 0 0.34 0 0 Z " fill="#79D5EF" transform="translate(370,374)"/>
<path d="M0 0 C0.66 0 1.32 0 2 0 C5.74361774 5.61542661 5.68396373 11.40019411 5 18 C3.98046875 20.87109375 3.98046875 20.87109375 3 23 C0.03 23.33 -2.94 23.66 -6 24 C-3.702779 22.25728062 -1.40133271 20.60088848 1 19 C3.18472357 14.97550921 3.39017522 11.52603255 3 7 C2.16956207 4.53748754 1.14770078 2.34322243 0 0 Z " fill="#89D0EA" transform="translate(252,211)"/>
<path d="M0 0 C0.969375 0.680625 1.93875 1.36125 2.9375 2.0625 C7.38456255 4.65965743 11.11682489 4.01871227 16 3 C15.67 4.65 15.34 6.3 15 8 C3.47835991 7.22095672 3.47835991 7.22095672 -2 5 C-1.34 4.67 -0.68 4.34 0 4 C0 2.68 0 1.36 0 0 Z " fill="#95DBF3" transform="translate(314,309)"/>
<path d="M0 0 C1.79158489 -0.02696365 3.58328473 -0.04637917 5.375 -0.0625 C6.37273437 -0.07410156 7.37046875 -0.08570313 8.3984375 -0.09765625 C11 0 11 0 13 1 C13 1.66 13 2.32 13 3 C13.66 3 14.32 3 15 3 C15 6.96 15 10.92 15 15 C14.34 15 13.68 15 13 15 C12.67 15.99 12.34 16.98 12 18 C11.67 17.34 11.34 16.68 11 16 C11.495 15.1028125 11.495 15.1028125 12 14.1875 C13.29652136 11.35135953 12.8149002 9.96327346 12 7 C11.67 5.68 11.34 4.36 11 3 C7.37 2.34 3.74 1.68 0 1 C0 0.67 0 0.34 0 0 Z " fill="#A6E5F5" transform="translate(319,294)"/>
<path d="M0 0 C0.33 0.66 0.66 1.32 1 2 C-0.19625 1.938125 -1.3925 1.87625 -2.625 1.8125 C-7.63346817 1.82136455 -11.1122961 3.24248258 -14.8125 6.6875 C-16.55322217 10.07732738 -16.63866451 13.20597738 -17 17 C-17.33 17.99 -17.66 18.98 -18 20 C-19.38226016 17.23547967 -19.09525387 14.9538637 -19.0625 11.875 C-19.05347656 10.77929688 -19.04445312 9.68359375 -19.03515625 8.5546875 C-19.02355469 7.71164063 -19.01195312 6.86859375 -19 6 C-18.01 6 -17.02 6 -16 6 C-16 4.68 -16 3.36 -16 2 C-10.42932723 0.40837921 -5.78898419 -0.20674944 0 0 Z " fill="#8CD4ED" transform="translate(168,207)"/>
<path d="M0 0 C1.65 0 3.3 0 5 0 C4.45859375 0.70962891 4.45859375 0.70962891 3.90625 1.43359375 C0.18049471 6.74279503 -0.66945317 10.57324953 0 17 C-0.66 16.67 -1.32 16.34 -2 16 C-2 15.34 -2 14.68 -2 14 C-2.66 14 -3.32 14 -4 14 C-4.56561146 8.34388537 -2.71391278 4.77357872 0 0 Z " fill="#75C4E4" transform="translate(191,210)"/>
<path d="M0 0 C0.66 0.99 1.32 1.98 2 3 C1.27167969 3.40347656 0.54335938 3.80695313 -0.20703125 4.22265625 C-3.08768534 6.05579976 -5.28478524 8.018468 -7.6875 10.4375 C-8.45449219 11.19933594 -9.22148437 11.96117187 -10.01171875 12.74609375 C-11.82594836 14.80269588 -12.84087039 16.55061752 -14 19 C-16.125 20.75 -16.125 20.75 -18 22 C-16.60119022 17.77332612 -14.60056005 15.16512702 -11.5625 11.9375 C-8.29105012 8.44654513 -8.29105012 8.44654513 -5.33984375 4.69140625 C-4.67662109 3.85416016 -4.67662109 3.85416016 -4 3 C-3.34 3 -2.68 3 -2 3 C-2 2.34 -2 1.68 -2 1 C-1.34 0.67 -0.68 0.34 0 0 Z " fill="#48C5F4" transform="translate(274,243)"/>
<path d="M0 0 C3.28515921 3.28515921 3.93552774 6.86786706 4.1953125 11.4296875 C4.16050781 13.13511719 4.16050781 13.13511719 4.125 14.875 C4.10695313 16.02742188 4.08890625 17.17984375 4.0703125 18.3671875 C4.03550781 19.67042969 4.03550781 19.67042969 4 21 C3.67 21 3.34 21 3 21 C0.95938459 13.82140651 -0.37369729 7.47394574 0 0 Z " fill="#3FA8D5" transform="translate(300,183)"/>
<path d="M0 0 C0.66 0.33 1.32 0.66 2 1 C-1.3281009 5.11118347 -5.8296653 6.69329052 -10.90234375 7.41015625 C-13.60125147 7.65677459 -16.29371602 7.85807914 -19 8 C-14.2157506 4.8105004 -10.77575443 3.73136026 -5 4 C-5 3.34 -5 2.68 -5 2 C-2.625 0.9375 -2.625 0.9375 0 0 Z " fill="#6EBEDD" transform="translate(243,315)"/>
<path d="M0 0 C0.66 0 1.32 0 2 0 C5.27056252 5.17839066 5.97316833 10.01757574 5 16 C3 18.625 3 18.625 1 20 C0.34 19.67 -0.32 19.34 -1 19 C-0.505 18.360625 -0.01 17.72125 0.5 17.0625 C2.95124014 12.05788471 2.71380914 7.18604049 1 1.9375 C0.67 1.298125 0.34 0.65875 0 0 Z " fill="#91D7EC" transform="translate(213,212)"/>
<path d="M0 0 C1.32 0 2.64 0 4 0 C4 0.99 4 1.98 4 3 C4.763125 3.061875 5.52625 3.12375 6.3125 3.1875 C9 4 9 4 10.625 6.375 C11.07875 7.24125 11.5325 8.1075 12 9 C13.58245275 10.75149165 13.58245275 10.75149165 15 12 C10.70697803 10.58446303 7.99477764 8.48999477 4.6875 5.4375 C3.80449219 4.63183594 2.92148437 3.82617188 2.01171875 2.99609375 C1.34785156 2.33738281 0.68398438 1.67867188 0 1 C0 0.67 0 0.34 0 0 Z " fill="#A7E1F3" transform="translate(267,359)"/>
<path d="M0 0 C7.21712538 -0.48929664 7.21712538 -0.48929664 11 1.875 C13 4 13 4 13 6 C12.0925 5.690625 11.185 5.38125 10.25 5.0625 C4.67136785 3.12334868 4.67136785 3.12334868 -1 4 C-0.67 2.68 -0.34 1.36 0 0 Z " fill="#5CB6DD" transform="translate(144,309)"/>
<path d="M0 0 C5.85983633 0.51665968 10.60893883 1.75281077 16 4.0625 C16.67933594 4.34416016 17.35867187 4.62582031 18.05859375 4.91601562 C19.70939787 5.60191311 21.35525469 6.29969829 23 7 C23 7.33 23 7.66 23 8 C20.03 7.67 17.06 7.34 14 7 C14 6.34 14 5.68 14 5 C13.32453125 4.80664062 12.6490625 4.61328125 11.953125 4.4140625 C10.61507812 4.02347656 10.61507812 4.02347656 9.25 3.625 C8.36828125 3.36976562 7.4865625 3.11453125 6.578125 2.8515625 C4.23919428 2.0790066 2.16557438 1.16374324 0 0 Z " fill="#92D4EA" transform="translate(226,120)"/>
<path d="M0 0 C0.969375 0.515625 1.93875 1.03125 2.9375 1.5625 C6.83876328 3.26284693 9.84887391 2.99659917 13.984375 2.32421875 C16 2 16 2 19 2 C14.52418969 5.89522171 9.80197481 6.31695158 4 6 C1.3125 4.1875 1.3125 4.1875 0 2 C0 1.34 0 0.68 0 0 Z " fill="#88CDE8" transform="translate(193,231)"/>
<path d="M0 0 C0.66 0.99 1.32 1.98 2 3 C1.27231556 6.19061641 0.46534977 9.06930047 -1 12 C-1.66 12 -2.32 12 -3 12 C-3.33 12.66 -3.66 13.32 -4 14 C-3.46148032 8.72250715 -2.22656164 4.74354436 0 0 Z " fill="#56B7DC" transform="translate(106,182)"/>
<path d="M0 0 C1.65322266 0.01740234 1.65322266 0.01740234 3.33984375 0.03515625 C4.99693359 0.04869141 4.99693359 0.04869141 6.6875 0.0625 C7.54214844 0.07410156 8.39679688 0.08570313 9.27734375 0.09765625 C9.27734375 1.08765625 9.27734375 2.07765625 9.27734375 3.09765625 C8.61347656 3.06285156 7.94960938 3.02804687 7.265625 2.9921875 C0.29792541 2.77058556 0.29792541 2.77058556 -5.72265625 6.09765625 C-3.42464819 0.1228353 -3.42464819 0.1228353 0 0 Z " fill="#95DCF1" transform="translate(349.72265625,292.90234375)"/>
<path d="M0 0 C1 2 1 2 0.375 4.5 C-1.38862889 7.70659797 -2.54260486 7.95172164 -6 9 C-9.11328125 9.1953125 -9.11328125 9.1953125 -12.3125 9.125 C-13.38113281 9.10695312 -14.44976562 9.08890625 -15.55078125 9.0703125 C-16.35902344 9.04710937 -17.16726562 9.02390625 -18 9 C-18 8.67 -18 8.34 -18 8 C-17.02160156 7.96132812 -17.02160156 7.96132812 -16.0234375 7.921875 C-10.26945122 7.54845996 -6.54168229 6.86042995 -2 3 C-1.34 2.01 -0.68 1.02 0 0 Z " fill="#38A6D4" transform="translate(216,228)"/>
<path d="M0 0 C0.33 0.66 0.66 1.32 1 2 C0.67 2.99 0.34 3.98 0 5 C-0.23294845 11.08568662 -0.23294845 11.08568662 1 17 C0.34 17 -0.32 17 -1 17 C-1 16.34 -1 15.68 -1 15 C-1.66 15 -2.32 15 -3 15 C-3.55353075 4.44191344 -3.55353075 4.44191344 0 0 Z " fill="#98D6EC" transform="translate(231,213)"/>
<path d="M0 0 C1.65 0 3.3 0 5 0 C5 0.66 5 1.32 5 2 C4.34 2 3.68 2 3 2 C4.66954819 5.22404978 4.66954819 5.22404978 7.625 5.6875 C8.40875 5.790625 9.1925 5.89375 10 6 C10 6.66 10 7.32 10 8 C9.01 8 8.02 8 7 8 C7 9.98 7 11.96 7 14 C6.67 14 6.34 14 6 14 C5.7525 12.96875 5.505 11.9375 5.25 10.875 C4.18307781 7.07119045 2.29657768 4.21520875 0 1 C0 0.67 0 0.34 0 0 Z " fill="#5EC8EE" transform="translate(358,292)"/>
<path d="M0 0 C7.486774 0.2798794 13.36270688 1.47649871 20 5 C17.2780754 6.3609623 15.8168043 5.70366248 12.875 5.0625 C11.96492188 4.86785156 11.05484375 4.67320312 10.1171875 4.47265625 C9.41851562 4.31667969 8.71984375 4.16070312 8 4 C8 3.34 8 2.68 8 2 C5.69 2 3.38 2 1 2 C0.67 1.34 0.34 0.68 0 0 Z " fill="#8AD8F0" transform="translate(338,229)"/>
<path d="M0 0 C0.66 1.32 1.32 2.64 2 4 C2.66 4 3.32 4 4 4 C4.33 5.98 4.66 7.96 5 10 C5.66 10 6.32 10 7 10 C8.0625 11.8125 8.0625 11.8125 9 14 C8.67 14.99 8.34 15.98 8 17 C0 4.54150198 0 4.54150198 0 0 Z " fill="#A5E4F5" transform="translate(250,332)"/>
<path d="M0 0 C0.66 0.33 1.32 0.66 2 1 C1.01 2.98 0.02 4.96 -1 7 C-1.7425 6.95875 -2.485 6.9175 -3.25 6.875 C-6.08758952 7.00398134 -7.58773938 7.57051222 -10 9 C-6.55384615 4.2 -6.55384615 4.2 -3.75 3.1875 C-3.1725 3.125625 -2.595 3.06375 -2 3 C-2 2.34 -2 1.68 -2 1 C-1.34 0.67 -0.68 0.34 0 0 Z " fill="#77C7E4" transform="translate(145,134)"/>
<path d="M0 0 C1.2380014 3.57644848 0.74926071 6.33694766 0 10 C-0.66 10 -1.32 10 -2 10 C-2.12375 10.639375 -2.2475 11.27875 -2.375 11.9375 C-2.58125 12.618125 -2.7875 13.29875 -3 14 C-3.99 14.495 -3.99 14.495 -5 15 C-4.54705135 13.24859857 -4.08741252 11.49892656 -3.625 9.75 C-3.36976562 8.77546875 -3.11453125 7.8009375 -2.8515625 6.796875 C-2.10401491 4.34162697 -1.22876183 2.24382595 0 0 Z " fill="#7FC8E5" transform="translate(119,293)"/>
<path d="M0 0 C-0.33 0.99 -0.66 1.98 -1 3 C-3.375 4.0625 -3.375 4.0625 -6 5 C-6.99 5.66 -7.98 6.32 -9 7 C-11.1875 6.625 -11.1875 6.625 -13 6 C-4.2 0 -4.2 0 0 0 Z " fill="#80CAE3" transform="translate(160,127)"/>
<path d="M0 0 C2 3.75 2 3.75 2 6 C1.01 6.495 1.01 6.495 0 7 C-0.46523063 8.89533342 -0.46523063 8.89533342 -0.625 11.0625 C-0.74875 12.361875 -0.8725 13.66125 -1 15 C-1.66 15 -2.32 15 -3 15 C-2.22095672 4.44191344 -2.22095672 4.44191344 0 0 Z " fill="#78C6DF" transform="translate(113,308)"/>
<path d="M0 0 C0.66 0 1.32 0 2 0 C2 1.32 2 2.64 2 4 C1.34 4 0.68 4 0 4 C-0.33 5.32 -0.66 6.64 -1 8 C-2.65 8 -4.3 8 -6 8 C-4.7260411 5.96166576 -3.38938077 3.96147874 -2 2 C-1.34 2 -0.68 2 0 2 C0 1.34 0 0.68 0 0 Z " fill="#5FB9DC" transform="translate(177,225)"/>
<path d="M0 0 C0.66 0.33 1.32 0.66 2 1 C1.34 3.97 0.68 6.94 0 10 C-0.99 9.67 -1.98 9.34 -3 9 C-2.25 2.25 -2.25 2.25 0 0 Z M-5 8 C-4.34 8.66 -3.68 9.32 -3 10 C-3.66 10.66 -4.32 11.32 -5 12 C-5 10.68 -5 9.36 -5 8 Z " fill="#5DCAEC" transform="translate(312,298)"/>
<path d="M0 0 C1.65 0.99 3.3 1.98 5 3 C4.34 4.65 3.68 6.3 3 8 C1.35 7.67 -0.3 7.34 -2 7 C-2 6.01 -2 5.02 -2 4 C-1.01 4 -0.02 4 1 4 C0.67 2.68 0.34 1.36 0 0 Z " fill="#53BAEB" transform="translate(232,230)"/>
<path d="M0 0 C3.28465896 2.79196011 5.01321958 6.23196817 7 10 C7 10.66 7 11.32 7 12 C6.01 12 5.02 12 4 12 C4 10.35 4 8.7 4 7 C3.34 7 2.68 7 2 7 C2 6.34 2 5.68 2 5 C1.01 4.67 0.02 4.34 -1 4 C-0.67 2.68 -0.34 1.36 0 0 Z " fill="#80CBE5" transform="translate(290,164)"/>
<path d="M0 0 C1.953125 0.5859375 1.953125 0.5859375 4 2 C4.609375 5.0390625 4.609375 5.0390625 4.75 8.625 C4.80671875 9.81351562 4.8634375 11.00203125 4.921875 12.2265625 C4.94765625 13.14179688 4.9734375 14.05703125 5 15 C2.32449708 12.32449708 2.16790611 10.05120106 1.375 6.375 C0.98441406 4.59222656 0.98441406 4.59222656 0.5859375 2.7734375 C0.39257812 1.85820312 0.19921875 0.94296875 0 0 Z " fill="#AEE6F5" transform="translate(245,317)"/>
<path d="M0 0 C2.25056722 0.11433363 4.50046674 0.24186436 6.75 0.375 C8.62945312 0.47941406 8.62945312 0.47941406 10.546875 0.5859375 C13.60998121 0.95323304 15.41974266 1.39711286 18 3 C16.02 3.33 14.04 3.66 12 4 C12 3.34 12 2.68 12 2 C11.38511719 2.02320312 10.77023438 2.04640625 10.13671875 2.0703125 C8.92435547 2.09738281 8.92435547 2.09738281 7.6875 2.125 C6.88699219 2.14820312 6.08648437 2.17140625 5.26171875 2.1953125 C3 2 3 2 0 0 Z " fill="#3CA4D1" transform="translate(212,119)"/>
<path d="M0 0 C0.86625 0.11214844 1.7325 0.22429687 2.625 0.33984375 C3.49125 0.43394531 4.3575 0.52804688 5.25 0.625 C7.87922246 1.3471713 8.91342884 2.19981165 10.625 4.27734375 C9.52091797 4.15166016 9.52091797 4.15166016 8.39453125 4.0234375 C7.41871094 3.92160156 6.44289062 3.81976563 5.4375 3.71484375 C4.47457031 3.61042969 3.51164063 3.50601563 2.51953125 3.3984375 C-0.31733377 3.27975624 -2.62923671 3.59968736 -5.375 4.27734375 C-3.05143979 0.3563359 -3.05143979 0.3563359 0 0 Z " fill="#37A5CF" transform="translate(200.375,204.72265625)"/>
<path d="M0 0 C0.33 0 0.66 0 1 0 C1.33 2.97 1.66 5.94 2 9 C-0.97 8.505 -0.97 8.505 -4 8 C-2.87548273 5.0280615 -1.77706209 2.66559313 0 0 Z " fill="#7BD3F4" transform="translate(312,302)"/>
<path d="M0 0 C3.25195722 4.87793583 3.11325659 9.22391379 3 15 C2.34 14.67 1.68 14.34 1 14 C0.5859375 11.85546875 0.5859375 11.85546875 0.375 9.1875 C0.30023438 8.31480469 0.22546875 7.44210937 0.1484375 6.54296875 C0.02131298 4.36512507 0 2.18155077 0 0 Z " fill="#65C8E6" transform="translate(396,280)"/>
<path d="M0 0 C3.94139078 1.66751148 6.7892812 4.22710649 10 7 C9.01 7.33 8.02 7.66 7 8 C3.61988409 5.77407001 1.48781815 3.78717347 0 0 Z " fill="#88CAE4" transform="translate(260,134)"/>
<path d="M0 0 C2.3129482 2.3129482 2.49580975 3.47904875 3.125 6.625 C3.29257812 7.44226563 3.46015625 8.25953125 3.6328125 9.1015625 C3.81457031 10.04128906 3.81457031 10.04128906 4 11 C3.67 10.34 3.34 9.68 3 9 C2.01 9 1.02 9 0 9 C0 6.03 0 3.06 0 0 Z " fill="#90D2EB" transform="translate(300,183)"/>
<path d="M0 0 C0.99 0 1.98 0 3 0 C2.67257812 0.56203125 2.34515625 1.1240625 2.0078125 1.703125 C0.88214506 4.26859964 0.7931889 5.96842277 0.875 8.75 C0.89304687 9.54921875 0.91109375 10.3484375 0.9296875 11.171875 C0.95289063 11.77515625 0.97609375 12.3784375 1 13 C0.34 13 -0.32 13 -1 13 C-1.02696365 11.20841511 -1.04637917 9.41671527 -1.0625 7.625 C-1.07410156 6.62726563 -1.08570313 5.62953125 -1.09765625 4.6015625 C-1 2 -1 2 0 0 Z " fill="#64C9EA" transform="translate(384,347)"/>
<path d="M0 0 C1.32 0.33 2.64 0.66 4 1 C4.38909985 2.45463481 4.76088029 3.91391207 5.125 5.375 C5.43824219 6.59316406 5.43824219 6.59316406 5.7578125 7.8359375 C5.83773437 8.55007813 5.91765625 9.26421875 6 10 C5.34 10.66 4.68 11.32 4 12 C3.896875 10.906875 3.79375 9.81375 3.6875 8.6875 C3.00272798 5.01463192 2.72080696 4.24762314 0 2 C0 1.34 0 0.68 0 0 Z " fill="#A4DDF2" transform="translate(116,279)"/>
<path d="M0 0 C0.33 0 0.66 0 1 0 C1.08159574 4.16138263 0.98248524 7.9472484 0 12 C-0.66 12 -1.32 12 -2 12 C-2 9.69 -2 7.38 -2 5 C-1.34 5 -0.68 5 0 5 C0 3.35 0 1.7 0 0 Z " fill="#91D9F1" transform="translate(399,314)"/>
<path d="M0 0 C1.32 0.33 2.64 0.66 4 1 C4 3.64 4 6.28 4 9 C3.34 9 2.68 9 2 9 C1.34 6.03 0.68 3.06 0 0 Z " fill="#33A8D2" transform="translate(104,250)"/>
<path d="M0 0 C1 2 1 2 0.375 4.4375 C-1.27706844 7.51635481 -2.91798591 8.45899296 -6 10 C-2.28571429 2.28571429 -2.28571429 2.28571429 0 0 Z " fill="#93D0EA" transform="translate(119,159)"/>
<path d="M0 0 C1.98 0 3.96 0 6 0 C5.01 0.495 5.01 0.495 4 1 C3.3162955 2.32467746 2.65035814 3.65863633 2 5 C1.34 5.66 0.68 6.32 0 7 C0 4.69 0 2.38 0 0 Z " fill="#A4E4F5" transform="translate(313,295)"/>
<path d="M0 0 C0.66 0 1.32 0 2 0 C1.34 3.63 0.68 7.26 0 11 C-0.66 11 -1.32 11 -2 11 C-1.85957123 9.35369672 -1.71250671 7.70795821 -1.5625 6.0625 C-1.48128906 5.14597656 -1.40007812 4.22945313 -1.31640625 3.28515625 C-1 1 -1 1 0 0 Z " fill="#3FAAD4" transform="translate(122,282)"/>
<path d="M0 0 C1.31471568 0.28151087 2.62675767 0.57553339 3.9375 0.875 C4.66839844 1.03742188 5.39929688 1.19984375 6.15234375 1.3671875 C8 2 8 2 9 4 C8.0925 3.814375 7.185 3.62875 6.25 3.4375 C3.31685676 3.04265379 1.7355343 3.05308428 -1 4 C-0.67 2.68 -0.34 1.36 0 0 Z " fill="#90D1EB" transform="translate(144,309)"/>
<path d="M0 0 C1.70884005 1.62339805 3.37446717 3.29319053 5 5 C5 5.66 5 6.32 5 7 C3.0625 6.3125 3.0625 6.3125 1 5 C0.25 2.375 0.25 2.375 0 0 Z " fill="#9EDDF1" transform="translate(384,256)"/>
<path d="M0 0 C1.32 0.33 2.64 0.66 4 1 C4 1.66 4 2.32 4 3 C4.66 3 5.32 3 6 3 C5.67 4.32 5.34 5.64 5 7 C0 1.125 0 1.125 0 0 Z " fill="#98DCF1" transform="translate(261,352)"/>
<path d="M0 0 C-2 2 -2 2 -4.3828125 2.1953125 C-5.28773438 2.17210937 -6.19265625 2.14890625 -7.125 2.125 C-8.49011719 2.09792969 -8.49011719 2.09792969 -9.8828125 2.0703125 C-10.58148438 2.04710937 -11.28015625 2.02390625 -12 2 C-12 1.67 -12 1.34 -12 1 C-10.56496445 0.63597631 -9.12683494 0.28413409 -7.6875 -0.0625 C-6.88699219 -0.25972656 -6.08648437 -0.45695312 -5.26171875 -0.66015625 C-3 -1 -3 -1 0 0 Z " fill="#6AC9EB" transform="translate(302,314)"/>
<path d="M0 0 C0.33 0 0.66 0 1 0 C1 2.64 1 5.28 1 8 C0.34 8 -0.32 8 -1 8 C-1.33 8.66 -1.66 9.32 -2 10 C-1.54177532 6.53058454 -1.10868317 3.32604951 0 0 Z " fill="#A1D8EF" transform="translate(104,186)"/>
</svg>
