<?xml version="1.0" encoding="UTF-8"?>
<svg version="1.1" xmlns="http://www.w3.org/2000/svg" width="225" height="225">
<path d="M0 0 C0.99 0.495 0.99 0.495 2 1 C2.01458252 1.73524902 2.02916504 2.47049805 2.04418945 3.22802734 C2.11939255 6.6108378 2.21581182 9.99273811 2.3125 13.375 C2.33505859 14.53128906 2.35761719 15.68757813 2.38085938 16.87890625 C2.83419734 31.46814635 7.05633962 42.62336691 17.75 52.875 C25.8227018 59.76271805 34.50754364 62.87124218 44.953125 63.53515625 C45.61334656 63.57813339 46.27356812 63.62111053 46.95379639 63.66539001 C49.05232656 63.80120339 51.15113819 63.93192232 53.25 64.0625 C54.67710494 64.15396033 56.10418859 64.24575352 57.53125 64.33789062 C61.02059502 64.56244962 64.51021066 64.78244235 68 65 C64.76365978 66.91531722 62.37032023 67.23988754 58.6328125 67.23828125 C57.58875244 67.25060791 56.54469238 67.26293457 55.46899414 67.27563477 C54.36547607 67.28780029 53.26195801 67.29996582 52.125 67.3125 C37.43839258 67.71448461 25.69727072 70.11701278 15 81 C3.76371348 93.67983722 1.79581879 107.19416217 2.0625 123.51171875 C2.00871808 126.51342212 1.71075626 129.09589433 1 132 C0.67 132 0.34 132 0 132 C-0.04898438 130.69546875 -0.09796875 129.3909375 -0.1484375 128.046875 C-0.93884821 108.80802049 -2.04117072 92.11080773 -16.91015625 78.21484375 C-24.63127624 72.01575152 -33.81714552 67.99060752 -43.71875 67.75390625 C-45.36423828 67.70459961 -45.36423828 67.70459961 -47.04296875 67.65429688 C-49.3475559 67.59310162 -51.65225001 67.53580946 -53.95703125 67.48242188 C-55.05402344 67.44826172 -56.15101562 67.41410156 -57.28125 67.37890625 C-58.78268555 67.34132202 -58.78268555 67.34132202 -60.31445312 67.30297852 C-63.0050226 66.99943336 -64.69068418 66.37261504 -67 65 C-62.31173631 64.41159444 -57.70969724 63.94382132 -52.984375 63.859375 C-36.89495815 63.56435167 -25.21814097 60.89078634 -13.29296875 49.34765625 C-1.38715505 36.53760354 -0.74502453 20.07246808 -1.0625 3.484375 C-1 1 -1 1 0 0 Z " fill="#F8C547" transform="translate(112,78)"/>
<path d="M0 0 C0.66 0.33 1.32 0.66 2 1 C2.02578125 2.25554688 2.0515625 3.51109375 2.078125 4.8046875 C2.41642016 16.13248386 2.80796471 26.74245933 11.07421875 35.3984375 C19.41799791 42.33748305 27.75528575 43.73573847 38.21484375 43.89453125 C41.31834403 43.98100649 43.99934595 44.26598482 47 45 C47 45.33 47 45.66 47 46 C43.07100638 46.7565143 39.28809147 47.0913819 35.2902832 47.1887207 C27.47718594 47.42338475 21.65306055 48.59975797 15 53 C14.0925 53.556875 13.185 54.11375 12.25 54.6875 C6.51737337 60.57936626 3.07089854 67.35814525 2.68359375 75.546875 C2.62075195 76.81337891 2.62075195 76.81337891 2.55664062 78.10546875 C2.51732422 78.97816406 2.47800781 79.85085937 2.4375 80.75 C2.39431641 81.63816406 2.35113281 82.52632813 2.30664062 83.44140625 C2.20086385 85.62745963 2.09877454 87.81362089 2 90 C1.34 90 0.68 90 0 90 C-1.26380498 87.47239004 -0.98495087 85.41366143 -0.8828125 82.64282227 C-0.54543055 72.36087304 -2.05942669 65.25114908 -8.75 57.125 C-18.61840618 46.76317351 -31.58148074 46.61881521 -45 46 C-45 45.67 -45 45.34 -45 45 C-44.410979 44.96036133 -43.82195801 44.92072266 -43.21508789 44.87988281 C-40.49603749 44.68705369 -37.77958885 44.46867918 -35.0625 44.25 C-34.13630859 44.188125 -33.21011719 44.12625 -32.25585938 44.0625 C-22.00301104 43.19910225 -13.95849634 39.70134236 -7 32 C-3.09534774 26.61293634 -1.30603648 21.6483787 -1 15 C-0.86162883 13.03071762 -0.72316458 11.06144126 -0.58300781 9.09228516 C-0.37229985 6.06247435 -0.18551843 3.03145001 0 0 Z " fill="#F8C54A" transform="translate(55,16)"/>
<path d="M0 0 C2 2 2 2 2.08984375 4.1015625 C2.03957031 4.93429688 1.98929688 5.76703125 1.9375 6.625 C1.81869995 12.95795667 3.43693607 17.35481489 6.625 22.75 C13.53535585 29.29665291 21.85274515 29.71724096 31 30 C30.67 30.66 30.34 31.32 30 32 C27.81748419 32.18064242 25.62703437 32.26838425 23.4375 32.3125 C15.40696969 32.77815639 11.27739081 34.80885631 5.625 40.3125 C2.80033358 44.98406369 2 49.38399917 2 54.8125 C2 58 2 58 0 61 C-0.10957031 59.98679688 -0.21914062 58.97359375 -0.33203125 57.9296875 C-0.49159893 56.57805539 -0.65178833 55.22649657 -0.8125 53.875 C-0.88275391 53.20984375 -0.95300781 52.5446875 -1.02539062 51.859375 C-1.66073985 46.67492529 -2.89444194 42.31330645 -6.46484375 38.390625 C-12.93800034 33.37693342 -17.06193431 32.70580937 -25.19921875 32.34375 C-26.12347656 32.2303125 -27.04773438 32.116875 -28 32 C-28.33 31.34 -28.66 30.68 -29 30 C-27.515 29.87044922 -27.515 29.87044922 -26 29.73828125 C-15.08014357 28.72192575 -15.08014357 28.72192575 -6 23 C-2.09729352 17.98387432 -0.95475505 13.08486931 -1 6.875 C-1 3 -1 3 0 0 Z " fill="#F6C851" transform="translate(182,62)"/>
<path d="M0 0 C1.57445921 2.55849622 2.01171601 3.82035454 1.8125 6.875 C2.07730076 11.28834592 3.89290167 12.9619483 7 16 C11.06805083 18.30889372 15.41198688 18.53342239 20 19 C16.9489836 21.03401093 15.5800193 21.33115525 12.0625 21.8125 C8.32071514 22.49431211 7.25036383 22.75574261 4.4375 25.5 C2.56062041 28.76413841 1.81064498 30.89355023 1.4375 34.625 C1.31181641 35.85089844 1.31181641 35.85089844 1.18359375 37.1015625 C1.12300781 37.72804687 1.06242187 38.35453125 1 39 C0.34 38.67 -0.32 38.34 -1 38 C-1.23828125 36.14453125 -1.23828125 36.14453125 -1.3125 33.8125 C-1.79132307 28.62800188 -3.15419016 26.50396007 -7 23 C-11.19539553 21.08471074 -15.43919781 20.54729626 -20 20 C-20 19.67 -20 19.34 -20 19 C-19.19175781 18.91363281 -18.38351563 18.82726562 -17.55078125 18.73828125 C-10.57133318 18.06468564 -10.57133318 18.06468564 -4.8125 14.5 C-1.96007697 10.5656234 -1.70631093 7.74007733 -1.28125 2.99609375 C-1 1 -1 1 0 0 Z " fill="#F4D993" transform="translate(151,21)"/>
<path d="M0 0 C2.87959681 1.06956453 4.82435249 2.87350717 7.1875 4.8125 C9.71310108 5.65436703 11.76082877 6.07501314 14.375 6.375 C15.633125 6.519375 16.89125 6.66375 18.1875 6.8125 C15.28280129 8.74896581 13.88815112 9.22127313 10.5625 9.8125 C7.88658138 10.28978373 5.28857624 10.78393497 2.671875 11.5234375 C0.46996795 12.14317955 -1.52860019 12.67295419 -3.8125 12.8125 C-6.375 11.0625 -6.375 11.0625 -7.8125 8.8125 C-7.8125 8.1525 -7.8125 7.4925 -7.8125 6.8125 C-6.8225 6.8125 -5.8325 6.8125 -4.8125 6.8125 C-4.68875 5.843125 -4.565 4.87375 -4.4375 3.875 C-4.23125 2.864375 -4.025 1.85375 -3.8125 0.8125 C-1.8125 -0.1875 -1.8125 -0.1875 0 0 Z " fill="#F2C653" transform="translate(152.8125,33.1875)"/>
<path d="M0 0 C0.66 0.33 1.32 0.66 2 1 C2.02578125 2.25554688 2.0515625 3.51109375 2.078125 4.8046875 C2.44012477 16.84689245 3.70087647 26.09404664 11 36 C7.59783062 35.39246975 5.73127371 34.04845528 3 32 C0.85266073 31.29485154 0.85266073 31.29485154 -1 31 C-0.67 30.01 -0.34 29.02 0 28 C-0.66 27.67 -1.32 27.34 -2 27 C-1.93941406 26.30777344 -1.87882812 25.61554687 -1.81640625 24.90234375 C-1.10601732 16.60718687 -0.53344276 8.30808728 0 0 Z " fill="#F5C344" transform="translate(55,16)"/>
<path d="M0 0 C0.99 0.33 1.98 0.66 3 1 C2.65066406 1.53109375 2.30132812 2.0621875 1.94140625 2.609375 C1.48636719 3.31578125 1.03132813 4.0221875 0.5625 4.75 C0.11003906 5.44609375 -0.34242187 6.1421875 -0.80859375 6.859375 C-2.73883752 10.32748512 -3.13067717 13.62003163 -3.31640625 17.546875 C-3.35830078 18.39121094 -3.40019531 19.23554687 -3.44335938 20.10546875 C-3.48267578 20.97816406 -3.52199219 21.85085937 -3.5625 22.75 C-3.62727539 24.08224609 -3.62727539 24.08224609 -3.69335938 25.44140625 C-3.79913615 27.62745963 -3.90122546 29.81362089 -4 32 C-4.66 32 -5.32 32 -6 32 C-7.51928706 28.96142587 -6.96900824 25.82364601 -6.875 22.5 C-6.76156633 15.86114538 -7.48774407 10.22082421 -10 4 C-7.36 4.33 -4.72 4.66 -2 5 C-2 4.01 -2 3.02 -2 2 C-1.34 2 -0.68 2 0 2 C0 1.34 0 0.68 0 0 Z " fill="#F3CF76" transform="translate(61,74)"/>
<path d="M0 0 C0.66 0.33 1.32 0.66 2 1 C1.01 1.33 0.02 1.66 -1 2 C-1 2.66 -1 3.32 -1 4 C-1.99 4.33 -2.98 4.66 -4 5 C-1.03 5.99 1.94 6.98 5 8 C5 8.99 5 9.98 5 11 C4.27425781 10.70222656 3.54851563 10.40445313 2.80078125 10.09765625 C-7.04744913 6.238029 -16.54287036 5.38049782 -27 5 C-27 4.67 -27 4.34 -27 4 C-26.09290283 3.92483154 -26.09290283 3.92483154 -25.16748047 3.84814453 C-22.40261836 3.61469552 -19.63886633 3.36994583 -16.875 3.125 C-15.92367188 3.04636719 -14.97234375 2.96773437 -13.9921875 2.88671875 C-9.00893479 2.43684177 -4.74069351 1.68120441 0 0 Z " fill="#F3E0AC" transform="translate(37,57)"/>
<path d="M0 0 C0.66 0 1.32 0 2 0 C1.67 2.31 1.34 4.62 1 7 C0.34 7 -0.32 7 -1 7 C-0.9071875 8.8871875 -0.9071875 8.8871875 -0.8125 10.8125 C-0.67439419 13.62065146 -0.64839787 14.59025178 -2.51171875 16.76171875 C-3.00285156 17.17035156 -3.49398437 17.57898438 -4 18 C-6.48063781 8.58997722 -6.48063781 8.58997722 -5 4 C-4.01 4.33 -3.02 4.66 -2 5 C-1.34 3.35 -0.68 1.7 0 0 Z " fill="#F7C441" transform="translate(116,163)"/>
<path d="M0 0 C19.34042553 -0.19148936 19.34042553 -0.19148936 29 1 C25.6816923 2.98960773 23.20040301 3.2361745 19.359375 3.1953125 C18.28945312 3.18886719 17.21953125 3.18242187 16.1171875 3.17578125 C15.00601563 3.15902344 13.89484375 3.14226562 12.75 3.125 C11.62335938 3.11597656 10.49671875 3.10695312 9.3359375 3.09765625 C6.55707635 3.07410658 3.7786461 3.0412168 1 3 C0.67 2.01 0.34 1.02 0 0 Z " fill="#F5EFD6" transform="translate(151,142)"/>
<path d="M0 0 C0.99 0.33 1.98 0.66 3 1 C3.66 0.67 4.32 0.34 5 0 C4.0125055 22.80127986 4.0125055 22.80127986 3 32 C2.67 32 2.34 32 2 32 C1.93941406 30.69546875 1.87882812 29.3909375 1.81640625 28.046875 C1.37101374 18.6801898 0.89191377 9.33662921 0 0 Z " fill="#F0DEAB" transform="translate(110,178)"/>
<path d="M0 0 C0 1.32 0 2.64 0 4 C0.99 4.33 1.98 4.66 3 5 C2.01 5.33 1.02 5.66 0 6 C-0.33 7.98 -0.66 9.96 -1 12 C-1.99 12.33 -2.98 12.66 -4 13 C-5.37562854 11.71034824 -6.70766393 10.37310707 -8 9 C-8 8.34 -8 7.68 -8 7 C-7.01 7 -6.02 7 -5 7 C-4.87625 6.030625 -4.7525 5.06125 -4.625 4.0625 C-4.41875 3.051875 -4.2125 2.04125 -4 1 C-2 0 -2 0 0 0 Z " fill="#F6C442" transform="translate(153,33)"/>
<path d="M0 0 C2 2 2 2 2.08984375 4.03125 C2.03957031 4.8459375 1.98929688 5.660625 1.9375 6.5 C1.79881096 12.09651062 3.12916742 16.76612314 5 22 C3.02 20.68 1.04 19.36 -1 18 C-1 18.66 -1 19.32 -1 20 C-1.66 20 -2.32 20 -3 20 C-2.855625 19.443125 -2.71125 18.88625 -2.5625 18.3125 C-1.27978303 13.03910802 -0.9066476 8.41443919 -1 3 C-0.67 2.01 -0.34 1.02 0 0 Z " fill="#F8E7BD" transform="translate(182,62)"/>
<path d="M0 0 C0.845625 0.350625 1.69125 0.70125 2.5625 1.0625 C6.45017533 2.12277509 9.08425639 1.78314872 13 1 C12.360625 1.969375 11.72125 2.93875 11.0625 3.9375 C8.61648472 8.1553638 8.21790511 12.19519242 8 17 C7.34 16.67 6.68 16.34 6 16 C5.76171875 14.1796875 5.76171875 14.1796875 5.6875 11.875 C5.25140827 6.63351284 3.31876389 3.99953597 0 0 Z " fill="#F8DB96" transform="translate(144,43)"/>
<path d="M0 0 C1.65 0 3.3 0 5 0 C4.62488281 0.4846875 4.24976563 0.969375 3.86328125 1.46875 C-3.43673798 10.99774095 -3.43673798 10.99774095 -8 22 C-8.33 22 -8.66 22 -9 22 C-9 19.36 -9 16.72 -9 14 C-8.34 14 -7.68 14 -7 14 C-6.34 11.69 -5.68 9.38 -5 7 C-4.34 7 -3.68 7 -3 7 C-3 6.34 -3 5.68 -3 5 C-2.34 5 -1.68 5 -1 5 C-0.67 3.35 -0.34 1.7 0 0 Z " fill="#F3D179" transform="translate(124,156)"/>
<path d="M0 0 C0 0.99 0 1.98 0 3 C-3.74993479 3.05811773 -7.49975352 3.09363593 -11.25 3.125 C-12.84521484 3.15013672 -12.84521484 3.15013672 -14.47265625 3.17578125 C-16.00986328 3.18544922 -16.00986328 3.18544922 -17.578125 3.1953125 C-18.99206543 3.21102295 -18.99206543 3.21102295 -20.43457031 3.22705078 C-23.09951941 2.99119213 -24.71863092 2.35661659 -27 1 C-18.02243049 -0.3300103 -9.05168034 -0.08788039 0 0 Z " fill="#FCF9E8" transform="translate(72,142)"/>
<path d="M0 0 C6.27 0.66 12.54 1.32 19 2 C18.67 2.66 18.34 3.32 18 4 C14.98046875 4.37890625 14.98046875 4.37890625 11.1875 4.5625 C5.51935485 4.81482261 5.51935485 4.81482261 0 6 C0 4 0 2 0 0 Z " fill="#F6E7BC" transform="translate(194,90)"/>
<path d="M0 0 C0.66 0.33 1.32 0.66 2 1 C2 9.25 2 17.5 2 26 C1.67 26 1.34 26 1 26 C0.67 22.04 0.34 18.08 0 14 C-0.33 14 -0.66 14 -1 14 C-1.02685938 11.85423363 -1.04633088 9.70837355 -1.0625 7.5625 C-1.07410156 6.36753906 -1.08570312 5.17257813 -1.09765625 3.94140625 C-1 1 -1 1 0 0 Z " fill="#FBF8EA" transform="translate(112,78)"/>
<path d="M0 0 C2 3 2 3 1.625 5.1875 C1.41875 5.785625 1.2125 6.38375 1 7 C0.278125 7.103125 -0.44375 7.20625 -1.1875 7.3125 C-4.08373529 7.86165776 -4.08373529 7.86165776 -6.5625 9.625 C-9 11 -9 11 -11.15234375 10.5859375 C-11.76207031 10.39257812 -12.37179688 10.19921875 -13 10 C-12.31292969 9.52949219 -11.62585938 9.05898437 -10.91796875 8.57421875 C-10.01691406 7.95160156 -9.11585937 7.32898438 -8.1875 6.6875 C-7.29417969 6.07261719 -6.40085937 5.45773438 -5.48046875 4.82421875 C-3.43899254 3.32284963 -1.71537213 1.85214599 0 0 Z " fill="#F4D278" transform="translate(99,127)"/>
<path d="M0 0 C-6.625 3 -6.625 3 -10 3 C-10 3.99 -10 4.98 -10 6 C-9.34 6.33 -8.68 6.66 -8 7 C-8.81726563 6.84660156 -9.63453125 6.69320312 -10.4765625 6.53515625 C-14.44624772 5.9322218 -18.36946033 5.65842036 -22.375 5.4375 C-23.47908203 5.37272461 -23.47908203 5.37272461 -24.60546875 5.30664062 C-26.40348068 5.20156201 -28.20171958 5.10037907 -30 5 C-30 4.67 -30 4.34 -30 4 C-28.47632813 3.96132812 -28.47632813 3.96132812 -26.921875 3.921875 C-18.80735452 3.61928625 -11.90381196 2.76308647 -4.2578125 -0.2578125 C-2 -1 -2 -1 0 0 Z " fill="#ECD699" transform="translate(86,139)"/>
<path d="M0 0 C0.33 0 0.66 0 1 0 C1 5.94 1 11.88 1 18 C0.34 18 -0.32 18 -1 18 C-2.41693757 15.16612485 -2.1699013 12.71970627 -2.1875 9.5625 C-2.20167969 8.40878906 -2.21585938 7.25507812 -2.23046875 6.06640625 C-2 3 -2 3 0 0 Z " fill="#F9F4EC" transform="translate(56,88)"/>
<path d="M0 0 C-2.05233685 2.2477975 -3.00667261 3.0022242 -6 4 C-6.99 5.485 -6.99 5.485 -8 7 C-10.4375 6.625 -10.4375 6.625 -13 6 C-13.33 5.34 -13.66 4.68 -14 4 C-12.68 4 -11.36 4 -10 4 C-10 3.34 -10 2.68 -10 2 C-3.375 -1.125 -3.375 -1.125 0 0 Z " fill="#F5C442" transform="translate(46,57)"/>
<path d="M0 0 C0.66 0.33 1.32 0.66 2 1 C2 6.61 2 12.22 2 18 C-1 15 -1 15 -1.07421875 11.42578125 C-0.96149977 10.05326192 -0.83199844 8.68203828 -0.6875 7.3125 C-0.62626953 6.61060547 -0.56503906 5.90871094 -0.50195312 5.18554688 C-0.34897376 3.4557033 -0.17637398 1.72761503 0 0 Z " fill="#F7F4E7" transform="translate(55,16)"/>
<path d="M0 0 C-3.75453071 1.9467937 -7.62640177 3.46396167 -11.5625 5 C-13.770342 5.90578133 -15.88247425 6.90202369 -18 8 C-18 6.68 -18 5.36 -18 4 C-16.68 4 -15.36 4 -14 4 C-14 3.34 -14 2.68 -14 2 C-9.126739 0.4087311 -5.19209404 -0.21192221 0 0 Z " fill="#F4CC6E" transform="translate(151,145)"/>
<path d="M0 0 C2.39591038 -0.02712351 4.79150957 -0.0468982 7.1875 -0.0625 C7.86103516 -0.07087891 8.53457031 -0.07925781 9.22851562 -0.08789062 C12.95434131 -0.10606538 16.3788042 0.10700608 20 1 C20 1.33 20 1.66 20 2 C15.48184719 2.88277755 11.22487306 3.10589503 6.625 3.0625 C4.75714844 3.04896484 4.75714844 3.04896484 2.8515625 3.03515625 C1.44003906 3.01775391 1.44003906 3.01775391 0 3 C0 2.01 0 1.02 0 0 Z " fill="#FCF9EF" transform="translate(82,60)"/>
<path d="M0 0 C1.3921875 0.4640625 1.3921875 0.4640625 2.8125 0.9375 C7.77871546 2.3783156 12.86205306 2.64694036 18 3 C18 3.33 18 3.66 18 4 C16.93072266 4.07347656 16.93072266 4.07347656 15.83984375 4.1484375 C10.29491509 4.58128523 5.27913551 5.24028816 0 7 C-0.33 6.34 -0.66 5.68 -1 5 C0.32 4.67 1.64 4.34 3 4 C2.2575 3.2884375 2.2575 3.2884375 1.5 2.5625 C0 1 0 1 0 0 Z " fill="#EDD189" transform="translate(75,58)"/>
<path d="M0 0 C2.60018816 3.90028225 2.15085514 7.47434569 2 12 C0.02 12.99 -1.96 13.98 -4 15 C-3.5359375 14.0409375 -3.5359375 14.0409375 -3.0625 13.0625 C-1.87185493 9.63064067 -1.53838593 6.49357354 -1.24609375 2.890625 C-1 1 -1 1 0 0 Z " fill="#F3D890" transform="translate(151,21)"/>
<path d="M0 0 C0.98484375 0.00902344 1.9696875 0.01804687 2.984375 0.02734375 C4.10585937 0.04474609 4.10585937 0.04474609 5.25 0.0625 C4.26 1.5475 4.26 1.5475 3.25 3.0625 C0.4296875 3.35546875 0.4296875 3.35546875 -2.875 3.25 C-4.51855469 3.20939453 -4.51855469 3.20939453 -6.1953125 3.16796875 C-7.03835937 3.13316406 -7.88140625 3.09835938 -8.75 3.0625 C-9.08 2.4025 -9.41 1.7425 -9.75 1.0625 C-6.43929162 0.06140485 -3.44915231 -0.04106134 0 0 Z " fill="#F9F2E3" transform="translate(162.75,90.9375)"/>
<path d="M0 0 C0.66 4.29 1.32 8.58 2 13 C1.01 12.67 0.02 12.34 -1 12 C-1.94921875 9.71484375 -1.94921875 9.71484375 -2.6875 6.9375 C-2.93886719 6.01839844 -3.19023438 5.09929687 -3.44921875 4.15234375 C-3.63097656 3.44207031 -3.81273438 2.73179687 -4 2 C-1 0 -1 0 0 0 Z " fill="#F2CC68" transform="translate(110,166)"/>
<path d="M0 0 C3.80635497 3.20760251 7.54563567 6.40746109 11 10 C9.68 10 8.36 10 7 10 C7 9.34 7 8.68 7 8 C5.02 7.34 3.04 6.68 1 6 C0.67 4.02 0.34 2.04 0 0 Z " fill="#F2D585" transform="translate(123,125)"/>
<path d="M0 0 C0.66 0 1.32 0 2 0 C3.4606285 2.64738916 4 3.89448334 4 7 C2.35 7 0.7 7 -1 7 C-1.625 5.1875 -1.625 5.1875 -2 3 C-1.34 2.01 -0.68 1.02 0 0 Z " fill="#F6C53D" transform="translate(55,72)"/>
<path d="M0 0 C2.99972349 3.78912441 5.47510809 7.88831832 8 12 C2.92246537 10.83792506 2.92246537 10.83792506 1 8 C0.44924444 5.32036238 0.22437009 2.73731507 0 0 Z " fill="#F2D276" transform="translate(58,40)"/>
<path d="M0 0 C1.91740583 0.78987473 3.83389641 1.58197148 5.75 2.375 C7.35101563 3.03628906 7.35101563 3.03628906 8.984375 3.7109375 C11.37555926 4.73307585 13.69383183 5.80213595 16 7 C11.94568308 8.15837626 9.78187881 7.83691257 6 6 C6 5.34 6 4.68 6 4 C4.68 4 3.36 4 2 4 C2 3.34 2 2.68 2 2 C1.34 2 0.68 2 0 2 C0 1.34 0 0.68 0 0 Z " fill="#F5D484" transform="translate(134,135)"/>
<path d="M0 0 C1.20930281 3.97097304 0.56147135 6.13741297 -1 10 C-1.99 11.485 -1.99 11.485 -3 13 C-3.99 13 -4.98 13 -6 13 C-4.31326082 8.50202887 -2.18326108 4.27113698 0 0 Z " fill="#F4D682" transform="translate(108,112)"/>
<path d="M0 0 C-3.21182149 1.90608098 -5.53882603 2.22266247 -9.25 2.125 C-10.14203125 2.10695312 -11.0340625 2.08890625 -11.953125 2.0703125 C-12.96632812 2.03550781 -12.96632812 2.03550781 -14 2 C-14 1.34 -14 0.68 -14 0 C-9.72000646 -2.13999677 -4.50951645 -1.09321611 0 0 Z " fill="#F0C252" transform="translate(156,143)"/>
<path d="M0 0 C1.59035502 3.18071004 2.64848268 5.87657653 3.625 9.25 C3.88539062 10.14203125 4.14578125 11.0340625 4.4140625 11.953125 C4.60742188 12.62859375 4.80078125 13.3040625 5 14 C4.34 14 3.68 14 3 14 C3 13.34 3 12.68 3 12 C2.01 12.33 1.02 12.66 0 13 C0 8.71 0 4.42 0 0 Z " fill="#F4D480" transform="translate(114,105)"/>
<path d="M0 0 C0.99 0.33 1.98 0.66 3 1 C2.67 1.99 2.34 2.98 2 4 C1.34 4 0.68 4 0 4 C-0.598125 4.639375 -1.19625 5.27875 -1.8125 5.9375 C-4.26700181 8.25174456 -5.70523261 8.63391473 -9 9 C-9 8.34 -9 7.68 -9 7 C-8.071875 6.5875 -7.14375 6.175 -6.1875 5.75 C-3.11945319 4.06558214 -1.80959535 2.91545917 0 0 Z " fill="#F6C541" transform="translate(179,84)"/>
<path d="M0 0 C0.33 1.32 0.66 2.64 1 4 C-3.296875 8.00390625 -3.296875 8.00390625 -5 9 C-6.32 8.67 -7.64 8.34 -9 8 C-6.03 5.36 -3.06 2.72 0 0 Z " fill="#F2D98B" transform="translate(48,48)"/>
<path d="M0 0 C2.6843999 2.32317459 2.97569899 2.72782863 3.3125 6.5 C3 10 3 10 1 13 C0.1276588 10.00519083 -0.10829766 7.36424089 -0.0625 4.25 C-0.05347656 3.45078125 -0.04445312 2.6515625 -0.03515625 1.828125 C-0.02355469 1.22484375 -0.01195312 0.6215625 0 0 Z " fill="#F8F7EF" transform="translate(181,110)"/>
<path d="M0 0 C0 0.99 0 1.98 0 3 C-2.59688473 5.59688473 -4.10659265 6.92058601 -7.8125 7.25 C-8.534375 7.1675 -9.25625 7.085 -10 7 C-6.80331012 4.3513141 -3.60513403 2.06007659 0 0 Z " fill="#F4D283" transform="translate(178,84)"/>
<path d="M0 0 C0.66 0.33 1.32 0.66 2 1 C1.67 1.66 1.34 2.32 1 3 C1.99 3.99 2.98 4.98 4 6 C3.01 6.495 3.01 6.495 2 7 C1.01 6.67 0.02 6.34 -1 6 C-1 5.34 -1 4.68 -1 4 C-1.66 4 -2.32 4 -3 4 C-3 3.01 -3 2.02 -3 1 C-2.01 0.67 -1.02 0.34 0 0 Z " fill="#F3CA69" transform="translate(79,141)"/>
<path d="M0 0 C0.33 0.66 0.66 1.32 1 2 C1.66 2.33 2.32 2.66 3 3 C2.01 4.485 2.01 4.485 1 6 C-0.32 5.67 -1.64 5.34 -3 5 C-3 3.68 -3 2.36 -3 1 C-2.01 0.67 -1.02 0.34 0 0 Z " fill="#F7C349" transform="translate(193,90)"/>
<path d="M0 0 C2.62386487 3.06117568 3 3.73173127 3 8 C2.01 8.33 1.02 8.66 0 9 C-1.125 3.375 -1.125 3.375 0 0 Z " fill="#EED07B" transform="translate(55,32)"/>
<path d="M0 0 C1.98 0.66 3.96 1.32 6 2 C4.3545622 3.68762851 2.68711423 5.3540349 1 7 C0.67 7 0.34 7 0 7 C0 4.69 0 2.38 0 0 Z " fill="#F5D274" transform="translate(188,94)"/>
<path d="M0 0 C1.32 0 2.64 0 4 0 C4 2.31 4 4.62 4 7 C3.34 7 2.68 7 2 7 C0.5393715 4.35261084 0 3.10551666 0 0 Z " fill="#F0D387" transform="translate(180,105)"/>
<path d="M0 0 C1.5027237 0.97498145 3.00211963 1.95509389 4.5 2.9375 C5.3353125 3.48277344 6.170625 4.02804688 7.03125 4.58984375 C7.6809375 5.05519531 8.330625 5.52054688 9 6 C9 6.33 9 6.66 9 7 C7.35 7 5.7 7 4 7 C4 6.34 4 5.68 4 5 C2.68 4.67 1.36 4.34 0 4 C0 2.68 0 1.36 0 0 Z " fill="#F5DB95" transform="translate(153,33)"/>
<path d="M0 0 C2.64 0.33 5.28 0.66 8 1 C4.3558226 3.4294516 2.28758728 3.16179575 -2 3 C-1.34 2.67 -0.68 2.34 0 2 C0 1.34 0 0.68 0 0 Z " fill="#FAF7E7" transform="translate(163,39)"/>
<path d="M0 0 C-3.50538557 1.96301592 -7.13351728 2.95902388 -11 4 C-10.67 3.01 -10.34 2.02 -10 1 C-6.52674819 -0.1577506 -3.63932552 -0.06866652 0 0 Z " fill="#F2DA87" transform="translate(151,145)"/>
<path d="M0 0 C2.4375 0.625 2.4375 0.625 5 2 C5.8125 5.125 5.8125 5.125 6 8 C1.125 3.375 1.125 3.375 0 0 Z " fill="#F4D787" transform="translate(100,160)"/>
<path d="M0 0 C0.33 0 0.66 0 1 0 C1.33 3.63 1.66 7.26 2 11 C1.01 11.33 0.02 11.66 -1 12 C-0.67 8.04 -0.34 4.08 0 0 Z " fill="#F0E0B4" transform="translate(182,66)"/>
<path d="M0 0 C2.97 1.65 5.94 3.3 9 5 C8.01 5.66 7.02 6.32 6 7 C6 6.34 6 5.68 6 5 C4.35 4.67 2.7 4.34 1 4 C0.67 2.68 0.34 1.36 0 0 Z " fill="#F5D588" transform="translate(66,52)"/>
<path d="M0 0 C1.42944945 2.35438733 2.08661261 3.48032433 1.625 6.25 C1.41875 6.8275 1.2125 7.405 1 8 C0.34 8 -0.32 8 -1 8 C-1.04241723 5.66705225 -1.04092937 3.33297433 -1 1 C-0.67 0.67 -0.34 0.34 0 0 Z " fill="#FEF6EE" transform="translate(151,21)"/>
<path d="M0 0 C2 2 2 2 2.125 5.625 C2.08375 6.73875 2.0425 7.8525 2 9 C1.01 8.67 0.02 8.34 -1 8 C-0.67 5.36 -0.34 2.72 0 0 Z " fill="#EEC355" transform="translate(112,102)"/>
</svg>
